<?xml version="1.0" encoding="utf-8"?>
<!-- Generator: Adobe Illustrator 19.0.0, SVG Export Plug-In . SVG Version: 6.00 Build 0)  -->
<svg version="1.1" id="Слой_1" xmlns="http://www.w3.org/2000/svg" xmlns:xlink="http://www.w3.org/1999/xlink" x="0px" y="0px"
	 viewBox="0 0 500 500" style="enable-background:new 0 0 500 500;" xml:space="preserve">
<style type="text/css">
	.st0{fill:#FFFFFF;}
</style>
<g id="XMLID_2_">
	<path id="XMLID_3_" class="st0" d="M466.9,425.9l-116-116c21.2-29.8,33.8-66.2,33.8-105.5c0-100.5-81.8-182.2-182.2-182.2
		S20.2,104,20.2,204.4S102,386.7,202.4,386.7c39.3,0,75.7-12.5,105.5-33.8l116,116c5.9,5.9,13.7,8.9,21.5,8.9s15.6-3,21.5-8.9
		C478.8,457,478.8,437.8,466.9,425.9z M202.4,325.9c-67.1,0-121.5-54.4-121.5-121.5S135.3,82.9,202.4,82.9s121.5,54.4,121.5,121.5
		S269.5,325.9,202.4,325.9z"/>
</g>
</svg>
