<?xml version="1.0" encoding="utf-8"?>
<!-- Generator: Adobe Illustrator 19.0.0, SVG Export Plug-In . SVG Version: 6.00 Build 0)  -->
<svg version="1.1" id="Слой_1" xmlns="http://www.w3.org/2000/svg" xmlns:xlink="http://www.w3.org/1999/xlink" x="0px" y="0px"
	 viewBox="-79 -75 420 310" style="enable-background:new -79 -75 420 310;" xml:space="preserve">
<style type="text/css">
	.st0{fill:none;stroke:#F44336;stroke-width:2;stroke-miterlimit:10;}
	.st1{fill:none;stroke:#EC398C;stroke-width:2;stroke-miterlimit:10;}
	.st2{fill:#F9C4DE;stroke:#EC398C;stroke-width:2;stroke-miterlimit:10;}
</style>
<g>
	<path id="XMLID_262_" class="st0" d="M290.9,18.5H108.8c-6.3,0-12,4.7-12,11v131.8c0,6.3,5.7,11.1,12,11.1h69v44h-6v8h56v-8h-5v-44
		h68.1c6.3,0,11.9-4.8,11.9-11.1V29.5C302.8,23.2,297.2,18.5,290.9,18.5z"/>
	<path id="XMLID_269_" class="st0" d="M73.9,127.9c-18.5,21.3-93.1,20.1-112.8,0c-4.6-4.7,0.6-33.1,0-26.5
		c-2.1,21.7,102.4,26.5,112.8,0C76.4,95.2,78.3,122.9,73.9,127.9z"/>
	<g>
		<path id="XMLID_268_" class="st0" d="M73.9,157.7c-18.5,21.3-93.1,20.1-112.8,0c-4.6-4.7,0.6-33.1,0-26.5
			c-2.1,21.7,102.4,26.5,112.8,0C76.4,125.1,78.3,152.7,73.9,157.7z"/>
		<ellipse id="XMLID_267_" class="st0" cx="18.1" cy="91.6" rx="56.2" ry="23.2"/>
	</g>
	<path id="XMLID_266_" class="st0" d="M73.9,188.2c-18.5,21.3-93.1,20.1-112.8,0c-4.6-4.7,0.6-33.1,0-26.5
		c-2.1,21.7,102.4,26.5,112.8,0C76.4,155.6,78.3,183.2,73.9,188.2z"/>
	<rect id="XMLID_289_" x="43.7" y="26.5" class="st0" width="16.2" height="16.2"/>
	<rect id="XMLID_287_" x="64.6" y="3.8" class="st0" width="16.2" height="16.2"/>
	<rect id="XMLID_285_" x="22.9" y="3.8" class="st0" width="16.2" height="16.2"/>
	<rect id="XMLID_282_" x="43.7" y="-19" class="st0" width="16.2" height="16.2"/>
	<rect id="XMLID_281_" x="22.9" y="-19" class="st0" width="16.2" height="16.2"/>
	<rect id="XMLID_280_" x="106.3" y="-41.7" class="st0" width="16.2" height="16.2"/>
	<rect id="XMLID_276_" x="22.9" y="-41.7" class="st0" width="16.2" height="16.2"/>
	<rect id="XMLID_275_" x="106.3" y="-64.4" class="st0" width="16.2" height="16.2"/>
	<rect id="XMLID_274_" x="85.5" y="-64.4" class="st0" width="16.2" height="16.2"/>
	<rect id="XMLID_273_" x="64.6" y="-64.4" class="st0" width="16.2" height="16.2"/>
	<rect id="XMLID_121_" x="22.9" y="-64.4" class="st0" width="16.2" height="16.2"/>
	<rect id="XMLID_290_" x="64.7" y="26.5" class="st0" width="16.2" height="16.2"/>
	<rect id="XMLID_258_" x="108" y="25.2" class="st0" width="183.3" height="136.1"/>
	<g>
		<rect id="XMLID_288_" x="22.9" y="26.5" class="st0" width="16.2" height="16.2"/>
		<rect id="XMLID_286_" x="43.7" y="3.8" class="st0" width="16.2" height="16.2"/>
		<rect id="XMLID_284_" x="85.5" y="-19" class="st0" width="16.2" height="16.2"/>
		<rect id="XMLID_283_" x="64.6" y="-19" class="st0" width="16.2" height="16.2"/>
		<rect id="XMLID_279_" x="85.5" y="-41.7" class="st0" width="16.2" height="16.2"/>
		<rect id="XMLID_278_" x="64.6" y="-41.7" class="st0" width="16.2" height="16.2"/>
		<rect id="XMLID_277_" x="43.7" y="-41.7" class="st0" width="16.2" height="16.2"/>
		<rect id="XMLID_272_" x="43.7" y="-64.4" class="st0" width="16.2" height="16.2"/>
		<rect id="XMLID_291_" x="106.3" y="-19" class="st0" width="16.2" height="16.2"/>
		<path id="XMLID_260_" class="st0" d="M229.9,75.5c-13.8-12.6-11.5-7.1-11-25.8c-12.6,13.8-7.1,11.5-25.8,11
			c13.8,12.6,11.5,7.1,10.9,25.8C216.6,72.7,211.2,75,229.9,75.5z"/>
	</g>
	<path id="XMLID_259_" class="st0" d="M200,120.2c-7.4-6.7-6.1-3.8-5.9-13.8c-6.7,7.4-3.8,6.1-13.8,5.9c7.4,6.7,6.1,3.8,5.9,13.8
		C193,118.6,190,119.9,200,120.2z"/>
	<path id="XMLID_234_" class="st0" d="M170.8,93.2c6.7-7.4,3.8-6.1,13.8-5.9c-7.4-6.7-6.1-3.8-5.9-13.8c-6.7,7.4-3.8,6.1-13.8,5.9
		C172.4,86.1,171.1,83.2,170.8,93.2z"/>
</g>
<g id="XMLID_1_">
	<path id="XMLID_32_" class="st1" d="M702.2,57.5H520.1c-6.3,0-12,4.7-12,11v131.8c0,6.3,5.7,11.1,12,11.1h69v44h-6v8h56v-8h-5v-44
		h68.1c6.3,0,11.9-4.8,11.9-11.1V68.5C714.1,62.2,708.5,57.5,702.2,57.5z"/>
	<g id="XMLID_27_">
		<path id="XMLID_31_" class="st1" d="M485.2,166.9c-18.5,21.3-93.1,20.1-112.8,0c-4.6-4.7,0.6-33.1,0-26.5
			c-2.1,21.7,102.4,26.5,112.8,0C487.7,134.2,489.6,161.9,485.2,166.9z"/>
		<path id="XMLID_30_" class="st2" d="M485.2,196.7c-18.5,21.3-93.1,20.1-112.8,0c-4.6-4.7,0.6-33.1,0-26.5
			c-2.1,21.7,102.4,26.5,112.8,0C487.7,164.1,489.6,191.7,485.2,196.7z"/>
		<ellipse id="XMLID_29_" class="st2" cx="429.4" cy="130.6" rx="56.2" ry="23.2"/>
		<path id="XMLID_28_" class="st1" d="M485.2,227.2c-18.5,21.3-93.1,20.1-112.8,0c-4.6-4.7,0.6-33.1,0-26.5
			c-2.1,21.7,102.4,26.5,112.8,0C487.7,194.6,489.6,222.2,485.2,227.2z"/>
	</g>
	<rect id="XMLID_26_" x="455" y="65.5" class="st1" width="16.2" height="16.2"/>
	<rect id="XMLID_25_" x="434.2" y="65.5" class="st2" width="16.2" height="16.2"/>
	<rect id="XMLID_24_" x="475.9" y="42.8" class="st1" width="16.2" height="16.2"/>
	<rect id="XMLID_23_" x="455" y="42.8" class="st2" width="16.2" height="16.2"/>
	<rect id="XMLID_22_" x="434.2" y="42.8" class="st1" width="16.2" height="16.2"/>
	<rect id="XMLID_21_" x="496.8" y="20" class="st2" width="16.2" height="16.2"/>
	<rect id="XMLID_20_" x="475.9" y="20" class="st2" width="16.2" height="16.2"/>
	<rect id="XMLID_19_" x="455" y="20" class="st1" width="16.2" height="16.2"/>
	<rect id="XMLID_18_" x="434.2" y="20" class="st1" width="16.2" height="16.2"/>
	<rect id="XMLID_17_" x="517.6" y="-2.7" class="st1" width="16.2" height="16.2"/>
	<rect id="XMLID_16_" x="496.8" y="-2.7" class="st2" width="16.2" height="16.2"/>
	<rect id="XMLID_15_" x="475.9" y="-2.7" class="st2" width="16.2" height="16.2"/>
	<rect id="XMLID_14_" x="455" y="-2.7" class="st2" width="16.2" height="16.2"/>
	<rect id="XMLID_13_" x="434.2" y="-2.7" class="st1" width="16.2" height="16.2"/>
	<rect id="XMLID_12_" x="517.6" y="-25.4" class="st1" width="16.2" height="16.2"/>
	<rect id="XMLID_11_" x="496.8" y="-25.4" class="st1" width="16.2" height="16.2"/>
	<rect id="XMLID_10_" x="475.9" y="-25.4" class="st1" width="16.2" height="16.2"/>
	<rect id="XMLID_9_" x="455" y="-25.4" class="st2" width="16.2" height="16.2"/>
	<rect id="XMLID_8_" x="434.2" y="-25.4" class="st1" width="16.2" height="16.2"/>
	<rect id="XMLID_7_" x="476" y="65.5" class="st1" width="16.2" height="16.2"/>
	<rect id="XMLID_6_" x="517.6" y="20" class="st2" width="16.2" height="16.2"/>
	<rect id="XMLID_5_" x="519.3" y="64.2" class="st1" width="183.3" height="136.1"/>
	<path id="XMLID_4_" class="st2" d="M641.2,114.5c-13.8-12.6-11.5-7.1-11-25.8c-12.6,13.8-7.1,11.5-25.8,11
		c13.8,12.6,11.5,7.1,10.9,25.8C627.9,111.7,622.5,114,641.2,114.5z"/>
	<path id="XMLID_3_" class="st1" d="M611.3,159.2c-7.4-6.7-6.1-3.8-5.9-13.8c-6.7,7.4-3.8,6.1-13.8,5.9c7.4,6.7,6.1,3.8,5.9,13.8
		C604.3,157.6,601.3,158.9,611.3,159.2z"/>
	<path id="XMLID_2_" class="st1" d="M582.1,132.2c6.7-7.4,3.8-6.1,13.8-5.9c-7.4-6.7-6.1-3.8-5.9-13.8c-6.7,7.4-3.8,6.1-13.8,5.9
		C583.7,125.1,582.4,122.2,582.1,132.2z"/>
</g>
</svg>
