<?xml version="1.0" encoding="utf-8"?>
<!-- Generator: Adobe Illustrator 19.0.0, SVG Export Plug-In . SVG Version: 6.00 Build 0)  -->
<svg version="1.1" id="Слой_1" xmlns="http://www.w3.org/2000/svg" xmlns:xlink="http://www.w3.org/1999/xlink" x="0px" y="0px"
	 viewBox="-79 -75 420 310" style="enable-background:new -79 -75 420 310;" xml:space="preserve">
<style type="text/css">
	.st0{fill:none;stroke:#F49522;stroke-width:2;stroke-miterlimit:10;}
	.st1{fill:#394D54;}
	.st2{fill:#00AADA;}
	.st3{fill:#24B8EB;}
	.st4{fill:#008BB8;}
	.st5{fill:#039BC6;}
	.st6{display:none;}
	.st7{display:inline;fill:#394D54;}
	.st8{fill:#00ACD3;}
	.st9{fill:#20C2EF;}
	.st10{fill:#D4EDF1;}
	.st11{fill:#BFDBE0;}
	.st12{fill:#2CABDF;}
	.st13{fill:none;stroke:#F49522;stroke-width:3;stroke-miterlimit:10;}
	.st14{fill:#FCE5D4;stroke:#F49522;stroke-width:3;stroke-miterlimit:10;}
</style>
<circle id="XMLID_319_" class="st0" cx="48" cy="-66.2" r="3.4"/>
<path id="XMLID_321_" class="st0" d="M-43.1,49.9C-30.9,77.2,6.1,97,50,97c44.6,0,82.2-20.5,93.8-48.4C121.1,55,86.6,59.1,47.9,59.1
	C11.9,59.1-20.5,55.6-43.1,49.9z"/>
<line id="XMLID_320_" class="st0" x1="47.6" y1="-40.6" x2="47.6" y2="-62.6"/>
<ellipse id="XMLID_324_" transform="matrix(-0.7913 -0.6115 0.6115 -0.7913 -24.7588 66.9087)" class="st0" cx="-1" cy="37.7" rx="7.6" ry="11.6"/>
<path id="XMLID_322_" class="st0" d="M48-41.2C23.2-41.2,3-21.9,3,1.9c0,7.4,2,14.4,5.4,20.5c24.2,7.2,55.5,6.5,79.9-1.4
	c3-5.8,4.6-12.2,4.6-19.1C92.9-21.9,72.9-41.2,48-41.2z"/>
<ellipse id="XMLID_318_" class="st0" cx="48" cy="43.4" rx="7.6" ry="11.6"/>
<ellipse id="XMLID_317_" transform="matrix(-0.6115 0.7913 -0.7913 -0.6115 183.4254 -17.1419)" class="st0" cx="95.9" cy="36.5" rx="7.6" ry="11.6"/>
<path id="XMLID_270_" class="st0" d="M152.6,209.3l-0.1-1c-0.2-0.8-0.7-1.5-1.4-2.3L86.4,92.1C75,94.5,63,95.8,50.1,95.9
	c-12.8,0-24.9-1.3-36.3-3.7l-64.7,113.9c-0.7,0.8-1.2,0.9-1.4,1.7l0,0l0,0c-0.1,1-0.1,0.8-0.1,1.1c0,11.2,45.9,20.7,102.5,20.7
	S152.6,220.5,152.6,209.3"/>
<g id="XMLID_115_">
	<path id="docker" class="st1" d="M301,49.3c1.7-1.5,3.4-2.9,5.1-4.4c0.6-0.5,1.2-1,1.8-1.6c-0.5-0.6-1.2-1-1.9-1.3
		c-1.3-0.5-2.6-0.3-3.9,0.4c-1.6,0.9-2.3,2.4-2.2,4.2c0,0.7,0.2,1.4,0.6,2C300.8,48.9,301,49.1,301,49.3 M303,50.7
		c0.8,0.3,1.8,0.3,2.7,0.1c0.4-0.2,1.6-0.7,2-0.6h0.1h0.1c0.3,0.1,0.5,0.3,0.6,0.6c0.3,0.6,0.2,1.2-0.4,1.6h-0.4
		c-2.2,1.3-4.5,1.1-6.7-0.1c-1-0.6-1.8-1.4-2.4-2.4l-0.1-0.2c-1.4-2.4-1.2-5,0.4-7.3c0.5-0.8,1.3-1.4,2.1-1.9l0.3-0.2
		c2.1-1.2,4.3-1.1,6.4-0.1c1.1,0.6,2.1,1.4,2.7,2.5l0.1,0.2c0.5,0.8-0.1,1.5-0.8,2c-0.7,0.6-1.4,1.2-2.1,1.8
		C306.1,48,304.5,49.4,303,50.7z M319.5,39.6h0.2c0.7,0,1.2,0.5,1.2,1.2c0,1-0.9,1.2-1.7,1.2c-1,0-2,0.6-2.7,1.3
		c-0.9,0.9-1.3,2-1.3,3.2v5.6c0,0.6-0.4,1.2-1.1,1.2h-0.2c-0.7,0-1.1-0.5-1.1-1.2v-5.9c0-2.3,1.1-4.1,2.9-5.4
		C316.9,40,318,39.6,319.5,39.6z M290.6,43.6c0.9-0.9,1.8-1.8,2.7-2.7c0.3-0.2,1.2-1.3,1.6-1.3h0.4l0,0c0.5,0.1,0.9,0.4,0.9,1v0.2
		c0,0.4-0.5,0.8-0.7,1.1c-0.5,0.6-1.1,1.1-1.6,1.7l-2.8,2.8c1.2,1.2,2.4,2.4,3.6,3.6c0.3,0.3,0.7,0.7,1,1c0.1,0.1,0.3,0.3,0.4,0.4
		c0.1,0.2,0.2,0.3,0.2,0.5v0.2v0.1c-0.1,0.5-0.5,1-1,1h-0.2c-0.4,0-0.8-0.4-1.1-0.7c-0.5-0.5-1.1-1-1.6-1.6l-1.8-1.7V52
		c0,0.6-0.4,1.2-1.1,1.2h-0.2c-0.7,0-1.1-0.5-1.1-1.2V36.4c0-0.6,0.4-1.2,1.1-1.2h0.2c0.7,0,1.1,0.5,1.1,1.2V43.6z M283.2,42
		c-0.3-0.2-1-0.2-1.4-0.2c-1.9-0.1-3.3,1-4.1,2.7c-0.3,0.6-0.4,1.2-0.4,1.9c0,2,1,3.4,2.8,4.2c0.6,0.3,1.5,0.4,2.2,0.4
		c0.6,0,1.5-0.4,2-0.6h0.1h0.4l0,0c0.5,0.1,0.9,0.4,0.9,1v0.2c0,1.4-2.6,1.7-3.5,1.8c-3.5,0.2-6-1.7-7-5c-0.2-0.6-0.2-1.1-0.2-1.7
		v-0.5c0-2.5,1.2-4.5,3.4-5.8c1-0.6,2.1-0.9,3.3-0.9h0.5c1.2,0,2.4,0.3,3.4,1l0.1,0.1l0.1,0.1c0.1,0.2,0.2,0.4,0.2,0.6v0.2
		c0,0.6-0.4,0.9-1,1l0,0H285C284.4,42.5,283.5,42.2,283.2,42z M262.1,46.4c0,1.8,0.9,3,2.3,3.9c0.7,0.4,1.5,0.6,2.3,0.6
		c1.7,0,3-0.9,3.9-2.3c0.4-0.7,0.6-1.5,0.6-2.3c0-1.6-0.8-2.9-2.1-3.8c-0.7-0.5-1.6-0.7-2.4-0.7c-1.9,0-3.3,1-4.2,2.7
		C262.4,45.1,262.1,45.8,262.1,46.4z M266.5,39.5h0.3c2.7,0,4.7,1.3,6,3.6c0.5,0.9,0.8,2,0.8,3v0.5c0,2.5-1.2,4.5-3.4,5.8
		c-1,0.6-2.1,0.9-3.3,0.9h-0.5c-2.5,0-4.5-1.2-5.8-3.4c-0.6-1-0.9-2.1-0.9-3.3v-0.5c0-2.5,1.2-4.5,3.4-5.8
		C264.2,39.8,265.4,39.5,266.5,39.5z M247.1,46.4c0,1.8,0.9,3.2,2.5,4c0.6,0.4,1.3,0.5,2.1,0.5c1.8,0,3.1-0.8,4-2.3
		c0.4-0.7,0.6-1.5,0.6-2.3c0-1.6-0.7-2.8-2-3.7c-0.8-0.6-1.6-0.8-2.6-0.8c-1.9,0-3.3,1-4.2,2.7C247.2,45.1,247.1,45.8,247.1,46.4z
		 M256.2,41.3v-4.9c0-0.6,0.4-1.2,1.1-1.2h0.2c0.7,0,1.1,0.5,1.1,1.2v10.3c0,2.5-1.2,4.5-3.4,5.8c-1,0.6-2.1,0.9-3.3,0.9h-0.5
		c-2.5,0-4.5-1.2-5.8-3.4c-0.6-1-0.9-2.1-0.9-3.3v-0.5c0-2.5,1.2-4.5,3.4-5.8c1-0.6,2.1-0.9,3.3-0.9h0.5
		C253.6,39.5,255.1,40.2,256.2,41.3z"/>
	<path id="outline" class="st1" d="M288.6,3.1h6.8v7h3.4c1.6,0,3.2-0.3,4.7-0.8c0.7-0.3,1.6-0.6,2.3-1c-1-1.3-1.5-2.8-1.6-4.4
		C304,1.8,304.5-1,306-2.6l0.7-0.8l0.9,0.7c2.1,1.7,4,4.1,4.3,6.9c2.6-0.8,5.6-0.6,7.9,0.7l0.9,0.5l-0.5,1c-1.9,3.8-6,4.9-9.9,4.7
		c-5.9,14.7-18.7,21.6-34.3,21.6c-8,0-15.4-3-19.6-10.1l-0.1-0.1l-0.6-1.2c-1.4-3.1-1.9-6.6-1.6-10l0.1-1h5.8v-7h6.8v-6.8h13.6v-6.8
		h8.2V3.1L288.6,3.1L288.6,3.1z"/>
	<g id="body_colors">
		<path id="XMLID_249_" class="st2" d="M310.6,5.7c0.5-3.5-2.2-6.3-3.8-7.7c-1.9,2.2-2.2,7.9,0.8,10.4c-1.7,1.5-5.2,2.8-8.7,2.8
			h-43.6c-0.3,3.7,0.3,7.2,1.8,10.1l0.5,0.9c0.3,0.5,0.7,1,1,1.5l0,0c1.8,0.1,3.4,0.2,5,0.1l0,0c3-0.1,5.4-0.4,7.2-1.1
			c0.3-0.1,0.6,0,0.7,0.3c0.1,0.3-0.1,0.6-0.3,0.7c-0.2,0.1-0.5,0.2-0.8,0.2l0,0c-1.4,0.4-3,0.7-5,0.8c0.1,0-0.1,0-0.1,0
			c-0.1,0-0.2,0-0.2,0c-0.8,0-1.6,0.1-2.5,0.1c-1,0-1.9,0-2.9-0.1l0,0c3.6,4.1,9.3,6.5,16.4,6.5c15.1,0,27.9-6.7,33.5-21.7
			c4,0.4,7.9-0.6,9.6-4C316.4,4.1,312.8,4.6,310.6,5.7z"/>
		<path id="XMLID_248_" class="st3" d="M310.6,5.7c0.5-3.5-2.2-6.3-3.8-7.7c-1.9,2.2-2.2,7.9,0.8,10.4c-1.7,1.5-5.2,2.8-8.7,2.8h-41
			c-0.2,5.7,1.9,10.1,5.7,12.7l0,0c3-0.1,5.4-0.4,7.2-1.1c0.3-0.1,0.6,0,0.7,0.3c0.1,0.3-0.1,0.6-0.3,0.7c-0.2,0.1-0.5,0.2-0.8,0.2
			l0,0c-1.4,0.4-3.1,0.7-5.1,0.9l0,0c5.1,2.6,12.6,2.6,21.1-0.7c9.6-3.7,18.5-10.7,24.7-18.7C310.9,5.6,310.8,5.6,310.6,5.7z"/>
		<path id="XMLID_247_" class="st4" d="M255.4,15.7c0.3,2,0.9,3.9,1.7,5.6l0.5,0.9c0.3,0.5,0.7,1,1,1.5c1.8,0.1,3.4,0.2,5,0.1
			c3-0.1,5.4-0.4,7.2-1.1c0.3-0.1,0.6,0,0.7,0.3c0.1,0.3-0.1,0.6-0.3,0.7c-0.2,0.1-0.5,0.2-0.8,0.2l0,0c-1.4,0.4-3.1,0.7-5.1,0.8
			c-0.1,0-0.2,0-0.3,0c-0.8,0-1.6,0.1-2.5,0.1c-1,0-1.9,0-3-0.1c3.6,4.1,9.4,6.5,16.5,6.5c12.9,0,24.1-4.9,30.6-15.7h-51.2
			C255.4,15.5,255.4,15.7,255.4,15.7z"/>
		<path id="XMLID_246_" class="st5" d="M258.2,15.7c0.8,3.5,2.6,6.3,5.3,8.2c3-0.1,5.4-0.4,7.2-1.1c0.3-0.1,0.6,0,0.7,0.3
			c0.1,0.3-0.1,0.6-0.3,0.7c-0.2,0.1-0.5,0.2-0.8,0.2l0,0c-1.4,0.4-3.2,0.7-5.2,0.8c5.1,2.6,12.5,2.6,21.1-0.7
			c5.2-2,10.1-4.9,14.6-8.5L258.2,15.7L258.2,15.7z"/>
	</g>
	<g id="XMLID_244_" class="st6">
		<path id="XMLID_245_" class="st7" d="M262.5,24.9c0.9,0,1.7,0,2.5-0.1c0.1,0,0.1,0,0.2,0l0,0c2-0.1,3.7-0.4,5.2-0.8l0,0
			c0.3-0.1,0.5-0.2,0.8-0.2c0.3-0.1,0.4-0.4,0.3-0.7c-0.1-0.3-0.4-0.4-0.7-0.3c-1.8,0.6-4.3,1-7.2,1.1l0,0c-1.5,0-3.2,0-5-0.1l0,0
			c-0.1,0-0.2,0-0.3,0c-0.3,0-0.5,0.2-0.6,0.5c0,0.3,0.2,0.5,0.5,0.6c0.4,0,0.7,0,1.1,0.1c0.1,0,0.1,0,0.2,0l0,0
			C260.5,24.9,261.5,24.9,262.5,24.9z"/>
	</g>
	<g id="Containers">
		<path id="XMLID_236_" class="st8" d="M266.1,4.7h0.5v4.9h-0.5V4.7z M265.2,4.7h0.5v4.9h-0.5V4.7z M264.4,4.7h0.5v4.9h-0.5V4.7z
			 M263.5,4.7h0.5v4.9h-0.5V4.7z M262.5,4.7h0.5v4.9h-0.5V4.7z M261.6,4.7h0.5v4.9h-0.5V4.7z M261.1,4.2h5.9v5.9h-5.9V4.2z"/>
		<path id="XMLID_227_" class="st8" d="M273-2.1h0.5v4.9H273V-2.1z M272-2.1h0.5v4.9H272V-2.1z M271.1-2.1h0.5v4.9h-0.5V-2.1z
			 M270.2-2.1h0.5v4.9h-0.5V-2.1z M269.4-2.1h0.5v4.9h-0.5V-2.1z M268.5-2.1h0.5v4.9h-0.5V-2.1z M268-2.6h5.9v5.9H268V-2.6z"/>
		<path id="XMLID_219_" class="st9" d="M273,4.7h0.5v4.9H273V4.7z M272,4.7h0.5v4.9H272V4.7z M271.1,4.7h0.5v4.9h-0.5V4.7z
			 M270.2,4.7h0.5v4.9h-0.5V4.7z M269.4,4.7h0.5v4.9h-0.5V4.7z M268.5,4.7h0.5v4.9h-0.5V4.7z M268,4.2h5.9v5.9H268V4.2z"/>
		<path id="XMLID_211_" class="st8" d="M279.8,4.7h0.5v4.9h-0.5V4.7z M278.9,4.7h0.5v4.9h-0.5V4.7z M278,4.7h0.5v4.9H278V4.7z
			 M277,4.7h0.5v4.9H277V4.7z M276.1,4.7h0.5v4.9h-0.5V4.7z M275.2,4.7h0.5v4.9h-0.5V4.7z M274.8,4.2h5.9v5.9h-5.9V4.2z"/>
		<path id="XMLID_203_" class="st9" d="M279.8-2.1h0.5v4.9h-0.5V-2.1z M278.9-2.1h0.5v4.9h-0.5V-2.1z M278-2.1h0.5v4.9H278V-2.1z
			 M277-2.1h0.5v4.9H277V-2.1z M276.1-2.1h0.5v4.9h-0.5V-2.1z M275.2-2.1h0.5v4.9h-0.5V-2.1z M274.8-2.6h5.9v5.9h-5.9V-2.6z"/>
		<path id="XMLID_195_" class="st9" d="M286.5,4.7h0.5v4.9h-0.5V4.7z M285.6,4.7h0.5v4.9h-0.5V4.7z M284.8,4.7h0.5v4.9h-0.5V4.7z
			 M283.9,4.7h0.5v4.9h-0.5V4.7z M283,4.7h0.5v4.9H283V4.7z M282,4.7h0.5v4.9H282V4.7z M281.5,4.2h5.9v5.9h-5.9V4.2z"/>
		<path id="XMLID_185_" class="st8" d="M286.5-2.1h0.5v4.9h-0.5V-2.1z M285.6-2.1h0.5v4.9h-0.5V-2.1z M284.8-2.1h0.5v4.9h-0.5V-2.1z
			 M283.9-2.1h0.5v4.9h-0.5V-2.1z M283-2.1h0.5v4.9H283V-2.1z M282-2.1h0.5v4.9H282V-2.1z M281.5-2.6h5.9v5.9h-5.9V-2.6z"/>
		<path id="XMLID_174_" class="st9" d="M286.5-8.9h0.5V-4h-0.5V-8.9z M285.6-8.9h0.5V-4h-0.5V-8.9z M284.8-8.9h0.5V-4h-0.5V-8.9z
			 M283.9-8.9h0.5V-4h-0.5V-8.9z M283-8.9h0.5V-4H283V-8.9z M282-8.9h0.5V-4H282V-8.9z M281.5-9.4h5.9v5.9h-5.9V-9.4z"/>
		<path id="XMLID_160_" class="st8" d="M293.4,4.7h0.5v4.9h-0.5V4.7z M292.5,4.7h0.5v4.9h-0.5V4.7z M291.5,4.7h0.5v4.9h-0.5V4.7z
			 M290.6,4.7h0.5v4.9h-0.5V4.7z M289.8,4.7h0.5v4.9h-0.5V4.7z M288.9,4.7h0.5v4.9h-0.5V4.7z M288.4,4.2h5.9v5.9h-5.9V4.2z"/>
	</g>
	<path id="XMLID_158_" class="st10" d="M273.5,19.7c0.9,0,1.6,0.7,1.6,1.6c0,0.9-0.7,1.6-1.6,1.6c-0.9,0-1.6-0.7-1.6-1.6
		S272.6,19.7,273.5,19.7"/>
	<path id="XMLID_156_" class="st1" d="M273.5,20.1c0.1,0,0.3,0,0.4,0.1c-0.1,0.1-0.2,0.2-0.2,0.4c0,0.3,0.2,0.5,0.5,0.5
		c0.2,0,0.3-0.1,0.4-0.2c0.1,0.1,0.1,0.3,0.1,0.4c0,0.6-0.5,1.2-1.2,1.2c-0.6,0-1.2-0.5-1.2-1.2C272.4,20.7,272.9,20.1,273.5,20.1"
		/>
	<path id="XMLID_140_" class="st1" d="M244.8,16.3h35.6h4.4h35.6c-1.6-0.4-5.2-1-4.6-3.1c-3,3.5-10.2,2.4-12,0.7
		c-2,2.9-13.9,1.8-14.7-0.5c-2.5,3-10.4,3-13,0c-0.8,2.3-12.6,3.4-14.7,0.5c-1.8,1.7-9.1,2.7-12-0.7
		C249.9,15.3,246.4,15.9,244.8,16.3"/>
	<path id="XMLID_119_" class="st11" d="M277.9,31.4c-4-1.9-6.2-4.5-7.5-7.3c-1.5,0.4-3.3,0.7-5.4,0.8c-0.8,0-1.6,0.1-2.5,0.1
		c-1,0-2.1,0-3.2-0.1c3.7,3.7,8.2,6.5,16.7,6.6C276.5,31.4,277.2,31.4,277.9,31.4z"/>
	<path id="XMLID_118_" class="st10" d="M271.9,26.7c-0.6-0.8-1.1-1.7-1.5-2.6c-1.5,0.4-3.3,0.7-5.4,0.8
		C266.5,25.7,268.5,26.4,271.9,26.7z"/>
</g>
<line id="XMLID_114_" class="st0" x1="227.8" y1="77.4" x2="337.8" y2="77.4"/>
<g id="XMLID_98_">
	<polygon id="XMLID_315_" class="st1" points="281.5,98.3 268.5,105.8 268.5,105.8 281.5,113.3 	"/>
	<polygon id="XMLID_314_" class="st1" points="283.4,113.3 296.5,105.8 296.5,105.8 283.4,98.3 	"/>
	<polygon id="XMLID_313_" class="st12" points="281.5,116.9 268.5,124.4 268.5,124.4 281.5,131.9 	"/>
	<polygon id="XMLID_312_" class="st12" points="283.4,131.9 296.5,124.4 296.5,124.4 283.4,116.9 	"/>
	<polygon id="XMLID_311_" class="st1" points="281.5,135.2 268.5,142.7 268.5,142.7 281.5,150.2 	"/>
	<polygon id="XMLID_310_" class="st1" points="283.4,150.2 296.5,142.7 296.5,142.7 283.4,135.2 	"/>
	<polygon id="XMLID_309_" class="st12" points="265.9,107.7 252.8,115.2 252.8,115.2 265.9,122.7 	"/>
	<polygon id="XMLID_308_" class="st12" points="267.6,122.7 280.6,115.2 280.6,115.2 267.6,107.7 	"/>
	<polygon id="XMLID_307_" class="st12" points="297.5,107.7 284.5,115.2 284.5,115.2 297.5,122.8 	"/>
	<polygon id="XMLID_306_" class="st12" points="299.5,122.8 312.5,115.2 312.5,115.2 299.5,107.7 	"/>
	<polygon id="XMLID_305_" class="st1" points="297.5,126.1 284.5,133.6 284.5,133.6 297.5,141.1 	"/>
	<polygon id="XMLID_304_" class="st12" points="299.5,141.1 312.5,133.6 312.5,133.6 299.5,126.1 	"/>
	<polygon id="XMLID_303_" class="st12" points="265.9,126 252.8,133.5 252.8,133.5 265.9,141 	"/>
	<polygon id="XMLID_302_" class="st1" points="267.6,141 280.6,133.5 280.6,133.5 267.6,126 	"/>
	<polygon id="XMLID_301_" class="st1" points="281.5,153.8 268.5,161.3 268.5,161.3 281.5,168.9 	"/>
	<polygon id="XMLID_300_" class="st1" points="283.4,168.9 296.5,161.3 296.5,161.3 283.4,153.8 	"/>
	<polygon id="XMLID_299_" class="st1" points="297.5,144.7 284.5,152.2 284.5,152.2 297.5,159.7 	"/>
	<polygon id="XMLID_298_" class="st12" points="299.5,159.7 312.5,152.2 312.5,152.2 299.5,144.7 	"/>
	<polygon id="XMLID_297_" class="st12" points="265.9,144.7 252.8,152.2 252.8,152.2 265.9,159.7 	"/>
	<polygon id="XMLID_113_" class="st1" points="267.6,159.7 280.6,152.2 280.6,152.2 267.6,144.7 	"/>
	<polygon id="XMLID_295_" class="st12" points="251.6,150.2 264.6,142.7 264.6,142.7 251.6,135.2 	"/>
	<polygon id="XMLID_100_" class="st12" points="251.6,131.9 264.6,124.4 264.6,124.4 251.6,116.9 	"/>
	<polygon id="XMLID_293_" class="st12" points="313.9,116.9 300.8,124.4 300.8,124.4 313.9,131.9 	"/>
	<polygon id="XMLID_99_" class="st12" points="313.9,135.3 300.8,142.8 300.8,142.8 313.9,150.3 	"/>
</g>
<rect id="XMLID_389_" x="481.8" y="-15.4" transform="matrix(-0.9405 0.3397 -0.3397 -0.9405 949.3622 -179.7792)" class="st13" width="17.2" height="17.2"/>
<rect id="XMLID_388_" x="502.7" y="-22.9" transform="matrix(-0.9405 0.3397 -0.3397 -0.9405 987.3625 -201.49)" class="st13" width="17.2" height="17.2"/>
<rect id="XMLID_387_" x="523.5" y="-30.5" transform="matrix(-0.9405 0.3397 -0.3397 -0.9405 1025.0938 -223.2738)" class="st14" width="17.2" height="17.2"/>
<rect id="XMLID_386_" x="544.3" y="-38" transform="matrix(-0.9405 0.3397 -0.3397 -0.9405 1062.9231 -244.8866)" class="st13" width="17.2" height="17.2"/>
<rect id="XMLID_385_" x="565.1" y="-45.5" transform="matrix(-0.9405 0.3397 -0.3397 -0.9405 1100.7524 -266.4995)" class="st14" width="17.2" height="17.2"/>
<rect id="XMLID_384_" x="490" y="7.3" transform="matrix(-0.9405 0.3397 -0.3397 -0.9405 972.9991 -138.5291)" class="st14" width="17.2" height="17.2"/>
<rect id="XMLID_383_" x="510.8" y="-0.3" transform="matrix(-0.9405 0.3397 -0.3397 -0.9405 1010.7305 -160.3129)" class="st13" width="17.2" height="17.2"/>
<rect id="XMLID_382_" x="531.7" y="-7.8" transform="matrix(-0.9405 0.3397 -0.3397 -0.9405 1048.7308 -182.0237)" class="st13" width="17.2" height="17.2"/>
<rect id="XMLID_381_" x="552.5" y="-15.3" transform="matrix(-0.9405 0.3397 -0.3397 -0.9405 1086.5599 -203.6365)" class="st14" width="17.2" height="17.2"/>
<rect id="XMLID_380_" x="573.3" y="-22.8" transform="matrix(-0.9405 0.3397 -0.3397 -0.9405 1124.3893 -225.2493)" class="st13" width="17.2" height="17.2"/>
<rect id="XMLID_379_" x="498.2" y="29.9" transform="matrix(-0.9405 0.3397 -0.3397 -0.9405 996.538 -97.4501)" class="st13" width="17.2" height="17.2"/>
<rect id="XMLID_378_" x="519" y="22.4" transform="matrix(-0.9405 0.3397 -0.3397 -0.9405 1034.3673 -119.063)" class="st14" width="17.2" height="17.2"/>
<rect id="XMLID_218_" x="539.9" y="14.9" transform="matrix(-0.9405 0.3397 -0.3397 -0.9405 1072.3677 -140.7737)" class="st14" width="17.2" height="17.2"/>
<rect id="XMLID_217_" x="560.7" y="7.4" transform="matrix(-0.9405 0.3397 -0.3397 -0.9405 1110.1968 -162.3866)" class="st13" width="17.2" height="17.2"/>
<rect id="XMLID_216_" x="581.5" y="-0.1" transform="matrix(-0.9405 0.3397 -0.3397 -0.9405 1148.0261 -183.9992)" class="st13" width="17.2" height="17.2"/>
<rect id="XMLID_215_" x="506.4" y="52.6" transform="matrix(-0.9405 0.3397 -0.3397 -0.9405 1020.1751 -56.2)" class="st13" width="17.2" height="17.2"/>
<rect id="XMLID_214_" x="527.2" y="45.1" transform="matrix(-0.9405 0.3397 -0.3397 -0.9405 1058.0043 -77.8129)" class="st14" width="17.2" height="17.2"/>
<rect id="XMLID_213_" x="548" y="37.6" transform="matrix(-0.9405 0.3397 -0.3397 -0.9405 1095.8335 -99.4257)" class="st14" width="17.2" height="17.2"/>
<rect id="XMLID_212_" x="568.9" y="30.1" transform="matrix(-0.9405 0.3397 -0.3397 -0.9405 1133.8337 -121.1364)" class="st14" width="17.2" height="17.2"/>
<rect id="XMLID_1_" x="589.7" y="22.5" transform="matrix(-0.9405 0.3397 -0.3397 -0.9405 1171.5652 -142.9203)" class="st13" width="17.2" height="17.2"/>
<rect id="XMLID_363_" x="514.6" y="75.3" transform="matrix(-0.9405 0.3397 -0.3397 -0.9405 1043.8119 -14.9501)" class="st13" width="17.2" height="17.2"/>
<rect id="XMLID_362_" x="535.4" y="67.8" transform="matrix(-0.9405 0.3397 -0.3397 -0.9405 1081.6411 -36.5629)" class="st13" width="17.2" height="17.2"/>
<rect id="XMLID_360_" x="556.2" y="60.2" transform="matrix(-0.9405 0.3397 -0.3397 -0.9405 1119.3726 -58.3465)" class="st13" width="17.2" height="17.2"/>
<rect id="XMLID_359_" x="577" y="52.7" transform="matrix(-0.9405 0.3397 -0.3397 -0.9405 1157.2017 -79.9594)" class="st14" width="17.2" height="17.2"/>
<rect id="XMLID_358_" x="597.9" y="45.2" transform="matrix(-0.9405 0.3397 -0.3397 -0.9405 1195.202 -101.6701)" class="st13" width="17.2" height="17.2"/>
<path class="st0" d="M92.5,3.9C92.3,10,90.7,15.8,88,21c-24.4,7.9-55.7,8.6-79.9,1.4C5,16.9,3.1,10.6,2.8,4
	c-46,4.2-78.5,14.5-78.5,26.6c0,15.8,55.4,28.6,123.7,28.6s123.7-12.8,123.7-28.6C171.7,18.4,138.8,8.1,92.5,3.9z"/>
</svg>
