<?xml version="1.0" encoding="utf-8"?>
<!-- Generator: Adobe Illustrator 19.0.0, SVG Export Plug-In . SVG Version: 6.00 Build 0)  -->
<svg version="1.1" id="Слой_1" xmlns="http://www.w3.org/2000/svg" xmlns:xlink="http://www.w3.org/1999/xlink" x="0px" y="0px"
	 viewBox="-79 -75 420 310" style="enable-background:new -79 -75 420 310;" xml:space="preserve">
<style type="text/css">
	.st0{fill:none;stroke:#7C4DFF;stroke-width:2;stroke-miterlimit:10;}
	.st1{fill:#7C4DFF;}
</style>
<rect id="XMLID_34_" x="142.9" y="110.3" class="st0" width="18.7" height="18.7"/>
<rect id="XMLID_33_" x="166.9" y="110.3" class="st0" width="18.7" height="18.7"/>
<rect id="XMLID_31_" x="214.9" y="110.3" class="st0" width="18.7" height="18.7"/>
<rect id="XMLID_13_" x="166.9" y="136.4" class="st0" width="18.7" height="18.7"/>
<rect id="XMLID_12_" x="190.9" y="136.4" class="st0" width="18.7" height="18.7"/>
<rect id="XMLID_10_" x="238.9" y="136.4" class="st0" width="18.7" height="18.7"/>
<rect id="XMLID_18_" x="142.9" y="162.7" class="st0" width="18.7" height="18.7"/>
<rect id="XMLID_7_" x="214.9" y="162.7" class="st0" width="18.7" height="18.7"/>
<rect id="XMLID_14_" x="238.9" y="162.7" class="st0" width="18.7" height="18.7"/>
<rect id="XMLID_24_" x="142.9" y="188.7" class="st0" width="18.7" height="18.7"/>
<rect id="XMLID_15_" x="238.9" y="188.7" class="st0" width="18.7" height="18.7"/>
<rect id="XMLID_30_" x="142.9" y="214.9" class="st0" width="18.7" height="18.7"/>
<rect id="XMLID_29_" x="166.9" y="214.9" class="st0" width="18.7" height="18.7"/>
<rect id="XMLID_28_" x="190.9" y="214.9" class="st0" width="18.7" height="18.7"/>
<rect id="XMLID_26_" x="238.9" y="214.9" class="st0" width="18.7" height="18.7"/>
<path id="XMLID_124_" class="st0" d="M213.7-11.2c-1.3-34.8-30-62.7-65.1-62.7c-27.9,0-51.8,17.6-61,42.2C81-39.7,71.1-44.7,60-44.7
	c-19.8,0-35.9,16.1-35.9,35.9c0,3.8,0.6,7.5,1.7,11C13.1,8.9,4.4,21.6,4.4,36.9c0,21.8,17.7,39.1,39.6,39.1h150.9
	c25.5,0,46.1-20.2,46.1-45.7C240.9,11.6,229.7-4.1,213.7-11.2z"/>
<path id="XMLID_329_" class="st0" d="M24.6,181.9v52h104v-52H24.6z M71.6,228.9h-41v-43h41V228.9z"/>
<rect id="XMLID_175_" x="78.5" y="210.3" class="st0" width="18.7" height="18.7"/>
<g>
	<rect id="XMLID_8_" x="190.9" y="162.7" class="st0" width="18.7" height="18.7"/>
	<g>
		<rect id="XMLID_32_" x="190.9" y="110.3" class="st0" width="18.7" height="18.7"/>
		<rect id="XMLID_25_" x="238.9" y="110.3" class="st0" width="18.7" height="18.7"/>
		<rect id="XMLID_17_" x="142.9" y="136.4" class="st0" width="18.7" height="18.7"/>
		<rect id="XMLID_11_" x="214.9" y="136.4" class="st0" width="18.7" height="18.7"/>
		<rect id="XMLID_9_" x="166.9" y="162.7" class="st0" width="18.7" height="18.7"/>
		<rect id="XMLID_23_" x="166.9" y="188.7" class="st0" width="18.7" height="18.7"/>
		<rect id="XMLID_22_" x="190.9" y="188.7" class="st0" width="18.7" height="18.7"/>
		<rect id="XMLID_6_" x="214.9" y="188.7" class="st0" width="18.7" height="18.7"/>
		<rect id="XMLID_27_" x="214.9" y="214.9" class="st0" width="18.7" height="18.7"/>
		<rect id="XMLID_181_" x="103.4" y="185.9" class="st0" width="18.7" height="18.7"/>
		<rect id="XMLID_179_" x="78.5" y="185.9" class="st0" width="18.7" height="18.7"/>
		<rect id="XMLID_171_" x="103.4" y="210.4" class="st0" width="18.7" height="18.7"/>
	</g>
</g>
<g>
	<g>
		<g>
			<line class="st0" x1="84.9" y1="97.4" x2="84.9" y2="165.2"/>
			<g>
				<polygon class="st1" points="76.8,104.1 78.2,105.4 84.9,98.2 91.6,105.4 93.1,104.1 84.9,95.2 				"/>
			</g>
		</g>
	</g>
	<g>
		<g>
			<line class="st0" x1="60" y1="162.8" x2="60" y2="95.1"/>
			<g>
				<polygon class="st1" points="68.2,156.2 66.8,154.8 60,162.2 53.4,154.8 51.9,156.2 60,165.1 				"/>
			</g>
		</g>
	</g>
</g>
</svg>
