<?xml version="1.0" encoding="utf-8"?>
<!-- Generator: Adobe Illustrator 19.0.0, SVG Export Plug-In . SVG Version: 6.00 Build 0)  -->
<svg version="1.1" id="Слой_1" xmlns="http://www.w3.org/2000/svg" xmlns:xlink="http://www.w3.org/1999/xlink" x="0px" y="0px"
	 viewBox="-79 -75 420 310" style="enable-background:new -79 -75 420 310;" xml:space="preserve">
<style type="text/css">
	.st0{fill:none;stroke:#5DDB75;stroke-width:2;stroke-miterlimit:10;}
</style>
<g>
	<path id="XMLID_43_" class="st0" d="M163.1,149.9H-9.6c-18,0-32.7-14.6-32.7-32.7V-5.3c0-18,14.6-32.7,32.7-32.7h172.7
		c18,0,32.7,14.6,32.7,32.7v122.5C195.8,135.2,181.1,149.9,163.1,149.9z"/>
	<path id="XMLID_167_" class="st0" d="M279,197.4h-46.4c-14,0-25.3-11.3-25.3-25.3V15.5c0-14,11.3-25.3,25.3-25.3H279
		c14,0,25.3,11.3,25.3,25.3V172C304.3,186,292.9,197.4,279,197.4z"/>
	<rect id="XMLID_168_" x="214.8" y="8.3" class="st0" width="79" height="6.4"/>
	<g>
		<path id="XMLID_46_" class="st0" d="M146.2,107.5H7.3c-15.2,0-27.5-12.3-27.5-27.5V1.9c0-15.2,12.3-27.5,27.5-27.5h138.9
			c15.2,0,27.5,12.3,27.5,27.5V80C173.7,95.2,161.4,107.5,146.2,107.5z"/>
		<g id="XMLID_50_">
			<rect id="XMLID_47_" x="6.6" y="122.3" class="st0" width="70.5" height="9.6"/>
			<rect id="XMLID_40_" x="84.3" y="122.3" class="st0" width="48.1" height="9.6"/>
			<rect id="XMLID_39_" x="137.3" y="122.3" class="st0" width="9.6" height="9.6"/>
		</g>
		<g>
			<rect id="XMLID_51_" x="33" y="165.4" class="st0" width="87.4" height="3"/>
			<rect id="XMLID_38_" x="33" y="172" class="st0" width="87.4" height="3"/>
			<rect id="XMLID_164_" x="33" y="178.8" class="st0" width="87.4" height="3"/>
		</g>
		<rect id="XMLID_186_" x="284.2" y="21" class="st0" width="9.6" height="9.6"/>
		<rect id="XMLID_292_" x="259.6" y="128.1" class="st0" width="33" height="3"/>
	</g>
	<rect id="XMLID_294_" x="259.6" y="134.6" class="st0" width="33" height="3"/>
	<rect id="XMLID_296_" x="259.6" y="141.1" class="st0" width="33" height="3"/>
	<g id="XMLID_1_">
		<path id="XMLID_2_" class="st0" d="M10.7,48C4.3,47.8-1.2,43.8-5,37.2l10-6.9c2.1,2.9,3.7,3.5,5.7,3.8v-7.6
			C3,24.7-4.2,20.3-4.1,9.2c0.5-8.7,7-14.1,14.8-15.8v-4.6h10.1v4.5c5.5,0.7,9.4,3,13.5,9.3l-9.4,5.9C24,7,22.5,6,20.8,5.7v8.8
			c8.4,2,15.4,5.9,14.8,17.9c-0.7,8.4-7.3,13.6-14.8,15.5V53H10.7V48z M8.3,9.5c-0.1,2.2,0.9,3.9,3,4.6V5.2C9.4,6.2,8.3,7.8,8.3,9.5
			L8.3,9.5z M23.3,31c0.1-2.2-0.9-3.9-3-4.6v8.9C22.2,34.3,23.3,32.7,23.3,31L23.3,31z"/>
	</g>
	<path class="st0" d="M163.4,150.5H-9.3c-5.3,0-10.2-1.3-14.7-3.5v51h201.4v-50.7C173.2,149.4,168.5,150.5,163.4,150.5z"/>
</g>
</svg>
