<?xml version="1.0" encoding="utf-8"?>
<!-- Generator: Adobe Illustrator 19.0.0, SVG Export Plug-In . SVG Version: 6.00 Build 0)  -->
<svg version="1.1" id="Слой_1" xmlns="http://www.w3.org/2000/svg" xmlns:xlink="http://www.w3.org/1999/xlink" x="0px" y="0px"
	 viewBox="-79 -75 420 310" style="enable-background:new -79 -75 420 310;" xml:space="preserve">
<style type="text/css">
	.st0{fill:none;stroke:#2196F3;stroke-width:2;stroke-miterlimit:10;}
</style>
<path id="XMLID_81_" class="st0" d="M309.5,193.4H112.1c-13.6,0-24.7-11.1-24.7-24.7V65.1c0-13.6,11.1-24.7,24.7-24.7h197.4
	c13.6,0,24.7,11.1,24.7,24.7v103.6C334.2,182.3,323.1,193.4,309.5,193.4z"/>
<polygon id="XMLID_76_" class="st0" points="114.8,122.6 98.1,139.3 114.9,156 "/>
<line id="XMLID_70_" class="st0" x1="51.5" y1="-5.4" x2="-30.5" y2="13.3"/>
<rect id="XMLID_80_" x="87.4" y="64.3" class="st0" width="246.8" height="36.1"/>
<circle id="XMLID_77_" class="st0" cx="303.4" cy="164.3" r="16"/>
<rect id="XMLID_74_" x="155.9" y="111.6" class="st0" width="55" height="11"/>
<rect id="XMLID_73_" x="219.9" y="111.6" class="st0" width="51" height="11"/>
<rect id="XMLID_72_" x="281.9" y="111.6" class="st0" width="37" height="11"/>
<circle id="XMLID_71_" class="st0" cx="79.6" cy="-5.2" r="28.2"/>
<circle id="XMLID_69_" class="st0" cx="-51.6" cy="15.8" r="20.6"/>
<line id="XMLID_68_" class="st0" x1="-44.3" y1="35.1" x2="-3.6" y2="78"/>
<circle id="XMLID_67_" class="st0" cx="16.1" cy="90.4" r="23.3"/>
<path class="st0" d="M287.4,164.3c0-4.8,2.1-9,5.4-12c-2.8-2.5-6.5-4-10.6-4c-8.8,0-16,7.2-16,16s7.2,16,16,16c4.1,0,7.8-1.5,10.6-4
	C289.5,173.3,287.4,169.1,287.4,164.3z"/>
</svg>
