<?xml version="1.0" encoding="utf-8"?>
<!-- Generator: Adobe Illustrator 19.0.0, SVG Export Plug-In . SVG Version: 6.00 Build 0)  -->
<svg version="1.1" id="Слой_1" xmlns="http://www.w3.org/2000/svg" xmlns:xlink="http://www.w3.org/1999/xlink" x="0px" y="0px"
	 viewBox="-389 46 420 310" style="enable-background:new -389 46 420 310;" xml:space="preserve">
<style type="text/css">
	.st0{fill:none;stroke:#5DDB75;stroke-width:2;stroke-miterlimit:10;}
	.st1{fill:#BBFFD3;stroke:#5DDB75;stroke-width:2;stroke-miterlimit:10;}
	.st2{fill:#CAFFCA;stroke:#5DDB75;stroke-width:2;stroke-miterlimit:10;}
</style>
<path id="XMLID_43_" class="st0" d="M-147.5,270.7h-172.7c-18,0-32.7-14.6-32.7-32.7V115.5c0-18,14.6-32.7,32.7-32.7h172.7
	c18,0,32.7,14.6,32.7,32.7V238C-114.8,256.1-129.5,270.7-147.5,270.7z"/>
<path id="XMLID_167_" class="st0" d="M-31.6,318.2H-78c-14,0-25.3-11.3-25.3-25.3V136.4c0-14,11.3-25.3,25.3-25.3h46.4
	c14,0,25.3,11.3,25.3,25.3v156.5C-6.3,306.9-17.7,318.2-31.6,318.2z"/>
<rect id="XMLID_168_" x="-95.8" y="129.2" class="st0" width="79" height="6.4"/>
<g>
	<path id="XMLID_46_" class="st1" d="M-164.4,228.3h-138.9c-15.2,0-27.5-12.3-27.5-27.5v-78.1c0-15.2,12.3-27.5,27.5-27.5h138.9
		c15.2,0,27.5,12.3,27.5,27.5v78.1C-136.9,216-149.2,228.3-164.4,228.3z"/>
	<g id="XMLID_50_">
		<rect id="XMLID_47_" x="-304" y="243.2" class="st1" width="70.5" height="9.6"/>
		<rect id="XMLID_40_" x="-226.3" y="243.2" class="st1" width="48.1" height="9.6"/>
		<rect id="XMLID_39_" x="-173.3" y="243.2" class="st1" width="9.6" height="9.6"/>
	</g>
	<g>
		<rect id="XMLID_51_" x="-277.6" y="286.2" class="st1" width="87.4" height="3"/>
		<rect id="XMLID_38_" x="-277.6" y="292.9" class="st1" width="87.4" height="3"/>
		<rect id="XMLID_164_" x="-277.6" y="299.6" class="st1" width="87.4" height="3"/>
	</g>
	<rect id="XMLID_186_" x="-26.4" y="141.9" class="st1" width="9.6" height="9.6"/>
	<rect id="XMLID_292_" x="-51" y="249" class="st1" width="33" height="3"/>
</g>
<rect id="XMLID_294_" x="-51" y="255.5" class="st2" width="33" height="3"/>
<rect id="XMLID_296_" x="-51" y="262" class="st2" width="33" height="3"/>
<g id="XMLID_1_">
	<path id="XMLID_2_" class="st0" d="M-299.9,168.9c-6.4-0.2-11.9-4.2-15.7-10.9l10-6.9c2.1,2.9,3.7,3.5,5.7,3.8v-7.6
		c-7.7-1.8-14.9-6.2-14.8-17.3c0.5-8.7,7-14.1,14.8-15.8v-4.6h10.1v4.5c5.5,0.7,9.4,3,13.5,9.3l-9.4,5.9c-0.9-1.5-2.4-2.5-4.1-2.8
		v8.8c8.4,2,15.4,5.9,14.8,17.9c-0.7,8.4-7.3,13.6-14.8,15.5v5.1h-10.1V168.9z M-302.3,130.3c-0.1,2.2,0.9,3.9,3,4.6V126
		C-301.2,127.1-302.3,128.7-302.3,130.3L-302.3,130.3z M-287.3,151.8c0.1-2.2-0.9-3.9-3-4.6v8.9
		C-288.4,155.1-287.3,153.5-287.3,151.8L-287.3,151.8z"/>
</g>
<path class="st0" d="M-147.2,271.4h-172.7c-5.3,0-10.2-1.3-14.7-3.5v51h201.4v-50.7C-137.4,270.3-142.1,271.4-147.2,271.4z"/>
</svg>
