<?xml version="1.0" encoding="utf-8"?>
<!-- Generator: Adobe Illustrator 19.0.0, SVG Export Plug-In . SVG Version: 6.00 Build 0)  -->
<svg version="1.1" id="Слой_1" xmlns="http://www.w3.org/2000/svg" xmlns:xlink="http://www.w3.org/1999/xlink" x="0px" y="0px"
	 viewBox="-389 46 420 310" style="enable-background:new -389 46 420 310;" xml:space="preserve">
<style type="text/css">
	.st0{fill:none;stroke:#7C4DFF;stroke-width:2;stroke-miterlimit:10;}
	.st1{fill:#CCBEFC;stroke:#7C4DFF;stroke-width:2;stroke-miterlimit:10;}
	.st2{fill:#7C4DFF;}
</style>
<rect id="XMLID_34_" x="-167.7" y="231.4" class="st0" width="18.7" height="18.7"/>
<rect id="XMLID_33_" x="-143.7" y="231.4" class="st0" width="18.7" height="18.7"/>
<rect id="XMLID_31_" x="-95.7" y="231.4" class="st0" width="18.7" height="18.7"/>
<rect id="XMLID_13_" x="-143.7" y="257.5" class="st0" width="18.7" height="18.7"/>
<rect id="XMLID_12_" x="-119.7" y="257.5" class="st0" width="18.7" height="18.7"/>
<rect id="XMLID_10_" x="-71.7" y="257.5" class="st0" width="18.7" height="18.7"/>
<rect id="XMLID_18_" x="-167.7" y="283.7" class="st0" width="18.7" height="18.7"/>
<rect id="XMLID_7_" x="-95.7" y="283.7" class="st0" width="18.7" height="18.7"/>
<rect id="XMLID_14_" x="-71.7" y="283.7" class="st0" width="18.7" height="18.7"/>
<rect id="XMLID_24_" x="-167.7" y="309.8" class="st0" width="18.7" height="18.7"/>
<rect id="XMLID_15_" x="-71.7" y="309.8" class="st0" width="18.7" height="18.7"/>
<rect id="XMLID_30_" x="-167.7" y="336" class="st0" width="18.7" height="18.7"/>
<rect id="XMLID_29_" x="-143.7" y="336" class="st0" width="18.7" height="18.7"/>
<rect id="XMLID_28_" x="-119.7" y="336" class="st0" width="18.7" height="18.7"/>
<rect id="XMLID_26_" x="-71.7" y="336" class="st0" width="18.7" height="18.7"/>
<path id="XMLID_124_" class="st0" d="M-96.9,109.8c-1.3-34.8-30-62.7-65.1-62.7c-27.9,0-51.8,17.6-61,42.2
	c-6.6-7.9-16.5-12.9-27.6-12.9c-19.8,0-35.9,16.1-35.9,35.9c0,3.8,0.6,7.5,1.7,11c-12.8,6.6-21.5,19.4-21.5,34.7
	c0,21.8,17.7,39.1,39.6,39.1h150.9c25.5,0,46.1-20.2,46.1-45.7C-69.7,132.6-80.9,117-96.9,109.8z"/>
<path id="XMLID_329_" class="st0" d="M-286,303v52h104v-52H-286z M-239,350h-41v-43h41V350z"/>
<rect id="XMLID_175_" x="-232.1" y="331.4" class="st0" width="18.7" height="18.7"/>
<g>
	<rect id="XMLID_8_" x="-119.7" y="283.7" class="st1" width="18.7" height="18.7"/>
	<g>
		<rect id="XMLID_32_" x="-119.7" y="231.4" class="st1" width="18.7" height="18.7"/>
		<rect id="XMLID_25_" x="-71.7" y="231.4" class="st1" width="18.7" height="18.7"/>
		<rect id="XMLID_17_" x="-167.7" y="257.5" class="st1" width="18.7" height="18.7"/>
		<rect id="XMLID_11_" x="-95.7" y="257.5" class="st1" width="18.7" height="18.7"/>
		<rect id="XMLID_9_" x="-143.7" y="283.7" class="st1" width="18.7" height="18.7"/>
		<rect id="XMLID_23_" x="-143.7" y="309.8" class="st1" width="18.7" height="18.7"/>
		<rect id="XMLID_22_" x="-119.7" y="309.8" class="st1" width="18.7" height="18.7"/>
		<rect id="XMLID_6_" x="-95.7" y="309.8" class="st1" width="18.7" height="18.7"/>
		<rect id="XMLID_27_" x="-95.7" y="336" class="st1" width="18.7" height="18.7"/>
		<rect id="XMLID_181_" x="-207.2" y="307" class="st1" width="18.7" height="18.7"/>
		<rect id="XMLID_179_" x="-232.1" y="307" class="st1" width="18.7" height="18.7"/>
		<rect id="XMLID_171_" x="-207.2" y="331.5" class="st1" width="18.7" height="18.7"/>
	</g>
</g>
<g>
	<g>
		<g>
			<line class="st0" x1="-225.7" y1="218.5" x2="-225.7" y2="286.3"/>
			<g>
				<polygon class="st2" points="-233.9,225.1 -232.4,226.5 -225.7,219.3 -219,226.5 -217.5,225.1 -225.7,216.3 				"/>
			</g>
		</g>
	</g>
	<g>
		<g>
			<line class="st0" x1="-250.6" y1="283.9" x2="-250.6" y2="216.1"/>
			<g>
				<polygon class="st2" points="-242.4,277.3 -243.8,275.9 -250.6,283.2 -257.3,275.9 -258.7,277.3 -250.6,286.1 				"/>
			</g>
		</g>
	</g>
</g>
</svg>
