<?xml version="1.0" encoding="utf-8"?>
<!-- Generator: Adobe Illustrator 19.0.0, SVG Export Plug-In . SVG Version: 6.00 Build 0)  -->
<svg version="1.1" id="Слой_1" xmlns="http://www.w3.org/2000/svg" xmlns:xlink="http://www.w3.org/1999/xlink" x="0px" y="0px"
	 viewBox="-389 46 420 310" style="enable-background:new -389 46 420 310;" xml:space="preserve">
<style type="text/css">
	.st0{fill:none;stroke:#F44336;stroke-width:2;stroke-miterlimit:10;}
	.st1{fill:#FFCDD2;stroke:#F44336;stroke-width:2;stroke-miterlimit:10;}
	.st2{fill:none;stroke:#EC398C;stroke-width:2;stroke-miterlimit:10;}
	.st3{fill:#F9C4DE;stroke:#EC398C;stroke-width:2;stroke-miterlimit:10;}
</style>
<path id="XMLID_262_" class="st0" d="M-18.9,139H-201c-6.3,0-12,4.7-12,11v131.8c0,6.3,5.7,11.1,12,11.1h69v44h-6v8h56v-8h-5v-44
	h68.1c6.3,0,11.9-4.8,11.9-11.1V150C-7,143.7-12.6,139-18.9,139z"/>
<path id="XMLID_269_" class="st0" d="M-235.9,248.4c-18.5,21.3-93.1,20.1-112.8,0c-4.6-4.7,0.6-33.1,0-26.5
	c-2.1,21.7,102.4,26.5,112.8,0C-233.4,215.7-231.5,243.4-235.9,248.4z"/>
<g>
	<path id="XMLID_268_" class="st1" d="M-235.9,278.2c-18.5,21.3-93.1,20.1-112.8,0c-4.6-4.7,0.6-33.1,0-26.5
		c-2.1,21.7,102.4,26.5,112.8,0C-233.4,245.6-231.5,273.2-235.9,278.2z"/>
	<ellipse id="XMLID_267_" class="st1" cx="-291.7" cy="212.1" rx="56.2" ry="23.2"/>
</g>
<path id="XMLID_266_" class="st0" d="M-235.9,308.7c-18.5,21.3-93.1,20.1-112.8,0c-4.6-4.7,0.6-33.1,0-26.5
	c-2.1,21.7,102.4,26.5,112.8,0C-233.4,276.1-231.5,303.7-235.9,308.7z"/>
<rect id="XMLID_289_" x="-266.1" y="147" class="st0" width="16.2" height="16.2"/>
<rect id="XMLID_287_" x="-245.2" y="124.3" class="st0" width="16.2" height="16.2"/>
<rect id="XMLID_285_" x="-286.9" y="124.3" class="st0" width="16.2" height="16.2"/>
<rect id="XMLID_282_" x="-266.1" y="101.5" class="st0" width="16.2" height="16.2"/>
<rect id="XMLID_281_" x="-286.9" y="101.5" class="st0" width="16.2" height="16.2"/>
<rect id="XMLID_280_" x="-203.5" y="78.8" class="st0" width="16.2" height="16.2"/>
<rect id="XMLID_276_" x="-286.9" y="78.8" class="st0" width="16.2" height="16.2"/>
<rect id="XMLID_275_" x="-203.5" y="56.1" class="st0" width="16.2" height="16.2"/>
<rect id="XMLID_274_" x="-224.3" y="56.1" class="st0" width="16.2" height="16.2"/>
<rect id="XMLID_273_" x="-245.2" y="56.1" class="st0" width="16.2" height="16.2"/>
<rect id="XMLID_121_" x="-286.9" y="56.1" class="st0" width="16.2" height="16.2"/>
<rect id="XMLID_290_" x="-245.1" y="147" class="st0" width="16.2" height="16.2"/>
<rect id="XMLID_258_" x="-201.8" y="145.7" class="st0" width="183.3" height="136.1"/>
<g>
	<rect id="XMLID_288_" x="-286.9" y="147" class="st1" width="16.2" height="16.2"/>
	<rect id="XMLID_286_" x="-266.1" y="124.3" class="st1" width="16.2" height="16.2"/>
	<rect id="XMLID_284_" x="-224.3" y="101.5" class="st1" width="16.2" height="16.2"/>
	<rect id="XMLID_283_" x="-245.2" y="101.5" class="st1" width="16.2" height="16.2"/>
	<rect id="XMLID_279_" x="-224.3" y="78.8" class="st1" width="16.2" height="16.2"/>
	<rect id="XMLID_278_" x="-245.2" y="78.8" class="st1" width="16.2" height="16.2"/>
	<rect id="XMLID_277_" x="-266.1" y="78.8" class="st1" width="16.2" height="16.2"/>
	<rect id="XMLID_272_" x="-266.1" y="56.1" class="st1" width="16.2" height="16.2"/>
	<rect id="XMLID_291_" x="-203.5" y="101.5" class="st1" width="16.2" height="16.2"/>
	<path id="XMLID_260_" class="st1" d="M-79.9,196c-13.8-12.6-11.5-7.1-11-25.8c-12.6,13.8-7.1,11.5-25.8,11
		c13.8,12.6,11.5,7.1,10.9,25.8C-93.2,193.2-98.6,195.5-79.9,196z"/>
</g>
<path id="XMLID_259_" class="st0" d="M-109.8,240.7c-7.4-6.7-6.1-3.8-5.9-13.8c-6.7,7.4-3.8,6.1-13.8,5.9c7.4,6.7,6.1,3.8,5.9,13.8
	C-116.8,239.1-119.8,240.4-109.8,240.7z"/>
<path id="XMLID_234_" class="st0" d="M-139,213.7c6.7-7.4,3.8-6.1,13.8-5.9c-7.4-6.7-6.1-3.8-5.9-13.8c-6.7,7.4-3.8,6.1-13.8,5.9
	C-137.4,206.6-138.7,203.7-139,213.7z"/>
<g id="XMLID_1_">
	<path id="XMLID_32_" class="st2" d="M449.1,142.3H267c-6.3,0-12,4.7-12,11v131.8c0,6.3,5.7,11.1,12,11.1h69v44h-6v8h56v-8h-5v-44
		h68.1c6.3,0,11.9-4.8,11.9-11.1V153.3C461,147,455.4,142.3,449.1,142.3z"/>
	<g id="XMLID_27_">
		<path id="XMLID_31_" class="st2" d="M232.1,251.7c-18.5,21.3-93.1,20.1-112.8,0c-4.6-4.7,0.6-33.1,0-26.5
			c-2.1,21.7,102.4,26.5,112.8,0C234.6,219,236.5,246.7,232.1,251.7z"/>
		<path id="XMLID_30_" class="st3" d="M232.1,281.5c-18.5,21.3-93.1,20.1-112.8,0c-4.6-4.7,0.6-33.1,0-26.5
			c-2.1,21.7,102.4,26.5,112.8,0C234.6,248.9,236.5,276.5,232.1,281.5z"/>
		<ellipse id="XMLID_29_" class="st3" cx="176.3" cy="215.4" rx="56.2" ry="23.2"/>
		<path id="XMLID_28_" class="st2" d="M232.1,312c-18.5,21.3-93.1,20.1-112.8,0c-4.6-4.7,0.6-33.1,0-26.5
			c-2.1,21.7,102.4,26.5,112.8,0C234.6,279.4,236.5,307,232.1,312z"/>
	</g>
	<rect id="XMLID_26_" x="201.9" y="150.3" class="st2" width="16.2" height="16.2"/>
	<rect id="XMLID_25_" x="181.1" y="150.3" class="st3" width="16.2" height="16.2"/>
	<rect id="XMLID_24_" x="222.8" y="127.6" class="st2" width="16.2" height="16.2"/>
	<rect id="XMLID_23_" x="201.9" y="127.6" class="st3" width="16.2" height="16.2"/>
	<rect id="XMLID_22_" x="181.1" y="127.6" class="st2" width="16.2" height="16.2"/>
	<rect id="XMLID_21_" x="243.7" y="104.8" class="st3" width="16.2" height="16.2"/>
	<rect id="XMLID_20_" x="222.8" y="104.8" class="st3" width="16.2" height="16.2"/>
	<rect id="XMLID_19_" x="201.9" y="104.8" class="st2" width="16.2" height="16.2"/>
	<rect id="XMLID_18_" x="181.1" y="104.8" class="st2" width="16.2" height="16.2"/>
	<rect id="XMLID_17_" x="264.5" y="82.1" class="st2" width="16.2" height="16.2"/>
	<rect id="XMLID_16_" x="243.7" y="82.1" class="st3" width="16.2" height="16.2"/>
	<rect id="XMLID_15_" x="222.8" y="82.1" class="st3" width="16.2" height="16.2"/>
	<rect id="XMLID_14_" x="201.9" y="82.1" class="st3" width="16.2" height="16.2"/>
	<rect id="XMLID_13_" x="181.1" y="82.1" class="st2" width="16.2" height="16.2"/>
	<rect id="XMLID_12_" x="264.5" y="59.4" class="st2" width="16.2" height="16.2"/>
	<rect id="XMLID_11_" x="243.7" y="59.4" class="st2" width="16.2" height="16.2"/>
	<rect id="XMLID_10_" x="222.8" y="59.4" class="st2" width="16.2" height="16.2"/>
	<rect id="XMLID_9_" x="201.9" y="59.4" class="st3" width="16.2" height="16.2"/>
	<rect id="XMLID_8_" x="181.1" y="59.4" class="st2" width="16.2" height="16.2"/>
	<rect id="XMLID_7_" x="222.9" y="150.3" class="st2" width="16.2" height="16.2"/>
	<rect id="XMLID_6_" x="264.5" y="104.8" class="st3" width="16.2" height="16.2"/>
	<rect id="XMLID_5_" x="266.2" y="149" class="st2" width="183.3" height="136.1"/>
	<path id="XMLID_4_" class="st3" d="M388.1,199.3c-13.8-12.6-11.5-7.1-11-25.8c-12.6,13.8-7.1,11.5-25.8,11
		c13.8,12.6,11.5,7.1,10.9,25.8C374.8,196.5,369.4,198.8,388.1,199.3z"/>
	<path id="XMLID_3_" class="st2" d="M358.2,244c-7.4-6.7-6.1-3.8-5.9-13.8c-6.7,7.4-3.8,6.1-13.8,5.9c7.4,6.7,6.1,3.8,5.9,13.8
		C351.2,242.4,348.2,243.7,358.2,244z"/>
	<path id="XMLID_2_" class="st2" d="M329,217c6.7-7.4,3.8-6.1,13.8-5.9c-7.4-6.7-6.1-3.8-5.9-13.8c-6.7,7.4-3.8,6.1-13.8,5.9
		C330.6,209.9,329.3,207,329,217z"/>
</g>
</svg>
