<?xml version="1.0" encoding="utf-8"?>
<!-- Generator: Adobe Illustrator 19.0.0, SVG Export Plug-In . SVG Version: 6.00 Build 0)  -->
<svg version="1.1" id="Слой_1" xmlns="http://www.w3.org/2000/svg" xmlns:xlink="http://www.w3.org/1999/xlink" x="0px" y="0px"
	 viewBox="-389 46 420 310" style="enable-background:new -389 46 420 310;" xml:space="preserve">
<style type="text/css">
	.st0{fill:none;stroke:#2196F3;stroke-width:2;stroke-miterlimit:10;}
	.st1{fill:#BBDEFB;stroke:#2196F3;stroke-width:2;stroke-miterlimit:10;}
</style>
<path id="XMLID_81_" class="st0" d="M-0.4,315.8h-197.4c-13.6,0-24.7-11.1-24.7-24.7V187.5c0-13.6,11.1-24.7,24.7-24.7H-0.4
	c13.6,0,24.7,11.1,24.7,24.7v103.6C24.3,304.7,13.2,315.8-0.4,315.8z"/>
<circle id="XMLID_79_" class="st0" cx="-27.7" cy="286.7" r="16"/>
<polygon id="XMLID_76_" class="st0" points="-195.1,245 -211.8,261.7 -195,278.4 "/>
<line id="XMLID_70_" class="st0" x1="-258.4" y1="117" x2="-340.4" y2="135.7"/>
<g>
	<rect id="XMLID_80_" x="-222.5" y="186.7" class="st1" width="246.8" height="36.1"/>
	<circle id="XMLID_77_" class="st1" cx="-6.5" cy="286.7" r="16"/>
	<rect id="XMLID_74_" x="-154" y="234" class="st1" width="55" height="11"/>
	<rect id="XMLID_73_" x="-90" y="234" class="st1" width="51" height="11"/>
	<rect id="XMLID_72_" x="-28" y="234" class="st1" width="37" height="11"/>
	<circle id="XMLID_71_" class="st1" cx="-230.3" cy="117.2" r="28.2"/>
	<circle id="XMLID_69_" class="st1" cx="-361.5" cy="138.2" r="20.6"/>
</g>
<line id="XMLID_68_" class="st0" x1="-354.2" y1="157.5" x2="-313.5" y2="200.4"/>
<circle id="XMLID_67_" class="st0" cx="-293.8" cy="212.8" r="23.3"/>
</svg>
