<?xml version="1.0" encoding="utf-8"?>
<!-- Generator: Adobe Illustrator 19.0.0, SVG Export Plug-In . SVG Version: 6.00 Build 0)  -->
<svg version="1.1" id="Слой_1" xmlns="http://www.w3.org/2000/svg" xmlns:xlink="http://www.w3.org/1999/xlink" x="0px" y="0px"
	 viewBox="-389 46 420 310" style="enable-background:new -389 46 420 310;" xml:space="preserve">
<style type="text/css">
	.st0{fill:none;stroke:#F49522;stroke-width:2;stroke-miterlimit:10;}
	.st1{fill:#FCE5D4;stroke:#F49522;stroke-width:2;stroke-miterlimit:10;}
	.st2{fill:#394D54;}
	.st3{fill:#00AADA;}
	.st4{fill:#24B8EB;}
	.st5{fill:#008BB8;}
	.st6{fill:#039BC6;}
	.st7{display:none;}
	.st8{display:inline;fill:#394D54;}
	.st9{fill:#00ACD3;}
	.st10{fill:#20C2EF;}
	.st11{fill:#D4EDF1;}
	.st12{fill:#BFDBE0;}
	.st13{fill:#2CABDF;}
	.st14{fill:none;stroke:#F49522;stroke-width:3;stroke-miterlimit:10;}
	.st15{fill:#FCE5D4;stroke:#F49522;stroke-width:3;stroke-miterlimit:10;}
</style>
<circle id="XMLID_319_" class="st0" cx="-261.8" cy="54.4" r="3.4"/>
<g>
	<ellipse id="XMLID_323_" class="st0" cx="-261.8" cy="151.2" rx="123.7" ry="28.6"/>
	<path id="XMLID_321_" class="st0" d="M-352.9,170.5c12.2,27.3,49.3,47.1,93.2,47.1c44.6,0,82.2-20.5,93.8-48.4
		c-22.7,6.4-57.2,10.5-95.9,10.5C-297.9,179.7-330.2,176.2-352.9,170.5z"/>
	<line id="XMLID_320_" class="st0" x1="-262.1" y1="80" x2="-262.1" y2="58"/>
	<g>
		
			<ellipse id="XMLID_324_" transform="matrix(0.6115 -0.7913 0.7913 0.6115 -245.979 -184.3771)" class="st1" cx="-310.7" cy="158.3" rx="11.6" ry="7.6"/>
		<path id="XMLID_322_" class="st1" d="M-261.8,79.4c-24.8,0-45,19.3-45,43.1c0,7.4,2,14.4,5.4,20.5c24.2,7.2,55.5,6.5,79.9-1.4
			c3-5.8,4.6-12.2,4.6-19.1C-216.8,98.7-236.9,79.4-261.8,79.4z"/>
		<ellipse id="XMLID_318_" class="st1" cx="-261.8" cy="164" rx="7.6" ry="11.6"/>
		
			<ellipse id="XMLID_317_" transform="matrix(-0.7913 -0.6115 0.6115 -0.7913 -479.1545 150.5752)" class="st1" cx="-213.9" cy="157.1" rx="11.6" ry="7.6"/>
		<path id="XMLID_270_" class="st1" d="M-157.2,329.9l-0.1-1c-0.2-0.8-0.7-1.5-1.4-2.3l-64.7-113.9c-11.4,2.4-23.4,3.7-36.2,3.8
			c-12.8,0-24.9-1.3-36.3-3.7l-64.7,113.9c-0.7,0.8-1.2,0.9-1.4,1.7l0,0l0,0c-0.1,1-0.1,0.8-0.1,1.1c0,11.2,45.9,20.7,102.5,20.7
			S-157.2,341.1-157.2,329.9"/>
	</g>
</g>
<g id="XMLID_115_">
	<path id="docker" class="st2" d="M-8.7,169.9c1.7-1.5,3.4-2.9,5.1-4.4c0.6-0.5,1.2-1,1.8-1.6c-0.5-0.6-1.2-1-1.9-1.3
		c-1.3-0.5-2.6-0.3-3.9,0.4c-1.6,0.9-2.3,2.4-2.2,4.2c0,0.7,0.2,1.4,0.6,2C-9,169.5-8.8,169.7-8.7,169.9 M-6.7,171.3
		c0.8,0.3,1.8,0.3,2.7,0.1c0.4-0.2,1.6-0.7,2-0.6h0.1h0.1c0.3,0.1,0.5,0.3,0.6,0.6c0.3,0.6,0.2,1.2-0.4,1.6H-2
		c-2.2,1.3-4.5,1.1-6.7-0.1c-1-0.6-1.8-1.4-2.4-2.4l-0.1-0.2c-1.4-2.4-1.2-5,0.4-7.3c0.5-0.8,1.3-1.4,2.1-1.9l0.3-0.2
		c2.1-1.2,4.3-1.1,6.4-0.1c1.1,0.6,2.1,1.4,2.7,2.5l0.1,0.2c0.5,0.8-0.1,1.5-0.8,2c-0.7,0.6-1.4,1.2-2.1,1.8
		C-3.6,168.6-5.2,170-6.7,171.3z M9.7,160.2h0.2c0.7,0,1.2,0.5,1.2,1.2c0,1-0.9,1.2-1.7,1.2c-1,0-2,0.6-2.7,1.3
		c-0.9,0.9-1.3,2-1.3,3.2v5.6c0,0.6-0.4,1.2-1.1,1.2H4.1c-0.7,0-1.1-0.5-1.1-1.2v-5.9c0-2.3,1.1-4.1,2.9-5.4
		C7.1,160.6,8.3,160.2,9.7,160.2z M-19.1,164.2c0.9-0.9,1.8-1.8,2.7-2.7c0.3-0.2,1.2-1.3,1.6-1.3h0.4l0,0c0.5,0.1,0.9,0.4,0.9,1v0.2
		c0,0.4-0.5,0.8-0.7,1.1c-0.5,0.6-1.1,1.1-1.6,1.7l-2.8,2.8c1.2,1.2,2.4,2.4,3.6,3.6c0.3,0.3,0.7,0.7,1,1c0.1,0.1,0.3,0.3,0.4,0.4
		c0.1,0.2,0.2,0.3,0.2,0.5v0.2v0.1c-0.1,0.5-0.5,1-1,1h-0.2c-0.4,0-0.8-0.4-1.1-0.7c-0.5-0.5-1.1-1-1.6-1.6l-1.8-1.7v2.8
		c0,0.6-0.4,1.2-1.1,1.2h-0.2c-0.7,0-1.1-0.5-1.1-1.2V157c0-0.6,0.4-1.2,1.1-1.2h0.2c0.7,0,1.1,0.5,1.1,1.2V164.2z M-26.5,162.6
		c-0.3-0.2-1-0.2-1.4-0.2c-1.9-0.1-3.3,1-4.1,2.7c-0.3,0.6-0.4,1.2-0.4,1.9c0,2,1,3.4,2.8,4.2c0.6,0.3,1.5,0.4,2.2,0.4
		c0.6,0,1.5-0.4,2-0.6h0.1h0.4l0,0c0.5,0.1,0.9,0.4,0.9,1v0.2c0,1.4-2.6,1.7-3.5,1.8c-3.5,0.2-6-1.7-7-5c-0.2-0.6-0.2-1.1-0.2-1.7
		v-0.5c0-2.5,1.2-4.5,3.4-5.8c1-0.6,2.1-0.9,3.3-0.9h0.5c1.2,0,2.4,0.3,3.4,1l0.1,0.1l0.1,0.1c0.1,0.2,0.2,0.4,0.2,0.6v0.2
		c0,0.6-0.4,0.9-1,1l0,0h-0.1C-25.4,163.1-26.2,162.8-26.5,162.6z M-47.6,167c0,1.8,0.9,3,2.3,3.9c0.7,0.4,1.5,0.6,2.3,0.6
		c1.7,0,3-0.9,3.9-2.3c0.4-0.7,0.6-1.5,0.6-2.3c0-1.6-0.8-2.9-2.1-3.8c-0.7-0.5-1.6-0.7-2.4-0.7c-1.9,0-3.3,1-4.2,2.7
		C-47.4,165.7-47.6,166.4-47.6,167z M-43.2,160.1h0.3c2.7,0,4.7,1.3,6,3.6c0.5,0.9,0.8,2,0.8,3v0.5c0,2.5-1.2,4.5-3.4,5.8
		c-1,0.6-2.1,0.9-3.3,0.9h-0.5c-2.5,0-4.5-1.2-5.8-3.4c-0.6-1-0.9-2.1-0.9-3.3v-0.5c0-2.5,1.2-4.5,3.4-5.8
		C-45.5,160.4-44.4,160.1-43.2,160.1z M-62.7,167c0,1.8,0.9,3.2,2.5,4c0.6,0.4,1.3,0.5,2.1,0.5c1.8,0,3.1-0.8,4-2.3
		c0.4-0.7,0.6-1.5,0.6-2.3c0-1.6-0.7-2.8-2-3.7c-0.8-0.6-1.6-0.8-2.6-0.8c-1.9,0-3.3,1-4.2,2.7C-62.5,165.7-62.7,166.4-62.7,167z
		 M-53.5,161.9V157c0-0.6,0.4-1.2,1.1-1.2h0.2c0.7,0,1.1,0.5,1.1,1.2v10.3c0,2.5-1.2,4.5-3.4,5.8c-1,0.6-2.1,0.9-3.3,0.9h-0.5
		c-2.5,0-4.5-1.2-5.8-3.4c-0.6-1-0.9-2.1-0.9-3.3v-0.5c0-2.5,1.2-4.5,3.4-5.8c1-0.6,2.1-0.9,3.3-0.9h0.5
		C-56.2,160.1-54.7,160.8-53.5,161.9z"/>
	<path id="outline" class="st2" d="M-21.1,123.7h6.8v7h3.4c1.6,0,3.2-0.3,4.7-0.8c0.7-0.3,1.6-0.6,2.3-1c-1-1.3-1.5-2.8-1.6-4.4
		c-0.2-2.1,0.2-4.9,1.7-6.5l0.7-0.8l0.9,0.7c2.1,1.7,4,4.1,4.3,6.9c2.6-0.8,5.6-0.6,7.9,0.7l0.9,0.5l-0.5,1c-1.9,3.8-6,4.9-9.9,4.7
		c-5.9,14.7-18.7,21.6-34.3,21.6c-8,0-15.4-3-19.6-10.1l-0.1-0.1l-0.6-1.2c-1.4-3.1-1.9-6.6-1.6-10l0.1-1h5.8v-7h6.8v-6.8h13.6v-6.8
		h8.2v13.4H-21.1z"/>
	<g id="body_colors">
		<path id="XMLID_249_" class="st3" d="M0.9,126.3c0.5-3.5-2.2-6.3-3.8-7.7c-1.9,2.2-2.2,7.9,0.8,10.4c-1.7,1.5-5.2,2.8-8.7,2.8
			h-43.6c-0.3,3.7,0.3,7.2,1.8,10.1l0.5,0.9c0.3,0.5,0.7,1,1,1.5l0,0c1.8,0.1,3.4,0.2,5,0.1l0,0c3-0.1,5.4-0.4,7.2-1.1
			c0.3-0.1,0.6,0,0.7,0.3c0.1,0.3-0.1,0.6-0.3,0.7c-0.2,0.1-0.5,0.2-0.8,0.2l0,0c-1.4,0.4-3,0.7-5,0.8c0.1,0-0.1,0-0.1,0
			c-0.1,0-0.2,0-0.2,0c-0.8,0-1.6,0.1-2.5,0.1c-1,0-1.9,0-2.9-0.1l0,0c3.6,4.1,9.3,6.5,16.4,6.5c15.1,0,27.9-6.7,33.5-21.7
			c4,0.4,7.9-0.6,9.6-4C6.6,124.7,3,125.2,0.9,126.3z"/>
		<path id="XMLID_248_" class="st4" d="M0.9,126.3c0.5-3.5-2.2-6.3-3.8-7.7c-1.9,2.2-2.2,7.9,0.8,10.4c-1.7,1.5-5.2,2.8-8.7,2.8h-41
			c-0.2,5.7,1.9,10.1,5.7,12.7l0,0c3-0.1,5.4-0.4,7.2-1.1c0.3-0.1,0.6,0,0.7,0.3s-0.1,0.6-0.3,0.7c-0.2,0.1-0.5,0.2-0.8,0.2l0,0
			c-1.4,0.4-3.1,0.7-5.1,0.9l0,0c5.1,2.6,12.6,2.6,21.1-0.7c9.6-3.7,18.5-10.7,24.7-18.7C1.1,126.2,1,126.2,0.9,126.3z"/>
		<path id="XMLID_247_" class="st5" d="M-54.4,136.3c0.3,2,0.9,3.9,1.7,5.6l0.5,0.9c0.3,0.5,0.7,1,1,1.5c1.8,0.1,3.4,0.2,5,0.1
			c3-0.1,5.4-0.4,7.2-1.1c0.3-0.1,0.6,0,0.7,0.3s-0.1,0.6-0.3,0.7c-0.2,0.1-0.5,0.2-0.8,0.2l0,0c-1.4,0.4-3.1,0.7-5.1,0.8
			c-0.1,0-0.2,0-0.3,0c-0.8,0-1.6,0.1-2.5,0.1c-1,0-1.9,0-3-0.1c3.6,4.1,9.4,6.5,16.5,6.5c12.9,0,24.1-4.9,30.6-15.7h-51.2V136.3z"
			/>
		<path id="XMLID_246_" class="st6" d="M-51.5,136.3c0.8,3.5,2.6,6.3,5.3,8.2c3-0.1,5.4-0.4,7.2-1.1c0.3-0.1,0.6,0,0.7,0.3
			c0.1,0.3-0.1,0.6-0.3,0.7c-0.2,0.1-0.5,0.2-0.8,0.2l0,0c-1.4,0.4-3.2,0.7-5.2,0.8c5.1,2.6,12.5,2.6,21.1-0.7
			c5.2-2,10.1-4.9,14.6-8.5L-51.5,136.3L-51.5,136.3z"/>
	</g>
	<g id="XMLID_244_" class="st7">
		<path id="XMLID_245_" class="st8" d="M-47.3,145.5c0.9,0,1.7,0,2.5-0.1c0.1,0,0.1,0,0.2,0l0,0c2-0.1,3.7-0.4,5.2-0.8l0,0
			c0.3-0.1,0.5-0.2,0.8-0.2c0.3-0.1,0.4-0.4,0.3-0.7c-0.1-0.3-0.4-0.4-0.7-0.3c-1.8,0.6-4.3,1-7.2,1.1l0,0c-1.5,0-3.2,0-5-0.1l0,0
			c-0.1,0-0.2,0-0.3,0c-0.3,0-0.5,0.2-0.6,0.5c0,0.3,0.2,0.5,0.5,0.6c0.4,0,0.7,0,1.1,0.1c0.1,0,0.1,0,0.2,0l0,0
			C-49.2,145.5-48.2,145.5-47.3,145.5z"/>
	</g>
	<g id="Containers">
		<path id="XMLID_236_" class="st9" d="M-43.6,125.3h0.5v4.9h-0.5V125.3z M-44.5,125.3h0.5v4.9h-0.5V125.3z M-45.4,125.3h0.5v4.9
			h-0.5V125.3z M-46.3,125.3h0.5v4.9h-0.5V125.3z M-47.2,125.3h0.5v4.9h-0.5V125.3z M-48.1,125.3h0.5v4.9h-0.5V125.3z M-48.6,124.8
			h5.9v5.9h-5.9V124.8z"/>
		<path id="XMLID_227_" class="st9" d="M-36.8,118.5h0.5v4.9h-0.5V118.5z M-37.7,118.5h0.5v4.9h-0.5V118.5z M-38.6,118.5h0.5v4.9
			h-0.5V118.5z M-39.5,118.5h0.5v4.9h-0.5V118.5z M-40.4,118.5h0.5v4.9h-0.5V118.5z M-41.3,118.5h0.5v4.9h-0.5V118.5z M-41.8,118
			h5.9v5.9h-5.9V118z"/>
		<path id="XMLID_219_" class="st10" d="M-36.8,125.3h0.5v4.9h-0.5V125.3z M-37.7,125.3h0.5v4.9h-0.5V125.3z M-38.6,125.3h0.5v4.9
			h-0.5V125.3z M-39.5,125.3h0.5v4.9h-0.5V125.3z M-40.4,125.3h0.5v4.9h-0.5V125.3z M-41.3,125.3h0.5v4.9h-0.5V125.3z M-41.8,124.8
			h5.9v5.9h-5.9V124.8z"/>
		<path id="XMLID_211_" class="st9" d="M-30,125.3h0.5v4.9H-30V125.3z M-30.9,125.3h0.5v4.9h-0.5V125.3z M-31.8,125.3h0.5v4.9h-0.5
			V125.3z M-32.7,125.3h0.5v4.9h-0.5V125.3z M-33.6,125.3h0.5v4.9h-0.5V125.3z M-34.5,125.3h0.5v4.9h-0.5V125.3z M-35,124.8h5.9v5.9
			H-35V124.8z"/>
		<path id="XMLID_203_" class="st10" d="M-30,118.5h0.5v4.9H-30V118.5z M-30.9,118.5h0.5v4.9h-0.5V118.5z M-31.8,118.5h0.5v4.9h-0.5
			V118.5z M-32.7,118.5h0.5v4.9h-0.5V118.5z M-33.6,118.5h0.5v4.9h-0.5V118.5z M-34.5,118.5h0.5v4.9h-0.5V118.5z M-35,118h5.9v5.9
			H-35V118z"/>
		<path id="XMLID_195_" class="st10" d="M-23.2,125.3h0.5v4.9h-0.5V125.3z M-24.1,125.3h0.5v4.9h-0.5V125.3z M-25,125.3h0.5v4.9H-25
			V125.3z M-25.9,125.3h0.5v4.9h-0.5V125.3z M-26.8,125.3h0.5v4.9h-0.5V125.3z M-27.7,125.3h0.5v4.9h-0.5V125.3z M-28.2,124.8h5.9
			v5.9h-5.9V124.8z"/>
		<path id="XMLID_185_" class="st9" d="M-23.2,118.5h0.5v4.9h-0.5V118.5z M-24.1,118.5h0.5v4.9h-0.5V118.5z M-25,118.5h0.5v4.9H-25
			V118.5z M-25.9,118.5h0.5v4.9h-0.5V118.5z M-26.8,118.5h0.5v4.9h-0.5V118.5z M-27.7,118.5h0.5v4.9h-0.5V118.5z M-28.2,118h5.9v5.9
			h-5.9V118z"/>
		<path id="XMLID_174_" class="st10" d="M-23.2,111.7h0.5v4.9h-0.5V111.7z M-24.1,111.7h0.5v4.9h-0.5V111.7z M-25,111.7h0.5v4.9H-25
			V111.7z M-25.9,111.7h0.5v4.9h-0.5V111.7z M-26.8,111.7h0.5v4.9h-0.5V111.7z M-27.7,111.7h0.5v4.9h-0.5V111.7z M-28.2,111.2h5.9
			v5.9h-5.9V111.2z"/>
		<path id="XMLID_160_" class="st9" d="M-16.4,125.3h0.5v4.9h-0.5V125.3z M-17.3,125.3h0.5v4.9h-0.5V125.3z M-18.2,125.3h0.5v4.9
			h-0.5V125.3z M-19.1,125.3h0.5v4.9h-0.5V125.3z M-20,125.3h0.5v4.9H-20V125.3z M-20.9,125.3h0.5v4.9h-0.5V125.3z M-21.4,124.8h5.9
			v5.9h-5.9V124.8z"/>
	</g>
	<path id="XMLID_158_" class="st11" d="M-36.2,140.3c0.9,0,1.6,0.7,1.6,1.6c0,0.9-0.7,1.6-1.6,1.6s-1.6-0.7-1.6-1.6
		C-37.8,141-37.1,140.3-36.2,140.3"/>
	<path id="XMLID_156_" class="st2" d="M-36.2,140.7c0.1,0,0.3,0,0.4,0.1c-0.1,0.1-0.2,0.2-0.2,0.4c0,0.3,0.2,0.5,0.5,0.5
		c0.2,0,0.3-0.1,0.4-0.2c0.1,0.1,0.1,0.3,0.1,0.4c0,0.6-0.5,1.2-1.2,1.2c-0.6,0-1.2-0.5-1.2-1.2C-37.4,141.3-36.9,140.7-36.2,140.7"
		/>
	<path id="XMLID_140_" class="st2" d="M-65,136.9h35.6h4.4h35.6c-1.6-0.4-5.2-1-4.6-3.1c-3,3.5-10.2,2.4-12,0.7
		c-2,2.9-13.9,1.8-14.7-0.5c-2.5,3-10.4,3-13,0c-0.8,2.3-12.6,3.4-14.7,0.5c-1.8,1.7-9.1,2.7-12-0.7
		C-59.8,135.9-63.4,136.5-65,136.9"/>
	<path id="XMLID_119_" class="st12" d="M-31.9,152c-4-1.9-6.2-4.5-7.5-7.3c-1.5,0.4-3.3,0.7-5.4,0.8c-0.8,0-1.6,0.1-2.5,0.1
		c-1,0-2.1,0-3.2-0.1c3.7,3.7,8.2,6.5,16.7,6.6C-33.2,152-32.5,152-31.9,152z"/>
	<path id="XMLID_118_" class="st11" d="M-37.9,147.3c-0.6-0.8-1.1-1.7-1.5-2.6c-1.5,0.4-3.3,0.7-5.4,0.8
		C-43.3,146.3-41.3,147-37.9,147.3z"/>
</g>
<line id="XMLID_114_" class="st0" x1="-82" y1="198" x2="28" y2="198"/>
<g id="XMLID_98_">
	<polygon id="XMLID_315_" class="st2" points="-28.2,218.9 -41.2,226.4 -41.2,226.4 -28.2,233.9 	"/>
	<polygon id="XMLID_314_" class="st2" points="-26.4,233.9 -13.3,226.4 -13.3,226.4 -26.4,218.9 	"/>
	<polygon id="XMLID_313_" class="st13" points="-28.2,237.5 -41.2,245 -41.2,245 -28.2,252.5 	"/>
	<polygon id="XMLID_312_" class="st13" points="-26.4,252.5 -13.3,245 -13.3,245 -26.4,237.5 	"/>
	<polygon id="XMLID_311_" class="st2" points="-28.2,255.8 -41.3,263.3 -41.3,263.3 -28.2,270.8 	"/>
	<polygon id="XMLID_310_" class="st2" points="-26.4,270.8 -13.3,263.3 -13.3,263.3 -26.4,255.8 	"/>
	<polygon id="XMLID_309_" class="st13" points="-43.9,228.3 -57,235.8 -57,235.8 -43.9,243.3 	"/>
	<polygon id="XMLID_308_" class="st13" points="-42.1,243.3 -29.1,235.8 -29.1,235.8 -42.1,228.3 	"/>
	<polygon id="XMLID_307_" class="st13" points="-12.2,228.3 -25.2,235.8 -25.2,235.8 -12.2,243.4 	"/>
	<polygon id="XMLID_306_" class="st13" points="-10.3,243.4 2.7,235.8 2.7,235.8 -10.3,228.3 	"/>
	<polygon id="XMLID_305_" class="st2" points="-12.2,246.7 -25.2,254.2 -25.2,254.2 -12.2,261.7 	"/>
	<polygon id="XMLID_304_" class="st13" points="-10.3,261.7 2.7,254.2 2.7,254.2 -10.3,246.7 	"/>
	<polygon id="XMLID_303_" class="st13" points="-43.9,246.6 -57,254.1 -57,254.1 -43.9,261.6 	"/>
	<polygon id="XMLID_302_" class="st2" points="-42.1,261.6 -29.1,254.1 -29.1,254.1 -42.1,246.6 	"/>
	<polygon id="XMLID_301_" class="st2" points="-28.2,274.4 -41.3,281.9 -41.3,281.9 -28.2,289.5 	"/>
	<polygon id="XMLID_300_" class="st2" points="-26.4,289.5 -13.3,281.9 -13.3,281.9 -26.4,274.4 	"/>
	<polygon id="XMLID_299_" class="st2" points="-12.2,265.3 -25.2,272.8 -25.2,272.8 -12.2,280.3 	"/>
	<polygon id="XMLID_298_" class="st13" points="-10.3,280.3 2.7,272.8 2.7,272.8 -10.3,265.3 	"/>
	<polygon id="XMLID_297_" class="st13" points="-43.9,265.3 -57,272.8 -57,272.8 -43.9,280.3 	"/>
	<polygon id="XMLID_113_" class="st2" points="-42.1,280.3 -29.1,272.8 -29.1,272.8 -42.1,265.3 	"/>
	<polygon id="XMLID_295_" class="st13" points="-58.2,270.8 -45.1,263.3 -45.1,263.3 -58.2,255.8 	"/>
	<polygon id="XMLID_100_" class="st13" points="-58.2,252.5 -45.1,245 -45.1,245 -58.2,237.5 	"/>
	<polygon id="XMLID_293_" class="st13" points="4.1,237.5 -9,245 -9,245 4.1,252.5 	"/>
	<polygon id="XMLID_99_" class="st13" points="4.1,255.9 -9,263.4 -9,263.4 4.1,270.9 	"/>
</g>
<rect id="XMLID_389_" x="71.2" y="168" transform="matrix(0.9405 -0.3397 0.3397 0.9405 -55.2384 37.6235)" class="st14" width="17.2" height="17.2"/>
<rect id="XMLID_388_" x="92.1" y="160.5" transform="matrix(0.9405 -0.3397 0.3397 0.9405 -51.4466 44.2478)" class="st14" width="17.2" height="17.2"/>
<rect id="XMLID_387_" x="112.9" y="152.9" transform="matrix(0.9405 -0.3397 0.3397 0.9405 -47.6549 50.8721)" class="st15" width="17.2" height="17.2"/>
<rect id="XMLID_386_" x="133.7" y="145.4" transform="matrix(0.9405 -0.3397 0.3397 0.9405 -43.8631 57.4964)" class="st14" width="17.2" height="17.2"/>
<rect id="XMLID_385_" x="154.5" y="137.9" transform="matrix(0.9405 -0.3397 0.3397 0.9405 -40.0713 64.1207)" class="st15" width="17.2" height="17.2"/>
<rect id="XMLID_384_" x="79.4" y="190.7" transform="matrix(0.9405 -0.3397 0.3397 0.9405 -62.4539 41.7537)" class="st15" width="17.2" height="17.2"/>
<rect id="XMLID_383_" x="100.2" y="183.1" transform="matrix(0.9405 -0.3397 0.3397 0.9405 -58.6621 48.378)" class="st14" width="17.2" height="17.2"/>
<rect id="XMLID_382_" x="121.1" y="175.6" transform="matrix(0.9405 -0.3397 0.3397 0.9405 -54.8703 55.0023)" class="st14" width="17.2" height="17.2"/>
<rect id="XMLID_381_" x="141.9" y="168.1" transform="matrix(0.9405 -0.3397 0.3397 0.9405 -51.0786 61.6266)" class="st15" width="17.2" height="17.2"/>
<rect id="XMLID_380_" x="162.7" y="160.6" transform="matrix(0.9405 -0.3397 0.3397 0.9405 -47.2868 68.2509)" class="st14" width="17.2" height="17.2"/>
<rect id="XMLID_379_" x="87.6" y="213.3" transform="matrix(0.9405 -0.3397 0.3397 0.9405 -69.6694 45.8838)" class="st14" width="17.2" height="17.2"/>
<rect id="XMLID_378_" x="108.4" y="205.8" transform="matrix(0.9405 -0.3397 0.3397 0.9405 -65.8776 52.5081)" class="st15" width="17.2" height="17.2"/>
<rect id="XMLID_218_" x="129.3" y="198.3" transform="matrix(0.9405 -0.3397 0.3397 0.9405 -62.0858 59.1324)" class="st15" width="17.2" height="17.2"/>
<rect id="XMLID_217_" x="150.1" y="190.8" transform="matrix(0.9405 -0.3397 0.3397 0.9405 -58.2941 65.7567)" class="st14" width="17.2" height="17.2"/>
<rect id="XMLID_216_" x="170.9" y="183.3" transform="matrix(0.9405 -0.3397 0.3397 0.9405 -54.5023 72.3811)" class="st14" width="17.2" height="17.2"/>
<rect id="XMLID_215_" x="95.8" y="236" transform="matrix(0.9405 -0.3397 0.3397 0.9405 -76.8848 50.014)" class="st14" width="17.2" height="17.2"/>
<rect id="XMLID_214_" x="116.6" y="228.5" transform="matrix(0.9405 -0.3397 0.3397 0.9405 -73.0931 56.6383)" class="st15" width="17.2" height="17.2"/>
<rect id="XMLID_213_" x="137.4" y="221" transform="matrix(0.9405 -0.3397 0.3397 0.9405 -69.3013 63.2626)" class="st15" width="17.2" height="17.2"/>
<rect id="XMLID_212_" x="158.3" y="213.5" transform="matrix(0.9405 -0.3397 0.3397 0.9405 -65.5096 69.8869)" class="st15" width="17.2" height="17.2"/>
<rect id="XMLID_1_" x="179.1" y="205.9" transform="matrix(0.9405 -0.3397 0.3397 0.9405 -61.7178 76.5112)" class="st14" width="17.2" height="17.2"/>
<rect id="XMLID_363_" x="104" y="258.7" transform="matrix(0.9405 -0.3397 0.3397 0.9405 -84.1003 54.1441)" class="st14" width="17.2" height="17.2"/>
<rect id="XMLID_362_" x="124.8" y="251.2" transform="matrix(0.9405 -0.3397 0.3397 0.9405 -80.3086 60.7684)" class="st14" width="17.2" height="17.2"/>
<rect id="XMLID_360_" x="145.6" y="243.6" transform="matrix(0.9405 -0.3397 0.3397 0.9405 -76.5168 67.3928)" class="st14" width="17.2" height="17.2"/>
<rect id="XMLID_359_" x="166.4" y="236.1" transform="matrix(0.9405 -0.3397 0.3397 0.9405 -72.7251 74.0171)" class="st15" width="17.2" height="17.2"/>
<rect id="XMLID_358_" x="187.3" y="228.6" transform="matrix(0.9405 -0.3397 0.3397 0.9405 -68.9333 80.6414)" class="st14" width="17.2" height="17.2"/>
</svg>
