<?xml version="1.0" encoding="utf-8"?>
<!-- Generator: Adobe Illustrator 19.0.0, SVG Export Plug-In . SVG Version: 6.00 Build 0)  -->
<svg version="1.1" id="Слой_1" xmlns="http://www.w3.org/2000/svg" xmlns:xlink="http://www.w3.org/1999/xlink" x="0px" y="0px"
	 viewBox="-39 96 420 310" style="enable-background:new -39 96 420 310;" xml:space="preserve">
<style type="text/css">
	.st0{fill:none;stroke:#F49522;stroke-width:2;stroke-miterlimit:10;}
	.st1{fill:#FCE5D4;stroke:#F49522;stroke-width:2;stroke-miterlimit:10;}
	.st2{fill:#394D54;}
	.st3{fill:#2CABDF;}
	.st4{fill:#00AADA;}
	.st5{fill:#24B8EB;}
	.st6{fill:#008BB8;}
	.st7{fill:#039BC6;}
	.st8{display:none;}
	.st9{display:inline;fill:#394D54;}
	.st10{fill:#00ACD3;}
	.st11{fill:#20C2EF;}
	.st12{fill:#D4EDF1;}
	.st13{fill:#BFDBE0;}
	.st14{fill:#25B8EC;}
	.st15{fill:#0189B6;}
	.st16{enable-background:new    ;}
	.st17{fill:#FFFFFF;}
</style>
<circle id="XMLID_319_" class="st0" cx="88" cy="104.8" r="3.4"/>
<g>
	<ellipse id="XMLID_323_" class="st0" cx="88" cy="201.6" rx="123.7" ry="28.6"/>
	<path id="XMLID_321_" class="st0" d="M-3.1,220.9C9.1,248.2,46.1,268,90,268c44.6,0,82.2-20.5,93.8-48.4
		c-22.7,6.4-57.2,10.5-95.9,10.5C51.9,230.1,19.5,226.6-3.1,220.9z"/>
	<line id="XMLID_320_" class="st0" x1="87.6" y1="130.4" x2="87.6" y2="108.4"/>
	<g>
		
			<ellipse id="XMLID_324_" transform="matrix(-0.6115 0.7913 -0.7913 -0.6115 228.0329 305.3937)" class="st1" cx="39" cy="208.7" rx="11.6" ry="7.6"/>
		<path id="XMLID_322_" class="st1" d="M88,129.8c-24.8,0-45,19.3-45,43.1c0,7.4,2,14.4,5.4,20.5c24.2,7.2,55.5,6.5,79.9-1.4
			c3-5.8,4.6-12.2,4.6-19.1C132.9,149.1,112.9,129.8,88,129.8z"/>
		<ellipse id="XMLID_318_" class="st1" cx="88" cy="214.4" rx="7.6" ry="11.6"/>
		
			<ellipse id="XMLID_317_" transform="matrix(0.7913 0.6115 -0.6115 0.7913 155.1874 -39.7685)" class="st1" cx="135.8" cy="207.4" rx="11.6" ry="7.6"/>
		<path id="XMLID_270_" class="st1" d="M192.6,380.3l-0.1-1c-0.2-0.8-0.7-1.5-1.4-2.3l-64.7-113.9c-11.4,2.4-23.4,3.7-36.2,3.8
			c-12.8,0-24.9-1.3-36.3-3.7l-64.7,113.9c-0.7,0.8-1.2,0.9-1.4,1.7l0,0l0,0c-0.1,1-0.1,0.8-0.1,1.1c0,11.2,45.9,20.7,102.5,20.7
			S192.6,391.5,192.6,380.3"/>
	</g>
</g>
<line id="XMLID_114_" class="st0" x1="252.8" y1="262.6" x2="362.8" y2="262.6"/>
<g id="XMLID_98_">
	<polygon id="XMLID_315_" class="st2" points="306.5,277.5 293.5,285 293.5,285 306.5,292.5 	"/>
	<polygon id="XMLID_314_" class="st2" points="308.4,292.5 321.5,285 321.5,285 308.4,277.5 	"/>
	<polygon id="XMLID_313_" class="st3" points="306.5,296.1 293.5,303.6 293.5,303.6 306.5,311.1 	"/>
	<polygon id="XMLID_312_" class="st3" points="308.4,311.1 321.5,303.6 321.5,303.6 308.4,296.1 	"/>
	<polygon id="XMLID_311_" class="st2" points="306.5,314.4 293.5,321.9 293.5,321.9 306.5,329.4 	"/>
	<polygon id="XMLID_310_" class="st2" points="308.4,329.4 321.5,321.9 321.5,321.9 308.4,314.4 	"/>
	<polygon id="XMLID_309_" class="st3" points="290.9,286.9 277.8,294.4 277.8,294.4 290.9,301.9 	"/>
	<polygon id="XMLID_308_" class="st3" points="292.6,301.9 305.6,294.4 305.6,294.4 292.6,286.9 	"/>
	<polygon id="XMLID_307_" class="st3" points="322.5,286.9 309.5,294.4 309.5,294.4 322.5,302 	"/>
	<polygon id="XMLID_306_" class="st3" points="324.5,302 337.5,294.4 337.5,294.4 324.5,286.9 	"/>
	<polygon id="XMLID_305_" class="st2" points="322.5,305.3 309.5,312.8 309.5,312.8 322.5,320.3 	"/>
	<polygon id="XMLID_304_" class="st3" points="324.5,320.3 337.5,312.8 337.5,312.8 324.5,305.3 	"/>
	<polygon id="XMLID_303_" class="st3" points="290.9,305.2 277.8,312.7 277.8,312.7 290.9,320.2 	"/>
	<polygon id="XMLID_302_" class="st2" points="292.6,320.2 305.6,312.7 305.6,312.7 292.6,305.2 	"/>
	<polygon id="XMLID_301_" class="st2" points="306.5,333 293.5,340.5 293.5,340.5 306.5,348.1 	"/>
	<polygon id="XMLID_300_" class="st2" points="308.4,348.1 321.5,340.5 321.5,340.5 308.4,333 	"/>
	<polygon id="XMLID_299_" class="st2" points="322.5,323.9 309.5,331.4 309.5,331.4 322.5,338.9 	"/>
	<polygon id="XMLID_298_" class="st3" points="324.5,338.9 337.5,331.4 337.5,331.4 324.5,323.9 	"/>
	<polygon id="XMLID_297_" class="st3" points="290.9,323.9 277.8,331.4 277.8,331.4 290.9,338.9 	"/>
	<polygon id="XMLID_113_" class="st2" points="292.6,338.9 305.6,331.4 305.6,331.4 292.6,323.9 	"/>
	<polygon id="XMLID_295_" class="st3" points="276.5,329.4 289.6,321.9 289.6,321.9 276.5,314.4 	"/>
	<polygon id="XMLID_100_" class="st3" points="276.5,311.1 289.6,303.6 289.6,303.6 276.5,296.1 	"/>
	<polygon id="XMLID_293_" class="st3" points="338.9,296.1 325.8,303.6 325.8,303.6 338.9,311.1 	"/>
	<polygon id="XMLID_99_" class="st3" points="338.9,314.5 325.8,322 325.8,322 338.9,329.5 	"/>
</g>
<g id="XMLID_115_">
	<path id="docker" class="st2" d="M326,213.5c1.7-1.5,3.4-2.9,5.1-4.4c0.6-0.5,1.2-1,1.8-1.6c-0.5-0.6-1.2-1-1.9-1.3
		c-1.3-0.5-2.6-0.3-3.9,0.4c-1.6,0.9-2.3,2.4-2.2,4.2c0,0.7,0.2,1.4,0.6,2C325.7,213.1,325.9,213.3,326,213.5 M328,214.9
		c0.8,0.3,1.8,0.3,2.7,0.1c0.4-0.2,1.6-0.7,2-0.6h0.1h0.1c0.3,0.1,0.5,0.3,0.6,0.6c0.3,0.6,0.2,1.2-0.4,1.6h-0.4
		c-2.2,1.3-4.5,1.1-6.7-0.1c-1-0.6-1.8-1.4-2.4-2.4l-0.1-0.2c-1.4-2.4-1.2-5,0.4-7.3c0.5-0.8,1.3-1.4,2.1-1.9l0.3-0.2
		c2.1-1.2,4.3-1.1,6.4-0.1c1.1,0.6,2.1,1.4,2.7,2.5l0.1,0.2c0.5,0.8-0.1,1.5-0.8,2c-0.7,0.6-1.4,1.2-2.1,1.8
		C331.1,212.2,329.5,213.6,328,214.9z M344.4,203.8h0.2c0.7,0,1.2,0.5,1.2,1.2c0,1-0.9,1.2-1.7,1.2c-1,0-2,0.6-2.7,1.3
		c-0.9,0.9-1.3,2-1.3,3.2v5.6c0,0.6-0.4,1.2-1.1,1.2h-0.2c-0.7,0-1.1-0.5-1.1-1.2v-5.9c0-2.3,1.1-4.1,2.9-5.4
		C341.8,204.2,343,203.8,344.4,203.8z M315.6,207.8c0.9-0.9,1.8-1.8,2.7-2.7c0.3-0.2,1.2-1.3,1.6-1.3h0.4l0,0c0.5,0.1,0.9,0.4,0.9,1
		v0.2c0,0.4-0.5,0.8-0.7,1.1c-0.5,0.6-1.1,1.1-1.6,1.7l-2.8,2.8c1.2,1.2,2.4,2.4,3.6,3.6c0.3,0.3,0.7,0.7,1,1
		c0.1,0.1,0.3,0.3,0.4,0.4c0.1,0.2,0.2,0.3,0.2,0.5v0.2v0.1c-0.1,0.5-0.5,1-1,1h-0.2c-0.4,0-0.8-0.4-1.1-0.7c-0.5-0.5-1.1-1-1.6-1.6
		l-1.8-1.7v2.8c0,0.6-0.4,1.2-1.1,1.2h-0.2c-0.7,0-1.1-0.5-1.1-1.2v-15.6c0-0.6,0.4-1.2,1.1-1.2h0.2c0.7,0,1.1,0.5,1.1,1.2V207.8z
		 M308.2,206.2c-0.3-0.2-1-0.2-1.4-0.2c-1.9-0.1-3.3,1-4.1,2.7c-0.3,0.6-0.4,1.2-0.4,1.9c0,2,1,3.4,2.8,4.2c0.6,0.3,1.5,0.4,2.2,0.4
		c0.6,0,1.5-0.4,2-0.6h0.1h0.4l0,0c0.5,0.1,0.9,0.4,0.9,1v0.2c0,1.4-2.6,1.7-3.5,1.8c-3.5,0.2-6-1.7-7-5c-0.2-0.6-0.2-1.1-0.2-1.7
		v-0.5c0-2.5,1.2-4.5,3.4-5.8c1-0.6,2.1-0.9,3.3-0.9h0.5c1.2,0,2.4,0.3,3.4,1l0.1,0.1l0.1,0.1c0.1,0.2,0.2,0.4,0.2,0.6v0.2
		c0,0.6-0.4,0.9-1,1l0,0h-0.1C309.2,206.7,308.5,206.4,308.2,206.2z M287.1,210.6c0,1.8,0.9,3,2.3,3.9c0.7,0.4,1.5,0.6,2.3,0.6
		c1.7,0,3-0.9,3.9-2.3c0.4-0.7,0.6-1.5,0.6-2.3c0-1.6-0.8-2.9-2.1-3.8c-0.7-0.5-1.6-0.7-2.4-0.7c-1.9,0-3.3,1-4.2,2.7
		C287.2,209.3,287.1,210,287.1,210.6z M291.5,203.7h0.3c2.7,0,4.7,1.3,6,3.6c0.5,0.9,0.8,2,0.8,3v0.5c0,2.5-1.2,4.5-3.4,5.8
		c-1,0.6-2.1,0.9-3.3,0.9h-0.5c-2.5,0-4.5-1.2-5.8-3.4c-0.6-1-0.9-2.1-0.9-3.3v-0.5c0-2.5,1.2-4.5,3.4-5.8
		C289.2,204,290.2,203.7,291.5,203.7z M272,210.6c0,1.8,0.9,3.2,2.5,4c0.6,0.4,1.3,0.5,2.1,0.5c1.8,0,3.1-0.8,4-2.3
		c0.4-0.7,0.6-1.5,0.6-2.3c0-1.6-0.7-2.8-2-3.7c-0.8-0.6-1.6-0.8-2.6-0.8c-1.9,0-3.3,1-4.2,2.7C272.2,209.3,272,210,272,210.6z
		 M281.2,205.5v-4.9c0-0.6,0.4-1.2,1.1-1.2h0.2c0.7,0,1.1,0.5,1.1,1.2v10.3c0,2.5-1.2,4.5-3.4,5.8c-1,0.6-2.1,0.9-3.3,0.9h-0.5
		c-2.5,0-4.5-1.2-5.8-3.4c-0.6-1-0.9-2.1-0.9-3.3v-0.5c0-2.5,1.2-4.5,3.4-5.8c1-0.6,2.1-0.9,3.3-0.9h0.5
		C278.5,203.7,280,204.4,281.2,205.5z"/>
	<path id="outline" class="st2" d="M313.6,167.3h6.8v7h3.4c1.6,0,3.2-0.3,4.7-0.8c0.7-0.3,1.6-0.6,2.3-1c-1-1.3-1.5-2.8-1.6-4.4
		c-0.2-2.1,0.2-4.9,1.7-6.5l0.7-0.8l0.9,0.7c2.1,1.7,4,4.1,4.3,6.9c2.6-0.8,5.6-0.6,7.9,0.7l0.9,0.5l-0.5,1c-1.9,3.8-6,4.9-9.9,4.7
		c-5.9,14.7-18.7,21.6-34.3,21.6c-8,0-15.4-3-19.6-10.1l-0.1-0.1l-0.6-1.2c-1.4-3.1-1.9-6.6-1.6-10l0.1-1h5.8v-7h6.8v-6.8h13.6v-6.8
		h8.2v13.4L313.6,167.3L313.6,167.3z"/>
	<g id="body_colors">
		<path id="XMLID_249_" class="st4" d="M335.6,169.9c0.5-3.5-2.2-6.3-3.8-7.7c-1.9,2.2-2.2,7.9,0.8,10.4c-1.7,1.5-5.2,2.8-8.7,2.8
			h-43.6c-0.3,3.7,0.3,7.2,1.8,10.1l0.5,0.9c0.3,0.5,0.7,1,1,1.5l0,0c1.8,0.1,3.4,0.2,5,0.1l0,0c3-0.1,5.4-0.4,7.2-1.1
			c0.3-0.1,0.6,0,0.7,0.3s-0.1,0.6-0.3,0.7s-0.5,0.2-0.8,0.2l0,0c-1.4,0.4-3,0.7-5,0.8c0.1,0-0.1,0-0.1,0c-0.1,0-0.2,0-0.2,0
			c-0.8,0-1.6,0.1-2.5,0.1c-1,0-1.9,0-2.9-0.1l0,0c3.6,4.1,9.3,6.5,16.4,6.5c15.1,0,27.9-6.7,33.5-21.7c4,0.4,7.9-0.6,9.6-4
			C341.2,168.3,337.7,168.8,335.6,169.9z"/>
		<path id="XMLID_248_" class="st5" d="M335.6,169.9c0.5-3.5-2.2-6.3-3.8-7.7c-1.9,2.2-2.2,7.9,0.8,10.4c-1.7,1.5-5.2,2.8-8.7,2.8
			h-41c-0.2,5.7,1.9,10.1,5.7,12.7l0,0c3-0.1,5.4-0.4,7.2-1.1c0.3-0.1,0.6,0,0.7,0.3s-0.1,0.6-0.3,0.7c-0.2,0.1-0.5,0.2-0.8,0.2l0,0
			c-1.4,0.4-3.1,0.7-5.1,0.9l0,0c5.1,2.6,12.6,2.6,21.1-0.7c9.6-3.7,18.5-10.7,24.7-18.7C335.8,169.8,335.7,169.8,335.6,169.9z"/>
		<path id="XMLID_247_" class="st6" d="M280.2,179.9c0.3,2,0.9,3.9,1.7,5.6l0.5,0.9c0.3,0.5,0.7,1,1,1.5c1.8,0.1,3.4,0.2,5,0.1
			c3-0.1,5.4-0.4,7.2-1.1c0.3-0.1,0.6,0,0.7,0.3s-0.1,0.6-0.3,0.7s-0.5,0.2-0.8,0.2l0,0c-1.4,0.4-3.1,0.7-5.1,0.8
			c-0.1,0-0.2,0-0.3,0c-0.8,0-1.6,0.1-2.5,0.1c-1,0-1.9,0-3-0.1c3.6,4.1,9.4,6.5,16.5,6.5c12.9,0,24.1-4.9,30.6-15.7h-51.2
			C280.2,179.7,280.2,179.9,280.2,179.9z"/>
		<path id="XMLID_246_" class="st7" d="M283.2,179.9c0.8,3.5,2.6,6.3,5.3,8.2c3-0.1,5.4-0.4,7.2-1.1c0.3-0.1,0.6,0,0.7,0.3
			s-0.1,0.6-0.3,0.7c-0.2,0.1-0.5,0.2-0.8,0.2l0,0c-1.4,0.4-3.2,0.7-5.2,0.8c5.1,2.6,12.5,2.6,21.1-0.7c5.2-2,10.1-4.9,14.6-8.5
			L283.2,179.9L283.2,179.9z"/>
	</g>
	<g id="XMLID_244_" class="st8">
		<path id="XMLID_245_" class="st9" d="M287.4,189.1c0.9,0,1.7,0,2.5-0.1c0.1,0,0.1,0,0.2,0l0,0c2-0.1,3.7-0.4,5.2-0.8l0,0
			c0.3-0.1,0.5-0.2,0.8-0.2c0.3-0.1,0.4-0.4,0.3-0.7s-0.4-0.4-0.7-0.3c-1.8,0.6-4.3,1-7.2,1.1l0,0c-1.5,0-3.2,0-5-0.1l0,0
			c-0.1,0-0.2,0-0.3,0c-0.3,0-0.5,0.2-0.6,0.5c0,0.3,0.2,0.5,0.5,0.6c0.4,0,0.7,0,1.1,0.1c0.1,0,0.1,0,0.2,0l0,0
			C285.5,189.1,286.5,189.1,287.4,189.1z"/>
	</g>
	<g id="Containers">
		<path id="XMLID_236_" class="st10" d="M291.1,168.9h0.5v4.9h-0.5V168.9z M290.2,168.9h0.5v4.9h-0.5V168.9z M289.2,168.9h0.5v4.9
			h-0.5V168.9z M288.4,168.9h0.5v4.9h-0.5V168.9z M287.5,168.9h0.5v4.9h-0.5V168.9z M286.6,168.9h0.5v4.9h-0.5V168.9z M286.1,168.4
			h5.9v5.9h-5.9V168.4z"/>
		<path id="XMLID_227_" class="st10" d="M297.9,162.1h0.5v4.9h-0.5V162.1z M297,162.1h0.5v4.9H297V162.1z M296.1,162.1h0.5v4.9h-0.5
			V162.1z M295.2,162.1h0.5v4.9h-0.5V162.1z M294.2,162.1h0.5v4.9h-0.5V162.1z M293.4,162.1h0.5v4.9h-0.5V162.1z M292.9,161.6h5.9
			v5.9h-5.9V161.6z"/>
		<path id="XMLID_219_" class="st11" d="M297.9,168.9h0.5v4.9h-0.5V168.9z M297,168.9h0.5v4.9H297V168.9z M296.1,168.9h0.5v4.9h-0.5
			V168.9z M295.2,168.9h0.5v4.9h-0.5V168.9z M294.2,168.9h0.5v4.9h-0.5V168.9z M293.4,168.9h0.5v4.9h-0.5V168.9z M292.9,168.4h5.9
			v5.9h-5.9V168.4z"/>
		<path id="XMLID_211_" class="st10" d="M304.7,168.9h0.5v4.9h-0.5V168.9z M303.8,168.9h0.5v4.9h-0.5V168.9z M302.9,168.9h0.5v4.9
			h-0.5V168.9z M302,168.9h0.5v4.9H302V168.9z M301.1,168.9h0.5v4.9h-0.5V168.9z M300.2,168.9h0.5v4.9h-0.5V168.9z M299.7,168.4h5.9
			v5.9h-5.9V168.4z"/>
		<path id="XMLID_203_" class="st11" d="M304.7,162.1h0.5v4.9h-0.5V162.1z M303.8,162.1h0.5v4.9h-0.5V162.1z M302.9,162.1h0.5v4.9
			h-0.5V162.1z M302,162.1h0.5v4.9H302V162.1z M301.1,162.1h0.5v4.9h-0.5V162.1z M300.2,162.1h0.5v4.9h-0.5V162.1z M299.7,161.6h5.9
			v5.9h-5.9V161.6z"/>
		<path id="XMLID_195_" class="st11" d="M311.5,168.9h0.5v4.9h-0.5V168.9z M310.6,168.9h0.5v4.9h-0.5V168.9z M309.7,168.9h0.5v4.9
			h-0.5V168.9z M308.8,168.9h0.5v4.9h-0.5V168.9z M307.9,168.9h0.5v4.9h-0.5V168.9z M307,168.9h0.5v4.9H307V168.9z M306.5,168.4h5.9
			v5.9h-5.9V168.4z"/>
		<path id="XMLID_185_" class="st10" d="M311.5,162.1h0.5v4.9h-0.5V162.1z M310.6,162.1h0.5v4.9h-0.5V162.1z M309.7,162.1h0.5v4.9
			h-0.5V162.1z M308.8,162.1h0.5v4.9h-0.5V162.1z M307.9,162.1h0.5v4.9h-0.5V162.1z M307,162.1h0.5v4.9H307V162.1z M306.5,161.6h5.9
			v5.9h-5.9V161.6z"/>
		<path id="XMLID_174_" class="st11" d="M311.5,155.3h0.5v4.9h-0.5V155.3z M310.6,155.3h0.5v4.9h-0.5V155.3z M309.7,155.3h0.5v4.9
			h-0.5V155.3z M308.8,155.3h0.5v4.9h-0.5V155.3z M307.9,155.3h0.5v4.9h-0.5V155.3z M307,155.3h0.5v4.9H307V155.3z M306.5,154.8h5.9
			v5.9h-5.9V154.8z"/>
		<path id="XMLID_160_" class="st10" d="M318.2,168.9h0.5v4.9h-0.5V168.9z M317.4,168.9h0.5v4.9h-0.5V168.9z M316.5,168.9h0.5v4.9
			h-0.5V168.9z M315.6,168.9h0.5v4.9h-0.5V168.9z M314.7,168.9h0.5v4.9h-0.5V168.9z M313.8,168.9h0.5v4.9h-0.5V168.9z M313.2,168.4
			h5.9v5.9h-5.9V168.4z"/>
	</g>
	<path id="XMLID_158_" class="st12" d="M298.5,183.9c0.9,0,1.6,0.7,1.6,1.6c0,0.9-0.7,1.6-1.6,1.6s-1.6-0.7-1.6-1.6
		C296.9,184.6,297.6,183.9,298.5,183.9"/>
	<path id="XMLID_156_" class="st2" d="M298.5,184.3c0.1,0,0.3,0,0.4,0.1c-0.1,0.1-0.2,0.2-0.2,0.4c0,0.3,0.2,0.5,0.5,0.5
		c0.2,0,0.3-0.1,0.4-0.2c0.1,0.1,0.1,0.3,0.1,0.4c0,0.6-0.5,1.2-1.2,1.2c-0.6,0-1.2-0.5-1.2-1.2
		C297.2,184.9,297.8,184.3,298.5,184.3"/>
	<path id="XMLID_140_" class="st2" d="M269.7,180.5h35.6h4.4h35.6c-1.6-0.4-5.2-1-4.6-3.1c-3,3.5-10.2,2.4-12,0.7
		c-2,2.9-13.9,1.8-14.7-0.5c-2.5,3-10.4,3-13,0c-0.8,2.3-12.6,3.4-14.7,0.5c-1.8,1.7-9.1,2.7-12-0.7
		C274.9,179.5,271.2,180.1,269.7,180.5"/>
	<path id="XMLID_119_" class="st13" d="M302.8,195.6c-4-1.9-6.2-4.5-7.5-7.3c-1.5,0.4-3.3,0.7-5.4,0.8c-0.8,0-1.6,0.1-2.5,0.1
		c-1,0-2.1,0-3.2-0.1c3.7,3.7,8.2,6.5,16.7,6.6C301.5,195.6,302.2,195.6,302.8,195.6z"/>
	<path id="XMLID_118_" class="st12" d="M296.8,190.9c-0.6-0.8-1.1-1.7-1.5-2.6c-1.5,0.4-3.3,0.7-5.4,0.8
		C291.4,189.9,293.4,190.6,296.8,190.9z"/>
</g>
<polygon class="st14" points="281.7,245.4 274.5,245.4 267.2,245.4 271.5,238.2 267.2,231 274.5,231 281.7,231 281.7,238.2 "/>
<polygon class="st15" points="274.5,238.2 281.7,238.2 281.7,245.4 281.7,245.4 "/>
<polygon class="st14" points="333.8,245.4 341,245.4 348.2,245.4 344,238.2 348.2,231 341,231 333.8,231 333.8,238.2 "/>
<polygon class="st15" points="341,238.2 333.8,238.2 333.8,245.4 333.8,245.4 "/>
<polygon class="st14" points="326.7,223.8 288.9,223.8 274.5,223.8 274.5,238.2 288.9,238.2 326.7,238.2 341,238.2 341,223.8 "/>
<g class="st16">
	<path class="st17" d="M297.3,231.6c0-0.8-0.1-1.8-0.1-2.6h0c-0.2,0.7-0.4,1.4-0.7,2.2l-1,2.9h-0.6l-1-2.8c-0.3-0.8-0.5-1.6-0.7-2.3
		h0c0,0.7-0.1,1.7-0.1,2.6l-0.2,2.5h-0.7l0.4-5.9h1l1,2.9c0.2,0.7,0.4,1.4,0.6,2h0c0.1-0.6,0.4-1.2,0.6-2l1.1-2.9h1l0.4,5.9h-0.7
		L297.3,231.6z"/>
	<path class="st17" d="M302.4,231.4h-2.3v2.1h2.6v0.6h-3.3v-5.9h3.2v0.6h-2.4v1.9h2.3V231.4z"/>
	<path class="st17" d="M308.6,231.6c0-0.8-0.1-1.8-0.1-2.6h0c-0.2,0.7-0.4,1.4-0.7,2.2l-1,2.9h-0.6l-1-2.8c-0.3-0.8-0.5-1.6-0.7-2.3
		h0c0,0.7-0.1,1.7-0.1,2.6l-0.2,2.5h-0.7l0.4-5.9h1l1,2.9c0.2,0.7,0.4,1.4,0.6,2h0c0.1-0.6,0.4-1.2,0.6-2l1.1-2.9h1l0.4,5.9h-0.7
		L308.6,231.6z"/>
	<path class="st17" d="M310.7,228.4c0.3-0.1,0.9-0.1,1.4-0.1c0.8,0,1.3,0.1,1.6,0.4c0.3,0.2,0.5,0.6,0.5,1c0,0.6-0.4,1.1-1,1.3v0
		c0.6,0.1,1.2,0.6,1.2,1.5c0,0.5-0.2,0.9-0.5,1.2c-0.4,0.4-1.1,0.6-2,0.6c-0.5,0-0.9,0-1.2-0.1V228.4z M311.5,230.8h0.7
		c0.8,0,1.3-0.4,1.3-1c0-0.7-0.5-1-1.3-1c-0.4,0-0.6,0-0.7,0.1V230.8z M311.5,233.6c0.1,0,0.4,0,0.6,0c0.8,0,1.5-0.3,1.5-1.1
		c0-0.8-0.7-1.1-1.5-1.1h-0.6V233.6z"/>
	<path class="st17" d="M318.5,231.4h-2.3v2.1h2.6v0.6h-3.3v-5.9h3.2v0.6h-2.4v1.9h2.3V231.4z"/>
	<path class="st17" d="M319.8,228.4c0.4-0.1,0.9-0.1,1.5-0.1c0.8,0,1.3,0.1,1.7,0.5c0.3,0.3,0.5,0.7,0.5,1.1c0,0.8-0.5,1.3-1.1,1.5
		v0c0.5,0.2,0.7,0.6,0.9,1.2c0.2,0.8,0.3,1.4,0.5,1.6h-0.8c-0.1-0.2-0.2-0.7-0.4-1.4c-0.2-0.8-0.5-1.1-1.2-1.1h-0.7v2.6h-0.8V228.4z
		 M320.6,231h0.8c0.8,0,1.3-0.4,1.3-1.1c0-0.8-0.6-1.1-1.4-1.1c-0.4,0-0.6,0-0.8,0.1V231z"/>
</g>
</svg>
