<?xml version="1.0" encoding="utf-8"?>
<!-- Generator: Adobe Illustrator 19.0.0, SVG Export Plug-In . SVG Version: 6.00 Build 0)  -->
<svg version="1.1" id="Слой_1" xmlns="http://www.w3.org/2000/svg" xmlns:xlink="http://www.w3.org/1999/xlink" x="0px" y="0px"
	 viewBox="0 0 500 500" style="enable-background:new 0 0 500 500;" xml:space="preserve">
<style type="text/css">
	.st0{fill-rule:evenodd;clip-rule:evenodd;fill:#F9B9B9;stroke:#D62222;stroke-width:10;stroke-miterlimit:10;}
	.st1{fill:none;stroke:#D62222;stroke-width:2;stroke-miterlimit:10;}
	.st2{fill:#D62222;}
</style>
<path id="XMLID_2_" class="st0" d="M436.8,351.7c-10.2,22.7-15.1,32.8-28.2,52.8c-18.3,28-44.2,62.8-76.2,63.1
	c-28.5,0.3-35.8-18.6-74.4-18.3c-38.6,0.2-46.7,18.7-75.2,18.4c-32-0.3-56.5-31.7-74.9-59.7c-51.3-78.2-56.7-170-25-218.8
	c22.5-34.7,58-55,91.3-55c34,0,55.3,18.6,83.4,18.6c27.2,0,43.8-18.7,83.1-18.7c29.7,0,61.1,16.2,83.5,44.2
	C350.7,218.7,362.7,323.7,436.8,351.7L436.8,351.7z"/>
<path id="XMLID_1_" class="st0" d="M310.8,103c14.3-18.3,25.1-44.2,21.2-70.7c-23.3,1.6-50.6,16.5-66.5,35.8
	c-14.5,17.6-26.4,43.6-21.7,69C269.2,137.8,295.6,122.6,310.8,103L310.8,103z"/>
<path id="XMLID_124_" class="st1" d="M-166.6,122c-0.9-25-21.5-45-46.7-45c-20,0-37.1,12.6-43.8,30.3c-4.7-5.7-11.8-9.3-19.8-9.3
	c-14.2,0-25.7,11.5-25.7,25.7c0,2.7,0.4,5.4,1.2,7.9c-9.1,4.7-15.4,14.1-15.4,25.1c0,15.7,12.7,28.2,28.4,28.2h108.2
	c18.3,0,33.1-14.7,33.1-33C-147.2,138.6-155.2,127.2-166.6,122z"/>
<g id="XMLID_147_">
	<g id="XMLID_18_">
		<line id="XMLID_21_" class="st1" x1="-232" y1="311" x2="-232" y2="215"/>
		<g id="XMLID_19_">
			<path id="XMLID_20_" class="st2" d="M-222.4,297.8c-0.5-0.3-1.1-0.2-1.4,0.3L-232,311l-8.2-12.9c-0.3-0.5-0.9-0.6-1.4-0.3
				c-0.5,0.3-0.6,0.9-0.3,1.4l9.1,14.2c0.2,0.3,0.5,0.5,0.8,0.5s0.7-0.2,0.8-0.5l9.1-14.2c0.1-0.2,0.2-0.4,0.2-0.5
				C-221.9,298.3-222.1,298-222.4,297.8z"/>
		</g>
	</g>
</g>
</svg>
