<?xml version="1.0" encoding="utf-8"?>
<!-- Generator: Adobe Illustrator 19.0.0, SVG Export Plug-In . SVG Version: 6.00 Build 0)  -->
<svg version="1.1" id="Слой_1" xmlns="http://www.w3.org/2000/svg" xmlns:xlink="http://www.w3.org/1999/xlink" x="0px" y="0px"
	 viewBox="0 -340 1920 1080" style="enable-background:new 0 -340 1920 1080;" xml:space="preserve">
<style type="text/css">
	.st0{fill:#CCCCCC;}
	.st1{fill:none;stroke:#CCCCCC;stroke-width:2;stroke-miterlimit:10;}
	.st2{opacity:0.5;fill:#999999;enable-background:new    ;}
	.st3{fill:none;stroke:#CCCCCC;stroke-miterlimit:10;}
	.st4{opacity:0.2;}
</style>
<g id="XMLID_57_">
	
		<ellipse id="XMLID_74_" transform="matrix(0.6115 -0.7913 0.7913 0.6115 -62.5518 -237.4245)" class="st0" cx="-273" cy="-55" rx="15.4" ry="10.1"/>
	<ellipse id="XMLID_73_" class="st1" cx="-207.8" cy="-64.5" rx="164.7" ry="38"/>
	<path id="XMLID_72_" class="st0" d="M-207.8-160.1c-33.1,0-59.9,25.7-59.9,57.4c0,9.9,2.6,19.2,7.2,27.3
		c32.2,9.6,73.9,8.6,106.4-1.9c4-7.7,6.2-16.3,6.2-25.4C-147.9-134.4-174.8-160.1-207.8-160.1z"/>
	<path id="XMLID_71_" class="st1" d="M-329.1-38.8c16.2,36.3,65.6,62.7,124.1,62.7c59.4,0,109.4-27.2,124.8-64.4
		c-30.2,8.5-76.2,14-127.7,14C-255.8-26.5-299-31.3-329.1-38.8z"/>
	<line id="XMLID_70_" class="st1" x1="-208" y1="-160" x2="-208" y2="-189"/>
	<circle id="XMLID_69_" class="st1" cx="-208" cy="-193.4" r="4.5"/>
	<ellipse id="XMLID_68_" class="st0" cx="-207.8" cy="-47.4" rx="10.1" ry="15.4"/>
	
		<ellipse id="XMLID_67_" transform="matrix(-0.7913 -0.6115 0.6115 -0.7913 -223.4761 -189.4754)" class="st0" cx="-144.1" cy="-56.6" rx="15.4" ry="10.1"/>
	<path id="XMLID_66_" class="st0" d="M-68.6,173.4l-0.2-1.3c-0.3-1.1-0.9-2-1.8-3.1l-86.1-151.6c-15.1,3.2-31.2,5-48.2,5
		s-33.2-1.7-48.3-4.9l-86.1,151.7c-0.9,1.1-1.6,1.8-1.9,2.9h-0.2h0.1c-0.1,1-0.1,1.1-0.1,1.5c0,14.9,61.1,27.3,136.4,27.3
		S-68.6,188.3-68.6,173.4"/>
</g>
<g id="XMLID_120_">
	<rect id="XMLID_306_" x="1941.1" y="217.6" class="st1" width="25.5" height="25.5"/>
	<rect id="XMLID_305_" x="1973.9" y="217.6" class="st1" width="25.5" height="25.5"/>
	<rect id="XMLID_304_" x="2006.7" y="217.6" class="st0" width="25.5" height="25.5"/>
	<rect id="XMLID_303_" x="2039.5" y="217.6" class="st1" width="25.5" height="25.5"/>
	<rect id="XMLID_302_" x="2072.2" y="217.6" class="st0" width="25.5" height="25.5"/>
	<rect id="XMLID_301_" x="1941.1" y="253.3" class="st0" width="25.5" height="25.5"/>
	<rect id="XMLID_300_" x="1973.9" y="253.3" class="st1" width="25.5" height="25.5"/>
	<rect id="XMLID_299_" x="2006.7" y="253.3" class="st1" width="25.5" height="25.5"/>
	<rect id="XMLID_298_" x="2039.5" y="253.3" class="st0" width="25.5" height="25.5"/>
	<rect id="XMLID_297_" x="2072.2" y="253.3" class="st1" width="25.5" height="25.5"/>
	<rect id="XMLID_293_" x="1941.1" y="289" class="st1" width="25.5" height="25.5"/>
	<rect id="XMLID_271_" x="1973.9" y="289" class="st0" width="25.5" height="25.5"/>
	<rect id="XMLID_270_" x="2006.7" y="289" class="st0" width="25.5" height="25.5"/>
	<rect id="XMLID_145_" x="2039.5" y="289" class="st1" width="25.5" height="25.5"/>
	<rect id="XMLID_144_" x="2072.2" y="289" class="st1" width="25.5" height="25.5"/>
	<rect id="XMLID_143_" x="1941.1" y="324.7" class="st1" width="25.5" height="25.5"/>
	<rect id="XMLID_142_" x="1973.9" y="324.7" class="st0" width="25.5" height="25.5"/>
	<rect id="XMLID_141_" x="2006.7" y="324.7" class="st0" width="25.5" height="25.5"/>
	<rect id="XMLID_140_" x="2039.5" y="324.7" class="st0" width="25.5" height="25.5"/>
	<rect id="XMLID_139_" x="2072.2" y="324.7" class="st1" width="25.5" height="25.5"/>
	<rect id="XMLID_138_" x="1941.1" y="360.4" class="st1" width="25.5" height="25.5"/>
	<rect id="XMLID_137_" x="1973.9" y="360.4" class="st1" width="25.5" height="25.5"/>
	<rect id="XMLID_136_" x="2006.7" y="360.4" class="st1" width="25.5" height="25.5"/>
	<rect id="XMLID_135_" x="2039.5" y="360.4" class="st0" width="25.5" height="25.5"/>
	<rect id="XMLID_134_" x="2072.2" y="360.4" class="st1" width="25.5" height="25.5"/>
</g>
<g id="XMLID_291_">
	<path id="XMLID_311_" class="st2" d="M2063.7-263.4c0.9,3,0.7,6.3-0.4,9.2c-0.3,0.9,0.1,1.9,1,2.2l0,0c0.9,0.3,1.8-0.1,2.2-1
		c1.3-3.6,1.5-7.6,0.4-11.3c-0.3-0.9-1.2-1.4-2.1-1.2C2064-265.2,2063.4-264.3,2063.7-263.4z"/>
	<path id="XMLID_310_" class="st2" d="M2036.3-246.4c2,2,4.3,3.4,7,4.3c0.8,0.3,1.6,0.5,2.4,0.6l-4.6-8.3c-1.2,0.3-2.4,0.3-3.6-0.2
		c-0.9-0.3-1.7-0.8-2.4-1.5c-2.5-2.4-2.5-6.5-0.1-9c1.7-1.7,4.3-2.4,6.6-1.6c0.9,0.3,1.7,0.8,2.4,1.5c0.1,0.1,0.3,0.3,0.4,0.4
		l21-9.6c-0.8-1.3-1.7-2.5-2.9-3.6c-2-2-4.3-3.4-7-4.3c-6.8-2.4-14.5-0.5-19.5,4.6c-3.5,3.6-5.4,8.3-5.3,13.3
		C2030.8-254.6,2032.8-249.9,2036.3-246.4z"/>
	<path id="XMLID_309_" class="st2" d="M2040.5-258.7c-1.1-0.4-2.3-0.1-3,0.7c-1.1,1.2-1.1,3,0,4.1c0.3,0.3,0.7,0.5,1.1,0.7
		c1.1,0.4,2.3,0.1,3-0.7c1.1-1.1,1.1-3,0-4.1C2041.3-258.3,2040.9-258.5,2040.5-258.7z"/>
	<path id="XMLID_308_" class="st2" d="M2024.5-255.8c1.1,0,2.1,0,3.2,0.2c-0.6-3.3-0.5-6.7,0.4-10.1c0.1-0.3,0-0.8,0.1-1.1
		c-3.6-1.3-8-0.3-10.3,3l-2,2.9c2.1,0.1,4.2,0.9,5.8,2C2022.7-258.1,2023.8-256.9,2024.5-255.8z"/>
	<path id="XMLID_307_" class="st2" d="M2001.1-243.2l15.5-2.7c3.6-0.6,6-3.6,5.5-6.7c-0.2-1.3-1-2.5-2.2-3.3c-1.5-1-3.4-1.4-5.2-1.1
		l-15.5,2.7c-3.6,0.6-6,3.6-5.5,6.7c0.2,1.3,1,2.5,2.2,3.3C1997.3-243.2,1999.2-242.8,2001.1-243.2z"/>
	<path id="XMLID_296_" class="st2" d="M2006.4-227.8c-1.5-1-3.4-1.4-5.3-1.1l-15.5,2.7c-3.6,0.6-6,3.6-5.5,6.7
		c0.2,1.3,1,2.5,2.2,3.3c1.5,1,3.4,1.4,5.3,1.1l15.5-2.7c3.6-0.6,6-3.6,5.5-6.7C2008.4-225.8,2007.6-227,2006.4-227.8z"/>
	<path id="XMLID_295_" class="st2" d="M2019.4-209.4l-5.2,7.5c-2.1,3-1.8,6.8,0.8,8.6c2.6,1.8,6.2,0.8,8.3-2.2l7.7-11
		c-3.9,0.2-7.9-0.3-11.3-2.7L2019.4-209.4z"/>
	<path id="XMLID_294_" class="st2" d="M2047.5-237.8c-3.8-0.3-7.6-1.6-10.8-3.9c-2.7-1.9-4.9-4.3-6.5-7.1c-0.6-1-1-2-1.4-3
		c-1.1-0.3-2.2-0.5-3.2-0.5c0.4,4.6-3.3,8.9-8.4,9.8l-7.5,1.3l-1.5,2.1c-1.6,2.2-2.3,4.8-2.5,7.3c0.9,0.3,1.8,0.7,2.6,1.3
		c1.9,1.4,3.2,3.3,3.6,5.6c0.3,1.8-0.2,3.9-1,5.5c0.2,0.2,0.2,0.6,0.4,0.8l10.1,7.1c6.4,4.5,15.5,2.2,20-4.2l5.1-7.2
		C2049.6-227.7,2049.9-233.3,2047.5-237.8z"/>
	<path id="XMLID_292_" class="st2" d="M2069.9-239c-1.5-1-3.4-1.4-5.3-1.1l-9.6,1.7c-1.2,0.3-2.4,0.5-3.7,0.6h-0.1
		c1.4,3.6,1.7,7.6,0.6,11.4l14.7-2.6c3.6-0.6,6-3.6,5.5-6.7C2071.9-237,2071.1-238.2,2069.9-239z"/>
</g>
<path id="XMLID_574_" class="st2" d="M-318.3,69.8c-1,1.4-1.5,3.4-1.2,5.2l2.5,15.5c0.6,3.6,3.6,6.1,6.6,5.6c1.3-0.2,2.5-1,3.4-2.2
	c1-1.4,1.5-3.4,1.2-5.2l-2.5-15.5c-0.6-3.6-3.6-6.1-6.6-5.6C-316.3,67.8-317.5,68.6-318.3,69.8z"/>
<path id="XMLID_573_" class="st2" d="M-299.7,57l7.4,5.3c2.9,2.1,6.8,1.9,8.6-0.7c1.8-2.5,0.8-6.2-2.1-8.3l-10.9-7.8
	c0.1,3.9-0.4,7.9-2.8,11.3L-299.7,57z"/>
<path id="XMLID_572_" class="st2" d="M-327.8,28.6c-0.4,3.8-1.7,7.5-4,10.8c-1.9,2.7-4.3,4.8-7.2,6.4c-1,0.5-2,1-3,1.4
	c-0.3,1.1-0.5,2.1-0.6,3.2c4.6-0.3,8.9,3.4,9.7,8.5l1.2,7.5l2.1,1.5c2.2,1.6,4.7,2.4,7.2,2.6c0.3-0.9,0.8-1.8,1.3-2.6
	c1.4-1.9,3.4-3.2,5.6-3.6c1.8-0.3,3.9,0.2,5.5,1c0.2-0.2,0.6-0.2,0.8-0.4l7.2-10c4.6-6.3,2.4-15.4-4-20l-7.2-5.2
	C-317.6,26.6-323.2,26.3-327.8,28.6z"/>
<path id="XMLID_571_" class="st2" d="M-303.3-440.9c1.4,2.8,1.9,6.1,1.3,9.1c-0.2,0.9,0.5,1.8,1.4,2l0,0c0.9,0.1,1.8-0.5,1.9-1.4
	c0.7-3.8,0.1-7.8-1.6-11.2c-0.4-0.8-1.4-1.2-2.3-0.8C-303.4-442.8-303.7-441.7-303.3-440.9z"/>
<path id="XMLID_570_" class="st2" d="M-327.1-419.3c2.3,1.6,4.9,2.6,7.6,3c0.8,0.1,1.6,0.2,2.4,0.2l-6-7.3c-1.1,0.5-2.3,0.7-3.6,0.5
	c-0.9-0.1-1.8-0.5-2.6-1c-2.9-1.9-3.7-5.9-1.7-8.8c1.4-2,3.8-3.1,6.2-2.7c0.9,0.1,1.8,0.5,2.6,1c0.2,0.1,0.3,0.2,0.5,0.3l19-13.3
	c-1-1.1-2.2-2.2-3.5-3.1c-2.3-1.6-4.9-2.6-7.6-3c-7.1-1.1-14.4,2.1-18.4,8.1c-2.8,4.2-3.8,9.2-2.8,14.1
	C-334.1-426.3-331.3-422.1-327.1-419.3z"/>
<path id="XMLID_569_" class="st2" d="M-292.8-418.1c-1.6-0.7-3.6-0.8-5.4-0.1l-9.1,3.4c-1.1,0.5-2.3,1-3.5,1.3h-0.1
	c2.1,3.3,3,7.2,2.7,11.1l14-5.2c3.4-1.3,5.3-4.7,4.2-7.6C-290.4-416.4-291.4-417.5-292.8-418.1z"/>
<g id="XMLID_549_">
	
		<ellipse id="XMLID_558_" transform="matrix(0.4622 -0.8868 0.8868 0.4622 -462.3526 133.3134)" class="st0" cx="-121.3" cy="447.8" rx="3.1" ry="2"/>
	
		<ellipse id="XMLID_557_" transform="matrix(-0.1765 -0.9843 0.9843 -0.1765 -564.7001 414.9428)" class="st1" cx="-108.8" cy="443.7" rx="7.6" ry="32.9"/>
	<path id="XMLID_556_" class="st0" d="M-112.2,424.9c-6.5,1.2-10.9,7.2-9.8,13.4c0.3,1.9,1.2,3.7,2.4,5.1c6.7,0.7,14.8-0.9,20.9-4.1
		c0.5-1.6,0.6-3.4,0.3-5.2C-99.5,427.8-105.7,423.7-112.2,424.9z"/>
	<path id="XMLID_555_" class="st1" d="M-131.8,453c4.5,6.6,15.1,10,26.6,8c11.7-2.1,20.6-9.2,22.3-17.1c-5.6,2.7-14.5,5.4-24.6,7.3
		C-116.9,452.8-125.6,453.4-131.8,453z"/>
	<line id="XMLID_554_" class="st1" x1="-112.2" y1="424.7" x2="-113.1" y2="419.4"/>
	<circle id="XMLID_553_" class="st1" cx="-113.4" cy="418.3" r="0.9"/>
	
		<ellipse id="XMLID_552_" transform="matrix(-0.1765 -0.9843 0.9843 -0.1765 -567.259 419.4104)" class="st0" cx="-108.2" cy="447" rx="3.1" ry="2"/>
	
		<ellipse id="XMLID_551_" transform="matrix(-0.8868 -0.4622 0.4622 -0.8868 -385.7694 791.4504)" class="st0" cx="-95.9" cy="443" rx="3.1" ry="2"/>
	<path id="XMLID_550_" class="st0" d="M-73,485.6l-0.1-0.3c-0.1-0.2-0.3-0.4-0.5-0.5L-95.9,458c-2.9,1.2-6,2.1-9.3,2.7
		c-3.4,0.6-6.6,0.8-9.7,0.7l-11.6,32.9c-0.1,0.2-0.2,0.4-0.3,0.6l0,0l0,0c0,0,0,0.2,0,0.3c0.5,2.9,13,3.2,27.8,0.6
		S-72.5,488.5-73,485.6"/>
</g>
<g id="XMLID_523_">
	
		<rect id="XMLID_548_" x="-168.6" y="-234.2" transform="matrix(-0.9181 0.3964 -0.3964 -0.9181 -405.2507 -375.149)" class="st3" width="9.5" height="9.5"/>
	
		<rect id="XMLID_547_" x="-157.4" y="-239" transform="matrix(-0.9181 0.3964 -0.3964 -0.9181 -385.6467 -388.8091)" class="st3" width="9.5" height="9.5"/>
	
		<rect id="XMLID_546_" x="-146.2" y="-243.8" transform="matrix(-0.9181 0.3964 -0.3964 -0.9181 -366.0425 -402.4693)" class="st0" width="9.5" height="9.5"/>
	
		<rect id="XMLID_545_" x="-135" y="-248.7" transform="matrix(-0.9181 0.3964 -0.3964 -0.9181 -346.5508 -416.29)" class="st3" width="9.5" height="9.5"/>
	
		<rect id="XMLID_544_" x="-123.8" y="-253.5" transform="matrix(-0.9181 0.3964 -0.3964 -0.9181 -326.9466 -429.9501)" class="st0" width="9.5" height="9.5"/>
	
		<rect id="XMLID_543_" x="-163.3" y="-222" transform="matrix(-0.9181 0.3964 -0.3964 -0.9181 -390.256 -353.8751)" class="st0" width="9.5" height="9.5"/>
	
		<rect id="XMLID_542_" x="-152.1" y="-226.8" transform="matrix(-0.9181 0.3964 -0.3964 -0.9181 -370.652 -367.5352)" class="st3" width="9.5" height="9.5"/>
	
		<rect id="XMLID_541_" x="-140.9" y="-231.7" transform="matrix(-0.9181 0.3964 -0.3964 -0.9181 -351.1602 -381.3559)" class="st3" width="9.5" height="9.5"/>
	
		<rect id="XMLID_540_" x="-129.7" y="-236.5" transform="matrix(-0.9181 0.3964 -0.3964 -0.9181 -331.5561 -395.016)" class="st0" width="9.5" height="9.5"/>
	
		<rect id="XMLID_539_" x="-118.5" y="-241.3" transform="matrix(-0.9181 0.3964 -0.3964 -0.9181 -311.9519 -408.6761)" class="st3" width="9.5" height="9.5"/>
	
		<rect id="XMLID_538_" x="-158.1" y="-209.8" transform="matrix(-0.9181 0.3964 -0.3964 -0.9181 -375.4218 -332.4886)" class="st3" width="9.5" height="9.5"/>
	
		<rect id="XMLID_537_" x="-146.9" y="-214.6" transform="matrix(-0.9181 0.3964 -0.3964 -0.9181 -355.8177 -346.1489)" class="st0" width="9.5" height="9.5"/>
	
		<rect id="XMLID_536_" x="-135.7" y="-219.5" transform="matrix(-0.9181 0.3964 -0.3964 -0.9181 -336.3259 -359.9695)" class="st0" width="9.5" height="9.5"/>
	
		<rect id="XMLID_535_" x="-124.5" y="-224.3" transform="matrix(-0.9181 0.3964 -0.3964 -0.9181 -316.7218 -373.6298)" class="st3" width="9.5" height="9.5"/>
	
		<rect id="XMLID_534_" x="-113.3" y="-229.1" transform="matrix(-0.9181 0.3964 -0.3964 -0.9181 -297.1178 -387.2899)" class="st3" width="9.5" height="9.5"/>
	
		<rect id="XMLID_533_" x="-152.8" y="-197.6" transform="matrix(-0.9181 0.3964 -0.3964 -0.9181 -360.4272 -311.2148)" class="st3" width="9.5" height="9.5"/>
	
		<rect id="XMLID_532_" x="-141.6" y="-202.4" transform="matrix(-0.9181 0.3964 -0.3964 -0.9181 -340.823 -324.8749)" class="st0" width="9.5" height="9.5"/>
	
		<rect id="XMLID_531_" x="-130.4" y="-207.3" transform="matrix(-0.9181 0.3964 -0.3964 -0.9181 -321.3312 -338.6957)" class="st0" width="9.5" height="9.5"/>
	
		<rect id="XMLID_530_" x="-119.2" y="-212.1" transform="matrix(-0.9181 0.3964 -0.3964 -0.9181 -301.7271 -352.3558)" class="st0" width="9.5" height="9.5"/>
	
		<rect id="XMLID_529_" x="-108" y="-216.9" transform="matrix(-0.9181 0.3964 -0.3964 -0.9181 -282.123 -366.0159)" class="st3" width="9.5" height="9.5"/>
	
		<rect id="XMLID_528_" x="-147.5" y="-185.4" transform="matrix(-0.9181 0.3964 -0.3964 -0.9181 -345.4324 -289.9408)" class="st3" width="9.5" height="9.5"/>
	
		<rect id="XMLID_527_" x="-136.3" y="-190.2" transform="matrix(-0.9181 0.3964 -0.3964 -0.9181 -325.8283 -303.6012)" class="st3" width="9.5" height="9.5"/>
	
		<rect id="XMLID_526_" x="-125.1" y="-195.1" transform="matrix(-0.9181 0.3964 -0.3964 -0.9181 -306.3365 -317.4217)" class="st3" width="9.5" height="9.5"/>
	
		<rect id="XMLID_525_" x="-113.9" y="-199.9" transform="matrix(-0.9181 0.3964 -0.3964 -0.9181 -286.7323 -331.0818)" class="st0" width="9.5" height="9.5"/>
	
		<rect id="XMLID_524_" x="-102.7" y="-204.7" transform="matrix(-0.9181 0.3964 -0.3964 -0.9181 -267.1284 -344.7421)" class="st3" width="9.5" height="9.5"/>
</g>
<g id="XMLID_497_">
	
		<rect id="XMLID_522_" x="-199.5" y="165.7" transform="matrix(-0.7157 -0.6984 0.6984 -0.7157 -453.2299 156.3999)" class="st1" width="9.5" height="9.5"/>
	
		<rect id="XMLID_521_" x="-190.8" y="174.2" transform="matrix(-0.7157 -0.6984 0.6984 -0.7157 -444.1966 177.0463)" class="st1" width="9.5" height="9.5"/>
	
		<rect id="XMLID_520_" x="-182.1" y="182.7" transform="matrix(-0.7157 -0.6984 0.6984 -0.7157 -435.1631 197.6927)" class="st0" width="9.5" height="9.5"/>
	
		<rect id="XMLID_519_" x="-173.4" y="191.2" transform="matrix(-0.7157 -0.6984 0.6984 -0.7157 -426.1297 218.3392)" class="st1" width="9.5" height="9.5"/>
	
		<rect id="XMLID_518_" x="-164.7" y="199.8" transform="matrix(-0.7157 -0.6984 0.6984 -0.7157 -417.192 239.2294)" class="st0" width="9.5" height="9.5"/>
	
		<rect id="XMLID_517_" x="-208.8" y="175.2" transform="matrix(-0.7157 -0.6984 0.6984 -0.7157 -475.7896 166.1866)" class="st0" width="9.5" height="9.5"/>
	
		<rect id="XMLID_516_" x="-200.1" y="183.7" transform="matrix(-0.7157 -0.6984 0.6984 -0.7157 -466.7563 186.8331)" class="st1" width="9.5" height="9.5"/>
	
		<rect id="XMLID_515_" x="-191.4" y="192.2" transform="matrix(-0.7157 -0.6984 0.6984 -0.7157 -457.7227 207.4795)" class="st1" width="9.5" height="9.5"/>
	
		<rect id="XMLID_514_" x="-182.7" y="200.8" transform="matrix(-0.7157 -0.6984 0.6984 -0.7157 -448.7852 228.3698)" class="st0" width="9.5" height="9.5"/>
	
		<rect id="XMLID_513_" x="-173.9" y="209.3" transform="matrix(-0.7157 -0.6984 0.6984 -0.7157 -439.7516 249.0163)" class="st1" width="9.5" height="9.5"/>
	
		<rect id="XMLID_512_" x="-218.1" y="184.7" transform="matrix(-0.7157 -0.6984 0.6984 -0.7157 -498.3495 175.9734)" class="st1" width="9.5" height="9.5"/>
	
		<rect id="XMLID_511_" x="-209.4" y="193.2" transform="matrix(-0.7157 -0.6984 0.6984 -0.7157 -489.3159 196.6199)" class="st0" width="9.5" height="9.5"/>
	
		<rect id="XMLID_510_" x="-200.6" y="201.7" transform="matrix(-0.7157 -0.6984 0.6984 -0.7157 -480.2086 217.4361)" class="st0" width="9.5" height="9.5"/>
	
		<rect id="XMLID_509_" x="-191.9" y="210.3" transform="matrix(-0.7157 -0.6984 0.6984 -0.7157 -471.3448 238.1566)" class="st1" width="9.5" height="9.5"/>
	
		<rect id="XMLID_508_" x="-183.2" y="218.7" transform="matrix(-0.7157 -0.6984 0.6984 -0.7157 -462.3113 258.803)" class="st1" width="9.5" height="9.5"/>
	
		<rect id="XMLID_507_" x="-227.4" y="194.2" transform="matrix(-0.7157 -0.6984 0.6984 -0.7157 -520.9092 185.7602)" class="st1" width="9.5" height="9.5"/>
	
		<rect id="XMLID_506_" x="-218.6" y="202.7" transform="matrix(-0.7157 -0.6984 0.6984 -0.7157 -511.8016 206.5765)" class="st0" width="9.5" height="9.5"/>
	
		<rect id="XMLID_505_" x="-210" y="211.3" transform="matrix(-0.7157 -0.6984 0.6984 -0.7157 -502.938 227.2969)" class="st0" width="9.5" height="9.5"/>
	
		<rect id="XMLID_504_" x="-201.2" y="219.7" transform="matrix(-0.7157 -0.6984 0.6984 -0.7157 -493.9045 247.9433)" class="st0" width="9.5" height="9.5"/>
	
		<rect id="XMLID_503_" x="-192.5" y="228.2" transform="matrix(-0.7157 -0.6984 0.6984 -0.7157 -484.871 268.5898)" class="st1" width="9.5" height="9.5"/>
	
		<rect id="XMLID_502_" x="-236.6" y="203.7" transform="matrix(-0.7157 -0.6984 0.6984 -0.7157 -543.3948 195.7168)" class="st1" width="9.5" height="9.5"/>
	
		<rect id="XMLID_501_" x="-227.9" y="212.2" transform="matrix(-0.7157 -0.6984 0.6984 -0.7157 -534.3615 216.3632)" class="st1" width="9.5" height="9.5"/>
	
		<rect id="XMLID_500_" x="-219.2" y="220.7" transform="matrix(-0.7157 -0.6984 0.6984 -0.7157 -525.4977 237.0837)" class="st1" width="9.5" height="9.5"/>
	
		<rect id="XMLID_499_" x="-210.5" y="229.2" transform="matrix(-0.7157 -0.6984 0.6984 -0.7157 -516.4644 257.7299)" class="st0" width="9.5" height="9.5"/>
	
		<rect id="XMLID_498_" x="-201.7" y="237.8" transform="matrix(-0.7157 -0.6984 0.6984 -0.7157 -507.3568 278.5462)" class="st1" width="9.5" height="9.5"/>
</g>
<g id="XMLID_456_">
	
		<rect id="XMLID_481_" x="266.1" y="-581.3" transform="matrix(-0.7157 -0.6984 0.6984 -0.7157 867.2468 -799.9767)" class="st1" width="9.5" height="9.5"/>
	
		<rect id="XMLID_480_" x="274.8" y="-572.8" transform="matrix(-0.7157 -0.6984 0.6984 -0.7157 876.2803 -779.3303)" class="st1" width="9.5" height="9.5"/>
	
		<rect id="XMLID_479_" x="283.5" y="-564.3" transform="matrix(-0.7157 -0.6984 0.6984 -0.7157 885.3137 -758.6838)" class="st0" width="9.5" height="9.5"/>
	
		<rect id="XMLID_478_" x="292.2" y="-555.8" transform="matrix(-0.7157 -0.6984 0.6984 -0.7157 894.3472 -738.0373)" class="st1" width="9.5" height="9.5"/>
	
		<rect id="XMLID_477_" x="301" y="-547.2" transform="matrix(-0.7157 -0.6984 0.6984 -0.7157 903.4545 -717.2211)" class="st0" width="9.5" height="9.5"/>
	
		<rect id="XMLID_476_" x="256.8" y="-571.8" transform="matrix(-0.7157 -0.6984 0.6984 -0.7157 844.6871 -790.1899)" class="st0" width="9.5" height="9.5"/>
	
		<rect id="XMLID_475_" x="265.5" y="-563.3" transform="matrix(-0.7157 -0.6984 0.6984 -0.7157 853.7205 -769.5435)" class="st1" width="9.5" height="9.5"/>
	
		<rect id="XMLID_474_" x="274.2" y="-554.8" transform="matrix(-0.7157 -0.6984 0.6984 -0.7157 862.754 -748.897)" class="st1" width="9.5" height="9.5"/>
	
		<rect id="XMLID_473_" x="283" y="-546.2" transform="matrix(-0.7157 -0.6984 0.6984 -0.7157 871.8615 -728.0807)" class="st0" width="9.5" height="9.5"/>
	
		<rect id="XMLID_472_" x="291.7" y="-537.8" transform="matrix(-0.7157 -0.6984 0.6984 -0.7157 880.8948 -707.4343)" class="st1" width="9.5" height="9.5"/>
	
		<rect id="XMLID_471_" x="247.5" y="-562.3" transform="matrix(-0.7157 -0.6984 0.6984 -0.7157 822.1274 -780.4031)" class="st1" width="9.5" height="9.5"/>
	
		<rect id="XMLID_470_" x="256.2" y="-553.8" transform="matrix(-0.7157 -0.6984 0.6984 -0.7157 831.1608 -759.7567)" class="st0" width="9.5" height="9.5"/>
	
		<rect id="XMLID_469_" x="265" y="-545.2" transform="matrix(-0.7157 -0.6984 0.6984 -0.7157 840.2683 -738.9404)" class="st0" width="9.5" height="9.5"/>
	
		<rect id="XMLID_468_" x="273.7" y="-536.8" transform="matrix(-0.7157 -0.6984 0.6984 -0.7157 849.3018 -718.2941)" class="st1" width="9.5" height="9.5"/>
	
		<rect id="XMLID_467_" x="282.4" y="-528.3" transform="matrix(-0.7157 -0.6984 0.6984 -0.7157 858.3352 -697.6477)" class="st1" width="9.5" height="9.5"/>
	
		<rect id="XMLID_466_" x="238.2" y="-552.8" transform="matrix(-0.7157 -0.6984 0.6984 -0.7157 799.5676 -770.6164)" class="st1" width="9.5" height="9.5"/>
	
		<rect id="XMLID_465_" x="247" y="-544.2" transform="matrix(-0.7157 -0.6984 0.6984 -0.7157 808.6751 -749.8001)" class="st0" width="9.5" height="9.5"/>
	
		<rect id="XMLID_464_" x="255.7" y="-535.8" transform="matrix(-0.7157 -0.6984 0.6984 -0.7157 817.7087 -729.1538)" class="st0" width="9.5" height="9.5"/>
	
		<rect id="XMLID_463_" x="264.4" y="-527.3" transform="matrix(-0.7157 -0.6984 0.6984 -0.7157 826.7421 -708.5074)" class="st0" width="9.5" height="9.5"/>
	
		<rect id="XMLID_462_" x="273.1" y="-518.7" transform="matrix(-0.7157 -0.6984 0.6984 -0.7157 835.6057 -687.7869)" class="st1" width="9.5" height="9.5"/>
	
		<rect id="XMLID_461_" x="228.9" y="-543.3" transform="matrix(-0.7157 -0.6984 0.6984 -0.7157 777.008 -760.8298)" class="st1" width="9.5" height="9.5"/>
	
		<rect id="XMLID_460_" x="237.7" y="-534.8" transform="matrix(-0.7157 -0.6984 0.6984 -0.7157 786.1155 -740.0135)" class="st1" width="9.5" height="9.5"/>
	
		<rect id="XMLID_459_" x="246.4" y="-526.3" transform="matrix(-0.7157 -0.6984 0.6984 -0.7157 795.1489 -719.3671)" class="st1" width="9.5" height="9.5"/>
	
		<rect id="XMLID_458_" x="255.1" y="-517.8" transform="matrix(-0.7157 -0.6984 0.6984 -0.7157 804.1824 -698.7206)" class="st0" width="9.5" height="9.5"/>
	
		<rect id="XMLID_457_" x="263.8" y="-509.2" transform="matrix(-0.7157 -0.6984 0.6984 -0.7157 813.1199 -677.8303)" class="st1" width="9.5" height="9.5"/>
</g>
<g id="XMLID_405_">
	
		<ellipse id="XMLID_414_" transform="matrix(0.2435 -0.9699 0.9699 0.2435 414.0201 -549.5696)" class="st0" cx="-145.3" cy="-540.2" rx="3.1" ry="2"/>
	
		<ellipse id="XMLID_413_" transform="matrix(-0.4004 -0.9163 0.9163 -0.4004 313.401 -889.0971)" class="st1" cx="-134.2" cy="-547.1" rx="7.6" ry="32.9"/>
	<path id="XMLID_412_" class="st0" d="M-141.8-564.6c-6.1,2.6-8.9,9.5-6.4,15.3c0.8,1.8,2,3.3,3.5,4.4c6.7-0.8,14.2-4.3,19.3-8.9
		c0.1-1.7-0.2-3.5-0.9-5.2C-128.8-564.7-135.8-567.3-141.8-564.6z"/>
	<path id="XMLID_411_" class="st1" d="M-154.3-532.7c5.9,5.4,17,6.2,27.7,1.6c10.9-4.8,17.9-13.7,17.7-21.8
		c-4.8,4-12.8,8.7-22.3,12.8C-139.9-536.3-148.2-533.7-154.3-532.7z"/>
	<line id="XMLID_410_" class="st1" x1="-141.9" y1="-564.8" x2="-144" y2="-569.7"/>
	<circle id="XMLID_409_" class="st1" cx="-144.5" cy="-570.7" r="0.9"/>
	
		<ellipse id="XMLID_408_" transform="matrix(-0.4004 -0.9163 0.9163 -0.4004 312.5085 -883.4907)" class="st0" cx="-132.8" cy="-544" rx="3.1" ry="2"/>
	
		<ellipse id="XMLID_407_" transform="matrix(-0.9699 -0.2435 0.2435 -0.9699 -106.0113 -1114.6086)" class="st0" cx="-121.9" cy="-550.8" rx="3.1" ry="2"/>
	<path id="XMLID_406_" class="st0" d="M-89.6-514.7l-0.1-0.2c-0.1-0.2-0.3-0.3-0.6-0.4l-27.9-20.9c-2.5,1.8-5.3,3.4-8.4,4.8
		c-3.1,1.4-6.2,2.3-9.2,3l-3.6,34.7c-0.1,0.3-0.2,0.4-0.1,0.7l0,0l0,0c0,0,0.1,0.2,0.1,0.3c1.2,2.7,13.4,0.1,27.2-5.9
		S-88.4-512-89.6-514.7"/>
</g>
<g id="XMLID_575_" class="st4">
	<path id="XMLID_27_" class="st2" d="M439.2,422.5c3,0.8,5.8,2.5,7.8,4.9c0.6,0.7,1.7,0.8,2.4,0.2l0,0c0.7-0.6,0.8-1.7,0.2-2.4
		c-2.5-3-5.9-5.1-9.6-6.1c-0.9-0.2-1.8,0.3-2.1,1.2C437.7,421.3,438.3,422.3,439.2,422.5z"/>
	<path id="XMLID_15_" class="st2" d="M440.1,454.6c2.7-0.8,5.1-2.1,7.2-3.9c0.6-0.5,1.2-1.1,1.7-1.7l-9.5-0.2c-0.3,1.2-1,2.2-1.9,3
		c-0.7,0.6-1.5,1.1-2.4,1.3c-3.4,0.9-6.9-1-7.8-4.4c-0.7-2.3,0.1-4.9,2-6.5c0.7-0.6,1.5-1.1,2.4-1.3c0.2-0.1,0.4-0.1,0.6-0.1l2.2-23
		c-1.5,0-3.1,0.2-4.6,0.7c-2.7,0.8-5.1,2.1-7.2,3.9c-5.5,4.7-7.7,12.3-5.8,19.2c1.4,4.8,4.5,8.8,8.9,11.3
		C430.2,455.4,435.3,456,440.1,454.6z"/>
	<path id="XMLID_14_" class="st2" d="M431.6,444.9c-0.9,0.7-1.2,1.9-0.9,3c0.4,1.6,2.1,2.5,3.6,2c0.4-0.1,0.8-0.3,1.1-0.6
		c0.9-0.7,1.2-1.9,0.9-3c-0.4-1.6-2-2.5-3.6-2C432.3,444.4,432,444.6,431.6,444.9z"/>
	<path id="XMLID_13_" class="st2" d="M426.1,460.2c0.5-0.9,1.1-1.8,1.8-2.7c-3.2-1.1-6.1-2.9-8.5-5.4c-0.2-0.2-0.7-0.4-0.9-0.6
		c-3,2.4-4.3,6.8-2.6,10.4l1.5,3.2c1.1-1.7,2.8-3.2,4.6-4C423.2,460.6,424.8,460.2,426.1,460.2z"/>
	<path id="XMLID_12_" class="st2" d="M425.3,486.8l5.4-14.8c1.2-3.4-0.1-7-3.1-8.1c-1.3-0.5-2.7-0.4-4,0.2c-1.6,0.8-2.9,2.2-3.6,4
		l-5.4,14.8c-1.2,3.4,0.1,7,3.1,8.1c1.3,0.5,2.7,0.4,4-0.2C423.3,490.1,424.6,488.6,425.3,486.8z"/>
	<path id="XMLID_11_" class="st2" d="M441.2,489.9c-1.6,0.8-2.9,2.2-3.6,4l-5.4,14.8c-1.2,3.4,0.1,7.1,3.1,8.1
		c1.3,0.5,2.7,0.4,4-0.2c1.6-0.8,2.9-2.2,3.6-4l5.4-14.8c1.2-3.4-0.1-7-3.1-8.1C444,489.2,442.5,489.3,441.2,489.9z"/>
	<path id="XMLID_10_" class="st2" d="M463.7,487.9l3.9,8.3c1.5,3.3,5,4.9,7.8,3.6c2.8-1.3,3.8-5,2.3-8.3l-5.7-12.2
		c-1.8,3.5-4.2,6.7-8,8.5L463.7,487.9z"/>
	<path id="XMLID_9_" class="st2" d="M453.1,449.3c-2.2,3.2-5.2,5.8-8.8,7.4c-3,1.4-6.1,2.1-9.4,2c-1.1,0-2.2-0.1-3.3-0.3
		c-0.8,0.8-1.5,1.6-2.1,2.5c4.2,2,6.1,7.3,4.3,12.2l-2.6,7.1l1.1,2.3c1.1,2.5,3,4.4,5.1,5.8c0.7-0.6,1.6-1.2,2.4-1.6
		c2.1-1,4.5-1.1,6.6-0.4c1.7,0.6,3.3,2.1,4.3,3.6c0.2-0.1,0.6,0.2,0.8,0.1l11.2-5.2c7.1-3.3,9.6-12.3,6.4-19.4l-3.7-8
		C463,452.6,458.3,449.5,453.1,449.3z"/>
	<path id="XMLID_8_" class="st2" d="M463.4,429.3c-1.6,0.8-2.9,2.2-3.6,4l-3.3,9.1c-0.3,1.2-0.8,2.4-1.3,3.5v0.1
		c3.8,0.5,7.4,2.3,10.2,5.2l5.1-14c1.2-3.4-0.1-7.1-3.1-8.1C466.1,428.6,464.7,428.7,463.4,429.3z"/>
	<path id="XMLID_17_" class="st2" d="M574.7-79.6c2.3,2.2,3.8,5,4.4,8.1c0.2,0.9,1.1,1.5,2,1.4l0,0c0.9-0.2,1.5-1.1,1.3-2
		c-0.7-3.8-2.6-7.3-5.4-10c-0.7-0.6-1.8-0.6-2.4,0.1C574-81.4,574-80.3,574.7-79.6z"/>
	<path id="XMLID_16_" class="st2" d="M559.7-51.1c2.7,0.7,5.5,0.7,8.2,0.2c0.8-0.2,1.6-0.4,2.4-0.7l-8.2-4.8
		c-0.9,0.8-1.9,1.4-3.2,1.7c-0.9,0.2-1.8,0.2-2.8-0.1c-3.4-0.8-5.5-4.3-4.7-7.7c0.6-2.4,2.5-4.2,4.9-4.7c0.9-0.2,1.9-0.2,2.8,0.1
		c0.2,0,0.4,0.1,0.5,0.2l13.2-19c-1.3-0.7-2.8-1.3-4.3-1.7c-2.7-0.7-5.5-0.7-8.2-0.2c-7.1,1.5-12.8,6.9-14.5,13.9
		c-1.2,4.9-0.4,9.9,2.2,14.2C550.8-55.3,554.9-52.3,559.7-51.1z"/>
	<path id="XMLID_7_" class="st2" d="M557.1-63.8c-1.1,0.2-2,1.1-2.3,2.2c-0.4,1.6,0.6,3.2,2.1,3.5c0.4,0.1,0.9,0.1,1.3,0
		c1.1-0.2,2-1.1,2.3-2.2c0.4-1.6-0.6-3.1-2.1-3.5C558-63.9,557.5-63.9,557.1-63.8z"/>
	<path id="XMLID_6_" class="st2" d="M544.8-53.2c0.9-0.6,1.9-1.1,2.9-1.5c-2.2-2.5-3.9-5.5-4.8-8.9c-0.1-0.3-0.4-0.7-0.5-1
		c-3.8,0.7-7.1,3.8-7.4,7.8l-0.3,3.5c1.8-1,4.1-1.4,6-1.3C542.1-54.2,543.6-53.8,544.8-53.2z"/>
	<path id="XMLID_5_" class="st2" d="M531-30.4l12-10.2c2.8-2.4,3.3-6.2,1.3-8.6c-0.9-1-2.2-1.6-3.6-1.8c-1.8-0.1-3.6,0.5-5.1,1.7
		l-12,10.2c-2.8,2.4-3.3,6.2-1.3,8.6c0.9,1,2.2,1.6,3.6,1.8C527.8-28.5,529.6-29.1,531-30.4z"/>
	<path id="XMLID_4_" class="st2" d="M543.4-19.9c-1.8-0.1-3.6,0.5-5.1,1.7L526.4-8c-2.8,2.4-3.3,6.2-1.3,8.6c0.9,1,2.2,1.6,3.6,1.8
		c1.8,0.1,3.6-0.5,5.1-1.7l12-10.2c2.8-2.4,3.3-6.2,1.3-8.6C546.2-19.1,544.9-19.8,543.4-19.9z"/>
	<path id="XMLID_3_" class="st2" d="M564.1-10.6l-0.7,9.1c-0.3,3.6,1.9,6.7,5,7c3.1,0.2,5.8-2.5,6-6.1l1-13.4
		c-3.3,2.2-7,3.8-11.1,3.4H564.1z"/>
	<path id="XMLID_2_" class="st2" d="M573.7-49.4c-3.5,1.7-7.3,2.5-11.3,2.2c-3.3-0.3-6.4-1.2-9.2-2.8c-1-0.6-1.9-1.2-2.8-1.9
		c-1.1,0.3-2.1,0.7-3.1,1.2c2.7,3.8,1.7,9.3-2.2,12.7l-5.8,4.9l-0.2,2.5c-0.2,2.7,0.4,5.3,1.6,7.5c0.9-0.2,1.9-0.3,2.9-0.2
		c2.4,0.2,4.5,1.2,5.9,2.9c1.2,1.4,1.8,3.5,2,5.2c0.2,0,0.5,0.4,0.7,0.5l12.3,0.9c7.8,0.6,14.4-6,15-13.8l0.7-8.8
		C580.7-41.7,578.1-46.7,573.7-49.4z"/>
	<path id="XMLID_1_" class="st2" d="M592.4-61.8c-1.8-0.1-3.6,0.5-5.1,1.7l-7.4,6.3c-0.9,0.9-1.8,1.7-2.8,2.4H577
		c3.1,2.4,5.3,5.7,6.3,9.5l11.3-9.7c2.8-2.4,3.3-6.2,1.3-8.6C595.2-61.1,593.9-61.7,592.4-61.8z"/>
	<path id="XMLID_26_" class="st2" d="M1184.9,283c3-0.8,6.3-0.7,9.2,0.5c0.9,0.3,1.9-0.1,2.2-1l0,0c0.3-0.9-0.1-1.8-1-2.2
		c-3.6-1.4-7.6-1.6-11.3-0.6c-0.9,0.2-1.4,1.2-1.2,2.1C1183,282.8,1184,283.3,1184.9,283z"/>
	<path id="XMLID_25_" class="st2" d="M1201.5,310.6c2-2,3.5-4.3,4.4-6.9c0.3-0.8,0.5-1.6,0.7-2.4l-8.3,4.5c0.3,1.2,0.2,2.4-0.2,3.6
		c-0.3,0.9-0.8,1.7-1.5,2.3c-2.5,2.5-6.5,2.5-9,0c-1.7-1.7-2.3-4.3-1.5-6.6c0.3-0.9,0.8-1.7,1.5-2.3c0.1-0.1,0.3-0.3,0.4-0.4
		l-9.4-21.2c-1.3,0.8-2.5,1.7-3.7,2.8c-2,2-3.5,4.3-4.4,6.9c-2.4,6.8-0.7,14.5,4.4,19.6c3.5,3.5,8.2,5.5,13.3,5.5
		C1193.2,316.1,1197.9,314.1,1201.5,310.6z"/>
	<path id="XMLID_24_" class="st2" d="M1189.3,306.3c-0.4,1.1-0.1,2.3,0.7,3.1c1.1,1.1,3,1.1,4.1,0c0.3-0.3,0.5-0.7,0.7-1.1
		c0.4-1.1,0.1-2.3-0.7-3.1c-1.1-1.1-3-1.1-4.1,0C1189.7,305.5,1189.5,305.9,1189.3,306.3z"/>
	<path id="XMLID_23_" class="st2" d="M1192,322.3c0-1.1,0.1-2.1,0.2-3.2c-3.3,0.6-6.7,0.5-10.1-0.5c-0.3-0.1-0.8,0-1.1-0.1
		c-1.4,3.6-0.4,8,2.8,10.4l2.9,2.1c0.1-2,0.9-4.2,2-5.8C1189.6,324.1,1190.8,323,1192,322.3z"/>
	<path id="XMLID_22_" class="st2" d="M1204.3,345.9l-2.5-15.5c-0.6-3.6-3.6-6.1-6.6-5.6c-1.3,0.2-2.5,1-3.4,2.2
		c-1,1.4-1.5,3.4-1.2,5.2l2.5,15.5c0.6,3.6,3.6,6.1,6.6,5.6c1.3-0.2,2.5-1,3.4-2.2C1204.2,349.7,1204.6,347.8,1204.3,345.9z"/>
	<path id="XMLID_21_" class="st2" d="M1219.7,340.8c-1,1.4-1.5,3.4-1.2,5.2l2.5,15.5c0.6,3.6,3.6,6.1,6.6,5.6c1.3-0.2,2.5-1,3.4-2.2
		c1-1.4,1.5-3.4,1.2-5.2l-2.5-15.5c-0.6-3.6-3.6-6.1-6.6-5.6C1221.7,338.8,1220.5,339.6,1219.7,340.8z"/>
	<path id="XMLID_20_" class="st2" d="M1238.3,328l7.4,5.3c2.9,2.1,6.8,1.9,8.6-0.7c1.8-2.5,0.8-6.2-2.1-8.3l-10.9-7.8
		c0.1,3.9-0.4,7.9-2.8,11.3L1238.3,328z"/>
	<path id="XMLID_19_" class="st2" d="M1210.2,299.6c-0.4,3.8-1.7,7.5-4,10.8c-1.9,2.7-4.3,4.8-7.2,6.4c-1,0.5-2,1-3,1.4
		c-0.3,1.1-0.5,2.1-0.6,3.2c4.6-0.3,8.9,3.4,9.7,8.5l1.2,7.5l2.1,1.5c2.2,1.6,4.7,2.4,7.2,2.6c0.3-0.9,0.8-1.8,1.3-2.6
		c1.4-1.9,3.4-3.2,5.6-3.6c1.8-0.3,3.9,0.2,5.5,1c0.2-0.2,0.6-0.2,0.8-0.4l7.2-10c4.6-6.3,2.4-15.4-4-20l-7.2-5.2
		C1220.4,297.6,1214.8,297.3,1210.2,299.6z"/>
	<path id="XMLID_18_" class="st2" d="M1209.3,277.1c-1,1.4-1.5,3.4-1.2,5.2l1.6,9.6c0.3,1.2,0.5,2.5,0.6,3.7v0.1
		c3.6-1.4,7.6-1.6,11.4-0.5l-2.4-14.7c-0.6-3.6-3.6-6.1-6.6-5.6C1211.4,275.2,1210.2,275.9,1209.3,277.1z"/>
	<path id="XMLID_36_" class="st2" d="M1234.7-169.9c1.4,2.8,1.9,6.1,1.3,9.1c-0.2,0.9,0.5,1.8,1.4,2l0,0c0.9,0.1,1.8-0.5,1.9-1.4
		c0.7-3.8,0.1-7.8-1.6-11.2c-0.4-0.8-1.4-1.2-2.3-0.8C1234.6-171.8,1234.3-170.7,1234.7-169.9z"/>
	<path id="XMLID_35_" class="st2" d="M1210.9-148.3c2.3,1.6,4.9,2.6,7.6,3c0.8,0.1,1.6,0.2,2.4,0.2l-6-7.3c-1.1,0.5-2.3,0.7-3.6,0.5
		c-0.9-0.1-1.8-0.5-2.6-1c-2.9-1.9-3.7-5.9-1.7-8.8c1.4-2,3.8-3.1,6.2-2.7c0.9,0.1,1.8,0.5,2.6,1c0.2,0.1,0.3,0.2,0.5,0.3l19-13.3
		c-1-1.1-2.2-2.2-3.5-3.1c-2.3-1.6-4.9-2.6-7.6-3c-7.1-1.1-14.4,2.1-18.4,8.1c-2.8,4.2-3.8,9.2-2.8,14.1
		C1203.9-155.3,1206.7-151.1,1210.9-148.3z"/>
	<path id="XMLID_34_" class="st2" d="M1212.8-161.1c-1.1-0.2-2.2,0.3-2.9,1.3c-0.9,1.3-0.5,3.2,0.8,4.1c0.4,0.2,0.8,0.4,1.2,0.5
		c1.1,0.2,2.2-0.3,2.9-1.3c0.9-1.3,0.5-3.2-0.8-4.1C1213.6-160.8,1213.2-161,1212.8-161.1z"/>
	<path id="XMLID_33_" class="st2" d="M1197.5-155.3c1-0.2,2.1-0.4,3.2-0.4c-1.2-3.1-1.8-6.5-1.5-10c0-0.3-0.2-0.8-0.1-1.1
		c-3.8-0.7-7.9,1.1-9.6,4.8l-1.5,3.2c2-0.3,4.3,0.1,6.1,0.9C1195.4-157.3,1196.7-156.4,1197.5-155.3z"/>
	<path id="XMLID_32_" class="st2" d="M1176.8-138.7l14.7-5.5c3.4-1.3,5.3-4.7,4.2-7.6c-0.5-1.3-1.5-2.3-2.8-2.9
		c-1.6-0.7-3.6-0.8-5.4-0.1l-14.7,5.5c-3.4,1.3-5.3,4.7-4.2,7.6c0.5,1.3,1.5,2.3,2.8,2.9C1173-138.1,1175-138,1176.8-138.7z"/>
	<path id="XMLID_31_" class="st2" d="M1184.8-124.6c-1.6-0.7-3.6-0.8-5.4-0.1l-14.7,5.5c-3.4,1.3-5.3,4.7-4.2,7.6
		c0.5,1.3,1.5,2.3,2.8,2.9c1.6,0.7,3.6,0.8,5.4,0.1l14.7-5.5c3.4-1.3,5.3-4.7,4.2-7.6C1187.1-122.9,1186.1-124,1184.8-124.6z"/>
	<path id="XMLID_30_" class="st2" d="M1200.9-108.8l-3.8,8.3c-1.5,3.3-0.5,7,2.3,8.3s6.3-0.4,7.8-3.7l5.6-12.2
		c-3.8,0.9-7.9,1.1-11.6-0.6L1200.9-108.8z"/>
	<path id="XMLID_29_" class="st2" d="M1223.4-141.9c-3.8,0.4-7.7-0.2-11.4-1.8c-3-1.4-5.5-3.3-7.7-5.8c-0.7-0.9-1.3-1.8-1.9-2.7
		c-1.1-0.1-2.2-0.1-3.3,0.1c1.2,4.5-1.6,9.4-6.5,11.2l-7.1,2.6l-1.1,2.3c-1.1,2.5-1.4,5.1-1.1,7.6c1,0.1,1.9,0.4,2.8,0.8
		c2.2,1,3.8,2.7,4.6,4.8c0.6,1.7,0.5,3.9,0,5.6c0.2,0.1,0.3,0.6,0.5,0.7l11.2,5.1c7.1,3.3,15.6-0.6,18.9-7.8l3.7-8
		C1227.3-132.2,1226.6-137.8,1223.4-141.9z"/>
	<path id="XMLID_28_" class="st2" d="M1245.2-147.1c-1.6-0.7-3.6-0.8-5.4-0.1l-9.1,3.4c-1.1,0.5-2.3,1-3.5,1.3h-0.1
		c2.1,3.3,3,7.2,2.7,11.1l14-5.2c3.4-1.3,5.3-4.7,4.2-7.6C1247.6-145.4,1246.6-146.5,1245.2-147.1z"/>
	<g id="XMLID_252_">
		<path id="XMLID_45_" class="st2" d="M875.7,120.4c2.3,2.2,3.8,5,4.4,8.1c0.2,0.9,1.1,1.5,2,1.4l0,0c0.9-0.2,1.5-1.1,1.3-2
			c-0.7-3.8-2.6-7.3-5.4-10c-0.7-0.6-1.8-0.6-2.4,0.1C875,118.6,875,119.7,875.7,120.4z"/>
		<path id="XMLID_44_" class="st2" d="M860.7,148.9c2.7,0.7,5.5,0.7,8.2,0.2c0.8-0.2,1.6-0.4,2.4-0.7l-8.2-4.8
			c-0.9,0.8-1.9,1.4-3.2,1.7c-0.9,0.2-1.8,0.2-2.8-0.1c-3.4-0.8-5.5-4.3-4.7-7.7c0.6-2.4,2.5-4.2,4.9-4.7c0.9-0.2,1.9-0.2,2.8,0.1
			c0.2,0,0.4,0.1,0.5,0.2l13.2-19c-1.3-0.7-2.8-1.3-4.3-1.7c-2.7-0.7-5.5-0.7-8.2-0.2c-7.1,1.5-12.8,6.9-14.5,13.9
			c-1.2,4.9-0.4,9.9,2.2,14.2C851.8,144.7,855.9,147.7,860.7,148.9z"/>
		<path id="XMLID_43_" class="st2" d="M858.1,136.2c-1.1,0.2-2,1.1-2.3,2.2c-0.4,1.6,0.6,3.2,2.1,3.5c0.4,0.1,0.9,0.1,1.3,0
			c1.1-0.2,2-1.1,2.3-2.2c0.4-1.6-0.6-3.1-2.1-3.5C859,136.1,858.5,136.1,858.1,136.2z"/>
		<path id="XMLID_42_" class="st2" d="M845.8,146.8c0.9-0.6,1.9-1.1,2.9-1.5c-2.2-2.5-3.9-5.5-4.8-8.9c-0.1-0.3-0.4-0.7-0.5-1
			c-3.8,0.7-7.1,3.8-7.4,7.8l-0.3,3.5c1.8-1,4.1-1.4,6-1.3C843.1,145.8,844.6,146.2,845.8,146.8z"/>
		<path id="XMLID_41_" class="st2" d="M832,169.6l12-10.2c2.8-2.4,3.3-6.2,1.3-8.6c-0.9-1-2.2-1.6-3.6-1.8c-1.8-0.1-3.6,0.5-5.1,1.7
			l-12,10.2c-2.8,2.4-3.3,6.2-1.3,8.6c0.9,1,2.2,1.6,3.6,1.8C828.8,171.5,830.6,170.9,832,169.6z"/>
		<path id="XMLID_40_" class="st2" d="M844.4,180.1c-1.8-0.1-3.6,0.5-5.1,1.7L827.4,192c-2.8,2.4-3.3,6.2-1.3,8.6
			c0.9,1,2.2,1.6,3.6,1.8c1.8,0.1,3.6-0.5,5.1-1.7l12-10.2c2.8-2.4,3.3-6.2,1.3-8.6C847.2,180.9,845.9,180.2,844.4,180.1z"/>
		<path id="XMLID_39_" class="st2" d="M865.1,189.4l-0.7,9.1c-0.3,3.6,1.9,6.7,5,7c3.1,0.2,5.8-2.5,6-6.1l1-13.4
			c-3.3,2.2-7,3.8-11.1,3.4H865.1z"/>
		<path id="XMLID_38_" class="st2" d="M874.7,150.6c-3.5,1.7-7.3,2.5-11.3,2.2c-3.3-0.3-6.4-1.2-9.2-2.8c-1-0.6-1.9-1.2-2.8-1.9
			c-1.1,0.3-2.1,0.7-3.1,1.2c2.7,3.8,1.7,9.3-2.2,12.7l-5.8,4.9l-0.2,2.5c-0.2,2.7,0.4,5.3,1.6,7.5c0.9-0.2,1.9-0.3,2.9-0.2
			c2.4,0.2,4.5,1.2,5.9,2.9c1.2,1.4,1.8,3.5,2,5.2c0.2,0,0.5,0.4,0.7,0.5l12.3,0.9c7.8,0.6,14.4-6,15-13.8l0.7-8.8
			C881.7,158.3,879.1,153.3,874.7,150.6z"/>
		<path id="XMLID_37_" class="st2" d="M893.4,138.2c-1.8-0.1-3.6,0.5-5.1,1.7l-7.4,6.3c-0.9,0.9-1.8,1.7-2.8,2.4H878
			c3.1,2.4,5.3,5.7,6.3,9.5l11.3-9.7c2.8-2.4,3.3-6.2,1.3-8.6C896.2,138.9,894.9,138.3,893.4,138.2z"/>
	</g>
	<g id="XMLID_384_">
		<path id="XMLID_54_" class="st2" d="M1692.4,78.5c3,0.8,5.8,2.6,7.8,5c0.6,0.7,1.7,0.8,2.4,0.2l0,0c0.7-0.6,0.8-1.7,0.2-2.4
			c-2.4-3-5.8-5.1-9.6-6.1c-0.9-0.2-1.8,0.3-2.1,1.2C1690.9,77.3,1691.5,78.2,1692.4,78.5z"/>
		<path id="XMLID_53_" class="st2" d="M1693.2,110.6c2.7-0.7,5.1-2,7.2-3.8c0.6-0.5,1.2-1.1,1.8-1.7l-9.5-0.2c-0.3,1.2-1,2.2-1.9,3
			c-0.7,0.6-1.5,1-2.4,1.3c-3.4,0.9-6.9-1.1-7.8-4.4c-0.6-2.3,0.1-4.9,2-6.5c0.7-0.6,1.5-1,2.4-1.3c0.2,0,0.4-0.1,0.6-0.1l2.3-23
			c-1.5,0-3.1,0.2-4.6,0.6c-2.7,0.7-5.1,2-7.2,3.8c-5.5,4.7-7.8,12.2-5.9,19.2c1.3,4.8,4.5,8.9,8.8,11.3
			C1683.3,111.3,1688.3,111.9,1693.2,110.6z"/>
		<path id="XMLID_52_" class="st2" d="M1684.7,100.8c-0.9,0.7-1.2,1.9-0.9,3c0.4,1.6,2,2.5,3.6,2c0.4-0.1,0.8-0.3,1.1-0.6
			c0.9-0.7,1.2-1.9,0.9-3c-0.4-1.6-2-2.5-3.6-2C1685.4,100.4,1685.1,100.6,1684.7,100.8z"/>
		<path id="XMLID_51_" class="st2" d="M1679.1,116.1c0.5-0.9,1.1-1.8,1.8-2.7c-3.2-1.1-6.1-2.9-8.5-5.4c-0.2-0.2-0.7-0.4-0.9-0.6
			c-3,2.4-4.3,6.8-2.7,10.4l1.5,3.2c1.1-1.7,2.9-3.2,4.6-4C1676.2,116.5,1677.8,116.1,1679.1,116.1z"/>
		<path id="XMLID_50_" class="st2" d="M1678.2,142.7l5.5-14.8c1.3-3.4-0.1-7-3-8.1c-1.3-0.5-2.7-0.4-4,0.2c-1.6,0.7-2.9,2.2-3.6,4
			l-5.5,14.8c-1.3,3.4,0.1,7,3,8.1c1.3,0.5,2.7,0.4,4-0.2C1676.2,146,1677.5,144.5,1678.2,142.7z"/>
		<path id="XMLID_49_" class="st2" d="M1694.1,145.9c-1.6,0.7-2.9,2.2-3.6,4l-5.5,14.7c-1.3,3.4,0.1,7.1,3,8.1
			c1.3,0.5,2.7,0.4,4-0.2c1.6-0.7,2.9-2.2,3.6-4l5.5-14.8c1.3-3.4-0.1-7-3-8.1C1696.8,145.2,1695.4,145.3,1694.1,145.9z"/>
		<path id="XMLID_48_" class="st2" d="M1716.6,144l3.8,8.3c1.5,3.3,4.9,5,7.8,3.7c2.8-1.3,3.8-5,2.3-8.3l-5.6-12.2
			c-1.8,3.5-4.3,6.7-8,8.4L1716.6,144z"/>
		<path id="XMLID_47_" class="st2" d="M1706.2,105.4c-2.2,3.2-5.2,5.7-8.8,7.4c-3,1.4-6.1,2-9.4,2c-1.1,0-2.2-0.1-3.3-0.3
			c-0.8,0.8-1.5,1.6-2.1,2.5c4.2,2,6,7.3,4.2,12.2l-2.7,7.1l1.1,2.3c1.1,2.5,2.9,4.4,5,5.8c0.7-0.6,1.6-1.2,2.4-1.6
			c2.1-1,4.5-1.1,6.6-0.3c1.7,0.6,3.3,2.1,4.3,3.6c0.2-0.1,0.6,0.2,0.8,0.1l11.2-5.1c7.1-3.3,9.7-12.2,6.5-19.3l-3.7-8
			C1716.1,108.7,1711.3,105.6,1706.2,105.4z"/>
		<path id="XMLID_46_" class="st2" d="M1716.5,85.4c-1.6,0.7-2.9,2.2-3.6,4l-3.4,9.1c-0.3,1.2-0.8,2.4-1.3,3.5v0.1
			c3.8,0.6,7.4,2.4,10.1,5.2l5.2-14c1.3-3.4-0.1-7.1-3-8.1C1719.3,84.7,1717.9,84.8,1716.5,85.4z"/>
	</g>
	<g id="XMLID_55_">
		
			<ellipse id="XMLID_65_" transform="matrix(0.158 -0.9874 0.9874 0.158 238.9845 693.4082)" class="st0" cx="526.1" cy="206.6" rx="3.1" ry="2"/>
		
			<ellipse id="XMLID_64_" transform="matrix(-0.4788 -0.8779 0.8779 -0.4788 619.2567 764.9172)" class="st1" cx="536.7" cy="198.6" rx="7.6" ry="32.9"/>
		<path id="XMLID_63_" class="st0" d="M527.5,182c-5.8,3.2-8.1,10.2-5,15.8c0.9,1.7,2.3,3.1,3.9,4.1c6.6-1.4,13.8-5.6,18.5-10.5
			c0-1.7-0.5-3.5-1.3-5.1C540.5,180.7,533.3,178.8,527.5,182z"/>
		<path id="XMLID_62_" class="st1" d="M517.9,214.8c6.3,4.8,17.5,4.7,27.8-0.9c10.4-5.7,16.6-15.3,15.7-23.2
			c-4.5,4.4-12,9.7-21.1,14.7C531.9,210,523.9,213.3,517.9,214.8z"/>
		<line id="XMLID_61_" class="st1" x1="527.5" y1="181.8" x2="524.9" y2="177.1"/>
		<circle id="XMLID_60_" class="st1" cx="524.3" cy="176.1" r="0.9"/>
		
			<ellipse id="XMLID_59_" transform="matrix(-0.4788 -0.8779 0.8779 -0.4788 618.9821 770.8004)" class="st0" cx="538.3" cy="201.7" rx="3.1" ry="2"/>
		
			<ellipse id="XMLID_58_" transform="matrix(-0.9874 -0.158 0.158 -0.9874 1059.5981 472.3481)" class="st0" cx="548.6" cy="194.1" rx="3.1" ry="2"/>
		<path id="XMLID_56_" class="st0" d="M583.9,227.2l-0.2-0.2c-0.2-0.2-0.4-0.3-0.6-0.4l-29.6-18.4c-2.3,2-5,3.9-8,5.5
			s-6,2.9-8.9,3.8l-0.6,34.9c-0.1,0.3-0.1,0.4-0.1,0.7h-0.1l0,0c0,0,0.1,0.2,0.1,0.3c1.4,2.6,13.3-1,26.6-8.3
			C575.8,237.8,585.3,229.8,583.9,227.2"/>
	</g>
	<g id="XMLID_75_">
		
			<ellipse id="XMLID_84_" transform="matrix(0.7701 -0.6379 0.6379 0.7701 260.7281 552.7845)" class="st0" cx="897.3" cy="-85.4" rx="3.1" ry="2"/>
		
			<ellipse id="XMLID_83_" transform="matrix(0.2193 -0.9757 0.9757 0.2193 793.0189 822.342)" class="st1" cx="910.4" cy="-84.4" rx="7.6" ry="32.9"/>
		<path id="XMLID_82_" class="st0" d="M914.6-103c-6.5-1.5-12.8,2.4-14.2,8.6c-0.4,1.9-0.3,3.9,0.2,5.6c5.9,3.3,14,4.9,20.8,4.3
			c1.1-1.3,1.9-2.9,2.3-4.7C925.2-95.3,921.1-101.5,914.6-103z"/>
		<path id="XMLID_81_" class="st1" d="M885.7-84.6c1.6,7.8,10,15.1,21.5,17.7c11.6,2.6,22.5-0.5,27.2-7.1
			c-6.3,0.3-15.5-0.6-25.5-2.9C899.4-79,891.2-81.8,885.7-84.6z"/>
		<line id="XMLID_80_" class="st1" x1="914.7" y1="-103.1" x2="915.9" y2="-108.3"/>
		<circle id="XMLID_79_" class="st1" cx="916.1" cy="-109.5" r="0.9"/>
		
			<ellipse id="XMLID_78_" transform="matrix(0.2193 -0.9757 0.9757 0.2193 789.2505 824.2494)" class="st0" cx="909.7" cy="-81.1" rx="3.1" ry="2"/>
		
			<ellipse id="XMLID_77_" transform="matrix(-0.6379 -0.7701 0.7701 -0.6379 1572.5221 579.3823)" class="st0" cx="922.5" cy="-80" rx="3.1" ry="2"/>
		<path id="XMLID_76_" class="st0" d="M927.2-31.8v-0.3c0-0.2-0.1-0.4-0.2-0.7l-10.1-33.3c-3.1,0-6.3-0.4-9.6-1.1
			c-3.3-0.8-6.4-1.8-9.2-3.1l-23.4,25.8c-0.2,0.2-0.4,0.3-0.5,0.5l0,0l0,0c0,0-0.1,0.2-0.1,0.3c-0.7,2.9,10.7,8,25.4,11.3
			S926.5-28.9,927.2-31.8"/>
	</g>
	<g id="XMLID_85_">
		
			<ellipse id="XMLID_94_" transform="matrix(0.4622 -0.8868 0.8868 0.4622 573.6514 1489.4569)" class="st0" cx="1514.8" cy="271.8" rx="3.1" ry="2"/>
		
			<ellipse id="XMLID_93_" transform="matrix(-0.1765 -0.9843 0.9843 -0.1765 1533.3184 1818.1282)" class="st1" cx="1527.2" cy="267.7" rx="7.6" ry="32.9"/>
		<path id="XMLID_92_" class="st0" d="M1523.8,248.9c-6.5,1.2-10.9,7.2-9.8,13.4c0.3,1.9,1.2,3.7,2.4,5.1c6.7,0.7,14.8-0.9,20.9-4.1
			c0.5-1.6,0.6-3.4,0.3-5.2C1536.5,251.8,1530.3,247.7,1523.8,248.9z"/>
		<path id="XMLID_91_" class="st1" d="M1504.2,277c4.5,6.6,15.1,10,26.6,8c11.7-2.1,20.6-9.2,22.3-17.1c-5.6,2.7-14.5,5.4-24.6,7.3
			C1519.1,276.8,1510.4,277.4,1504.2,277z"/>
		<line id="XMLID_90_" class="st1" x1="1523.8" y1="248.7" x2="1522.9" y2="243.4"/>
		<circle id="XMLID_89_" class="st1" cx="1522.6" cy="242.3" r="0.9"/>
		
			<ellipse id="XMLID_88_" transform="matrix(-0.1765 -0.9843 0.9843 -0.1765 1530.7596 1822.5958)" class="st0" cx="1527.8" cy="271" rx="3.1" ry="2"/>
		
			<ellipse id="XMLID_87_" transform="matrix(-0.8868 -0.4622 0.4622 -0.8868 2782.2847 1215.39)" class="st0" cx="1540" cy="266.9" rx="3.1" ry="2"/>
		<path id="XMLID_86_" class="st0" d="M1563,309.6l-0.1-0.3c-0.1-0.2-0.2-0.4-0.5-0.5l-22.3-26.8c-2.9,1.2-6,2.1-9.3,2.7
			c-3.4,0.6-6.6,0.8-9.7,0.7l-11.6,32.9c-0.1,0.2-0.2,0.4-0.3,0.6l0,0l0,0c0,0,0,0.2,0,0.3c0.5,2.9,13,3.2,27.8,0.6
			S1563.5,312.5,1563,309.6"/>
	</g>
	<g id="XMLID_95_">
		
			<ellipse id="XMLID_104_" transform="matrix(0.9237 -0.3832 0.3832 0.9237 -76.5719 393.0495)" class="st0" cx="948.3" cy="388.7" rx="3.1" ry="2"/>
		
			<ellipse id="XMLID_103_" transform="matrix(0.4965 -0.868 0.868 0.4965 142.0248 1031.9734)" class="st1" cx="960.6" cy="393.6" rx="7.6" ry="32.9"/>
		<path id="XMLID_102_" class="st0" d="M970.1,377c-5.7-3.3-12.9-1.5-16.1,4c-1,1.7-1.5,3.6-1.5,5.5c4.6,4.9,12,8.8,18.6,10.2
			c1.4-0.9,2.7-2.2,3.6-3.8C977.9,387.4,975.8,380.3,970.1,377z"/>
		<path id="XMLID_101_" class="st1" d="M937,386c-0.8,7.9,5.2,17.4,15.3,23.2c10.3,5.9,21.7,6.1,28,1.2c-6.1-1.5-14.6-5.1-23.5-10.2
			C948.5,395.4,941.5,390.3,937,386z"/>
		<line id="XMLID_100_" class="st1" x1="970.2" y1="376.8" x2="972.8" y2="372.2"/>
		<circle id="XMLID_99_" class="st1" cx="973.3" cy="371.2" r="0.9"/>
		
			<ellipse id="XMLID_98_" transform="matrix(0.4965 -0.868 0.868 0.4965 138.6697 1031.993)" class="st0" cx="958.9" cy="396.5" rx="3.1" ry="2"/>
		
			<ellipse id="XMLID_97_" transform="matrix(-0.3832 -0.9237 0.9237 -0.3832 972.1257 1451.9105)" class="st0" cx="970.8" cy="401.4" rx="3.1" ry="2"/>
		<path id="XMLID_96_" class="st0" d="M961.1,448.7l0.1-0.3c0.1-0.2,0-0.4,0-0.7l0.1-34.8c-2.9-0.9-5.9-2.2-8.9-3.9
			s-5.6-3.6-7.9-5.6l-30,17.8c-0.3,0.1-0.4,0.1-0.6,0.3l0,0l0,0c0,0-0.1,0.2-0.2,0.3c-1.5,2.6,7.9,10.8,21,18.3
			S959.6,451.3,961.1,448.7"/>
	</g>
	<g id="XMLID_109_">
		<path id="XMLID_108_" class="st1" d="M386.3,81.2c-3.5,14.8-39.4,32.9-53.8,28.3c-3.4-1.1-8-15.9-6.6-12.6
			c4.4,10.9,55.5-13,53.8-28.3C379.2,65,387.1,77.7,386.3,81.2z"/>
		<path id="XMLID_107_" class="st0" d="M393.7,95.4c-3.5,14.8-39.4,32.9-53.8,28.3c-3.4-1.1-8-15.9-6.6-12.6
			c4.4,10.9,55.5-13,53.8-28.3C386.7,79.2,394.6,92,393.7,95.4z"/>
		
			<ellipse id="XMLID_106_" transform="matrix(-0.4648 -0.8854 0.8854 -0.4648 444.4675 424.2982)" class="st0" cx="350.5" cy="77.8" rx="12.5" ry="30.3"/>
		<path id="XMLID_105_" class="st1" d="M401.4,110c-3.5,14.8-39.4,32.9-53.8,28.3c-3.4-1.1-8-15.9-6.6-12.6
			c4.4,10.9,55.5-13,53.8-28.3C394.4,93.8,402.2,106.5,401.4,110z"/>
	</g>
	<g id="XMLID_110_">
		<path id="XMLID_114_" class="st1" d="M1166.6,85.8c-7.1,12.7-44.9,19.8-56.9,11.7c-2.8-1.9-3.1-16.8-2.8-13.4
			c1.2,11.2,54.4,2.7,56.9-11.7C1164.5,69,1168.3,82.8,1166.6,85.8z"/>
		<path id="XMLID_113_" class="st0" d="M1169.7,100.8c-7.1,12.7-44.9,19.8-56.9,11.7c-2.8-1.9-3.1-16.8-2.8-13.4
			c1.2,11.2,54.4,2.7,56.9-11.7C1167.6,84.1,1171.4,97.9,1169.7,100.8z"/>
		
			<ellipse id="XMLID_112_" transform="matrix(-0.2019 -0.9794 0.9794 -0.2019 1292.0782 1199.2992)" class="st0" cx="1134.7" cy="73.2" rx="12" ry="29"/>
		<path id="XMLID_111_" class="st1" d="M1172.9,116.2c-7.1,12.7-44.9,19.8-56.9,11.7c-2.8-1.9-3.1-16.8-2.8-13.4
			c1.2,11.2,54.4,2.7,56.9-11.7C1170.7,99.5,1174.6,113.2,1172.9,116.2z"/>
	</g>
	<g id="XMLID_115_">
		<path id="XMLID_119_" class="st1" d="M1155.6,532.8c-1.6,14.4-33.6,35.8-47.9,33c-3.3-0.6-9.4-14.2-7.7-11.2
			c5.5,9.8,51.2-18.7,47.9-33C1147.1,518.3,1156,529.4,1155.6,532.8z"/>
		<path id="XMLID_118_" class="st0" d="M1164.3,545.5c-1.6,14.4-33.6,35.8-47.9,33c-3.3-0.6-9.4-14.2-7.7-11.2
			c5.5,9.8,51.2-18.7,47.9-33C1155.8,531,1164.7,542.1,1164.3,545.5z"/>
		
			<ellipse id="XMLID_117_" transform="matrix(-0.5676 -0.8233 0.8233 -0.5676 1318.2437 1759.9984)" class="st0" cx="1121.3" cy="533.8" rx="12" ry="29"/>
		<path id="XMLID_116_" class="st1" d="M1173.2,558.4c-1.6,14.4-33.6,35.8-47.9,33c-3.3-0.6-9.4-14.2-7.7-11.2
			c5.5,9.8,51.2-18.7,47.9-33C1164.7,543.9,1173.6,555,1173.2,558.4z"/>
	</g>
	<g id="XMLID_159_">
		
			<rect id="XMLID_184_" x="671.5" y="349" transform="matrix(-0.9311 -0.3647 0.3647 -0.9311 1176.8569 929.7443)" class="st3" width="9.5" height="9.5"/>
		
			<rect id="XMLID_183_" x="682.8" y="353.4" transform="matrix(-0.9311 -0.3647 0.3647 -0.9311 1197.1207 942.3372)" class="st3" width="9.5" height="9.5"/>
		
			<rect id="XMLID_182_" x="694.2" y="357.9" transform="matrix(-0.9311 -0.3647 0.3647 -0.9311 1217.4468 955.2008)" class="st0" width="9.5" height="9.5"/>
		
			<rect id="XMLID_181_" x="705.5" y="362.3" transform="matrix(-0.9311 -0.3647 0.3647 -0.9311 1237.7106 967.7936)" class="st3" width="9.5" height="9.5"/>
		
			<rect id="XMLID_180_" x="716.9" y="366.7" transform="matrix(-0.9311 -0.3647 0.3647 -0.9311 1258.1407 980.491)" class="st0" width="9.5" height="9.5"/>
		
			<rect id="XMLID_179_" x="666.6" y="361.3" transform="matrix(-0.9311 -0.3647 0.3647 -0.9311 1162.9705 951.6902)" class="st0" width="9.5" height="9.5"/>
		
			<rect id="XMLID_178_" x="678" y="365.8" transform="matrix(-0.9311 -0.3647 0.3647 -0.9311 1183.2963 964.554)" class="st3" width="9.5" height="9.5"/>
		
			<rect id="XMLID_177_" x="689.3" y="370.2" transform="matrix(-0.9311 -0.3647 0.3647 -0.9311 1203.5601 977.147)" class="st3" width="9.5" height="9.5"/>
		
			<rect id="XMLID_176_" x="700.7" y="374.7" transform="matrix(-0.9311 -0.3647 0.3647 -0.9311 1223.886 990.0107)" class="st0" width="9.5" height="9.5"/>
		
			<rect id="XMLID_175_" x="712" y="379.1" transform="matrix(-0.9311 -0.3647 0.3647 -0.9311 1244.1498 1002.6036)" class="st3" width="9.5" height="9.5"/>
		
			<rect id="XMLID_174_" x="661.8" y="373.7" transform="matrix(-0.9311 -0.3647 0.3647 -0.9311 1149.146 973.9074)" class="st3" width="9.5" height="9.5"/>
		
			<rect id="XMLID_173_" x="673.1" y="378.1" transform="matrix(-0.9311 -0.3647 0.3647 -0.9311 1169.4097 986.5002)" class="st0" width="9.5" height="9.5"/>
		
			<rect id="XMLID_172_" x="684.5" y="382.6" transform="matrix(-0.9311 -0.3647 0.3647 -0.9311 1189.7357 999.364)" class="st0" width="9.5" height="9.5"/>
		
			<rect id="XMLID_171_" x="695.8" y="387" transform="matrix(-0.9311 -0.3647 0.3647 -0.9311 1209.9995 1011.9567)" class="st3" width="9.5" height="9.5"/>
		
			<rect id="XMLID_170_" x="707.2" y="391.5" transform="matrix(-0.9311 -0.3647 0.3647 -0.9311 1230.3254 1024.8206)" class="st3" width="9.5" height="9.5"/>
		
			<rect id="XMLID_169_" x="656.9" y="386.1" transform="matrix(-0.9311 -0.3647 0.3647 -0.9311 1135.155 996.0201)" class="st3" width="9.5" height="9.5"/>
		
			<rect id="XMLID_168_" x="668.3" y="390.5" transform="matrix(-0.9311 -0.3647 0.3647 -0.9311 1155.5853 1008.7172)" class="st0" width="9.5" height="9.5"/>
		
			<rect id="XMLID_167_" x="679.6" y="395" transform="matrix(-0.9311 -0.3647 0.3647 -0.9311 1175.7446 1021.4766)" class="st0" width="9.5" height="9.5"/>
		
			<rect id="XMLID_166_" x="691" y="399.4" transform="matrix(-0.9311 -0.3647 0.3647 -0.9311 1196.175 1034.174)" class="st0" width="9.5" height="9.5"/>
		
			<rect id="XMLID_165_" x="702.3" y="403.9" transform="matrix(-0.9311 -0.3647 0.3647 -0.9311 1216.3345 1046.9332)" class="st3" width="9.5" height="9.5"/>
		
			<rect id="XMLID_164_" x="652.1" y="398.4" transform="matrix(-0.9311 -0.3647 0.3647 -0.9311 1121.4349 1018.0705)" class="st3" width="9.5" height="9.5"/>
		
			<rect id="XMLID_163_" x="663.4" y="402.9" transform="matrix(-0.9311 -0.3647 0.3647 -0.9311 1141.5944 1030.83)" class="st3" width="9.5" height="9.5"/>
		
			<rect id="XMLID_162_" x="674.8" y="407.3" transform="matrix(-0.9311 -0.3647 0.3647 -0.9311 1162.0247 1043.5271)" class="st3" width="9.5" height="9.5"/>
		
			<rect id="XMLID_161_" x="686.1" y="411.8" transform="matrix(-0.9311 -0.3647 0.3647 -0.9311 1182.1841 1056.2865)" class="st0" width="9.5" height="9.5"/>
		
			<rect id="XMLID_160_" x="697.5" y="416.2" transform="matrix(-0.9311 -0.3647 0.3647 -0.9311 1202.6144 1068.9836)" class="st3" width="9.5" height="9.5"/>
	</g>
	<g id="XMLID_185_">
		
			<rect id="XMLID_210_" x="1369.4" y="36.8" transform="matrix(-0.9181 0.3964 -0.3964 -0.9181 2652.2578 -464.981)" class="st3" width="9.5" height="9.5"/>
		
			<rect id="XMLID_209_" x="1380.6" y="32" transform="matrix(-0.9181 0.3964 -0.3964 -0.9181 2671.8618 -478.6413)" class="st3" width="9.5" height="9.5"/>
		
			<rect id="XMLID_208_" x="1391.9" y="27.2" transform="matrix(-0.9181 0.3964 -0.3964 -0.9181 2691.4663 -492.3015)" class="st0" width="9.5" height="9.5"/>
		
			<rect id="XMLID_207_" x="1403" y="22.3" transform="matrix(-0.9181 0.3964 -0.3964 -0.9181 2710.9578 -506.122)" class="st3" width="9.5" height="9.5"/>
		
			<rect id="XMLID_206_" x="1414.2" y="17.5" transform="matrix(-0.9181 0.3964 -0.3964 -0.9181 2730.5618 -519.7819)" class="st0" width="9.5" height="9.5"/>
		
			<rect id="XMLID_205_" x="1374.7" y="49" transform="matrix(-0.9181 0.3964 -0.3964 -0.9181 2667.2524 -443.7069)" class="st0" width="9.5" height="9.5"/>
		
			<rect id="XMLID_204_" x="1385.9" y="44.2" transform="matrix(-0.9181 0.3964 -0.3964 -0.9181 2686.8567 -457.3673)" class="st3" width="9.5" height="9.5"/>
		
			<rect id="XMLID_203_" x="1397.1" y="39.3" transform="matrix(-0.9181 0.3964 -0.3964 -0.9181 2706.3484 -471.188)" class="st3" width="9.5" height="9.5"/>
		
			<rect id="XMLID_202_" x="1408.3" y="34.5" transform="matrix(-0.9181 0.3964 -0.3964 -0.9181 2725.9526 -484.8482)" class="st0" width="9.5" height="9.5"/>
		
			<rect id="XMLID_201_" x="1419.5" y="29.7" transform="matrix(-0.9181 0.3964 -0.3964 -0.9181 2745.5566 -498.5083)" class="st3" width="9.5" height="9.5"/>
		
			<rect id="XMLID_200_" x="1379.9" y="61.2" transform="matrix(-0.9181 0.3964 -0.3964 -0.9181 2682.0869 -422.3208)" class="st3" width="9.5" height="9.5"/>
		
			<rect id="XMLID_199_" x="1391.1" y="56.4" transform="matrix(-0.9181 0.3964 -0.3964 -0.9181 2701.6909 -435.9809)" class="st0" width="9.5" height="9.5"/>
		
			<rect id="XMLID_198_" x="1402.3" y="51.5" transform="matrix(-0.9181 0.3964 -0.3964 -0.9181 2721.1829 -449.8016)" class="st0" width="9.5" height="9.5"/>
		
			<rect id="XMLID_197_" x="1413.5" y="46.7" transform="matrix(-0.9181 0.3964 -0.3964 -0.9181 2740.7866 -463.4617)" class="st3" width="9.5" height="9.5"/>
		
			<rect id="XMLID_196_" x="1424.7" y="41.9" transform="matrix(-0.9181 0.3964 -0.3964 -0.9181 2760.3909 -477.1219)" class="st3" width="9.5" height="9.5"/>
		
			<rect id="XMLID_195_" x="1385.2" y="73.4" transform="matrix(-0.9181 0.3964 -0.3964 -0.9181 2697.0815 -401.0467)" class="st3" width="9.5" height="9.5"/>
		
			<rect id="XMLID_194_" x="1396.4" y="68.6" transform="matrix(-0.9181 0.3964 -0.3964 -0.9181 2716.6858 -414.7072)" class="st0" width="9.5" height="9.5"/>
		
			<rect id="XMLID_193_" x="1407.6" y="63.7" transform="matrix(-0.9181 0.3964 -0.3964 -0.9181 2736.1775 -428.5276)" class="st0" width="9.5" height="9.5"/>
		
			<rect id="XMLID_192_" x="1418.8" y="58.9" transform="matrix(-0.9181 0.3964 -0.3964 -0.9181 2755.7815 -442.1879)" class="st0" width="9.5" height="9.5"/>
		
			<rect id="XMLID_191_" x="1430" y="54.1" transform="matrix(-0.9181 0.3964 -0.3964 -0.9181 2775.3855 -455.8481)" class="st3" width="9.5" height="9.5"/>
		
			<rect id="XMLID_190_" x="1390.5" y="85.6" transform="matrix(-0.9181 0.3964 -0.3964 -0.9181 2712.0762 -379.773)" class="st3" width="9.5" height="9.5"/>
		
			<rect id="XMLID_189_" x="1401.7" y="80.8" transform="matrix(-0.9181 0.3964 -0.3964 -0.9181 2731.6802 -393.433)" class="st3" width="9.5" height="9.5"/>
		
			<rect id="XMLID_188_" x="1412.9" y="75.9" transform="matrix(-0.9181 0.3964 -0.3964 -0.9181 2751.1721 -407.2539)" class="st3" width="9.5" height="9.5"/>
		
			<rect id="XMLID_187_" x="1424.1" y="71.1" transform="matrix(-0.9181 0.3964 -0.3964 -0.9181 2770.7761 -420.9139)" class="st0" width="9.5" height="9.5"/>
		
			<rect id="XMLID_186_" x="1435.3" y="66.3" transform="matrix(-0.9181 0.3964 -0.3964 -0.9181 2790.2197 -434.4616)" class="st3" width="9.5" height="9.5"/>
	</g>
	<g id="XMLID_121_">
		
			<rect id="XMLID_158_" x="1338.4" y="436.8" transform="matrix(-0.7157 -0.6984 0.6984 -0.7157 1996.0667 1695.53)" class="st1" width="9.5" height="9.5"/>
		
			<rect id="XMLID_157_" x="1347.1" y="445.2" transform="matrix(-0.7157 -0.6984 0.6984 -0.7157 2005.1001 1716.1763)" class="st1" width="9.5" height="9.5"/>
		
			<rect id="XMLID_156_" x="1355.8" y="453.7" transform="matrix(-0.7157 -0.6984 0.6984 -0.7157 2014.1338 1736.8229)" class="st0" width="9.5" height="9.5"/>
		
			<rect id="XMLID_155_" x="1364.5" y="462.2" transform="matrix(-0.7157 -0.6984 0.6984 -0.7157 2023.1671 1757.4691)" class="st1" width="9.5" height="9.5"/>
		
			<rect id="XMLID_154_" x="1373.3" y="470.8" transform="matrix(-0.7157 -0.6984 0.6984 -0.7157 2032.1046 1778.3595)" class="st0" width="9.5" height="9.5"/>
		
			<rect id="XMLID_153_" x="1329.1" y="446.2" transform="matrix(-0.7157 -0.6984 0.6984 -0.7157 1973.507 1705.3165)" class="st0" width="9.5" height="9.5"/>
		
			<rect id="XMLID_152_" x="1337.8" y="454.7" transform="matrix(-0.7157 -0.6984 0.6984 -0.7157 1982.5403 1725.963)" class="st1" width="9.5" height="9.5"/>
		
			<rect id="XMLID_151_" x="1346.5" y="463.2" transform="matrix(-0.7157 -0.6984 0.6984 -0.7157 1991.5739 1746.6095)" class="st1" width="9.5" height="9.5"/>
		
			<rect id="XMLID_150_" x="1355.2" y="471.8" transform="matrix(-0.7157 -0.6984 0.6984 -0.7157 2000.5114 1767.4998)" class="st0" width="9.5" height="9.5"/>
		
			<rect id="XMLID_149_" x="1364" y="480.3" transform="matrix(-0.7157 -0.6984 0.6984 -0.7157 2009.5449 1788.1461)" class="st1" width="9.5" height="9.5"/>
		
			<rect id="XMLID_148_" x="1319.8" y="455.7" transform="matrix(-0.7157 -0.6984 0.6984 -0.7157 1950.9471 1715.1034)" class="st1" width="9.5" height="9.5"/>
		
			<rect id="XMLID_147_" x="1328.5" y="464.2" transform="matrix(-0.7157 -0.6984 0.6984 -0.7157 1959.9806 1735.7499)" class="st0" width="9.5" height="9.5"/>
		
			<rect id="XMLID_146_" x="1337.3" y="472.8" transform="matrix(-0.7157 -0.6984 0.6984 -0.7157 1969.0881 1756.5662)" class="st0" width="9.5" height="9.5"/>
		
			<rect id="XMLID_133_" x="1346" y="481.3" transform="matrix(-0.7157 -0.6984 0.6984 -0.7157 1977.9519 1777.2865)" class="st1" width="9.5" height="9.5"/>
		
			<rect id="XMLID_132_" x="1354.7" y="489.8" transform="matrix(-0.7157 -0.6984 0.6984 -0.7157 1986.9852 1797.9331)" class="st1" width="9.5" height="9.5"/>
		
			<rect id="XMLID_131_" x="1310.5" y="465.2" transform="matrix(-0.7157 -0.6984 0.6984 -0.7157 1928.3875 1724.8901)" class="st1" width="9.5" height="9.5"/>
		
			<rect id="XMLID_130_" x="1319.3" y="473.8" transform="matrix(-0.7157 -0.6984 0.6984 -0.7157 1937.495 1745.7064)" class="st0" width="9.5" height="9.5"/>
		
			<rect id="XMLID_129_" x="1328" y="482.3" transform="matrix(-0.7157 -0.6984 0.6984 -0.7157 1946.3588 1766.4269)" class="st0" width="9.5" height="9.5"/>
		
			<rect id="XMLID_128_" x="1336.7" y="490.8" transform="matrix(-0.7157 -0.6984 0.6984 -0.7157 1955.3921 1787.0735)" class="st0" width="9.5" height="9.5"/>
		
			<rect id="XMLID_127_" x="1345.4" y="499.3" transform="matrix(-0.7157 -0.6984 0.6984 -0.7157 1964.4255 1807.7197)" class="st1" width="9.5" height="9.5"/>
		
			<rect id="XMLID_126_" x="1301.3" y="474.8" transform="matrix(-0.7157 -0.6984 0.6984 -0.7157 1905.9017 1734.8467)" class="st1" width="9.5" height="9.5"/>
		
			<rect id="XMLID_125_" x="1310" y="483.2" transform="matrix(-0.7157 -0.6984 0.6984 -0.7157 1914.9353 1755.4932)" class="st1" width="9.5" height="9.5"/>
		
			<rect id="XMLID_124_" x="1318.7" y="491.8" transform="matrix(-0.7157 -0.6984 0.6984 -0.7157 1923.799 1776.2137)" class="st1" width="9.5" height="9.5"/>
		
			<rect id="XMLID_123_" x="1327.4" y="500.3" transform="matrix(-0.7157 -0.6984 0.6984 -0.7157 1932.8324 1796.8601)" class="st0" width="9.5" height="9.5"/>
		
			<rect id="XMLID_122_" x="1336.2" y="508.8" transform="matrix(-0.7157 -0.6984 0.6984 -0.7157 1941.9399 1817.6763)" class="st1" width="9.5" height="9.5"/>
	</g>
	<g id="XMLID_211_">
		
			<ellipse id="XMLID_220_" transform="matrix(-2.868787e-02 -0.9996 0.9996 -2.868787e-02 -374.3501 901.6596)" class="st0" cx="250.9" cy="632.7" rx="3.1" ry="2"/>
		
			<ellipse id="XMLID_219_" transform="matrix(-0.6339 -0.7734 0.7734 -0.6339 -57.5425 1218.7916)" class="st1" cx="259.7" cy="623" rx="7.6" ry="32.9"/>
		<path id="XMLID_218_" class="st0" d="M247.6,608.2c-5.1,4.2-6,11.6-2,16.5c1.3,1.5,2.8,2.6,4.6,3.3c6.2-2.6,12.5-8,16.2-13.8
			c-0.4-1.7-1.1-3.3-2.3-4.7C260.1,604.6,252.7,604,247.6,608.2z"/>
		<path id="XMLID_217_" class="st1" d="M244.2,642.4c7.1,3.6,18.1,1.4,27.1-6c9.2-7.5,13.5-18.1,11.1-25.8c-3.6,5.1-10,11.8-18,18.3
			C257.1,635,249.9,639.7,244.2,642.4z"/>
		<line id="XMLID_216_" class="st1" x1="247.5" y1="608.1" x2="244.2" y2="603.9"/>
		<circle id="XMLID_215_" class="st1" cx="243.4" cy="603.1" r="0.9"/>
		
			<ellipse id="XMLID_214_" transform="matrix(-0.6339 -0.7734 0.7734 -0.6339 -55.9976 1224.7114)" class="st0" cx="261.9" cy="625.6" rx="3.1" ry="2"/>
		
			<ellipse id="XMLID_213_" transform="matrix(-0.9996 2.868787e-02 -2.868787e-02 -0.9996 558.8257 1224.2661)" class="st0" cx="270.6" cy="616.1" rx="3.1" ry="2"/>
		<path id="XMLID_212_" class="st0" d="M311.4,642.2l-0.2-0.2c-0.2-0.1-0.4-0.2-0.7-0.2L278,629.2c-1.9,2.4-4.2,4.7-6.8,6.9
			c-2.6,2.2-5.4,3.9-8.1,5.4l5.9,34.4c0,0.3-0.1,0.4,0,0.6h-0.1l0,0c0,0,0.2,0.2,0.2,0.3c1.9,2.3,12.9-3.5,24.6-13
			S313.3,644.5,311.4,642.2"/>
	</g>
	<g id="XMLID_221_">
		<path id="XMLID_225_" class="st1" d="M663.1,591.2c-11.5,9.9-51.2,3.4-60.1-8.9c-2.1-2.9,2.9-17.6,2.1-14.1
			c-2.8,11.4,52.5,22.1,60.1,8.9C666.9,574,665.8,588.8,663.1,591.2z"/>
		<path id="XMLID_224_" class="st0" d="M660.7,607.1c-11.5,9.9-51.2,3.4-60.1-8.9c-2.1-2.9,2.9-17.6,2.1-14.1
			c-2.8,11.4,52.5,22.1,60.1,8.9C664.6,589.9,663.5,604.8,660.7,607.1z"/>
		
			<ellipse id="XMLID_223_" transform="matrix(0.1456 -0.9893 0.9893 0.1456 -17.7859 1114.1472)" class="st0" cx="636.2" cy="567.4" rx="12.5" ry="30.3"/>
		<path id="XMLID_222_" class="st1" d="M658.4,623.3c-11.5,9.9-51.2,3.4-60.1-8.9c-2.1-2.9,2.9-17.6,2.1-14.1
			c-2.8,11.4,52.5,22.1,60.1,8.9C662.2,606.1,661.1,621,658.4,623.3z"/>
	</g>
	<g id="XMLID_226_">
		
			<rect id="XMLID_251_" x="837.2" y="620.2" transform="matrix(-0.9181 0.3964 -0.3964 -0.9181 1862.6857 864.9728)" class="st3" width="9.5" height="9.5"/>
		
			<rect id="XMLID_250_" x="848.4" y="615.4" transform="matrix(-0.9181 0.3964 -0.3964 -0.9181 1882.2897 851.3127)" class="st3" width="9.5" height="9.5"/>
		
			<rect id="XMLID_249_" x="859.5" y="610.5" transform="matrix(-0.9181 0.3964 -0.3964 -0.9181 1901.621 837.6044)" class="st0" width="9.5" height="9.5"/>
		
			<rect id="XMLID_248_" x="870.7" y="605.7" transform="matrix(-0.9181 0.3964 -0.3964 -0.9181 1921.2251 823.9443)" class="st3" width="9.5" height="9.5"/>
		
			<rect id="XMLID_247_" x="881.9" y="600.9" transform="matrix(-0.9181 0.3964 -0.3964 -0.9181 1940.8293 810.2842)" class="st0" width="9.5" height="9.5"/>
		
			<rect id="XMLID_246_" x="842.4" y="632.4" transform="matrix(-0.9181 0.3964 -0.3964 -0.9181 1877.52 886.3592)" class="st0" width="9.5" height="9.5"/>
		
			<rect id="XMLID_245_" x="853.6" y="627.6" transform="matrix(-0.9181 0.3964 -0.3964 -0.9181 1897.1238 872.6989)" class="st3" width="9.5" height="9.5"/>
		
			<rect id="XMLID_244_" x="864.8" y="622.7" transform="matrix(-0.9181 0.3964 -0.3964 -0.9181 1916.6156 858.8784)" class="st3" width="9.5" height="9.5"/>
		
			<rect id="XMLID_243_" x="876" y="617.9" transform="matrix(-0.9181 0.3964 -0.3964 -0.9181 1936.2198 845.2183)" class="st0" width="9.5" height="9.5"/>
		
			<rect id="XMLID_242_" x="887.2" y="613.1" transform="matrix(-0.9181 0.3964 -0.3964 -0.9181 1955.824 831.5579)" class="st3" width="9.5" height="9.5"/>
		
			<rect id="XMLID_241_" x="847.7" y="644.6" transform="matrix(-0.9181 0.3964 -0.3964 -0.9181 1892.5144 907.6329)" class="st3" width="9.5" height="9.5"/>
		
			<rect id="XMLID_240_" x="858.9" y="639.8" transform="matrix(-0.9181 0.3964 -0.3964 -0.9181 1912.1187 893.9728)" class="st0" width="9.5" height="9.5"/>
		
			<rect id="XMLID_239_" x="870.1" y="634.9" transform="matrix(-0.9181 0.3964 -0.3964 -0.9181 1931.6104 880.1525)" class="st0" width="9.5" height="9.5"/>
		
			<rect id="XMLID_238_" x="881.3" y="630.1" transform="matrix(-0.9181 0.3964 -0.3964 -0.9181 1951.2145 866.492)" class="st3" width="9.5" height="9.5"/>
		
			<rect id="XMLID_237_" x="892.5" y="625.2" transform="matrix(-0.9181 0.3964 -0.3964 -0.9181 1970.7063 852.6715)" class="st3" width="9.5" height="9.5"/>
		
			<rect id="XMLID_236_" x="853" y="656.8" transform="matrix(-0.9181 0.3964 -0.3964 -0.9181 1907.5092 928.907)" class="st3" width="9.5" height="9.5"/>
		
			<rect id="XMLID_235_" x="864.1" y="652" transform="matrix(-0.9181 0.3964 -0.3964 -0.9181 1926.8405 915.199)" class="st0" width="9.5" height="9.5"/>
		
			<rect id="XMLID_234_" x="875.3" y="647.1" transform="matrix(-0.9181 0.3964 -0.3964 -0.9181 1946.4446 901.5386)" class="st0" width="9.5" height="9.5"/>
		
			<rect id="XMLID_233_" x="886.5" y="642.3" transform="matrix(-0.9181 0.3964 -0.3964 -0.9181 1966.0488 887.8784)" class="st0" width="9.5" height="9.5"/>
		
			<rect id="XMLID_232_" x="897.7" y="637.4" transform="matrix(-0.9181 0.3964 -0.3964 -0.9181 1985.5405 874.058)" class="st3" width="9.5" height="9.5"/>
		
			<rect id="XMLID_231_" x="858.2" y="669" transform="matrix(-0.9181 0.3964 -0.3964 -0.9181 1922.3434 950.2932)" class="st3" width="9.5" height="9.5"/>
		
			<rect id="XMLID_230_" x="869.4" y="664.1" transform="matrix(-0.9181 0.3964 -0.3964 -0.9181 1941.8352 936.4727)" class="st3" width="9.5" height="9.5"/>
		
			<rect id="XMLID_229_" x="880.6" y="659.3" transform="matrix(-0.9181 0.3964 -0.3964 -0.9181 1961.4393 922.8126)" class="st3" width="9.5" height="9.5"/>
		
			<rect id="XMLID_228_" x="891.8" y="654.5" transform="matrix(-0.9181 0.3964 -0.3964 -0.9181 1981.0435 909.1523)" class="st0" width="9.5" height="9.5"/>
		
			<rect id="XMLID_227_" x="903" y="649.6" transform="matrix(-0.9181 0.3964 -0.3964 -0.9181 2000.535 895.3317)" class="st3" width="9.5" height="9.5"/>
	</g>
	<g id="XMLID_253_">
		<path id="XMLID_262_" class="st2" d="M1636.7,466.6c0.9,3,0.7,6.3-0.4,9.2c-0.3,0.9,0.1,1.9,1,2.2l0,0c0.9,0.3,1.8-0.1,2.2-1
			c1.3-3.6,1.5-7.6,0.4-11.3c-0.3-0.9-1.2-1.4-2.1-1.2C1637,464.8,1636.4,465.7,1636.7,466.6z"/>
		<path id="XMLID_261_" class="st2" d="M1609.3,483.6c2,2,4.3,3.4,7,4.3c0.8,0.3,1.6,0.5,2.4,0.6l-4.6-8.3c-1.2,0.3-2.4,0.3-3.6-0.2
			c-0.9-0.3-1.7-0.8-2.4-1.5c-2.5-2.4-2.5-6.5-0.1-9c1.7-1.7,4.3-2.4,6.6-1.6c0.9,0.3,1.7,0.8,2.4,1.5c0.1,0.1,0.3,0.3,0.4,0.4
			l21-9.6c-0.8-1.3-1.7-2.5-2.9-3.6c-2-2-4.3-3.4-7-4.3c-6.8-2.4-14.5-0.5-19.5,4.6c-3.5,3.6-5.4,8.3-5.3,13.3
			C1603.8,475.4,1605.8,480.1,1609.3,483.6z"/>
		<path id="XMLID_260_" class="st2" d="M1613.5,471.3c-1.1-0.4-2.3-0.1-3,0.7c-1.1,1.2-1.1,3,0,4.1c0.3,0.3,0.7,0.5,1.1,0.7
			c1.1,0.4,2.3,0.1,3-0.7c1.1-1.1,1.1-3,0-4.1C1614.3,471.7,1613.9,471.5,1613.5,471.3z"/>
		<path id="XMLID_259_" class="st2" d="M1597.5,474.2c1.1,0,2.1,0,3.2,0.2c-0.6-3.3-0.5-6.7,0.4-10.1c0.1-0.3,0-0.8,0.1-1.1
			c-3.6-1.3-8-0.3-10.3,3l-2,2.9c2.1,0.1,4.2,0.9,5.8,2C1595.7,471.9,1596.8,473.1,1597.5,474.2z"/>
		<path id="XMLID_258_" class="st2" d="M1574.1,486.8l15.5-2.7c3.6-0.6,6-3.6,5.5-6.7c-0.2-1.3-1-2.5-2.2-3.3
			c-1.5-1-3.4-1.4-5.2-1.1l-15.5,2.7c-3.6,0.6-6,3.6-5.5,6.7c0.2,1.3,1,2.5,2.2,3.3C1570.3,486.8,1572.2,487.2,1574.1,486.8z"/>
		<path id="XMLID_257_" class="st2" d="M1579.4,502.2c-1.5-1-3.4-1.4-5.3-1.1l-15.5,2.7c-3.6,0.6-6,3.6-5.5,6.7
			c0.2,1.3,1,2.5,2.2,3.3c1.5,1,3.4,1.4,5.3,1.1l15.5-2.7c3.6-0.6,6-3.6,5.5-6.7C1581.4,504.2,1580.6,503,1579.4,502.2z"/>
		<path id="XMLID_256_" class="st2" d="M1592.4,520.6l-5.2,7.5c-2.1,3-1.8,6.8,0.8,8.6c2.6,1.8,6.2,0.8,8.3-2.2l7.7-11
			c-3.9,0.2-7.9-0.3-11.3-2.7L1592.4,520.6z"/>
		<path id="XMLID_255_" class="st2" d="M1620.5,492.2c-3.8-0.3-7.6-1.6-10.8-3.9c-2.7-1.9-4.9-4.3-6.5-7.1c-0.6-1-1-2-1.4-3
			c-1.1-0.3-2.2-0.5-3.2-0.5c0.4,4.6-3.3,8.9-8.4,9.8l-7.5,1.3l-1.5,2.1c-1.6,2.2-2.3,4.8-2.5,7.3c0.9,0.3,1.8,0.7,2.6,1.3
			c1.9,1.4,3.2,3.3,3.6,5.6c0.3,1.8-0.2,3.9-1,5.5c0.2,0.2,0.2,0.6,0.4,0.8l10.1,7.1c6.4,4.5,15.5,2.2,20-4.2l5.1-7.2
			C1622.6,502.3,1622.9,496.7,1620.5,492.2z"/>
		<path id="XMLID_254_" class="st2" d="M1642.9,491c-1.5-1-3.4-1.4-5.3-1.1l-9.6,1.7c-1.2,0.3-2.4,0.5-3.7,0.6h-0.1
			c1.4,3.6,1.7,7.6,0.6,11.4l14.7-2.6c3.6-0.6,6-3.6,5.5-6.7C1644.9,493,1644.1,491.8,1642.9,491z"/>
	</g>
	<g id="XMLID_263_">
		
			<rect id="XMLID_290_" x="364.9" y="-245.8" transform="matrix(-0.9661 -0.2583 0.2583 -0.9661 789.0144 -378.4116)" class="st3" width="9.5" height="9.5"/>
		
			<rect id="XMLID_289_" x="376.7" y="-242.7" transform="matrix(-0.9661 -0.2583 0.2583 -0.9661 811.4362 -369.2524)" class="st3" width="9.5" height="9.5"/>
		
			<rect id="XMLID_288_" x="388.4" y="-239.5" transform="matrix(-0.9661 -0.2583 0.2583 -0.9661 833.599 -359.9856)" class="st0" width="9.5" height="9.5"/>
		
			<rect id="XMLID_287_" x="400.2" y="-236.4" transform="matrix(-0.9661 -0.2583 0.2583 -0.9661 856.0209 -350.8264)" class="st3" width="9.5" height="9.5"/>
		
			<rect id="XMLID_286_" x="412" y="-233.2" transform="matrix(-0.9661 -0.2583 0.2583 -0.9661 878.3669 -341.4838)" class="st0" width="9.5" height="9.5"/>
		
			<rect id="XMLID_285_" x="361.4" y="-233" transform="matrix(-0.9661 -0.2583 0.2583 -0.9661 778.8519 -354.1794)" class="st0" width="9.5" height="9.5"/>
		
			<rect id="XMLID_284_" x="373.2" y="-229.8" transform="matrix(-0.9661 -0.2583 0.2583 -0.9661 801.1981 -344.837)" class="st3" width="9.5" height="9.5"/>
		
			<rect id="XMLID_283_" x="385" y="-226.7" transform="matrix(-0.9661 -0.2583 0.2583 -0.9661 823.6198 -335.6776)" class="st3" width="9.5" height="9.5"/>
		
			<rect id="XMLID_282_" x="396.8" y="-223.5" transform="matrix(-0.9661 -0.2583 0.2583 -0.9661 845.9659 -326.3352)" class="st0" width="9.5" height="9.5"/>
		
			<rect id="XMLID_281_" x="408.6" y="-220.4" transform="matrix(-0.9661 -0.2583 0.2583 -0.9661 868.3877 -317.1761)" class="st3" width="9.5" height="9.5"/>
		
			<rect id="XMLID_280_" x="358" y="-220.2" transform="matrix(-0.9661 -0.2583 0.2583 -0.9661 768.8727 -329.8717)" class="st3" width="9.5" height="9.5"/>
		
			<rect id="XMLID_279_" x="369.8" y="-217" transform="matrix(-0.9661 -0.2583 0.2583 -0.9661 791.2188 -320.5291)" class="st0" width="9.5" height="9.5"/>
		
			<rect id="XMLID_278_" x="381.6" y="-213.9" transform="matrix(-0.9661 -0.2583 0.2583 -0.9661 813.6406 -311.3699)" class="st0" width="9.5" height="9.5"/>
		
			<rect id="XMLID_277_" x="393.4" y="-210.7" transform="matrix(-0.9661 -0.2583 0.2583 -0.9661 835.9867 -302.0273)" class="st3" width="9.5" height="9.5"/>
		
			<rect id="XMLID_276_" x="405.1" y="-207.6" transform="matrix(-0.9661 -0.2583 0.2583 -0.9661 858.225 -292.9439)" class="st3" width="9.5" height="9.5"/>
		
			<rect id="XMLID_275_" x="354.6" y="-207.3" transform="matrix(-0.9661 -0.2583 0.2583 -0.9661 758.8178 -305.3806)" class="st3" width="9.5" height="9.5"/>
		
			<rect id="XMLID_274_" x="366.4" y="-204.2" transform="matrix(-0.9661 -0.2583 0.2583 -0.9661 781.2396 -296.2212)" class="st0" width="9.5" height="9.5"/>
		
			<rect id="XMLID_273_" x="378.1" y="-201" transform="matrix(-0.9661 -0.2583 0.2583 -0.9661 803.4024 -286.9545)" class="st0" width="9.5" height="9.5"/>
		
			<rect id="XMLID_272_" x="389.9" y="-197.9" transform="matrix(-0.9661 -0.2583 0.2583 -0.9661 825.824 -277.7953)" class="st0" width="9.5" height="9.5"/>
		
			<rect id="XMLID_269_" x="401.7" y="-194.7" transform="matrix(-0.9661 -0.2583 0.2583 -0.9661 848.1701 -268.4527)" class="st3" width="9.5" height="9.5"/>
		
			<rect id="XMLID_268_" x="351.2" y="-194.5" transform="matrix(-0.9661 -0.2583 0.2583 -0.9661 748.8386 -281.0726)" class="st3" width="9.5" height="9.5"/>
		
			<rect id="XMLID_267_" x="362.9" y="-191.3" transform="matrix(-0.9661 -0.2583 0.2583 -0.9661 771.0012 -271.806)" class="st3" width="9.5" height="9.5"/>
		
			<rect id="XMLID_266_" x="374.7" y="-188.2" transform="matrix(-0.9661 -0.2583 0.2583 -0.9661 793.423 -262.6466)" class="st3" width="9.5" height="9.5"/>
		
			<rect id="XMLID_265_" x="386.5" y="-185" transform="matrix(-0.9661 -0.2583 0.2583 -0.9661 815.7691 -253.3042)" class="st0" width="9.5" height="9.5"/>
		
			<rect id="XMLID_264_" x="398.3" y="-181.9" transform="matrix(-0.9661 -0.2583 0.2583 -0.9661 838.1909 -244.1448)" class="st3" width="9.5" height="9.5"/>
	</g>
	<g id="XMLID_364_">
		<path id="XMLID_368_" class="st1" d="M1588.6-158.2c-1.6,14.4-33.6,35.8-47.9,33c-3.3-0.6-9.4-14.2-7.7-11.2
			c5.5,9.8,51.2-18.7,47.9-33C1580.1-172.7,1589-161.6,1588.6-158.2z"/>
		<path id="XMLID_367_" class="st0" d="M1597.3-145.5c-1.6,14.4-33.6,35.8-47.9,33c-3.3-0.6-9.4-14.2-7.7-11.2
			c5.5,9.8,51.2-18.7,47.9-33C1588.8-160,1597.7-148.9,1597.3-145.5z"/>
		
			<ellipse id="XMLID_366_" transform="matrix(-0.5676 -0.8233 0.8233 -0.5676 2565.9714 1033.3069)" class="st0" cx="1554.3" cy="-157.2" rx="12" ry="29"/>
		<path id="XMLID_365_" class="st1" d="M1606.2-132.6c-1.6,14.4-33.6,35.8-47.9,33c-3.3-0.6-9.4-14.2-7.7-11.2
			c5.5,9.8,51.2-18.7,47.9-33C1597.7-147.1,1606.6-136,1606.2-132.6z"/>
	</g>
	<g id="XMLID_312_">
		
			<rect id="XMLID_337_" x="1804" y="-310.2" transform="matrix(-0.7157 -0.6984 0.6984 -0.7157 3316.5435 739.1533)" class="st1" width="9.5" height="9.5"/>
		
			<rect id="XMLID_336_" x="1812.7" y="-301.7" transform="matrix(-0.7157 -0.6984 0.6984 -0.7157 3325.5769 759.7999)" class="st1" width="9.5" height="9.5"/>
		
			<rect id="XMLID_335_" x="1821.4" y="-293.2" transform="matrix(-0.7157 -0.6984 0.6984 -0.7157 3334.6104 780.4462)" class="st0" width="9.5" height="9.5"/>
		
			<rect id="XMLID_334_" x="1830.1" y="-284.7" transform="matrix(-0.7157 -0.6984 0.6984 -0.7157 3343.6438 801.0925)" class="st1" width="9.5" height="9.5"/>
		
			<rect id="XMLID_333_" x="1838.9" y="-276.2" transform="matrix(-0.7157 -0.6984 0.6984 -0.7157 3352.7512 821.9091)" class="st0" width="9.5" height="9.5"/>
		
			<rect id="XMLID_332_" x="1794.7" y="-300.7" transform="matrix(-0.7157 -0.6984 0.6984 -0.7157 3293.9836 748.9402)" class="st0" width="9.5" height="9.5"/>
		
			<rect id="XMLID_331_" x="1803.4" y="-292.2" transform="matrix(-0.7157 -0.6984 0.6984 -0.7157 3303.0173 769.5866)" class="st1" width="9.5" height="9.5"/>
		
			<rect id="XMLID_330_" x="1812.1" y="-283.7" transform="matrix(-0.7157 -0.6984 0.6984 -0.7157 3312.0505 790.2328)" class="st1" width="9.5" height="9.5"/>
		
			<rect id="XMLID_329_" x="1820.9" y="-275.2" transform="matrix(-0.7157 -0.6984 0.6984 -0.7157 3321.1582 811.0493)" class="st0" width="9.5" height="9.5"/>
		
			<rect id="XMLID_328_" x="1829.6" y="-266.7" transform="matrix(-0.7157 -0.6984 0.6984 -0.7157 3330.1914 831.6955)" class="st1" width="9.5" height="9.5"/>
		
			<rect id="XMLID_327_" x="1785.4" y="-291.2" transform="matrix(-0.7157 -0.6984 0.6984 -0.7157 3271.4241 758.7268)" class="st1" width="9.5" height="9.5"/>
		
			<rect id="XMLID_326_" x="1794.1" y="-282.7" transform="matrix(-0.7157 -0.6984 0.6984 -0.7157 3280.4573 779.373)" class="st0" width="9.5" height="9.5"/>
		
			<rect id="XMLID_325_" x="1802.9" y="-274.2" transform="matrix(-0.7157 -0.6984 0.6984 -0.7157 3289.5649 800.1896)" class="st0" width="9.5" height="9.5"/>
		
			<rect id="XMLID_324_" x="1811.6" y="-265.7" transform="matrix(-0.7157 -0.6984 0.6984 -0.7157 3298.5984 820.8359)" class="st1" width="9.5" height="9.5"/>
		
			<rect id="XMLID_323_" x="1820.3" y="-257.2" transform="matrix(-0.7157 -0.6984 0.6984 -0.7157 3307.6321 841.4825)" class="st1" width="9.5" height="9.5"/>
		
			<rect id="XMLID_322_" x="1776.1" y="-281.7" transform="matrix(-0.7157 -0.6984 0.6984 -0.7157 3248.864 768.5134)" class="st1" width="9.5" height="9.5"/>
		
			<rect id="XMLID_321_" x="1784.9" y="-273.2" transform="matrix(-0.7157 -0.6984 0.6984 -0.7157 3257.9717 789.3298)" class="st0" width="9.5" height="9.5"/>
		
			<rect id="XMLID_320_" x="1793.6" y="-264.7" transform="matrix(-0.7157 -0.6984 0.6984 -0.7157 3267.0051 809.9761)" class="st0" width="9.5" height="9.5"/>
		
			<rect id="XMLID_319_" x="1802.3" y="-256.2" transform="matrix(-0.7157 -0.6984 0.6984 -0.7157 3276.0386 830.6227)" class="st0" width="9.5" height="9.5"/>
		
			<rect id="XMLID_318_" x="1811" y="-247.7" transform="matrix(-0.7157 -0.6984 0.6984 -0.7157 3284.9023 851.3433)" class="st1" width="9.5" height="9.5"/>
		
			<rect id="XMLID_317_" x="1766.8" y="-272.3" transform="matrix(-0.7157 -0.6984 0.6984 -0.7157 3226.3044 778.3004)" class="st1" width="9.5" height="9.5"/>
		
			<rect id="XMLID_316_" x="1775.6" y="-263.7" transform="matrix(-0.7157 -0.6984 0.6984 -0.7157 3235.4119 799.1166)" class="st1" width="9.5" height="9.5"/>
		
			<rect id="XMLID_315_" x="1784.3" y="-255.2" transform="matrix(-0.7157 -0.6984 0.6984 -0.7157 3244.4453 819.7631)" class="st1" width="9.5" height="9.5"/>
		
			<rect id="XMLID_314_" x="1793" y="-246.7" transform="matrix(-0.7157 -0.6984 0.6984 -0.7157 3253.479 840.4094)" class="st0" width="9.5" height="9.5"/>
		
			<rect id="XMLID_313_" x="1801.8" y="-238.1" transform="matrix(-0.7157 -0.6984 0.6984 -0.7157 3262.4167 861.2997)" class="st1" width="9.5" height="9.5"/>
	</g>
	<g id="XMLID_374_">
		
			<ellipse id="XMLID_383_" transform="matrix(0.4622 -0.8868 0.8868 0.4622 1028.3494 1575.1562)" class="st0" cx="1812.8" cy="-60.2" rx="3.1" ry="2"/>
		
			<ellipse id="XMLID_382_" transform="matrix(-0.1765 -0.9843 0.9843 -0.1765 2210.6965 1720.8334)" class="st1" cx="1825.2" cy="-64.4" rx="7.6" ry="32.9"/>
		<path id="XMLID_381_" class="st0" d="M1821.8-83.1c-6.5,1.2-10.9,7.2-9.8,13.4c0.3,1.9,1.2,3.7,2.4,5.1c6.7,0.7,14.8-0.9,20.9-4.1
			c0.5-1.6,0.6-3.4,0.3-5.2C1834.5-80.2,1828.3-84.3,1821.8-83.1z"/>
		<path id="XMLID_380_" class="st1" d="M1802.2-55c4.5,6.6,15.1,10,26.6,8c11.7-2.1,20.6-9.2,22.3-17.1c-5.6,2.7-14.5,5.4-24.6,7.3
			C1817.1-55.2,1808.4-54.6,1802.2-55z"/>
		<line id="XMLID_379_" class="st1" x1="1821.8" y1="-83.3" x2="1820.9" y2="-88.6"/>
		<circle id="XMLID_378_" class="st1" cx="1820.6" cy="-89.7" r="0.9"/>
		
			<ellipse id="XMLID_377_" transform="matrix(-0.1765 -0.9843 0.9843 -0.1765 2208.1379 1725.301)" class="st0" cx="1825.8" cy="-61.1" rx="3.1" ry="2"/>
		
			<ellipse id="XMLID_376_" transform="matrix(-0.8868 -0.4622 0.4622 -0.8868 3497.9561 726.6971)" class="st0" cx="1838" cy="-65.1" rx="3.1" ry="2"/>
		<path id="XMLID_375_" class="st0" d="M1861-22.4l-0.1-0.3c-0.1-0.2-0.2-0.4-0.5-0.5L1838.1-50c-2.9,1.2-6,2.1-9.3,2.7
			c-3.4,0.6-6.6,0.8-9.7,0.7l-11.6,32.9c-0.1,0.2-0.2,0.4-0.3,0.6l0,0l0,0c0,0,0,0.2,0,0.3c0.5,2.9,13,3.2,27.8,0.6
			S1861.5-19.5,1861-22.4"/>
	</g>
	<g id="XMLID_369_">
		<path id="XMLID_373_" class="st1" d="M1800.6,306.8c-7.1,12.7-44.9,19.8-56.9,11.7c-2.8-1.9-3.1-16.8-2.8-13.4
			c1.2,11.2,54.4,2.7,56.9-11.7C1798.5,290,1802.3,303.8,1800.6,306.8z"/>
		<path id="XMLID_372_" class="st0" d="M1803.7,321.8c-7.1,12.7-44.9,19.8-56.9,11.7c-2.8-1.9-3.1-16.8-2.8-13.4
			c1.2,11.2,54.4,2.7,56.9-11.7C1801.6,305.1,1805.4,318.9,1803.7,321.8z"/>
		
			<ellipse id="XMLID_371_" transform="matrix(-0.2019 -0.9794 0.9794 -0.2019 1837.6212 2085.8669)" class="st0" cx="1768.7" cy="294.2" rx="12" ry="29"/>
		<path id="XMLID_370_" class="st1" d="M1806.9,337.2c-7.1,12.7-44.9,19.8-56.9,11.7c-2.8-1.9-3.1-16.8-2.8-13.4
			c1.2,11.2,54.4,2.7,56.9-11.7C1804.7,320.5,1808.6,334.2,1806.9,337.2z"/>
	</g>
	<g id="XMLID_338_">
		
			<rect id="XMLID_363_" x="1758.2" y="588.6" transform="matrix(-0.9181 0.3964 -0.3964 -0.9181 3616.7646 439.2996)" class="st3" width="9.5" height="9.5"/>
		
			<rect id="XMLID_362_" x="1769.5" y="583.8" transform="matrix(-0.9181 0.3964 -0.3964 -0.9181 3636.3689 425.6393)" class="st3" width="9.5" height="9.5"/>
		
			<rect id="XMLID_361_" x="1780.6" y="578.9" transform="matrix(-0.9181 0.3964 -0.3964 -0.9181 3655.8608 411.8188)" class="st0" width="9.5" height="9.5"/>
		
			<rect id="XMLID_360_" x="1791.8" y="574.1" transform="matrix(-0.9181 0.3964 -0.3964 -0.9181 3675.4648 398.1584)" class="st3" width="9.5" height="9.5"/>
		
			<rect id="XMLID_359_" x="1803.1" y="569.3" transform="matrix(-0.9181 0.3964 -0.3964 -0.9181 3695.0688 384.4984)" class="st0" width="9.5" height="9.5"/>
		
			<rect id="XMLID_358_" x="1763.4" y="600.8" transform="matrix(-0.9181 0.3964 -0.3964 -0.9181 3631.5991 460.6859)" class="st0" width="9.5" height="9.5"/>
		
			<rect id="XMLID_357_" x="1774.7" y="596" transform="matrix(-0.9181 0.3964 -0.3964 -0.9181 3651.2034 447.0258)" class="st3" width="9.5" height="9.5"/>
		
			<rect id="XMLID_356_" x="1785.8" y="591.1" transform="matrix(-0.9181 0.3964 -0.3964 -0.9181 3670.6951 433.2052)" class="st3" width="9.5" height="9.5"/>
		
			<rect id="XMLID_355_" x="1797" y="586.3" transform="matrix(-0.9181 0.3964 -0.3964 -0.9181 3690.2991 419.5449)" class="st0" width="9.5" height="9.5"/>
		
			<rect id="XMLID_354_" x="1808.3" y="581.5" transform="matrix(-0.9181 0.3964 -0.3964 -0.9181 3709.9031 405.8847)" class="st3" width="9.5" height="9.5"/>
		
			<rect id="XMLID_353_" x="1768.7" y="613" transform="matrix(-0.9181 0.3964 -0.3964 -0.9181 3646.5938 481.9597)" class="st3" width="9.5" height="9.5"/>
		
			<rect id="XMLID_352_" x="1780" y="608.2" transform="matrix(-0.9181 0.3964 -0.3964 -0.9181 3666.198 468.2996)" class="st0" width="9.5" height="9.5"/>
		
			<rect id="XMLID_351_" x="1791.1" y="603.3" transform="matrix(-0.9181 0.3964 -0.3964 -0.9181 3685.6895 454.4791)" class="st0" width="9.5" height="9.5"/>
		
			<rect id="XMLID_350_" x="1802.3" y="598.5" transform="matrix(-0.9181 0.3964 -0.3964 -0.9181 3705.2939 440.8189)" class="st3" width="9.5" height="9.5"/>
		
			<rect id="XMLID_349_" x="1813.6" y="593.7" transform="matrix(-0.9181 0.3964 -0.3964 -0.9181 3724.8979 427.1586)" class="st3" width="9.5" height="9.5"/>
		
			<rect id="XMLID_348_" x="1774" y="625.2" transform="matrix(-0.9181 0.3964 -0.3964 -0.9181 3661.5886 503.2337)" class="st3" width="9.5" height="9.5"/>
		
			<rect id="XMLID_347_" x="1785.2" y="620.3" transform="matrix(-0.9181 0.3964 -0.3964 -0.9181 3681.0803 489.4132)" class="st0" width="9.5" height="9.5"/>
		
			<rect id="XMLID_346_" x="1796.4" y="615.5" transform="matrix(-0.9181 0.3964 -0.3964 -0.9181 3700.6843 475.753)" class="st0" width="9.5" height="9.5"/>
		
			<rect id="XMLID_345_" x="1807.6" y="610.7" transform="matrix(-0.9181 0.3964 -0.3964 -0.9181 3720.2883 462.0927)" class="st0" width="9.5" height="9.5"/>
		
			<rect id="XMLID_344_" x="1818.8" y="605.8" transform="matrix(-0.9181 0.3964 -0.3964 -0.9181 3739.7803 448.2722)" class="st3" width="9.5" height="9.5"/>
		
			<rect id="XMLID_343_" x="1779.3" y="637.4" transform="matrix(-0.9181 0.3964 -0.3964 -0.9181 3676.4229 524.6202)" class="st3" width="9.5" height="9.5"/>
		
			<rect id="XMLID_342_" x="1790.4" y="632.5" transform="matrix(-0.9181 0.3964 -0.3964 -0.9181 3695.9146 510.7994)" class="st3" width="9.5" height="9.5"/>
		
			<rect id="XMLID_341_" x="1801.6" y="627.7" transform="matrix(-0.9181 0.3964 -0.3964 -0.9181 3715.5186 497.1393)" class="st3" width="9.5" height="9.5"/>
		
			<rect id="XMLID_340_" x="1812.9" y="622.9" transform="matrix(-0.9181 0.3964 -0.3964 -0.9181 3735.1228 483.4791)" class="st0" width="9.5" height="9.5"/>
		
			<rect id="XMLID_339_" x="1824" y="618" transform="matrix(-0.9181 0.3964 -0.3964 -0.9181 3754.6145 469.6584)" class="st3" width="9.5" height="9.5"/>
	</g>
	<g id="XMLID_385_">
		
			<ellipse id="XMLID_394_" transform="matrix(0.2435 -0.9699 0.9699 0.2435 1314.6277 1147.1589)" class="st0" cx="1392.7" cy="-269.2" rx="3.1" ry="2"/>
		
			<ellipse id="XMLID_393_" transform="matrix(-0.4004 -0.9163 0.9163 -0.4004 2218.8335 899.6704)" class="st1" cx="1403.8" cy="-276.1" rx="7.6" ry="32.9"/>
		<path id="XMLID_392_" class="st0" d="M1396.2-293.6c-6.1,2.6-8.9,9.5-6.4,15.3c0.8,1.8,2,3.3,3.5,4.4c6.7-0.8,14.2-4.3,19.3-8.9
			c0.1-1.7-0.2-3.5-0.9-5.2C1409.2-293.7,1402.2-296.3,1396.2-293.6z"/>
		<path id="XMLID_391_" class="st1" d="M1383.7-261.7c5.9,5.4,17,6.2,27.7,1.6c10.9-4.8,17.9-13.7,17.7-21.8
			c-4.8,4-12.8,8.7-22.3,12.8C1398.1-265.3,1389.8-262.7,1383.7-261.7z"/>
		<line id="XMLID_390_" class="st1" x1="1396.1" y1="-293.8" x2="1394" y2="-298.7"/>
		<circle id="XMLID_389_" class="st1" cx="1393.5" cy="-299.7" r="0.9"/>
		
			<ellipse id="XMLID_388_" transform="matrix(-0.4004 -0.9163 0.9163 -0.4004 2217.9407 905.2768)" class="st0" cx="1405.1" cy="-273" rx="3.1" ry="2"/>
		
			<ellipse id="XMLID_387_" transform="matrix(-0.9699 -0.2435 0.2435 -0.9699 2857.7708 -206.2209)" class="st0" cx="1416.1" cy="-279.7" rx="3.1" ry="2"/>
		<path id="XMLID_386_" class="st0" d="M1448.4-243.7l-0.1-0.2c-0.1-0.2-0.3-0.3-0.6-0.4l-27.9-20.9c-2.5,1.8-5.3,3.4-8.4,4.8
			s-6.2,2.3-9.2,3l-3.6,34.7c-0.1,0.3-0.2,0.4-0.1,0.7l0,0l0,0c0,0,0.1,0.2,0.1,0.3c1.2,2.7,13.4,0.1,27.2-5.9
			C1439.4-233.8,1449.6-241,1448.4-243.7"/>
	</g>
	<g id="XMLID_395_">
		<path id="XMLID_399_" class="st1" d="M1493.5,654.3c-13.3,7.4-50.9-6.8-57.2-20.7c-1.5-3.2,6.4-16.6,4.8-13.4
			c-5,10.6,47,32.2,57.2,20.7C1500.7,638.2,1496.6,652.5,1493.5,654.3z"/>
		<path id="XMLID_398_" class="st0" d="M1488,669.4c-13.3,7.4-50.9-6.8-57.2-20.7c-1.5-3.2,6.4-16.6,4.8-13.4
			c-5,10.6,47,32.2,57.2,20.7C1495.2,653.3,1491.1,667.7,1488,669.4z"/>
		
			<ellipse id="XMLID_397_" transform="matrix(0.3399 -0.9405 0.9405 0.3399 383.2511 1797.2435)" class="st0" cx="1471.9" cy="625.6" rx="12.5" ry="30.3"/>
		<path id="XMLID_396_" class="st1" d="M1482.4,684.8c-13.3,7.4-50.9-6.8-57.2-20.7c-1.5-3.2,6.4-16.6,4.8-13.4
			c-5,10.6,47,32.2,57.2,20.7C1489.6,668.7,1485.5,683.1,1482.4,684.8z"/>
	</g>
	<g id="XMLID_559_">
		<path id="XMLID_568_" class="st2" d="M154.4-192.5c3,0.8,5.8,2.6,7.8,5c0.6,0.7,1.7,0.8,2.4,0.2l0,0c0.7-0.6,0.8-1.7,0.2-2.4
			c-2.4-3-5.8-5.1-9.6-6.1c-0.9-0.2-1.8,0.3-2.1,1.2C152.9-193.7,153.5-192.8,154.4-192.5z"/>
		<path id="XMLID_567_" class="st2" d="M155.2-160.4c2.7-0.7,5.1-2,7.2-3.8c0.6-0.5,1.2-1.1,1.8-1.7l-9.5-0.2c-0.3,1.2-1,2.2-1.9,3
			c-0.7,0.6-1.5,1-2.4,1.3c-3.4,0.9-6.9-1.1-7.8-4.4c-0.6-2.3,0.1-4.9,2-6.5c0.7-0.6,1.5-1,2.4-1.3c0.2,0,0.4-0.1,0.6-0.1l2.3-23
			c-1.5,0-3.1,0.2-4.6,0.6c-2.7,0.7-5.1,2-7.2,3.8c-5.5,4.7-7.8,12.2-5.9,19.2c1.3,4.8,4.5,8.9,8.8,11.3
			C145.3-159.7,150.3-159.1,155.2-160.4z"/>
		<path id="XMLID_566_" class="st2" d="M146.7-170.2c-0.9,0.7-1.2,1.9-0.9,3c0.4,1.6,2,2.5,3.6,2c0.4-0.1,0.8-0.3,1.1-0.6
			c0.9-0.7,1.2-1.9,0.9-3c-0.4-1.6-2-2.5-3.6-2C147.4-170.6,147.1-170.4,146.7-170.2z"/>
		<path id="XMLID_565_" class="st2" d="M141.1-154.9c0.5-0.9,1.1-1.8,1.8-2.7c-3.2-1.1-6.1-2.9-8.5-5.4c-0.2-0.2-0.7-0.4-0.9-0.6
			c-3,2.4-4.3,6.8-2.7,10.4l1.5,3.2c1.1-1.7,2.9-3.2,4.6-4C138.2-154.5,139.8-154.9,141.1-154.9z"/>
		<path id="XMLID_564_" class="st2" d="M140.2-128.3l5.5-14.8c1.3-3.4-0.1-7-3-8.1c-1.3-0.5-2.7-0.4-4,0.2c-1.6,0.7-2.9,2.2-3.6,4
			l-5.5,14.8c-1.3,3.4,0.1,7,3,8.1c1.3,0.5,2.7,0.4,4-0.2C138.2-125,139.5-126.5,140.2-128.3z"/>
		<path id="XMLID_563_" class="st2" d="M156.1-125.1c-1.6,0.7-2.9,2.2-3.6,4l-5.5,14.7c-1.3,3.4,0.1,7.1,3,8.1
			c1.3,0.5,2.7,0.4,4-0.2c1.6-0.7,2.9-2.2,3.6-4l5.5-14.8c1.3-3.4-0.1-7-3-8.1C158.8-125.8,157.4-125.7,156.1-125.1z"/>
		<path id="XMLID_562_" class="st2" d="M178.6-127l3.8,8.3c1.5,3.3,4.9,5,7.8,3.7c2.8-1.3,3.8-5,2.3-8.3l-5.6-12.2
			c-1.8,3.5-4.3,6.7-8,8.4L178.6-127z"/>
		<path id="XMLID_561_" class="st2" d="M168.2-165.6c-2.2,3.2-5.2,5.7-8.8,7.4c-3,1.4-6.1,2-9.4,2c-1.1,0-2.2-0.1-3.3-0.3
			c-0.8,0.8-1.5,1.6-2.1,2.5c4.2,2,6,7.3,4.2,12.2l-2.7,7.1l1.1,2.3c1.1,2.5,2.9,4.4,5,5.8c0.7-0.6,1.6-1.2,2.4-1.6
			c2.1-1,4.5-1.1,6.6-0.3c1.7,0.6,3.3,2.1,4.3,3.6c0.2-0.1,0.6,0.2,0.8,0.1l11.2-5.1c7.1-3.3,9.7-12.2,6.5-19.3l-3.7-8
			C178.1-162.3,173.3-165.4,168.2-165.6z"/>
		<path id="XMLID_560_" class="st2" d="M178.5-185.6c-1.6,0.7-2.9,2.2-3.6,4l-3.4,9.1c-0.3,1.2-0.8,2.4-1.3,3.5v0.1
			c3.8,0.6,7.4,2.4,10.1,5.2l5.2-14c1.3-3.4-0.1-7.1-3-8.1C181.3-186.3,179.9-186.2,178.5-185.6z"/>
	</g>
	<g id="XMLID_487_">
		<path id="XMLID_496_" class="st2" d="M168.7,216.6c0.9,3,0.7,6.3-0.4,9.2c-0.3,0.9,0.1,1.9,1,2.2l0,0c0.9,0.3,1.8-0.1,2.2-1
			c1.3-3.6,1.5-7.6,0.4-11.3c-0.3-0.9-1.2-1.4-2.1-1.2C169,214.8,168.4,215.7,168.7,216.6z"/>
		<path id="XMLID_495_" class="st2" d="M141.3,233.6c2,2,4.3,3.4,7,4.3c0.8,0.3,1.6,0.5,2.4,0.6l-4.6-8.3c-1.2,0.3-2.4,0.3-3.6-0.2
			c-0.9-0.3-1.7-0.8-2.4-1.5c-2.5-2.4-2.5-6.5-0.1-9c1.7-1.7,4.3-2.4,6.6-1.6c0.9,0.3,1.7,0.8,2.4,1.5c0.1,0.1,0.3,0.3,0.4,0.4
			l21-9.6c-0.8-1.3-1.7-2.5-2.9-3.6c-2-2-4.3-3.4-7-4.3c-6.8-2.4-14.5-0.5-19.5,4.6c-3.5,3.6-5.4,8.3-5.3,13.3
			C135.8,225.4,137.8,230.1,141.3,233.6z"/>
		<path id="XMLID_494_" class="st2" d="M145.5,221.3c-1.1-0.4-2.3-0.1-3,0.7c-1.1,1.2-1.1,3,0,4.1c0.3,0.3,0.7,0.5,1.1,0.7
			c1.1,0.4,2.3,0.1,3-0.7c1.1-1.1,1.1-3,0-4.1C146.3,221.7,145.9,221.5,145.5,221.3z"/>
		<path id="XMLID_493_" class="st2" d="M129.5,224.2c1.1,0,2.1,0,3.2,0.2c-0.6-3.3-0.5-6.7,0.4-10.1c0.1-0.3,0-0.8,0.1-1.1
			c-3.6-1.3-8-0.3-10.3,3l-2,2.9c2.1,0.1,4.2,0.9,5.8,2C127.7,221.9,128.8,223.1,129.5,224.2z"/>
		<path id="XMLID_492_" class="st2" d="M106.1,236.8l15.5-2.7c3.6-0.6,6-3.6,5.5-6.7c-0.2-1.3-1-2.5-2.2-3.3c-1.5-1-3.4-1.4-5.2-1.1
			l-15.5,2.7c-3.6,0.6-6,3.6-5.5,6.7c0.2,1.3,1,2.5,2.2,3.3C102.3,236.8,104.2,237.2,106.1,236.8z"/>
		<path id="XMLID_491_" class="st2" d="M111.4,252.2c-1.5-1-3.4-1.4-5.3-1.1l-15.5,2.7c-3.6,0.6-6,3.6-5.5,6.7
			c0.2,1.3,1,2.5,2.2,3.3c1.5,1,3.4,1.4,5.3,1.1l15.5-2.7c3.6-0.6,6-3.6,5.5-6.7C113.4,254.2,112.6,253,111.4,252.2z"/>
		<path id="XMLID_490_" class="st2" d="M124.4,270.6l-5.2,7.5c-2.1,3-1.8,6.8,0.8,8.6c2.6,1.8,6.2,0.8,8.3-2.2l7.7-11
			c-3.9,0.2-7.9-0.3-11.3-2.7L124.4,270.6z"/>
		<path id="XMLID_489_" class="st2" d="M152.5,242.2c-3.8-0.3-7.6-1.6-10.8-3.9c-2.7-1.9-4.9-4.3-6.5-7.1c-0.6-1-1-2-1.4-3
			c-1.1-0.3-2.2-0.5-3.2-0.5c0.4,4.6-3.3,8.9-8.4,9.8l-7.5,1.3l-1.5,2.1c-1.6,2.2-2.3,4.8-2.5,7.3c0.9,0.3,1.8,0.7,2.6,1.3
			c1.9,1.4,3.2,3.3,3.6,5.6c0.3,1.8-0.2,3.9-1,5.5c0.2,0.2,0.2,0.6,0.4,0.8l10.1,7.1c6.4,4.5,15.5,2.2,20-4.2l5.1-7.2
			C154.6,252.3,154.9,246.7,152.5,242.2z"/>
		<path id="XMLID_488_" class="st2" d="M174.9,241c-1.5-1-3.4-1.4-5.3-1.1l-9.6,1.7c-1.2,0.3-2.4,0.5-3.7,0.6h-0.1
			c1.4,3.6,1.7,7.6,0.6,11.4l14.7-2.6c3.6-0.6,6-3.6,5.5-6.7C176.9,243,176.1,241.8,174.9,241z"/>
	</g>
	<g id="XMLID_482_">
		<path id="XMLID_486_" class="st1" d="M140.6,470.8c-1.6,14.4-33.6,35.8-47.9,33c-3.3-0.6-9.4-14.2-7.7-11.2
			c5.5,9.8,51.2-18.7,47.9-33C132.1,456.3,141,467.4,140.6,470.8z"/>
		<path id="XMLID_485_" class="st0" d="M149.3,483.5c-1.6,14.4-33.6,35.8-47.9,33c-3.3-0.6-9.4-14.2-7.7-11.2
			c5.5,9.8,51.2-18.7,47.9-33C140.8,469,149.7,480.1,149.3,483.5z"/>
		
			<ellipse id="XMLID_484_" transform="matrix(-0.5676 -0.8233 0.8233 -0.5676 -221.8258 827.0772)" class="st0" cx="106.3" cy="471.8" rx="12" ry="29"/>
		<path id="XMLID_483_" class="st1" d="M158.2,496.4c-1.6,14.4-33.6,35.8-47.9,33c-3.3-0.6-9.4-14.2-7.7-11.2
			c5.5,9.8,51.2-18.7,47.9-33C149.7,481.9,158.6,493,158.2,496.4z"/>
	</g>
	<g id="XMLID_446_">
		
			<ellipse id="XMLID_455_" transform="matrix(0.4622 -0.8868 0.8868 0.4622 27.9065 141.6461)" class="st0" cx="130.7" cy="47.8" rx="3.1" ry="2"/>
		
			<ellipse id="XMLID_454_" transform="matrix(-0.1765 -0.9843 0.9843 -0.1765 125.4881 192.3685)" class="st1" cx="143.2" cy="43.7" rx="7.6" ry="32.9"/>
		<path id="XMLID_453_" class="st0" d="M139.8,24.9c-6.5,1.2-10.9,7.2-9.8,13.4c0.3,1.9,1.2,3.7,2.4,5.1c6.7,0.7,14.8-0.9,20.9-4.1
			c0.5-1.6,0.6-3.4,0.3-5.2C152.5,27.8,146.3,23.7,139.8,24.9z"/>
		<path id="XMLID_452_" class="st1" d="M120.2,53c4.5,6.6,15.1,10,26.6,8c11.7-2.1,20.6-9.2,22.3-17.1c-5.6,2.7-14.5,5.4-24.6,7.3
			C135.1,52.8,126.4,53.4,120.2,53z"/>
		<line id="XMLID_451_" class="st1" x1="139.8" y1="24.7" x2="138.9" y2="19.4"/>
		<circle id="XMLID_450_" class="st1" cx="138.6" cy="18.3" r="0.9"/>
		
			<ellipse id="XMLID_449_" transform="matrix(-0.1765 -0.9843 0.9843 -0.1765 122.9292 196.8361)" class="st0" cx="143.8" cy="47" rx="3.1" ry="2"/>
		
			<ellipse id="XMLID_448_" transform="matrix(-0.8868 -0.4622 0.4622 -0.8868 274.5346 153.2014)" class="st0" cx="156" cy="43" rx="3.1" ry="2"/>
		<path id="XMLID_447_" class="st0" d="M179,85.6l-0.1-0.3c-0.1-0.2-0.3-0.4-0.5-0.5L156.1,58c-2.9,1.2-6,2.1-9.3,2.7
			c-3.4,0.6-6.6,0.8-9.7,0.7l-11.6,32.9c-0.1,0.2-0.2,0.4-0.3,0.6l0,0l0,0c0,0,0,0.2,0,0.3c0.5,2.9,13,3.2,27.8,0.6
			C167.9,93.1,179.5,88.5,179,85.6"/>
	</g>
	<g id="XMLID_441_">
		<path id="XMLID_445_" class="st1" d="M719.6-237.2c-7.1,12.7-44.9,19.8-56.9,11.7c-2.8-1.9-3.1-16.8-2.8-13.4
			c1.2,11.2,54.4,2.7,56.9-11.7C717.5-254,721.3-240.2,719.6-237.2z"/>
		<path id="XMLID_444_" class="st0" d="M722.7-222.2c-7.1,12.7-44.9,19.8-56.9,11.7c-2.8-1.9-3.1-16.8-2.8-13.4
			c1.2,11.2,54.4,2.7,56.9-11.7C720.6-238.9,724.4-225.1,722.7-222.2z"/>
		
			<ellipse id="XMLID_443_" transform="matrix(-0.2019 -0.9794 0.9794 -0.2019 1071.1884 373.2904)" class="st0" cx="687.7" cy="-249.8" rx="12" ry="29"/>
		<path id="XMLID_442_" class="st1" d="M725.9-206.8c-7.1,12.7-44.9,19.8-56.9,11.7c-2.8-1.9-3.1-16.8-2.8-13.4
			c1.2,11.2,54.4,2.7,56.9-11.7C723.7-223.5,727.6-209.8,725.9-206.8z"/>
	</g>
	<g id="XMLID_415_">
		
			<rect id="XMLID_440_" x="220.2" y="317.6" transform="matrix(-0.9181 0.3964 -0.3964 -0.9181 559.2562 529.1316)" class="st3" width="9.5" height="9.5"/>
		
			<rect id="XMLID_439_" x="231.4" y="312.8" transform="matrix(-0.9181 0.3964 -0.3964 -0.9181 578.8604 515.4715)" class="st3" width="9.5" height="9.5"/>
		
			<rect id="XMLID_438_" x="242.6" y="307.9" transform="matrix(-0.9181 0.3964 -0.3964 -0.9181 598.3521 501.6508)" class="st0" width="9.5" height="9.5"/>
		
			<rect id="XMLID_437_" x="253.8" y="303.1" transform="matrix(-0.9181 0.3964 -0.3964 -0.9181 617.9562 487.9907)" class="st3" width="9.5" height="9.5"/>
		
			<rect id="XMLID_436_" x="265" y="298.3" transform="matrix(-0.9181 0.3964 -0.3964 -0.9181 637.5602 474.3306)" class="st0" width="9.5" height="9.5"/>
		
			<rect id="XMLID_435_" x="225.4" y="329.8" transform="matrix(-0.9181 0.3964 -0.3964 -0.9181 574.0905 550.5181)" class="st0" width="9.5" height="9.5"/>
		
			<rect id="XMLID_434_" x="236.6" y="325" transform="matrix(-0.9181 0.3964 -0.3964 -0.9181 593.6946 536.8577)" class="st3" width="9.5" height="9.5"/>
		
			<rect id="XMLID_433_" x="247.8" y="320.1" transform="matrix(-0.9181 0.3964 -0.3964 -0.9181 613.1864 523.0372)" class="st3" width="9.5" height="9.5"/>
		
			<rect id="XMLID_432_" x="259" y="315.3" transform="matrix(-0.9181 0.3964 -0.3964 -0.9181 632.7906 509.3771)" class="st0" width="9.5" height="9.5"/>
		
			<rect id="XMLID_431_" x="270.2" y="310.5" transform="matrix(-0.9181 0.3964 -0.3964 -0.9181 652.3946 495.7168)" class="st3" width="9.5" height="9.5"/>
		
			<rect id="XMLID_430_" x="230.7" y="342" transform="matrix(-0.9181 0.3964 -0.3964 -0.9181 589.0852 571.7919)" class="st3" width="9.5" height="9.5"/>
		
			<rect id="XMLID_429_" x="241.9" y="337.2" transform="matrix(-0.9181 0.3964 -0.3964 -0.9181 608.6894 558.1317)" class="st0" width="9.5" height="9.5"/>
		
			<rect id="XMLID_428_" x="253.1" y="332.3" transform="matrix(-0.9181 0.3964 -0.3964 -0.9181 628.1811 544.3112)" class="st0" width="9.5" height="9.5"/>
		
			<rect id="XMLID_427_" x="264.3" y="327.5" transform="matrix(-0.9181 0.3964 -0.3964 -0.9181 647.7853 530.6509)" class="st3" width="9.5" height="9.5"/>
		
			<rect id="XMLID_426_" x="275.5" y="322.7" transform="matrix(-0.9181 0.3964 -0.3964 -0.9181 667.3893 516.9908)" class="st3" width="9.5" height="9.5"/>
		
			<rect id="XMLID_425_" x="236" y="354.2" transform="matrix(-0.9181 0.3964 -0.3964 -0.9181 604.0799 593.0659)" class="st3" width="9.5" height="9.5"/>
		
			<rect id="XMLID_424_" x="247.2" y="349.3" transform="matrix(-0.9181 0.3964 -0.3964 -0.9181 623.5717 579.2453)" class="st0" width="9.5" height="9.5"/>
		
			<rect id="XMLID_423_" x="258.4" y="344.5" transform="matrix(-0.9181 0.3964 -0.3964 -0.9181 643.1758 565.585)" class="st0" width="9.5" height="9.5"/>
		
			<rect id="XMLID_422_" x="269.6" y="339.7" transform="matrix(-0.9181 0.3964 -0.3964 -0.9181 662.7798 551.9249)" class="st0" width="9.5" height="9.5"/>
		
			<rect id="XMLID_421_" x="280.8" y="334.8" transform="matrix(-0.9181 0.3964 -0.3964 -0.9181 682.2715 538.1042)" class="st3" width="9.5" height="9.5"/>
		
			<rect id="XMLID_420_" x="241.2" y="366.4" transform="matrix(-0.9181 0.3964 -0.3964 -0.9181 618.9142 614.4521)" class="st3" width="9.5" height="9.5"/>
		
			<rect id="XMLID_419_" x="252.4" y="361.5" transform="matrix(-0.9181 0.3964 -0.3964 -0.9181 638.4059 600.6315)" class="st3" width="9.5" height="9.5"/>
		
			<rect id="XMLID_418_" x="263.6" y="356.7" transform="matrix(-0.9181 0.3964 -0.3964 -0.9181 658.0099 586.9714)" class="st3" width="9.5" height="9.5"/>
		
			<rect id="XMLID_417_" x="274.8" y="351.9" transform="matrix(-0.9181 0.3964 -0.3964 -0.9181 677.6141 573.3112)" class="st0" width="9.5" height="9.5"/>
		
			<rect id="XMLID_416_" x="286" y="347" transform="matrix(-0.9181 0.3964 -0.3964 -0.9181 697.1059 559.4906)" class="st3" width="9.5" height="9.5"/>
	</g>
	<g id="XMLID_400_">
		<path id="XMLID_404_" class="st1" d="M1070.5-242.7c-13.3,7.4-50.9-6.8-57.2-20.7c-1.5-3.2,6.4-16.6,4.8-13.4
			c-5,10.6,47,32.2,57.2,20.7C1077.7-258.8,1073.6-244.5,1070.5-242.7z"/>
		<path id="XMLID_403_" class="st0" d="M1065-227.6c-13.3,7.4-50.9-6.8-57.2-20.7c-1.5-3.2,6.4-16.6,4.8-13.4
			c-5,10.6,47,32.2,57.2,20.7C1072.2-243.7,1068.1-229.3,1065-227.6z"/>
		
			<ellipse id="XMLID_402_" transform="matrix(0.3399 -0.9405 0.9405 0.3399 947.6255 807.2467)" class="st0" cx="1048.9" cy="-271.4" rx="12.5" ry="30.3"/>
		<path id="XMLID_401_" class="st1" d="M1059.4-212.2c-13.3,7.4-50.9-6.8-57.2-20.7c-1.5-3.2,6.4-16.6,4.8-13.4
			c-5,10.6,47,32.2,57.2,20.7C1066.6-228.3,1062.5-213.9,1059.4-212.2z"/>
	</g>
</g>
</svg>
