<?xml version="1.0" encoding="utf-8"?>
<!-- Generator: Adobe Illustrator 19.0.0, SVG Export Plug-In . SVG Version: 6.00 Build 0)  -->
<svg version="1.1" id="Слой_1" xmlns="http://www.w3.org/2000/svg" xmlns:xlink="http://www.w3.org/1999/xlink" x="0px" y="0px"
	 viewBox="0 0 1920 1080" style="enable-background:new 0 0 1920 1080;" xml:space="preserve">
<style type="text/css">
	.st0{opacity:0.5;fill:#999999;}
	.st1{fill:#CCCCCC;}
	.st2{fill:none;stroke:#CCCCCC;stroke-width:2;stroke-miterlimit:10;}
	.st3{fill:none;stroke:#CCCCCC;stroke-miterlimit:10;}
</style>
<path id="XMLID_27_" class="st0" d="M439.2,762.5c3,0.8,5.8,2.5,7.8,4.9c0.6,0.7,1.7,0.8,2.4,0.2c0,0,0,0,0,0
	c0.7-0.6,0.8-1.7,0.2-2.4c-2.5-3-5.9-5.1-9.6-6.1c-0.9-0.2-1.8,0.3-2.1,1.2C437.7,761.3,438.3,762.3,439.2,762.5z"/>
<path id="XMLID_15_" class="st0" d="M440.1,794.6c2.7-0.8,5.1-2.1,7.2-3.9c0.6-0.5,1.2-1.1,1.7-1.7l-9.5-0.2c-0.3,1.2-1,2.2-1.9,3
	c-0.7,0.6-1.5,1.1-2.4,1.3c-3.4,0.9-6.9-1-7.8-4.4c-0.7-2.3,0.1-4.9,2-6.5c0.7-0.6,1.5-1.1,2.4-1.3c0.2-0.1,0.4-0.1,0.6-0.1l2.2-23
	c-1.5,0-3.1,0.2-4.6,0.7c-2.7,0.8-5.1,2.1-7.2,3.9c-5.5,4.7-7.7,12.3-5.8,19.2c1.4,4.8,4.5,8.8,8.9,11.3
	C430.2,795.4,435.3,796,440.1,794.6z"/>
<path id="XMLID_14_" class="st0" d="M431.6,784.9c-0.9,0.7-1.2,1.9-0.9,3c0.4,1.6,2.1,2.5,3.6,2c0.4-0.1,0.8-0.3,1.1-0.6
	c0.9-0.7,1.2-1.9,0.9-3c-0.4-1.6-2-2.5-3.6-2C432.3,784.4,432,784.6,431.6,784.9z"/>
<path id="XMLID_13_" class="st0" d="M426.1,800.2c0.5-0.9,1.1-1.8,1.8-2.7c-3.2-1.1-6.1-2.9-8.5-5.4c-0.2-0.2-0.7-0.4-0.9-0.6
	c-3,2.4-4.3,6.8-2.6,10.4l1.5,3.2c1.1-1.7,2.8-3.2,4.6-4C423.2,800.6,424.8,800.2,426.1,800.2z"/>
<path id="XMLID_12_" class="st0" d="M425.3,826.8l5.4-14.8c1.2-3.4-0.1-7-3.1-8.1c-1.3-0.5-2.7-0.4-4,0.2c-1.6,0.8-2.9,2.2-3.6,4
	l-5.4,14.8c-1.2,3.4,0.1,7,3.1,8.1c1.3,0.5,2.7,0.4,4-0.2C423.3,830.1,424.6,828.6,425.3,826.8z"/>
<path id="XMLID_11_" class="st0" d="M441.2,829.9c-1.6,0.8-2.9,2.2-3.6,4l-5.4,14.8c-1.2,3.4,0.1,7.1,3.1,8.1c1.3,0.5,2.7,0.4,4-0.2
	c1.6-0.8,2.9-2.2,3.6-4l5.4-14.8c1.2-3.4-0.1-7-3.1-8.1C444,829.2,442.5,829.3,441.2,829.9z"/>
<path id="XMLID_10_" class="st0" d="M463.7,827.9l3.9,8.3c1.5,3.3,5,4.9,7.8,3.6c2.8-1.3,3.8-5,2.3-8.3l-5.7-12.2
	c-1.8,3.5-4.2,6.7-8,8.5L463.7,827.9z"/>
<path id="XMLID_9_" class="st0" d="M453.1,789.3c-2.2,3.2-5.2,5.8-8.8,7.4c-3,1.4-6.1,2.1-9.4,2c-1.1,0-2.2-0.1-3.3-0.3
	c-0.8,0.8-1.5,1.6-2.1,2.5c4.2,2,6.1,7.3,4.3,12.2l-2.6,7.1l1.1,2.3c1.1,2.5,3,4.4,5.1,5.8c0.7-0.6,1.6-1.2,2.4-1.6
	c2.1-1,4.5-1.1,6.6-0.4c1.7,0.6,3.3,2.1,4.3,3.6c0.2-0.1,0.6,0.2,0.8,0.1l11.2-5.2c7.1-3.3,9.6-12.3,6.4-19.4l-3.7-8
	C463,792.6,458.3,789.5,453.1,789.3z"/>
<path id="XMLID_8_" class="st0" d="M463.4,769.3c-1.6,0.8-2.9,2.2-3.6,4l-3.3,9.1c-0.3,1.2-0.8,2.4-1.3,3.5l0,0.1
	c3.8,0.5,7.4,2.3,10.2,5.2l5.1-14c1.2-3.4-0.1-7.1-3.1-8.1C466.1,768.6,464.7,768.7,463.4,769.3z"/>
<path id="XMLID_17_" class="st0" d="M574.7,260.4c2.3,2.2,3.8,5,4.4,8.1c0.2,0.9,1.1,1.5,2,1.4c0,0,0,0,0,0c0.9-0.2,1.5-1.1,1.3-2
	c-0.7-3.8-2.6-7.3-5.4-10c-0.7-0.6-1.8-0.6-2.4,0.1C574,258.6,574,259.7,574.7,260.4z"/>
<path id="XMLID_16_" class="st0" d="M559.7,288.9c2.7,0.7,5.5,0.7,8.2,0.2c0.8-0.2,1.6-0.4,2.4-0.7l-8.2-4.8
	c-0.9,0.8-1.9,1.4-3.2,1.7c-0.9,0.2-1.8,0.2-2.8-0.1c-3.4-0.8-5.5-4.3-4.7-7.7c0.6-2.4,2.5-4.2,4.9-4.7c0.9-0.2,1.9-0.2,2.8,0.1
	c0.2,0,0.4,0.1,0.5,0.2l13.2-19c-1.3-0.7-2.8-1.3-4.3-1.7c-2.7-0.7-5.5-0.7-8.2-0.2c-7.1,1.5-12.8,6.9-14.5,13.9
	c-1.2,4.9-0.4,9.9,2.2,14.2C550.8,284.7,554.9,287.7,559.7,288.9z"/>
<path id="XMLID_7_" class="st0" d="M557.1,276.2c-1.1,0.2-2,1.1-2.3,2.2c-0.4,1.6,0.6,3.2,2.1,3.5c0.4,0.1,0.9,0.1,1.3,0
	c1.1-0.2,2-1.1,2.3-2.2c0.4-1.6-0.6-3.1-2.1-3.5C558,276.1,557.5,276.1,557.1,276.2z"/>
<path id="XMLID_6_" class="st0" d="M544.8,286.8c0.9-0.6,1.9-1.1,2.9-1.5c-2.2-2.5-3.9-5.5-4.8-8.9c-0.1-0.3-0.4-0.7-0.5-1
	c-3.8,0.7-7.1,3.8-7.4,7.8l-0.3,3.5c1.8-1,4.1-1.4,6-1.3C542.1,285.8,543.6,286.2,544.8,286.8z"/>
<path id="XMLID_5_" class="st0" d="M531,309.6l12-10.2c2.8-2.4,3.3-6.2,1.3-8.6c-0.9-1-2.2-1.6-3.6-1.8c-1.8-0.1-3.6,0.5-5.1,1.7
	l-12,10.2c-2.8,2.4-3.3,6.2-1.3,8.6c0.9,1,2.2,1.6,3.6,1.8C527.8,311.5,529.6,310.9,531,309.6z"/>
<path id="XMLID_4_" class="st0" d="M543.4,320.1c-1.8-0.1-3.6,0.5-5.1,1.7l-11.9,10.2c-2.8,2.4-3.3,6.2-1.3,8.6
	c0.9,1,2.2,1.6,3.6,1.8c1.8,0.1,3.6-0.5,5.1-1.7l12-10.2c2.8-2.4,3.3-6.2,1.3-8.6C546.2,320.9,544.9,320.2,543.4,320.1z"/>
<path id="XMLID_3_" class="st0" d="M564.1,329.4l-0.7,9.1c-0.3,3.6,1.9,6.7,5,7c3.1,0.2,5.8-2.5,6-6.1l1-13.4
	c-3.3,2.2-7,3.8-11.1,3.4L564.1,329.4z"/>
<path id="XMLID_2_" class="st0" d="M573.7,290.6c-3.5,1.7-7.3,2.5-11.3,2.2c-3.3-0.3-6.4-1.2-9.2-2.8c-1-0.6-1.9-1.2-2.8-1.9
	c-1.1,0.3-2.1,0.7-3.1,1.2c2.7,3.8,1.7,9.3-2.2,12.7l-5.8,4.9l-0.2,2.5c-0.2,2.7,0.4,5.3,1.6,7.5c0.9-0.2,1.9-0.3,2.9-0.2
	c2.4,0.2,4.5,1.2,5.9,2.9c1.2,1.4,1.8,3.5,2,5.2c0.2,0,0.5,0.4,0.7,0.5l12.3,0.9c7.8,0.6,14.4-6,15-13.8l0.7-8.8
	C580.7,298.3,578.1,293.3,573.7,290.6z"/>
<path id="XMLID_1_" class="st0" d="M592.4,278.2c-1.8-0.1-3.6,0.5-5.1,1.7l-7.4,6.3c-0.9,0.9-1.8,1.7-2.8,2.4l-0.1,0
	c3.1,2.4,5.3,5.7,6.3,9.5l11.3-9.7c2.8-2.4,3.3-6.2,1.3-8.6C595.2,278.9,593.9,278.3,592.4,278.2z"/>
<path id="XMLID_26_" class="st0" d="M1184.9,623c3-0.8,6.3-0.7,9.2,0.5c0.9,0.3,1.9-0.1,2.2-1c0,0,0,0,0,0c0.3-0.9-0.1-1.8-1-2.2
	c-3.6-1.4-7.6-1.6-11.3-0.6c-0.9,0.2-1.4,1.2-1.2,2.1C1183,622.8,1184,623.3,1184.9,623z"/>
<path id="XMLID_25_" class="st0" d="M1201.5,650.6c2-2,3.5-4.3,4.4-6.9c0.3-0.8,0.5-1.6,0.7-2.4l-8.3,4.5c0.3,1.2,0.2,2.4-0.2,3.6
	c-0.3,0.9-0.8,1.7-1.5,2.3c-2.5,2.5-6.5,2.5-9,0c-1.7-1.7-2.3-4.3-1.5-6.6c0.3-0.9,0.8-1.7,1.5-2.3c0.1-0.1,0.3-0.3,0.4-0.4
	l-9.4-21.2c-1.3,0.8-2.5,1.7-3.7,2.8c-2,2-3.5,4.3-4.4,6.9c-2.4,6.8-0.7,14.5,4.4,19.6c3.5,3.5,8.2,5.5,13.3,5.5
	C1193.2,656.1,1197.9,654.1,1201.5,650.6z"/>
<path id="XMLID_24_" class="st0" d="M1189.3,646.3c-0.4,1.1-0.1,2.3,0.7,3.1c1.1,1.1,3,1.1,4.1,0c0.3-0.3,0.5-0.7,0.7-1.1
	c0.4-1.1,0.1-2.3-0.7-3.1c-1.1-1.1-3-1.1-4.1,0C1189.7,645.5,1189.5,645.9,1189.3,646.3z"/>
<path id="XMLID_23_" class="st0" d="M1192,662.3c0-1.1,0.1-2.1,0.2-3.2c-3.3,0.6-6.7,0.5-10.1-0.5c-0.3-0.1-0.8,0-1.1-0.1
	c-1.4,3.6-0.4,8,2.8,10.4l2.9,2.1c0.1-2,0.9-4.2,2-5.8C1189.6,664.1,1190.8,663,1192,662.3z"/>
<path id="XMLID_22_" class="st0" d="M1204.3,685.9l-2.5-15.5c-0.6-3.6-3.6-6.1-6.6-5.6c-1.3,0.2-2.5,1-3.4,2.2
	c-1,1.4-1.5,3.4-1.2,5.2l2.5,15.5c0.6,3.6,3.6,6.1,6.6,5.6c1.3-0.2,2.5-1,3.4-2.2C1204.2,689.7,1204.6,687.8,1204.3,685.9z"/>
<path id="XMLID_21_" class="st0" d="M1219.7,680.8c-1,1.4-1.5,3.4-1.2,5.2l2.5,15.5c0.6,3.6,3.6,6.1,6.6,5.6c1.3-0.2,2.5-1,3.4-2.2
	c1-1.4,1.5-3.4,1.2-5.2l-2.5-15.5c-0.6-3.6-3.6-6.1-6.6-5.6C1221.7,678.8,1220.5,679.6,1219.7,680.8z"/>
<path id="XMLID_20_" class="st0" d="M1238.3,668l7.4,5.3c2.9,2.1,6.8,1.9,8.6-0.7c1.8-2.5,0.8-6.2-2.1-8.3l-10.9-7.8
	c0.1,3.9-0.4,7.9-2.8,11.3L1238.3,668z"/>
<path id="XMLID_19_" class="st0" d="M1210.2,639.6c-0.4,3.8-1.7,7.5-4,10.8c-1.9,2.7-4.3,4.8-7.2,6.4c-1,0.5-2,1-3,1.4
	c-0.3,1.1-0.5,2.1-0.6,3.2c4.6-0.3,8.9,3.4,9.7,8.5l1.2,7.5l2.1,1.5c2.2,1.6,4.7,2.4,7.2,2.6c0.3-0.9,0.8-1.8,1.3-2.6
	c1.4-1.9,3.4-3.2,5.6-3.6c1.8-0.3,3.9,0.2,5.5,1c0.2-0.2,0.6-0.2,0.8-0.4l7.2-10c4.6-6.3,2.4-15.4-4-20l-7.2-5.2
	C1220.4,637.6,1214.8,637.3,1210.2,639.6z"/>
<path id="XMLID_18_" class="st0" d="M1209.3,617.1c-1,1.4-1.5,3.4-1.2,5.2l1.6,9.6c0.3,1.2,0.5,2.5,0.6,3.7l0,0.1
	c3.6-1.4,7.6-1.6,11.4-0.5l-2.4-14.7c-0.6-3.6-3.6-6.1-6.6-5.6C1211.4,615.2,1210.2,615.9,1209.3,617.1z"/>
<path id="XMLID_36_" class="st0" d="M1234.7,170.1c1.4,2.8,1.9,6.1,1.3,9.1c-0.2,0.9,0.5,1.8,1.4,2c0,0,0,0,0,0
	c0.9,0.1,1.8-0.5,1.9-1.4c0.7-3.8,0.1-7.8-1.6-11.2c-0.4-0.8-1.4-1.2-2.3-0.8C1234.6,168.2,1234.3,169.3,1234.7,170.1z"/>
<path id="XMLID_35_" class="st0" d="M1210.9,191.7c2.3,1.6,4.9,2.6,7.6,3c0.8,0.1,1.6,0.2,2.4,0.2l-6-7.3c-1.1,0.5-2.3,0.7-3.6,0.5
	c-0.9-0.1-1.8-0.5-2.6-1c-2.9-1.9-3.7-5.9-1.7-8.8c1.4-2,3.8-3.1,6.2-2.7c0.9,0.1,1.8,0.5,2.6,1c0.2,0.1,0.3,0.2,0.5,0.3l19-13.3
	c-1-1.1-2.2-2.2-3.5-3.1c-2.3-1.6-4.9-2.6-7.6-3c-7.1-1.1-14.4,2.1-18.4,8.1c-2.8,4.2-3.8,9.2-2.8,14.1
	C1203.9,184.7,1206.7,188.9,1210.9,191.7z"/>
<path id="XMLID_34_" class="st0" d="M1212.8,178.9c-1.1-0.2-2.2,0.3-2.9,1.3c-0.9,1.3-0.5,3.2,0.8,4.1c0.4,0.2,0.8,0.4,1.2,0.5
	c1.1,0.2,2.2-0.3,2.9-1.3c0.9-1.3,0.5-3.2-0.8-4.1C1213.6,179.2,1213.2,179,1212.8,178.9z"/>
<path id="XMLID_33_" class="st0" d="M1197.5,184.7c1-0.2,2.1-0.4,3.2-0.4c-1.2-3.1-1.8-6.5-1.5-10c0-0.3-0.2-0.8-0.1-1.1
	c-3.8-0.7-7.9,1.1-9.6,4.8l-1.5,3.2c2-0.3,4.3,0.1,6.1,0.9C1195.4,182.7,1196.7,183.6,1197.5,184.7z"/>
<path id="XMLID_32_" class="st0" d="M1176.8,201.3l14.7-5.5c3.4-1.3,5.3-4.7,4.2-7.6c-0.5-1.3-1.5-2.3-2.8-2.9
	c-1.6-0.7-3.6-0.8-5.4-0.1l-14.7,5.5c-3.4,1.3-5.3,4.7-4.2,7.6c0.5,1.3,1.5,2.3,2.8,2.9C1173,201.9,1175,202,1176.8,201.3z"/>
<path id="XMLID_31_" class="st0" d="M1184.8,215.4c-1.6-0.7-3.6-0.8-5.4-0.1l-14.7,5.5c-3.4,1.3-5.3,4.7-4.2,7.6
	c0.5,1.3,1.5,2.3,2.8,2.9c1.6,0.7,3.6,0.8,5.4,0.1l14.7-5.5c3.4-1.3,5.3-4.7,4.2-7.6C1187.1,217.1,1186.1,216,1184.8,215.4z"/>
<path id="XMLID_30_" class="st0" d="M1200.9,231.2l-3.8,8.3c-1.5,3.3-0.5,7,2.3,8.3c2.8,1.3,6.3-0.4,7.8-3.7l5.6-12.2
	c-3.8,0.9-7.9,1.1-11.6-0.6L1200.9,231.2z"/>
<path id="XMLID_29_" class="st0" d="M1223.4,198.1c-3.8,0.4-7.7-0.2-11.4-1.8c-3-1.4-5.5-3.3-7.7-5.8c-0.7-0.9-1.3-1.8-1.9-2.7
	c-1.1-0.1-2.2-0.1-3.3,0.1c1.2,4.5-1.6,9.4-6.5,11.2l-7.1,2.6l-1.1,2.3c-1.1,2.5-1.4,5.1-1.1,7.6c1,0.1,1.9,0.4,2.8,0.8
	c2.2,1,3.8,2.7,4.6,4.8c0.6,1.7,0.5,3.9,0,5.6c0.2,0.1,0.3,0.6,0.5,0.7l11.2,5.1c7.1,3.3,15.6-0.6,18.9-7.8l3.7-8
	C1227.3,207.8,1226.6,202.2,1223.4,198.1z"/>
<path id="XMLID_28_" class="st0" d="M1245.2,192.9c-1.6-0.7-3.6-0.8-5.4-0.1l-9.1,3.4c-1.1,0.5-2.3,1-3.5,1.3l-0.1,0
	c2.1,3.3,3,7.2,2.7,11.1l14-5.2c3.4-1.3,5.3-4.7,4.2-7.6C1247.6,194.6,1246.6,193.5,1245.2,192.9z"/>
<g id="XMLID_252_">
	<path id="XMLID_45_" class="st0" d="M875.7,460.4c2.3,2.2,3.8,5,4.4,8.1c0.2,0.9,1.1,1.5,2,1.4c0,0,0,0,0,0c0.9-0.2,1.5-1.1,1.3-2
		c-0.7-3.8-2.6-7.3-5.4-10c-0.7-0.6-1.8-0.6-2.4,0.1C875,458.6,875,459.7,875.7,460.4z"/>
	<path id="XMLID_44_" class="st0" d="M860.7,488.9c2.7,0.7,5.5,0.7,8.2,0.2c0.8-0.2,1.6-0.4,2.4-0.7l-8.2-4.8
		c-0.9,0.8-1.9,1.4-3.2,1.7c-0.9,0.2-1.8,0.2-2.8-0.1c-3.4-0.8-5.5-4.3-4.7-7.7c0.6-2.4,2.5-4.2,4.9-4.7c0.9-0.2,1.9-0.2,2.8,0.1
		c0.2,0,0.4,0.1,0.5,0.2l13.2-19c-1.3-0.7-2.8-1.3-4.3-1.7c-2.7-0.7-5.5-0.7-8.2-0.2c-7.1,1.5-12.8,6.9-14.5,13.9
		c-1.2,4.9-0.4,9.9,2.2,14.2C851.8,484.7,855.9,487.7,860.7,488.9z"/>
	<path id="XMLID_43_" class="st0" d="M858.1,476.2c-1.1,0.2-2,1.1-2.3,2.2c-0.4,1.6,0.6,3.2,2.1,3.5c0.4,0.1,0.9,0.1,1.3,0
		c1.1-0.2,2-1.1,2.3-2.2c0.4-1.6-0.6-3.1-2.1-3.5C859,476.1,858.5,476.1,858.1,476.2z"/>
	<path id="XMLID_42_" class="st0" d="M845.8,486.8c0.9-0.6,1.9-1.1,2.9-1.5c-2.2-2.5-3.9-5.5-4.8-8.9c-0.1-0.3-0.4-0.7-0.5-1
		c-3.8,0.7-7.1,3.8-7.4,7.8l-0.3,3.5c1.8-1,4.1-1.4,6-1.3C843.1,485.8,844.6,486.2,845.8,486.8z"/>
	<path id="XMLID_41_" class="st0" d="M832,509.6l12-10.2c2.8-2.4,3.3-6.2,1.3-8.6c-0.9-1-2.2-1.6-3.6-1.8c-1.8-0.1-3.6,0.5-5.1,1.7
		l-12,10.2c-2.8,2.4-3.3,6.2-1.3,8.6c0.9,1,2.2,1.6,3.6,1.8C828.8,511.5,830.6,510.9,832,509.6z"/>
	<path id="XMLID_40_" class="st0" d="M844.4,520.1c-1.8-0.1-3.6,0.5-5.1,1.7l-11.9,10.2c-2.8,2.4-3.3,6.2-1.3,8.6
		c0.9,1,2.2,1.6,3.6,1.8c1.8,0.1,3.6-0.5,5.1-1.7l12-10.2c2.8-2.4,3.3-6.2,1.3-8.6C847.2,520.9,845.9,520.2,844.4,520.1z"/>
	<path id="XMLID_39_" class="st0" d="M865.1,529.4l-0.7,9.1c-0.3,3.6,1.9,6.7,5,7c3.1,0.2,5.8-2.5,6-6.1l1-13.4
		c-3.3,2.2-7,3.8-11.1,3.4L865.1,529.4z"/>
	<path id="XMLID_38_" class="st0" d="M874.7,490.6c-3.5,1.7-7.3,2.5-11.3,2.2c-3.3-0.3-6.4-1.2-9.2-2.8c-1-0.6-1.9-1.2-2.8-1.9
		c-1.1,0.3-2.1,0.7-3.1,1.2c2.7,3.8,1.7,9.3-2.2,12.7l-5.8,4.9l-0.2,2.5c-0.2,2.7,0.4,5.3,1.6,7.5c0.9-0.2,1.9-0.3,2.9-0.2
		c2.4,0.2,4.5,1.2,5.9,2.9c1.2,1.4,1.8,3.5,2,5.2c0.2,0,0.5,0.4,0.7,0.5l12.3,0.9c7.8,0.6,14.4-6,15-13.8l0.7-8.8
		C881.7,498.3,879.1,493.3,874.7,490.6z"/>
	<path id="XMLID_37_" class="st0" d="M893.4,478.2c-1.8-0.1-3.6,0.5-5.1,1.7l-7.4,6.3c-0.9,0.9-1.8,1.7-2.8,2.4l-0.1,0
		c3.1,2.4,5.3,5.7,6.3,9.5l11.3-9.7c2.8-2.4,3.3-6.2,1.3-8.6C896.2,478.9,894.9,478.3,893.4,478.2z"/>
</g>
<g id="XMLID_384_">
	<path id="XMLID_54_" class="st0" d="M1692.4,418.5c3,0.8,5.8,2.6,7.8,5c0.6,0.7,1.7,0.8,2.4,0.2c0,0,0,0,0,0
		c0.7-0.6,0.8-1.7,0.2-2.4c-2.4-3-5.8-5.1-9.6-6.1c-0.9-0.2-1.8,0.3-2.1,1.2C1690.9,417.3,1691.5,418.2,1692.4,418.5z"/>
	<path id="XMLID_53_" class="st0" d="M1693.2,450.6c2.7-0.7,5.1-2,7.2-3.8c0.6-0.5,1.2-1.1,1.8-1.7l-9.5-0.2c-0.3,1.2-1,2.2-1.9,3
		c-0.7,0.6-1.5,1-2.4,1.3c-3.4,0.9-6.9-1.1-7.8-4.4c-0.6-2.3,0.1-4.9,2-6.5c0.7-0.6,1.5-1,2.4-1.3c0.2,0,0.4-0.1,0.6-0.1l2.3-23
		c-1.5,0-3.1,0.2-4.6,0.6c-2.7,0.7-5.1,2-7.2,3.8c-5.5,4.7-7.8,12.2-5.9,19.2c1.3,4.8,4.5,8.9,8.8,11.3
		C1683.3,451.3,1688.3,451.9,1693.2,450.6z"/>
	<path id="XMLID_52_" class="st0" d="M1684.7,440.8c-0.9,0.7-1.2,1.9-0.9,3c0.4,1.6,2,2.5,3.6,2c0.4-0.1,0.8-0.3,1.1-0.6
		c0.9-0.7,1.2-1.9,0.9-3c-0.4-1.6-2-2.5-3.6-2C1685.4,440.4,1685.1,440.6,1684.7,440.8z"/>
	<path id="XMLID_51_" class="st0" d="M1679.1,456.1c0.5-0.9,1.1-1.8,1.8-2.7c-3.2-1.1-6.1-2.9-8.5-5.4c-0.2-0.2-0.7-0.4-0.9-0.6
		c-3,2.4-4.3,6.8-2.7,10.4l1.5,3.2c1.1-1.7,2.9-3.2,4.6-4C1676.2,456.5,1677.8,456.1,1679.1,456.1z"/>
	<path id="XMLID_50_" class="st0" d="M1678.2,482.7l5.5-14.8c1.3-3.4-0.1-7-3-8.1c-1.3-0.5-2.7-0.4-4,0.2c-1.6,0.7-2.9,2.2-3.6,4
		l-5.5,14.8c-1.3,3.4,0.1,7,3,8.1c1.3,0.5,2.7,0.4,4-0.2C1676.2,486,1677.5,484.5,1678.2,482.7z"/>
	<path id="XMLID_49_" class="st0" d="M1694.1,485.9c-1.6,0.7-2.9,2.2-3.6,4l-5.5,14.7c-1.3,3.4,0.1,7.1,3,8.1c1.3,0.5,2.7,0.4,4-0.2
		c1.6-0.7,2.9-2.2,3.6-4l5.5-14.8c1.3-3.4-0.1-7-3-8.1C1696.8,485.2,1695.4,485.3,1694.1,485.9z"/>
	<path id="XMLID_48_" class="st0" d="M1716.6,484l3.8,8.3c1.5,3.3,4.9,5,7.8,3.7c2.8-1.3,3.8-5,2.3-8.3l-5.6-12.2
		c-1.8,3.5-4.3,6.7-8,8.4L1716.6,484z"/>
	<path id="XMLID_47_" class="st0" d="M1706.2,445.4c-2.2,3.2-5.2,5.7-8.8,7.4c-3,1.4-6.1,2-9.4,2c-1.1,0-2.2-0.1-3.3-0.3
		c-0.8,0.8-1.5,1.6-2.1,2.5c4.2,2,6,7.3,4.2,12.2l-2.7,7.1l1.1,2.3c1.1,2.5,2.9,4.4,5,5.8c0.7-0.6,1.6-1.2,2.4-1.6
		c2.1-1,4.5-1.1,6.6-0.3c1.7,0.6,3.3,2.1,4.3,3.6c0.2-0.1,0.6,0.2,0.8,0.1l11.2-5.1c7.1-3.3,9.7-12.2,6.5-19.3l-3.7-8
		C1716.1,448.7,1711.3,445.6,1706.2,445.4z"/>
	<path id="XMLID_46_" class="st0" d="M1716.5,425.4c-1.6,0.7-2.9,2.2-3.6,4l-3.4,9.1c-0.3,1.2-0.8,2.4-1.3,3.5l0,0.1
		c3.8,0.6,7.4,2.4,10.1,5.2l5.2-14c1.3-3.4-0.1-7.1-3-8.1C1719.3,424.7,1717.9,424.8,1716.5,425.4z"/>
</g>
<g id="XMLID_55_">
	
		<ellipse id="XMLID_65_" transform="matrix(0.9874 0.158 -0.158 0.9874 92.977 -76.2656)" class="st1" cx="526.1" cy="546.6" rx="2" ry="3.1"/>
	
		<ellipse id="XMLID_64_" transform="matrix(0.8779 -0.4788 0.4788 0.8779 -192.4177 322.6902)" class="st2" cx="536.7" cy="538.7" rx="32.9" ry="7.6"/>
	<path id="XMLID_63_" class="st1" d="M527.5,522c-5.8,3.2-8.1,10.2-5,15.8c0.9,1.7,2.3,3.1,3.9,4.1c6.6-1.4,13.8-5.6,18.5-10.5
		c0-1.7-0.5-3.5-1.3-5.1C540.5,520.7,533.3,518.8,527.5,522z"/>
	<path id="XMLID_62_" class="st2" d="M517.9,554.8c6.3,4.8,17.5,4.7,27.8-0.9c10.4-5.7,16.6-15.3,15.7-23.2
		c-4.5,4.4-12,9.7-21.1,14.7C531.9,550,523.9,553.3,517.9,554.8z"/>
	<line id="XMLID_61_" class="st2" x1="527.5" y1="521.8" x2="524.9" y2="517.1"/>
	<circle id="XMLID_60_" class="st2" cx="524.3" cy="516.1" r="0.9"/>
	
		<ellipse id="XMLID_59_" transform="matrix(0.8779 -0.4788 0.4788 0.8779 -193.6497 323.8456)" class="st1" cx="538.3" cy="541.7" rx="2" ry="3.1"/>
	
		<ellipse id="XMLID_58_" transform="matrix(0.158 -0.9874 0.9874 0.158 -65.3749 991.3694)" class="st1" cx="548.6" cy="534" rx="2" ry="3.1"/>
	<path id="XMLID_56_" class="st1" d="M583.9,567.2l-0.2-0.2c-0.2-0.2-0.4-0.3-0.6-0.4l-29.6-18.4c-2.3,2-5,3.9-8,5.5
		c-3,1.6-6,2.9-8.9,3.8l-0.6,34.9c-0.1,0.3-0.1,0.4-0.1,0.7l-0.1,0l0,0c0,0,0.1,0.2,0.1,0.3c1.4,2.6,13.3-1,26.6-8.3
		C575.8,577.8,585.3,569.8,583.9,567.2"/>
</g>
<g id="XMLID_57_">
	
		<ellipse id="XMLID_74_" transform="matrix(0.7913 0.6115 -0.6115 0.7913 117.2598 226.4026)" class="st1" cx="-273" cy="285" rx="10.1" ry="15.4"/>
	<ellipse id="XMLID_73_" class="st2" cx="-207.8" cy="275.5" rx="164.7" ry="38"/>
	<path id="XMLID_72_" class="st1" d="M-207.8,179.9c-33.1,0-59.9,25.7-59.9,57.4c0,9.9,2.6,19.2,7.2,27.3
		c32.2,9.6,73.9,8.6,106.4-1.9c4-7.7,6.2-16.3,6.2-25.4C-147.9,205.6-174.8,179.9-207.8,179.9z"/>
	<path id="XMLID_71_" class="st2" d="M-329.1,301.2c16.2,36.3,65.6,62.7,124.1,62.7c59.4,0,109.4-27.2,124.8-64.4
		c-30.2,8.5-76.2,14-127.7,14C-255.8,313.5-299,308.7-329.1,301.2z"/>
	<line id="XMLID_70_" class="st2" x1="-208" y1="180" x2="-208" y2="151"/>
	<circle id="XMLID_69_" class="st2" cx="-208" cy="146.6" r="4.5"/>
	<ellipse id="XMLID_68_" class="st1" cx="-207.8" cy="292.6" rx="10.1" ry="15.4"/>
	
		<ellipse id="XMLID_67_" transform="matrix(0.6115 -0.7913 0.7913 0.6115 -280.2153 -3.9198)" class="st1" cx="-144.1" cy="283.4" rx="10.1" ry="15.4"/>
	<path id="XMLID_66_" class="st1" d="M-68.6,513.4l-0.2-1.3c-0.3-1.1-0.9-2-1.8-3.1l-86.1-151.6c-15.1,3.2-31.2,5-48.2,5
		c-17,0-33.2-1.7-48.3-4.9l-86.1,151.7c-0.9,1.1-1.6,1.8-1.9,2.9l-0.2,0h0.1c-0.1,1-0.1,1.1-0.1,1.5c0,14.9,61.1,27.3,136.4,27.3
		S-68.6,528.3-68.6,513.4"/>
</g>
<g id="XMLID_75_">
	
		<ellipse id="XMLID_84_" transform="matrix(0.6379 0.7701 -0.7701 0.6379 521.0715 -598.834)" class="st1" cx="897.3" cy="254.7" rx="2" ry="3.1"/>
	
		<ellipse id="XMLID_83_" transform="matrix(0.9756 0.2193 -0.2193 0.9756 78.254 -193.4734)" class="st2" cx="910.4" cy="255.7" rx="32.9" ry="7.6"/>
	<path id="XMLID_82_" class="st1" d="M914.6,237c-6.5-1.5-12.8,2.4-14.2,8.6c-0.4,1.9-0.3,3.9,0.2,5.6c5.9,3.3,14,4.9,20.8,4.3
		c1.1-1.3,1.9-2.9,2.3-4.7C925.2,244.7,921.1,238.5,914.6,237z"/>
	<path id="XMLID_81_" class="st2" d="M885.7,255.4c1.6,7.8,10,15.1,21.5,17.7c11.6,2.6,22.5-0.5,27.2-7.1
		c-6.3,0.3-15.5-0.6-25.5-2.9C899.4,261,891.2,258.2,885.7,255.4z"/>
	<line id="XMLID_80_" class="st2" x1="914.7" y1="236.9" x2="915.9" y2="231.7"/>
	<circle id="XMLID_79_" class="st2" cx="916.1" cy="230.5" r="0.9"/>
	
		<ellipse id="XMLID_78_" transform="matrix(0.9756 0.2193 -0.2193 0.9756 78.9683 -193.2309)" class="st1" cx="909.7" cy="259" rx="2" ry="3.1"/>
	
		<ellipse id="XMLID_77_" transform="matrix(0.7701 -0.6379 0.6379 0.7701 46.1966 648.2441)" class="st1" cx="922.5" cy="260" rx="2" ry="3.1"/>
	<path id="XMLID_76_" class="st1" d="M927.2,308.2l0-0.3c0-0.2-0.1-0.4-0.2-0.7l-10.1-33.3c-3.1,0-6.3-0.4-9.6-1.1
		c-3.3-0.8-6.4-1.8-9.2-3.1l-23.4,25.8c-0.2,0.2-0.4,0.3-0.5,0.5l0,0l0,0c0,0-0.1,0.2-0.1,0.3c-0.7,2.9,10.7,8,25.4,11.3
		S926.5,311.1,927.2,308.2"/>
</g>
<g id="XMLID_85_">
	
		<ellipse id="XMLID_94_" transform="matrix(0.8868 0.4622 -0.4622 0.8868 454.3272 -630.8495)" class="st1" cx="1514.7" cy="611.8" rx="2" ry="3.1"/>
	
		<ellipse id="XMLID_93_" transform="matrix(0.9843 -0.1765 0.1765 0.9843 -83.2684 279.0422)" class="st2" cx="1527.2" cy="607.7" rx="32.9" ry="7.6"/>
	<path id="XMLID_92_" class="st1" d="M1523.8,588.9c-6.5,1.2-10.9,7.2-9.8,13.4c0.3,1.9,1.2,3.7,2.4,5.1c6.7,0.7,14.8-0.9,20.9-4.1
		c0.5-1.6,0.6-3.4,0.3-5.2C1536.5,591.8,1530.3,587.7,1523.8,588.9z"/>
	<path id="XMLID_91_" class="st2" d="M1504.2,617c4.5,6.6,15.1,10,26.6,8c11.7-2.1,20.6-9.2,22.3-17.1c-5.6,2.7-14.5,5.4-24.6,7.3
		C1519.1,616.8,1510.4,617.4,1504.2,617z"/>
	<line id="XMLID_90_" class="st2" x1="1523.8" y1="588.7" x2="1522.9" y2="583.4"/>
	<circle id="XMLID_89_" class="st2" cx="1522.6" cy="582.3" r="0.9"/>
	
		<ellipse id="XMLID_88_" transform="matrix(0.9843 -0.1765 0.1765 0.9843 -83.852 279.2041)" class="st1" cx="1527.8" cy="611" rx="2" ry="3.1"/>
	
		<ellipse id="XMLID_87_" transform="matrix(0.4622 -0.8868 0.8868 0.4622 289.9291 1692.0343)" class="st1" cx="1540" cy="607" rx="2" ry="3.1"/>
	<path id="XMLID_86_" class="st1" d="M1563,649.6l-0.1-0.3c-0.1-0.2-0.2-0.4-0.5-0.5l-22.3-26.8c-2.9,1.2-6,2.1-9.3,2.7
		c-3.4,0.6-6.6,0.8-9.7,0.7l-11.6,32.9c-0.1,0.2-0.2,0.4-0.3,0.6l0,0l0,0c0,0,0,0.2,0,0.3c0.5,2.9,13,3.2,27.8,0.6
		S1563.5,652.5,1563,649.6"/>
</g>
<g id="XMLID_95_">
	
		<ellipse id="XMLID_104_" transform="matrix(0.3832 0.9237 -0.9237 0.3832 1258.0148 -426.4554)" class="st1" cx="948.3" cy="728.7" rx="2" ry="3.1"/>
	
		<ellipse id="XMLID_103_" transform="matrix(0.868 0.4965 -0.4965 0.868 491.0266 -380.1443)" class="st2" cx="960.6" cy="733.6" rx="32.9" ry="7.6"/>
	<path id="XMLID_102_" class="st1" d="M970.1,717c-5.7-3.3-12.9-1.5-16.1,4c-1,1.7-1.5,3.6-1.5,5.5c4.6,4.9,12,8.8,18.6,10.2
		c1.4-0.9,2.7-2.2,3.6-3.8C977.9,727.4,975.8,720.3,970.1,717z"/>
	<path id="XMLID_101_" class="st2" d="M937,726c-0.8,7.9,5.2,17.4,15.3,23.2c10.3,5.9,21.7,6.1,28,1.2c-6.1-1.5-14.6-5.1-23.5-10.2
		C948.5,735.4,941.5,730.3,937,726z"/>
	<line id="XMLID_100_" class="st2" x1="970.2" y1="716.8" x2="972.8" y2="712.2"/>
	<circle id="XMLID_99_" class="st2" cx="973.3" cy="711.2" r="0.9"/>
	
		<ellipse id="XMLID_98_" transform="matrix(0.868 0.4965 -0.4965 0.868 492.2814 -378.9154)" class="st1" cx="958.9" cy="736.5" rx="2" ry="3.1"/>
	
		<ellipse id="XMLID_97_" transform="matrix(0.9237 -0.3832 0.3832 0.9237 -209.95 428.6421)" class="st1" cx="970.8" cy="741.3" rx="2" ry="3.1"/>
	<path id="XMLID_96_" class="st1" d="M961.1,788.7l0.1-0.3c0.1-0.2,0-0.4,0-0.7l0.1-34.8c-2.9-0.9-5.9-2.2-8.9-3.9
		c-3-1.7-5.6-3.6-7.9-5.6l-30,17.8c-0.3,0.1-0.4,0.1-0.6,0.3l0,0l0,0c0,0-0.1,0.2-0.2,0.3c-1.5,2.6,7.9,10.8,21,18.3
		S959.6,791.3,961.1,788.7"/>
</g>
<g id="XMLID_109_">
	<path id="XMLID_108_" class="st2" d="M386.3,421.2c-3.5,14.8-39.4,32.9-53.8,28.3c-3.4-1.1-8-15.9-6.6-12.6
		c4.4,10.9,55.5-13,53.8-28.3C379.2,405,387.1,417.7,386.3,421.2z"/>
	<path id="XMLID_107_" class="st1" d="M393.7,435.4c-3.5,14.8-39.4,32.9-53.8,28.3c-3.4-1.1-8-15.9-6.6-12.6
		c4.4,10.9,55.5-13,53.8-28.3C386.7,419.2,394.6,432,393.7,435.4z"/>
	
		<ellipse id="XMLID_106_" transform="matrix(0.8854 -0.4648 0.4648 0.8854 -154.0574 210.8107)" class="st1" cx="350.5" cy="417.8" rx="30.3" ry="12.5"/>
	<path id="XMLID_105_" class="st2" d="M401.4,450c-3.5,14.8-39.4,32.9-53.8,28.3c-3.4-1.1-8-15.9-6.6-12.6
		c4.4,10.9,55.5-13,53.8-28.3C394.4,433.8,402.2,446.5,401.4,450z"/>
</g>
<g id="XMLID_110_">
	<path id="XMLID_114_" class="st2" d="M1166.6,425.8c-7.1,12.7-44.9,19.8-56.9,11.7c-2.8-1.9-3.1-16.8-2.8-13.4
		c1.2,11.2,54.4,2.7,56.9-11.7C1164.5,409,1168.3,422.8,1166.6,425.8z"/>
	<path id="XMLID_113_" class="st1" d="M1169.7,440.8c-7.1,12.7-44.9,19.8-56.9,11.7c-2.8-1.9-3.1-16.8-2.8-13.4
		c1.2,11.2,54.4,2.7,56.9-11.7C1167.6,424.1,1171.4,437.9,1169.7,440.8z"/>
	
		<ellipse id="XMLID_112_" transform="matrix(0.9794 -0.2019 0.2019 0.9794 -60.0683 237.6127)" class="st1" cx="1134.7" cy="413.2" rx="29" ry="12"/>
	<path id="XMLID_111_" class="st2" d="M1172.9,456.2c-7.1,12.7-44.9,19.8-56.9,11.7c-2.8-1.9-3.1-16.8-2.8-13.4
		c1.2,11.2,54.4,2.7,56.9-11.7C1170.7,439.5,1174.6,453.2,1172.9,456.2z"/>
</g>
<g id="XMLID_115_">
	<path id="XMLID_119_" class="st2" d="M1155.6,872.8c-1.6,14.4-33.6,35.8-47.9,33c-3.3-0.6-9.4-14.2-7.7-11.2
		c5.5,9.8,51.2-18.7,47.9-33C1147.1,858.3,1156,869.4,1155.6,872.8z"/>
	<path id="XMLID_118_" class="st1" d="M1164.3,885.5c-1.6,14.4-33.6,35.8-47.9,33c-3.3-0.6-9.4-14.2-7.7-11.2
		c5.5,9.8,51.2-18.7,47.9-33C1155.8,871,1164.7,882.1,1164.3,885.5z"/>
	
		<ellipse id="XMLID_117_" transform="matrix(0.8233 -0.5676 0.5676 0.8233 -297.8387 790.8795)" class="st1" cx="1121.3" cy="873.8" rx="29" ry="12"/>
	<path id="XMLID_116_" class="st2" d="M1173.2,898.4c-1.6,14.4-33.6,35.8-47.9,33c-3.3-0.6-9.4-14.2-7.7-11.2
		c5.5,9.8,51.2-18.7,47.9-33C1164.7,883.9,1173.6,895,1173.2,898.4z"/>
</g>
<g id="XMLID_120_">
	<rect id="XMLID_306_" x="1941.1" y="557.6" class="st2" width="25.5" height="25.5"/>
	<rect id="XMLID_305_" x="1973.9" y="557.6" class="st2" width="25.5" height="25.5"/>
	<rect id="XMLID_304_" x="2006.7" y="557.6" class="st1" width="25.5" height="25.5"/>
	<rect id="XMLID_303_" x="2039.5" y="557.6" class="st2" width="25.5" height="25.5"/>
	<rect id="XMLID_302_" x="2072.2" y="557.6" class="st1" width="25.5" height="25.5"/>
	<rect id="XMLID_301_" x="1941.1" y="593.3" class="st1" width="25.5" height="25.5"/>
	<rect id="XMLID_300_" x="1973.9" y="593.3" class="st2" width="25.5" height="25.5"/>
	<rect id="XMLID_299_" x="2006.7" y="593.3" class="st2" width="25.5" height="25.5"/>
	<rect id="XMLID_298_" x="2039.5" y="593.3" class="st1" width="25.5" height="25.5"/>
	<rect id="XMLID_297_" x="2072.2" y="593.3" class="st2" width="25.5" height="25.5"/>
	<rect id="XMLID_293_" x="1941.1" y="629" class="st2" width="25.5" height="25.5"/>
	<rect id="XMLID_271_" x="1973.9" y="629" class="st1" width="25.5" height="25.5"/>
	<rect id="XMLID_270_" x="2006.7" y="629" class="st1" width="25.5" height="25.5"/>
	<rect id="XMLID_145_" x="2039.5" y="629" class="st2" width="25.5" height="25.5"/>
	<rect id="XMLID_144_" x="2072.2" y="629" class="st2" width="25.5" height="25.5"/>
	<rect id="XMLID_143_" x="1941.1" y="664.7" class="st2" width="25.5" height="25.5"/>
	<rect id="XMLID_142_" x="1973.9" y="664.7" class="st1" width="25.5" height="25.5"/>
	<rect id="XMLID_141_" x="2006.7" y="664.7" class="st1" width="25.5" height="25.5"/>
	<rect id="XMLID_140_" x="2039.5" y="664.7" class="st1" width="25.5" height="25.5"/>
	<rect id="XMLID_139_" x="2072.2" y="664.7" class="st2" width="25.5" height="25.5"/>
	<rect id="XMLID_138_" x="1941.1" y="700.4" class="st2" width="25.5" height="25.5"/>
	<rect id="XMLID_137_" x="1973.9" y="700.4" class="st2" width="25.5" height="25.5"/>
	<rect id="XMLID_136_" x="2006.7" y="700.4" class="st2" width="25.5" height="25.5"/>
	<rect id="XMLID_135_" x="2039.5" y="700.4" class="st1" width="25.5" height="25.5"/>
	<rect id="XMLID_134_" x="2072.2" y="700.4" class="st2" width="25.5" height="25.5"/>
</g>
<g id="XMLID_159_">
	
		<rect id="XMLID_184_" x="671.5" y="689" transform="matrix(0.9311 0.3647 -0.3647 0.9311 299.5777 -198.8365)" class="st3" width="9.5" height="9.5"/>
	
		<rect id="XMLID_183_" x="682.8" y="693.4" transform="matrix(0.9311 0.3647 -0.3647 0.9311 301.982 -202.6715)" class="st3" width="9.5" height="9.5"/>
	
		<rect id="XMLID_182_" x="694.2" y="697.9" transform="matrix(0.9311 0.3647 -0.3647 0.9311 304.3863 -206.5066)" class="st1" width="9.5" height="9.5"/>
	
		<rect id="XMLID_181_" x="705.5" y="702.3" transform="matrix(0.9311 0.3647 -0.3647 0.9311 306.7906 -210.3416)" class="st3" width="9.5" height="9.5"/>
	
		<rect id="XMLID_180_" x="716.9" y="706.7" transform="matrix(0.9311 0.3647 -0.3647 0.9311 309.1948 -214.1766)" class="st1" width="9.5" height="9.5"/>
	
		<rect id="XMLID_179_" x="666.6" y="701.3" transform="matrix(0.9311 0.3647 -0.3647 0.9311 303.755 -196.2177)" class="st1" width="9.5" height="9.5"/>
	
		<rect id="XMLID_178_" x="678" y="705.8" transform="matrix(0.9311 0.3647 -0.3647 0.9311 306.1592 -200.0527)" class="st3" width="9.5" height="9.5"/>
	
		<rect id="XMLID_177_" x="689.3" y="710.2" transform="matrix(0.9311 0.3647 -0.3647 0.9311 308.5635 -203.8877)" class="st3" width="9.5" height="9.5"/>
	
		<rect id="XMLID_176_" x="700.7" y="714.7" transform="matrix(0.9311 0.3647 -0.3647 0.9311 310.9678 -207.7227)" class="st1" width="9.5" height="9.5"/>
	
		<rect id="XMLID_175_" x="712" y="719.1" transform="matrix(0.9311 0.3647 -0.3647 0.9311 313.3721 -211.5577)" class="st3" width="9.5" height="9.5"/>
	
		<rect id="XMLID_174_" x="661.8" y="713.7" transform="matrix(0.9311 0.3647 -0.3647 0.9311 307.9323 -193.5988)" class="st3" width="9.5" height="9.5"/>
	
		<rect id="XMLID_173_" x="673.1" y="718.1" transform="matrix(0.9311 0.3647 -0.3647 0.9311 310.3365 -197.4338)" class="st1" width="9.5" height="9.5"/>
	
		<rect id="XMLID_172_" x="684.5" y="722.6" transform="matrix(0.9311 0.3647 -0.3647 0.9311 312.7408 -201.2688)" class="st1" width="9.5" height="9.5"/>
	
		<rect id="XMLID_171_" x="695.8" y="727" transform="matrix(0.9311 0.3647 -0.3647 0.9311 315.1451 -205.1039)" class="st3" width="9.5" height="9.5"/>
	
		<rect id="XMLID_170_" x="707.2" y="731.5" transform="matrix(0.9311 0.3647 -0.3647 0.9311 317.5494 -208.9389)" class="st3" width="9.5" height="9.5"/>
	
		<rect id="XMLID_169_" x="656.9" y="726.1" transform="matrix(0.9311 0.3647 -0.3647 0.9311 312.1095 -190.9799)" class="st3" width="9.5" height="9.5"/>
	
		<rect id="XMLID_168_" x="668.3" y="730.5" transform="matrix(0.9311 0.3647 -0.3647 0.9311 314.5138 -194.815)" class="st1" width="9.5" height="9.5"/>
	
		<rect id="XMLID_167_" x="679.6" y="735" transform="matrix(0.9311 0.3647 -0.3647 0.9311 316.9181 -198.65)" class="st1" width="9.5" height="9.5"/>
	
		<rect id="XMLID_166_" x="691" y="739.4" transform="matrix(0.9311 0.3647 -0.3647 0.9311 319.3224 -202.485)" class="st1" width="9.5" height="9.5"/>
	
		<rect id="XMLID_165_" x="702.3" y="743.9" transform="matrix(0.9311 0.3647 -0.3647 0.9311 321.7267 -206.32)" class="st3" width="9.5" height="9.5"/>
	
		<rect id="XMLID_164_" x="652.1" y="738.4" transform="matrix(0.9311 0.3647 -0.3647 0.9311 316.2868 -188.3611)" class="st3" width="9.5" height="9.5"/>
	
		<rect id="XMLID_163_" x="663.4" y="742.9" transform="matrix(0.9311 0.3647 -0.3647 0.9311 318.6911 -192.1961)" class="st3" width="9.5" height="9.5"/>
	
		<rect id="XMLID_162_" x="674.8" y="747.3" transform="matrix(0.9311 0.3647 -0.3647 0.9311 321.0954 -196.0311)" class="st3" width="9.5" height="9.5"/>
	
		<rect id="XMLID_161_" x="686.1" y="751.8" transform="matrix(0.9311 0.3647 -0.3647 0.9311 323.4997 -199.8661)" class="st1" width="9.5" height="9.5"/>
	
		<rect id="XMLID_160_" x="697.5" y="756.2" transform="matrix(0.9311 0.3647 -0.3647 0.9311 325.9039 -203.7012)" class="st3" width="9.5" height="9.5"/>
</g>
<g id="XMLID_185_">
	
		<rect id="XMLID_210_" x="1369.4" y="376.8" transform="matrix(0.9181 -0.3964 0.3964 0.9181 -38.678 575.9802)" class="st3" width="9.5" height="9.5"/>
	
		<rect id="XMLID_209_" x="1380.6" y="372" transform="matrix(0.9181 -0.3964 0.3964 0.9181 -35.8444 580.0223)" class="st3" width="9.5" height="9.5"/>
	
		<rect id="XMLID_208_" x="1391.8" y="367.2" transform="matrix(0.9181 -0.3964 0.3964 0.9181 -33.0108 584.0645)" class="st1" width="9.5" height="9.5"/>
	
		<rect id="XMLID_207_" x="1403" y="362.3" transform="matrix(0.9181 -0.3964 0.3964 0.9181 -30.1772 588.1067)" class="st3" width="9.5" height="9.5"/>
	
		<rect id="XMLID_206_" x="1414.2" y="357.5" transform="matrix(0.9181 -0.3964 0.3964 0.9181 -27.3437 592.1489)" class="st1" width="9.5" height="9.5"/>
	
		<rect id="XMLID_205_" x="1374.7" y="389" transform="matrix(0.9181 -0.3964 0.3964 0.9181 -43.0809 579.0667)" class="st1" width="9.5" height="9.5"/>
	
		<rect id="XMLID_204_" x="1385.9" y="384.2" transform="matrix(0.9181 -0.3964 0.3964 0.9181 -40.2473 583.1088)" class="st3" width="9.5" height="9.5"/>
	
		<rect id="XMLID_203_" x="1397.1" y="379.3" transform="matrix(0.9181 -0.3964 0.3964 0.9181 -37.4137 587.1509)" class="st3" width="9.5" height="9.5"/>
	
		<rect id="XMLID_202_" x="1408.3" y="374.5" transform="matrix(0.9181 -0.3964 0.3964 0.9181 -34.5801 591.1931)" class="st1" width="9.5" height="9.5"/>
	
		<rect id="XMLID_201_" x="1419.5" y="369.7" transform="matrix(0.9181 -0.3964 0.3964 0.9181 -31.7466 595.2353)" class="st3" width="9.5" height="9.5"/>
	
		<rect id="XMLID_200_" x="1379.9" y="401.2" transform="matrix(0.9181 -0.3964 0.3964 0.9181 -47.4838 582.1531)" class="st3" width="9.5" height="9.5"/>
	
		<rect id="XMLID_199_" x="1391.1" y="396.4" transform="matrix(0.9181 -0.3964 0.3964 0.9181 -44.6502 586.1953)" class="st1" width="9.5" height="9.5"/>
	
		<rect id="XMLID_198_" x="1402.3" y="391.5" transform="matrix(0.9181 -0.3964 0.3964 0.9181 -41.8166 590.2374)" class="st1" width="9.5" height="9.5"/>
	
		<rect id="XMLID_197_" x="1413.5" y="386.7" transform="matrix(0.9181 -0.3964 0.3964 0.9181 -38.9831 594.2796)" class="st3" width="9.5" height="9.5"/>
	
		<rect id="XMLID_196_" x="1424.7" y="381.9" transform="matrix(0.9181 -0.3964 0.3964 0.9181 -36.1495 598.3218)" class="st3" width="9.5" height="9.5"/>
	
		<rect id="XMLID_195_" x="1385.2" y="413.4" transform="matrix(0.9181 -0.3964 0.3964 0.9181 -51.8867 585.2396)" class="st3" width="9.5" height="9.5"/>
	
		<rect id="XMLID_194_" x="1396.4" y="408.6" transform="matrix(0.9181 -0.3964 0.3964 0.9181 -49.0531 589.2817)" class="st1" width="9.5" height="9.5"/>
	
		<rect id="XMLID_193_" x="1407.6" y="403.7" transform="matrix(0.9181 -0.3964 0.3964 0.9181 -46.2195 593.3239)" class="st1" width="9.5" height="9.5"/>
	
		<rect id="XMLID_192_" x="1418.8" y="398.9" transform="matrix(0.9181 -0.3964 0.3964 0.9181 -43.386 597.366)" class="st1" width="9.5" height="9.5"/>
	
		<rect id="XMLID_191_" x="1430" y="394.1" transform="matrix(0.9181 -0.3964 0.3964 0.9181 -40.5524 601.4082)" class="st3" width="9.5" height="9.5"/>
	
		<rect id="XMLID_190_" x="1390.5" y="425.6" transform="matrix(0.9181 -0.3964 0.3964 0.9181 -56.2896 588.326)" class="st3" width="9.5" height="9.5"/>
	
		<rect id="XMLID_189_" x="1401.7" y="420.8" transform="matrix(0.9181 -0.3964 0.3964 0.9181 -53.456 592.3682)" class="st3" width="9.5" height="9.5"/>
	
		<rect id="XMLID_188_" x="1412.9" y="415.9" transform="matrix(0.9181 -0.3964 0.3964 0.9181 -50.6224 596.4103)" class="st3" width="9.5" height="9.5"/>
	
		<rect id="XMLID_187_" x="1424.1" y="411.1" transform="matrix(0.9181 -0.3964 0.3964 0.9181 -47.7889 600.4525)" class="st1" width="9.5" height="9.5"/>
	
		<rect id="XMLID_186_" x="1435.2" y="406.3" transform="matrix(0.9181 -0.3964 0.3964 0.9181 -44.9553 604.4947)" class="st3" width="9.5" height="9.5"/>
</g>
<g id="XMLID_121_">
	
		<rect id="XMLID_158_" x="1338.5" y="776.7" transform="matrix(0.7157 0.6984 -0.6984 0.7157 927.5299 -715.9095)" class="st2" width="9.5" height="9.5"/>
	
		<rect id="XMLID_157_" x="1347.2" y="785.2" transform="matrix(0.7157 0.6984 -0.6984 0.7157 935.9587 -719.5845)" class="st2" width="9.5" height="9.5"/>
	
		<rect id="XMLID_156_" x="1355.9" y="793.7" transform="matrix(0.7157 0.6984 -0.6984 0.7157 944.3875 -723.2594)" class="st1" width="9.5" height="9.5"/>
	
		<rect id="XMLID_155_" x="1364.6" y="802.2" transform="matrix(0.7157 0.6984 -0.6984 0.7157 952.8162 -726.9343)" class="st2" width="9.5" height="9.5"/>
	
		<rect id="XMLID_154_" x="1373.4" y="810.8" transform="matrix(0.7157 0.6984 -0.6984 0.7157 961.2449 -730.6092)" class="st1" width="9.5" height="9.5"/>
	
		<rect id="XMLID_153_" x="1329.2" y="786.2" transform="matrix(0.7157 0.6984 -0.6984 0.7157 931.5328 -706.7286)" class="st1" width="9.5" height="9.5"/>
	
		<rect id="XMLID_152_" x="1337.9" y="794.7" transform="matrix(0.7157 0.6984 -0.6984 0.7157 939.9615 -710.4035)" class="st2" width="9.5" height="9.5"/>
	
		<rect id="XMLID_151_" x="1346.6" y="803.2" transform="matrix(0.7157 0.6984 -0.6984 0.7157 948.3903 -714.0784)" class="st2" width="9.5" height="9.5"/>
	
		<rect id="XMLID_150_" x="1355.4" y="811.8" transform="matrix(0.7157 0.6984 -0.6984 0.7157 956.819 -717.7533)" class="st1" width="9.5" height="9.5"/>
	
		<rect id="XMLID_149_" x="1364.1" y="820.3" transform="matrix(0.7157 0.6984 -0.6984 0.7157 965.2478 -721.4282)" class="st2" width="9.5" height="9.5"/>
	
		<rect id="XMLID_148_" x="1319.9" y="795.7" transform="matrix(0.7157 0.6984 -0.6984 0.7157 935.5356 -697.5476)" class="st2" width="9.5" height="9.5"/>
	
		<rect id="XMLID_147_" x="1328.6" y="804.2" transform="matrix(0.7157 0.6984 -0.6984 0.7157 943.9644 -701.2225)" class="st1" width="9.5" height="9.5"/>
	
		<rect id="XMLID_146_" x="1337.4" y="812.7" transform="matrix(0.7157 0.6984 -0.6984 0.7157 952.3932 -704.8974)" class="st1" width="9.5" height="9.5"/>
	
		<rect id="XMLID_133_" x="1346.1" y="821.3" transform="matrix(0.7157 0.6984 -0.6984 0.7157 960.822 -708.5723)" class="st2" width="9.5" height="9.5"/>
	
		<rect id="XMLID_132_" x="1354.8" y="829.8" transform="matrix(0.7157 0.6984 -0.6984 0.7157 969.2507 -712.2472)" class="st2" width="9.5" height="9.5"/>
	
		<rect id="XMLID_131_" x="1310.6" y="805.2" transform="matrix(0.7157 0.6984 -0.6984 0.7157 939.5385 -688.3666)" class="st2" width="9.5" height="9.5"/>
	
		<rect id="XMLID_130_" x="1319.4" y="813.7" transform="matrix(0.7157 0.6984 -0.6984 0.7157 947.9673 -692.0415)" class="st1" width="9.5" height="9.5"/>
	
		<rect id="XMLID_129_" x="1328.1" y="822.3" transform="matrix(0.7157 0.6984 -0.6984 0.7157 956.3961 -695.7164)" class="st1" width="9.5" height="9.5"/>
	
		<rect id="XMLID_128_" x="1336.8" y="830.8" transform="matrix(0.7157 0.6984 -0.6984 0.7157 964.8248 -699.3913)" class="st1" width="9.5" height="9.5"/>
	
		<rect id="XMLID_127_" x="1345.5" y="839.3" transform="matrix(0.7157 0.6984 -0.6984 0.7157 973.2536 -703.0662)" class="st2" width="9.5" height="9.5"/>
	
		<rect id="XMLID_126_" x="1301.4" y="814.7" transform="matrix(0.7157 0.6984 -0.6984 0.7157 943.5414 -679.1856)" class="st2" width="9.5" height="9.5"/>
	
		<rect id="XMLID_125_" x="1310.1" y="823.2" transform="matrix(0.7157 0.6984 -0.6984 0.7157 951.9702 -682.8605)" class="st2" width="9.5" height="9.5"/>
	
		<rect id="XMLID_124_" x="1318.8" y="831.8" transform="matrix(0.7157 0.6984 -0.6984 0.7157 960.3989 -686.5354)" class="st2" width="9.5" height="9.5"/>
	
		<rect id="XMLID_123_" x="1327.5" y="840.3" transform="matrix(0.7157 0.6984 -0.6984 0.7157 968.8277 -690.2103)" class="st1" width="9.5" height="9.5"/>
	
		<rect id="XMLID_122_" x="1336.3" y="848.8" transform="matrix(0.7157 0.6984 -0.6984 0.7157 977.2565 -693.8853)" class="st2" width="9.5" height="9.5"/>
</g>
<g id="XMLID_211_">
	
		<ellipse id="XMLID_220_" transform="matrix(0.9996 -2.868820e-02 2.868820e-02 0.9996 -27.8029 7.597)" class="st1" cx="250.9" cy="972.7" rx="2" ry="3.1"/>
	
		<ellipse id="XMLID_219_" transform="matrix(0.7734 -0.6339 0.6339 0.7734 -551.6118 382.8543)" class="st2" cx="259.7" cy="963" rx="32.9" ry="7.6"/>
	<path id="XMLID_218_" class="st1" d="M247.6,948.2c-5.1,4.2-6,11.6-2,16.5c1.3,1.5,2.8,2.6,4.6,3.3c6.2-2.6,12.5-8,16.2-13.8
		c-0.4-1.7-1.1-3.3-2.3-4.7C260.1,944.6,252.7,944,247.6,948.2z"/>
	<path id="XMLID_217_" class="st2" d="M244.2,982.4c7.1,3.6,18.1,1.4,27.1-6c9.2-7.5,13.5-18.1,11.1-25.8c-3.6,5.1-10,11.8-18,18.3
		C257.1,975,249.9,979.7,244.2,982.4z"/>
	<line id="XMLID_216_" class="st2" x1="247.5" y1="948.1" x2="244.2" y2="943.9"/>
	<circle id="XMLID_215_" class="st2" cx="243.4" cy="943.1" r="0.9"/>
	
		<ellipse id="XMLID_214_" transform="matrix(0.7734 -0.6339 0.6339 0.7734 -552.7879 384.8323)" class="st1" cx="261.9" cy="965.6" rx="2" ry="3.1"/>
	
		<ellipse id="XMLID_213_" transform="matrix(-2.868820e-02 -0.9996 0.9996 -2.868820e-02 -677.4238 1254.0652)" class="st1" cx="270.6" cy="956.2" rx="2" ry="3.1"/>
	<path id="XMLID_212_" class="st1" d="M311.4,982.2l-0.2-0.2c-0.2-0.1-0.4-0.2-0.7-0.2L278,969.2c-1.9,2.4-4.2,4.7-6.8,6.9
		c-2.6,2.2-5.4,3.9-8.1,5.4l5.9,34.4c0,0.3-0.1,0.4,0,0.6l-0.1,0l0,0c0,0,0.2,0.2,0.2,0.3c1.9,2.3,12.9-3.5,24.6-13
		S313.3,984.5,311.4,982.2"/>
</g>
<g id="XMLID_221_">
	<path id="XMLID_225_" class="st2" d="M663.1,931.2c-11.5,9.9-51.2,3.4-60.1-8.9c-2.1-2.9,2.9-17.6,2.1-14.1
		c-2.8,11.4,52.5,22.1,60.1,8.9C666.9,914,665.8,928.8,663.1,931.2z"/>
	<path id="XMLID_224_" class="st1" d="M660.7,947.1c-11.5,9.9-51.2,3.4-60.1-8.9c-2.1-2.9,2.9-17.6,2.1-14.1
		c-2.8,11.4,52.5,22.1,60.1,8.9C664.6,929.9,663.5,944.8,660.7,947.1z"/>
	
		<ellipse id="XMLID_223_" transform="matrix(0.9893 0.1456 -0.1456 0.9893 138.8935 -82.9504)" class="st1" cx="636.2" cy="907.4" rx="30.3" ry="12.5"/>
	<path id="XMLID_222_" class="st2" d="M658.4,963.3c-11.5,9.9-51.2,3.4-60.1-8.9c-2.1-2.9,2.9-17.6,2.1-14.1
		c-2.8,11.4,52.5,22.1,60.1,8.9C662.2,946.1,661.1,961,658.4,963.3z"/>
</g>
<g id="XMLID_226_">
	
		<rect id="XMLID_251_" x="837.2" y="960.2" transform="matrix(0.9181 -0.3964 0.3964 0.9181 -313.5356 412.7867)" class="st3" width="9.5" height="9.5"/>
	
		<rect id="XMLID_250_" x="848.4" y="955.4" transform="matrix(0.9181 -0.3964 0.3964 0.9181 -310.7021 416.8289)" class="st3" width="9.5" height="9.5"/>
	
		<rect id="XMLID_249_" x="859.5" y="950.5" transform="matrix(0.9181 -0.3964 0.3964 0.9181 -307.8685 420.871)" class="st1" width="9.5" height="9.5"/>
	
		<rect id="XMLID_248_" x="870.7" y="945.7" transform="matrix(0.9181 -0.3964 0.3964 0.9181 -305.0349 424.9132)" class="st3" width="9.5" height="9.5"/>
	
		<rect id="XMLID_247_" x="881.9" y="940.9" transform="matrix(0.9181 -0.3964 0.3964 0.9181 -302.2013 428.9554)" class="st1" width="9.5" height="9.5"/>
	
		<rect id="XMLID_246_" x="842.4" y="972.4" transform="matrix(0.9181 -0.3964 0.3964 0.9181 -317.9385 415.8732)" class="st1" width="9.5" height="9.5"/>
	
		<rect id="XMLID_245_" x="853.6" y="967.6" transform="matrix(0.9181 -0.3964 0.3964 0.9181 -315.105 419.9153)" class="st3" width="9.5" height="9.5"/>
	
		<rect id="XMLID_244_" x="864.8" y="962.7" transform="matrix(0.9181 -0.3964 0.3964 0.9181 -312.2714 423.9575)" class="st3" width="9.5" height="9.5"/>
	
		<rect id="XMLID_243_" x="876" y="957.9" transform="matrix(0.9181 -0.3964 0.3964 0.9181 -309.4378 427.9997)" class="st1" width="9.5" height="9.5"/>
	
		<rect id="XMLID_242_" x="887.2" y="953.1" transform="matrix(0.9181 -0.3964 0.3964 0.9181 -306.6042 432.0418)" class="st3" width="9.5" height="9.5"/>
	
		<rect id="XMLID_241_" x="847.7" y="984.6" transform="matrix(0.9181 -0.3964 0.3964 0.9181 -322.3415 418.9596)" class="st3" width="9.5" height="9.5"/>
	
		<rect id="XMLID_240_" x="858.9" y="979.8" transform="matrix(0.9181 -0.3964 0.3964 0.9181 -319.5079 423.0018)" class="st1" width="9.5" height="9.5"/>
	
		<rect id="XMLID_239_" x="870.1" y="974.9" transform="matrix(0.9181 -0.3964 0.3964 0.9181 -316.6743 427.044)" class="st1" width="9.5" height="9.5"/>
	
		<rect id="XMLID_238_" x="881.3" y="970.1" transform="matrix(0.9181 -0.3964 0.3964 0.9181 -313.8407 431.0861)" class="st3" width="9.5" height="9.5"/>
	
		<rect id="XMLID_237_" x="892.5" y="965.2" transform="matrix(0.9181 -0.3964 0.3964 0.9181 -311.0071 435.1283)" class="st3" width="9.5" height="9.5"/>
	
		<rect id="XMLID_236_" x="853" y="996.8" transform="matrix(0.9181 -0.3964 0.3964 0.9181 -326.7444 422.0461)" class="st3" width="9.5" height="9.5"/>
	
		<rect id="XMLID_235_" x="864.1" y="991.9" transform="matrix(0.9181 -0.3964 0.3964 0.9181 -323.9108 426.0883)" class="st1" width="9.5" height="9.5"/>
	
		<rect id="XMLID_234_" x="875.3" y="987.1" transform="matrix(0.9181 -0.3964 0.3964 0.9181 -321.0772 430.1304)" class="st1" width="9.5" height="9.5"/>
	
		<rect id="XMLID_233_" x="886.5" y="982.3" transform="matrix(0.9181 -0.3964 0.3964 0.9181 -318.2436 434.1726)" class="st1" width="9.5" height="9.5"/>
	
		<rect id="XMLID_232_" x="897.7" y="977.4" transform="matrix(0.9181 -0.3964 0.3964 0.9181 -315.4101 438.2148)" class="st3" width="9.5" height="9.5"/>
	
		<rect id="XMLID_231_" x="858.2" y="1009" transform="matrix(0.9181 -0.3964 0.3964 0.9181 -331.1473 425.1325)" class="st3" width="9.5" height="9.5"/>
	
		<rect id="XMLID_230_" x="869.4" y="1004.1" transform="matrix(0.9181 -0.3964 0.3964 0.9181 -328.3137 429.1747)" class="st3" width="9.5" height="9.5"/>
	
		<rect id="XMLID_229_" x="880.6" y="999.3" transform="matrix(0.9181 -0.3964 0.3964 0.9181 -325.4801 433.2169)" class="st3" width="9.5" height="9.5"/>
	
		<rect id="XMLID_228_" x="891.8" y="994.5" transform="matrix(0.9181 -0.3964 0.3964 0.9181 -322.6465 437.259)" class="st1" width="9.5" height="9.5"/>
	
		<rect id="XMLID_227_" x="903" y="989.6" transform="matrix(0.9181 -0.3964 0.3964 0.9181 -319.813 441.3012)" class="st3" width="9.5" height="9.5"/>
</g>
<g id="XMLID_253_">
	<path id="XMLID_262_" class="st0" d="M1636.7,806.6c0.9,3,0.7,6.3-0.4,9.2c-0.3,0.9,0.1,1.9,1,2.2c0,0,0,0,0,0
		c0.9,0.3,1.8-0.1,2.2-1c1.3-3.6,1.5-7.6,0.4-11.3c-0.3-0.9-1.2-1.4-2.1-1.2C1637,804.8,1636.4,805.7,1636.7,806.6z"/>
	<path id="XMLID_261_" class="st0" d="M1609.3,823.6c2,2,4.3,3.4,7,4.3c0.8,0.3,1.6,0.5,2.4,0.6l-4.6-8.3c-1.2,0.3-2.4,0.3-3.6-0.2
		c-0.9-0.3-1.7-0.8-2.4-1.5c-2.5-2.4-2.5-6.5-0.1-9c1.7-1.7,4.3-2.4,6.6-1.6c0.9,0.3,1.7,0.8,2.4,1.5c0.1,0.1,0.3,0.3,0.4,0.4
		l21-9.6c-0.8-1.3-1.7-2.5-2.9-3.6c-2-2-4.3-3.4-7-4.3c-6.8-2.4-14.5-0.5-19.5,4.6c-3.5,3.6-5.4,8.3-5.3,13.3
		C1603.8,815.4,1605.8,820.1,1609.3,823.6z"/>
	<path id="XMLID_260_" class="st0" d="M1613.5,811.3c-1.1-0.4-2.3-0.1-3,0.7c-1.1,1.2-1.1,3,0,4.1c0.3,0.3,0.7,0.5,1.1,0.7
		c1.1,0.4,2.3,0.1,3-0.7c1.1-1.1,1.1-3,0-4.1C1614.3,811.7,1613.9,811.5,1613.5,811.3z"/>
	<path id="XMLID_259_" class="st0" d="M1597.5,814.2c1.1,0,2.1,0,3.2,0.2c-0.6-3.3-0.5-6.7,0.4-10.1c0.1-0.3,0-0.8,0.1-1.1
		c-3.6-1.3-8-0.3-10.3,3l-2,2.9c2.1,0.1,4.2,0.9,5.8,2C1595.7,811.9,1596.8,813.1,1597.5,814.2z"/>
	<path id="XMLID_258_" class="st0" d="M1574.1,826.8l15.5-2.7c3.6-0.6,6-3.6,5.5-6.7c-0.2-1.3-1-2.5-2.2-3.3c-1.5-1-3.4-1.4-5.2-1.1
		l-15.5,2.7c-3.6,0.6-6,3.6-5.5,6.7c0.2,1.3,1,2.5,2.2,3.3C1570.3,826.8,1572.2,827.2,1574.1,826.8z"/>
	<path id="XMLID_257_" class="st0" d="M1579.4,842.2c-1.5-1-3.4-1.4-5.3-1.1l-15.5,2.7c-3.6,0.6-6,3.6-5.5,6.7
		c0.2,1.3,1,2.5,2.2,3.3c1.5,1,3.4,1.4,5.3,1.1l15.5-2.7c3.6-0.6,6-3.6,5.5-6.7C1581.4,844.2,1580.6,843,1579.4,842.2z"/>
	<path id="XMLID_256_" class="st0" d="M1592.4,860.6l-5.2,7.5c-2.1,3-1.8,6.8,0.8,8.6c2.6,1.8,6.2,0.8,8.3-2.2l7.7-11
		c-3.9,0.2-7.9-0.3-11.3-2.7L1592.4,860.6z"/>
	<path id="XMLID_255_" class="st0" d="M1620.5,832.2c-3.8-0.3-7.6-1.6-10.8-3.9c-2.7-1.9-4.9-4.3-6.5-7.1c-0.6-1-1-2-1.4-3
		c-1.1-0.3-2.2-0.5-3.2-0.5c0.4,4.6-3.3,8.9-8.4,9.8l-7.5,1.3l-1.5,2.1c-1.6,2.2-2.3,4.8-2.5,7.3c0.9,0.3,1.8,0.7,2.6,1.3
		c1.9,1.4,3.2,3.3,3.6,5.6c0.3,1.8-0.2,3.9-1,5.5c0.2,0.2,0.2,0.6,0.4,0.8l10.1,7.1c6.4,4.5,15.5,2.2,20-4.2l5.1-7.2
		C1622.6,842.3,1622.9,836.7,1620.5,832.2z"/>
	<path id="XMLID_254_" class="st0" d="M1642.9,831c-1.5-1-3.4-1.4-5.3-1.1l-9.6,1.7c-1.2,0.3-2.4,0.5-3.7,0.6l-0.1,0
		c1.4,3.6,1.7,7.6,0.6,11.4l14.7-2.6c3.6-0.6,6-3.6,5.5-6.7C1644.9,833,1644.1,831.8,1642.9,831z"/>
</g>
<g id="XMLID_263_">
	
		<rect id="XMLID_290_" x="364.9" y="94.2" transform="matrix(0.9661 0.2583 -0.2583 0.9661 38.0903 -92.1102)" class="st3" width="9.5" height="9.5"/>
	
		<rect id="XMLID_289_" x="376.7" y="97.3" transform="matrix(0.9661 0.2583 -0.2583 0.9661 39.3036 -95.0463)" class="st3" width="9.5" height="9.5"/>
	
		<rect id="XMLID_288_" x="388.4" y="100.5" transform="matrix(0.9661 0.2583 -0.2583 0.9661 40.5169 -97.9823)" class="st1" width="9.5" height="9.5"/>
	
		<rect id="XMLID_287_" x="400.2" y="103.6" transform="matrix(0.9661 0.2583 -0.2583 0.9661 41.7302 -100.9184)" class="st3" width="9.5" height="9.5"/>
	
		<rect id="XMLID_286_" x="412" y="106.8" transform="matrix(0.9661 0.2583 -0.2583 0.9661 42.9435 -103.8544)" class="st1" width="9.5" height="9.5"/>
	
		<rect id="XMLID_285_" x="361.4" y="107" transform="matrix(0.9661 0.2583 -0.2583 0.9661 41.2884 -90.7886)" class="st1" width="9.5" height="9.5"/>
	
		<rect id="XMLID_284_" x="373.2" y="110.2" transform="matrix(0.9661 0.2583 -0.2583 0.9661 42.5017 -93.7247)" class="st3" width="9.5" height="9.5"/>
	
		<rect id="XMLID_283_" x="385" y="113.3" transform="matrix(0.9661 0.2583 -0.2583 0.9661 43.715 -96.6607)" class="st3" width="9.5" height="9.5"/>
	
		<rect id="XMLID_282_" x="396.8" y="116.5" transform="matrix(0.9661 0.2583 -0.2583 0.9661 44.9283 -99.5968)" class="st1" width="9.5" height="9.5"/>
	
		<rect id="XMLID_281_" x="408.6" y="119.6" transform="matrix(0.9661 0.2583 -0.2583 0.9661 46.1416 -102.5329)" class="st3" width="9.5" height="9.5"/>
	
		<rect id="XMLID_280_" x="358" y="119.8" transform="matrix(0.9661 0.2583 -0.2583 0.9661 44.4865 -89.4671)" class="st3" width="9.5" height="9.5"/>
	
		<rect id="XMLID_279_" x="369.8" y="123" transform="matrix(0.9661 0.2583 -0.2583 0.9661 45.6998 -92.4031)" class="st1" width="9.5" height="9.5"/>
	
		<rect id="XMLID_278_" x="381.6" y="126.1" transform="matrix(0.9661 0.2583 -0.2583 0.9661 46.9131 -95.3392)" class="st1" width="9.5" height="9.5"/>
	
		<rect id="XMLID_277_" x="393.4" y="129.3" transform="matrix(0.9661 0.2583 -0.2583 0.9661 48.1264 -98.2752)" class="st3" width="9.5" height="9.5"/>
	
		<rect id="XMLID_276_" x="405.1" y="132.4" transform="matrix(0.9661 0.2583 -0.2583 0.9661 49.3396 -101.2113)" class="st3" width="9.5" height="9.5"/>
	
		<rect id="XMLID_275_" x="354.6" y="132.7" transform="matrix(0.9661 0.2583 -0.2583 0.9661 47.6846 -88.1455)" class="st3" width="9.5" height="9.5"/>
	
		<rect id="XMLID_274_" x="366.4" y="135.8" transform="matrix(0.9661 0.2583 -0.2583 0.9661 48.8979 -91.0815)" class="st1" width="9.5" height="9.5"/>
	
		<rect id="XMLID_273_" x="378.1" y="139" transform="matrix(0.9661 0.2583 -0.2583 0.9661 50.1112 -94.0176)" class="st1" width="9.5" height="9.5"/>
	
		<rect id="XMLID_272_" x="389.9" y="142.1" transform="matrix(0.9661 0.2583 -0.2583 0.9661 51.3244 -96.9537)" class="st1" width="9.5" height="9.5"/>
	
		<rect id="XMLID_269_" x="401.7" y="145.3" transform="matrix(0.9661 0.2583 -0.2583 0.9661 52.5377 -99.8897)" class="st3" width="9.5" height="9.5"/>
	
		<rect id="XMLID_268_" x="351.2" y="145.5" transform="matrix(0.9661 0.2583 -0.2583 0.9661 50.8827 -86.8239)" class="st3" width="9.5" height="9.5"/>
	
		<rect id="XMLID_267_" x="362.9" y="148.7" transform="matrix(0.9661 0.2583 -0.2583 0.9661 52.0959 -89.76)" class="st3" width="9.5" height="9.5"/>
	
		<rect id="XMLID_266_" x="374.7" y="151.8" transform="matrix(0.9661 0.2583 -0.2583 0.9661 53.3092 -92.696)" class="st3" width="9.5" height="9.5"/>
	
		<rect id="XMLID_265_" x="386.5" y="155" transform="matrix(0.9661 0.2583 -0.2583 0.9661 54.5225 -95.6321)" class="st1" width="9.5" height="9.5"/>
	
		<rect id="XMLID_264_" x="398.3" y="158.1" transform="matrix(0.9661 0.2583 -0.2583 0.9661 55.7358 -98.5681)" class="st3" width="9.5" height="9.5"/>
</g>
<g id="XMLID_364_">
	<path id="XMLID_368_" class="st2" d="M1588.6,181.8c-1.6,14.4-33.6,35.8-47.9,33c-3.3-0.6-9.4-14.2-7.7-11.2
		c5.5,9.8,51.2-18.7,47.9-33C1580.1,167.3,1589,178.4,1588.6,181.8z"/>
	<path id="XMLID_367_" class="st1" d="M1597.3,194.5c-1.6,14.4-33.6,35.8-47.9,33c-3.3-0.6-9.4-14.2-7.7-11.2
		c5.5,9.8,51.2-18.7,47.9-33C1588.8,180,1597.7,191.1,1597.3,194.5z"/>
	
		<ellipse id="XMLID_366_" transform="matrix(0.8233 -0.5676 0.5676 0.8233 170.919 914.5521)" class="st1" cx="1554.3" cy="182.8" rx="29" ry="12"/>
	<path id="XMLID_365_" class="st2" d="M1606.2,207.4c-1.6,14.4-33.6,35.8-47.9,33c-3.3-0.6-9.4-14.2-7.7-11.2
		c5.5,9.8,51.2-18.7,47.9-33C1597.7,192.9,1606.6,204,1606.2,207.4z"/>
</g>
<g id="XMLID_312_">
	
		<rect id="XMLID_337_" x="1804.1" y="29.7" transform="matrix(0.7157 0.6984 -0.6984 0.7157 538.1796 -1253.4053)" class="st2" width="9.5" height="9.5"/>
	
		<rect id="XMLID_336_" x="1812.8" y="38.2" transform="matrix(0.7157 0.6984 -0.6984 0.7157 546.6084 -1257.0802)" class="st2" width="9.5" height="9.5"/>
	
		<rect id="XMLID_335_" x="1821.5" y="46.7" transform="matrix(0.7157 0.6984 -0.6984 0.7157 555.0372 -1260.7551)" class="st1" width="9.5" height="9.5"/>
	
		<rect id="XMLID_334_" x="1830.2" y="55.2" transform="matrix(0.7157 0.6984 -0.6984 0.7157 563.4659 -1264.4301)" class="st2" width="9.5" height="9.5"/>
	
		<rect id="XMLID_333_" x="1839" y="63.7" transform="matrix(0.7157 0.6984 -0.6984 0.7157 571.8947 -1268.1049)" class="st1" width="9.5" height="9.5"/>
	
		<rect id="XMLID_332_" x="1794.8" y="39.2" transform="matrix(0.7157 0.6984 -0.6984 0.7157 542.1825 -1244.2242)" class="st1" width="9.5" height="9.5"/>
	
		<rect id="XMLID_331_" x="1803.5" y="47.7" transform="matrix(0.7157 0.6984 -0.6984 0.7157 550.6113 -1247.8992)" class="st2" width="9.5" height="9.5"/>
	
		<rect id="XMLID_330_" x="1812.2" y="56.2" transform="matrix(0.7157 0.6984 -0.6984 0.7157 559.04 -1251.5741)" class="st2" width="9.5" height="9.5"/>
	
		<rect id="XMLID_329_" x="1821" y="64.7" transform="matrix(0.7157 0.6984 -0.6984 0.7157 567.4688 -1255.249)" class="st1" width="9.5" height="9.5"/>
	
		<rect id="XMLID_328_" x="1829.7" y="73.2" transform="matrix(0.7157 0.6984 -0.6984 0.7157 575.8975 -1258.924)" class="st2" width="9.5" height="9.5"/>
	
		<rect id="XMLID_327_" x="1785.5" y="48.7" transform="matrix(0.7157 0.6984 -0.6984 0.7157 546.1854 -1235.0433)" class="st2" width="9.5" height="9.5"/>
	
		<rect id="XMLID_326_" x="1794.2" y="57.2" transform="matrix(0.7157 0.6984 -0.6984 0.7157 554.6141 -1238.7183)" class="st1" width="9.5" height="9.5"/>
	
		<rect id="XMLID_325_" x="1803" y="65.7" transform="matrix(0.7157 0.6984 -0.6984 0.7157 563.0429 -1242.3931)" class="st1" width="9.5" height="9.5"/>
	
		<rect id="XMLID_324_" x="1811.7" y="74.2" transform="matrix(0.7157 0.6984 -0.6984 0.7157 571.4717 -1246.068)" class="st2" width="9.5" height="9.5"/>
	
		<rect id="XMLID_323_" x="1820.4" y="82.7" transform="matrix(0.7157 0.6984 -0.6984 0.7157 579.9005 -1249.7429)" class="st2" width="9.5" height="9.5"/>
	
		<rect id="XMLID_322_" x="1776.2" y="58.2" transform="matrix(0.7157 0.6984 -0.6984 0.7157 550.1882 -1225.8623)" class="st2" width="9.5" height="9.5"/>
	
		<rect id="XMLID_321_" x="1785" y="66.7" transform="matrix(0.7157 0.6984 -0.6984 0.7157 558.617 -1229.5372)" class="st1" width="9.5" height="9.5"/>
	
		<rect id="XMLID_320_" x="1793.7" y="75.2" transform="matrix(0.7157 0.6984 -0.6984 0.7157 567.0458 -1233.2122)" class="st1" width="9.5" height="9.5"/>
	
		<rect id="XMLID_319_" x="1802.4" y="83.7" transform="matrix(0.7157 0.6984 -0.6984 0.7157 575.4745 -1236.8871)" class="st1" width="9.5" height="9.5"/>
	
		<rect id="XMLID_318_" x="1811.1" y="92.3" transform="matrix(0.7157 0.6984 -0.6984 0.7157 583.9033 -1240.5619)" class="st2" width="9.5" height="9.5"/>
	
		<rect id="XMLID_317_" x="1766.9" y="67.7" transform="matrix(0.7157 0.6984 -0.6984 0.7157 554.1911 -1216.6813)" class="st2" width="9.5" height="9.5"/>
	
		<rect id="XMLID_316_" x="1775.7" y="76.2" transform="matrix(0.7157 0.6984 -0.6984 0.7157 562.6199 -1220.3562)" class="st2" width="9.5" height="9.5"/>
	
		<rect id="XMLID_315_" x="1784.4" y="84.7" transform="matrix(0.7157 0.6984 -0.6984 0.7157 571.0486 -1224.0311)" class="st2" width="9.5" height="9.5"/>
	
		<rect id="XMLID_314_" x="1793.1" y="93.2" transform="matrix(0.7157 0.6984 -0.6984 0.7157 579.4774 -1227.7061)" class="st1" width="9.5" height="9.5"/>
	
		<rect id="XMLID_313_" x="1801.9" y="101.8" transform="matrix(0.7157 0.6984 -0.6984 0.7157 587.9062 -1231.381)" class="st2" width="9.5" height="9.5"/>
</g>
<g id="XMLID_291_">
	<path id="XMLID_311_" class="st0" d="M2063.7,76.6c0.9,3,0.7,6.3-0.4,9.2c-0.3,0.9,0.1,1.9,1,2.2c0,0,0,0,0,0
		c0.9,0.3,1.8-0.1,2.2-1c1.3-3.6,1.5-7.6,0.4-11.3c-0.3-0.9-1.2-1.4-2.1-1.2C2064,74.8,2063.4,75.7,2063.7,76.6z"/>
	<path id="XMLID_310_" class="st0" d="M2036.3,93.6c2,2,4.3,3.4,7,4.3c0.8,0.3,1.6,0.5,2.4,0.6l-4.6-8.3c-1.2,0.3-2.4,0.3-3.6-0.2
		c-0.9-0.3-1.7-0.8-2.4-1.5c-2.5-2.4-2.5-6.5-0.1-9c1.7-1.7,4.3-2.4,6.6-1.6c0.9,0.3,1.7,0.8,2.4,1.5c0.1,0.1,0.3,0.3,0.4,0.4
		l21-9.6c-0.8-1.3-1.7-2.5-2.9-3.6c-2-2-4.3-3.4-7-4.3c-6.8-2.4-14.5-0.5-19.5,4.6c-3.5,3.6-5.4,8.3-5.3,13.3
		C2030.8,85.4,2032.8,90.1,2036.3,93.6z"/>
	<path id="XMLID_309_" class="st0" d="M2040.5,81.3c-1.1-0.4-2.3-0.1-3,0.7c-1.1,1.2-1.1,3,0,4.1c0.3,0.3,0.7,0.5,1.1,0.7
		c1.1,0.4,2.3,0.1,3-0.7c1.1-1.1,1.1-3,0-4.1C2041.3,81.7,2040.9,81.5,2040.5,81.3z"/>
	<path id="XMLID_308_" class="st0" d="M2024.5,84.2c1.1,0,2.1,0,3.2,0.2c-0.6-3.3-0.5-6.7,0.4-10.1c0.1-0.3,0-0.8,0.1-1.1
		c-3.6-1.3-8-0.3-10.3,3l-2,2.9c2.1,0.1,4.2,0.9,5.8,2C2022.7,81.9,2023.8,83.1,2024.5,84.2z"/>
	<path id="XMLID_307_" class="st0" d="M2001.1,96.8l15.5-2.7c3.6-0.6,6-3.6,5.5-6.7c-0.2-1.3-1-2.5-2.2-3.3c-1.5-1-3.4-1.4-5.2-1.1
		l-15.5,2.7c-3.6,0.6-6,3.6-5.5,6.7c0.2,1.3,1,2.5,2.2,3.3C1997.3,96.8,1999.2,97.2,2001.1,96.8z"/>
	<path id="XMLID_296_" class="st0" d="M2006.4,112.2c-1.5-1-3.4-1.4-5.3-1.1l-15.5,2.7c-3.6,0.6-6,3.6-5.5,6.7
		c0.2,1.3,1,2.5,2.2,3.3c1.5,1,3.4,1.4,5.3,1.1l15.5-2.7c3.6-0.6,6-3.6,5.5-6.7C2008.4,114.2,2007.6,113,2006.4,112.2z"/>
	<path id="XMLID_295_" class="st0" d="M2019.4,130.6l-5.2,7.5c-2.1,3-1.8,6.8,0.8,8.6c2.6,1.8,6.2,0.8,8.3-2.2l7.7-11
		c-3.9,0.2-7.9-0.3-11.3-2.7L2019.4,130.6z"/>
	<path id="XMLID_294_" class="st0" d="M2047.5,102.2c-3.8-0.3-7.6-1.6-10.8-3.9c-2.7-1.9-4.9-4.3-6.5-7.1c-0.6-1-1-2-1.4-3
		c-1.1-0.3-2.2-0.5-3.2-0.5c0.4,4.6-3.3,8.9-8.4,9.8l-7.5,1.3l-1.5,2.1c-1.6,2.2-2.3,4.8-2.5,7.3c0.9,0.3,1.8,0.7,2.6,1.3
		c1.9,1.4,3.2,3.3,3.6,5.6c0.3,1.8-0.2,3.9-1,5.5c0.2,0.2,0.2,0.6,0.4,0.8l10.1,7.1c6.4,4.5,15.5,2.2,20-4.2l5.1-7.2
		C2049.6,112.3,2049.9,106.7,2047.5,102.2z"/>
	<path id="XMLID_292_" class="st0" d="M2069.9,101c-1.5-1-3.4-1.4-5.3-1.1l-9.6,1.7c-1.2,0.3-2.4,0.5-3.7,0.6l-0.1,0
		c1.4,3.6,1.7,7.6,0.6,11.4l14.7-2.6c3.6-0.6,6-3.6,5.5-6.7C2071.9,103,2071.1,101.8,2069.9,101z"/>
</g>
<g id="XMLID_374_">
	
		<ellipse id="XMLID_383_" transform="matrix(0.8868 0.4622 -0.4622 0.8868 334.6131 -806.1876)" class="st1" cx="1812.7" cy="279.8" rx="2" ry="3.1"/>
	
		<ellipse id="XMLID_382_" transform="matrix(0.9843 -0.1765 0.1765 0.9843 -20.0028 326.4204)" class="st2" cx="1825.2" cy="275.7" rx="32.9" ry="7.6"/>
	<path id="XMLID_381_" class="st1" d="M1821.8,256.9c-6.5,1.2-10.9,7.2-9.8,13.4c0.3,1.9,1.2,3.7,2.4,5.1c6.7,0.7,14.8-0.9,20.9-4.1
		c0.5-1.6,0.6-3.4,0.3-5.2C1834.5,259.8,1828.3,255.7,1821.8,256.9z"/>
	<path id="XMLID_380_" class="st2" d="M1802.2,285c4.5,6.6,15.1,10,26.6,8c11.7-2.1,20.6-9.2,22.3-17.1c-5.6,2.7-14.5,5.4-24.6,7.3
		C1817.1,284.8,1808.4,285.4,1802.2,285z"/>
	<line id="XMLID_379_" class="st2" x1="1821.8" y1="256.7" x2="1820.9" y2="251.4"/>
	<circle id="XMLID_378_" class="st2" cx="1820.6" cy="250.3" r="0.9"/>
	
		<ellipse id="XMLID_377_" transform="matrix(0.9843 -0.1765 0.1765 0.9843 -20.5864 326.5823)" class="st1" cx="1825.8" cy="279" rx="2" ry="3.1"/>
	
		<ellipse id="XMLID_376_" transform="matrix(0.4622 -0.8868 0.8868 0.4622 744.5911 1777.7484)" class="st1" cx="1838" cy="275" rx="2" ry="3.1"/>
	<path id="XMLID_375_" class="st1" d="M1861,317.6l-0.1-0.3c-0.1-0.2-0.2-0.4-0.5-0.5l-22.3-26.8c-2.9,1.2-6,2.1-9.3,2.7
		c-3.4,0.6-6.6,0.8-9.7,0.7l-11.6,32.9c-0.1,0.2-0.2,0.4-0.3,0.6l0,0l0,0c0,0,0,0.2,0,0.3c0.5,2.9,13,3.2,27.8,0.6
		S1861.5,320.5,1861,317.6"/>
</g>
<g id="XMLID_369_">
	<path id="XMLID_373_" class="st2" d="M1800.6,646.8c-7.1,12.7-44.9,19.8-56.9,11.7c-2.8-1.9-3.1-16.8-2.8-13.4
		c1.2,11.2,54.4,2.7,56.9-11.7C1798.5,630,1802.3,643.8,1800.6,646.8z"/>
	<path id="XMLID_372_" class="st1" d="M1803.7,661.8c-7.1,12.7-44.9,19.8-56.9,11.7c-2.8-1.9-3.1-16.8-2.8-13.4
		c1.2,11.2,54.4,2.7,56.9-11.7C1801.6,645.1,1805.4,658.9,1803.7,661.8z"/>
	
		<ellipse id="XMLID_371_" transform="matrix(0.9794 -0.2019 0.2019 0.9794 -91.6329 370.1777)" class="st1" cx="1768.7" cy="634.2" rx="29" ry="12"/>
	<path id="XMLID_370_" class="st2" d="M1806.9,677.2c-7.1,12.7-44.9,19.8-56.9,11.7c-2.8-1.9-3.1-16.8-2.8-13.4
		c1.2,11.2,54.4,2.7,56.9-11.7C1804.7,660.5,1808.6,674.2,1806.9,677.2z"/>
</g>
<g id="XMLID_338_">
	
		<rect id="XMLID_363_" x="1758.2" y="928.6" transform="matrix(0.9181 -0.3964 0.3964 0.9181 -225.5549 775.296)" class="st3" width="9.5" height="9.5"/>
	
		<rect id="XMLID_362_" x="1769.4" y="923.8" transform="matrix(0.9181 -0.3964 0.3964 0.9181 -222.7213 779.3382)" class="st3" width="9.5" height="9.5"/>
	
		<rect id="XMLID_361_" x="1780.6" y="918.9" transform="matrix(0.9181 -0.3964 0.3964 0.9181 -219.8877 783.3804)" class="st1" width="9.5" height="9.5"/>
	
		<rect id="XMLID_360_" x="1791.8" y="914.1" transform="matrix(0.9181 -0.3964 0.3964 0.9181 -217.0542 787.4225)" class="st3" width="9.5" height="9.5"/>
	
		<rect id="XMLID_359_" x="1803" y="909.3" transform="matrix(0.9181 -0.3964 0.3964 0.9181 -214.2206 791.4647)" class="st1" width="9.5" height="9.5"/>
	
		<rect id="XMLID_358_" x="1763.4" y="940.8" transform="matrix(0.9181 -0.3964 0.3964 0.9181 -229.9578 778.3825)" class="st1" width="9.5" height="9.5"/>
	
		<rect id="XMLID_357_" x="1774.6" y="936" transform="matrix(0.9181 -0.3964 0.3964 0.9181 -227.1242 782.4247)" class="st3" width="9.5" height="9.5"/>
	
		<rect id="XMLID_356_" x="1785.8" y="931.1" transform="matrix(0.9181 -0.3964 0.3964 0.9181 -224.2906 786.4669)" class="st3" width="9.5" height="9.5"/>
	
		<rect id="XMLID_355_" x="1797" y="926.3" transform="matrix(0.9181 -0.3964 0.3964 0.9181 -221.4571 790.509)" class="st1" width="9.5" height="9.5"/>
	
		<rect id="XMLID_354_" x="1808.2" y="921.5" transform="matrix(0.9181 -0.3964 0.3964 0.9181 -218.6235 794.5511)" class="st3" width="9.5" height="9.5"/>
	
		<rect id="XMLID_353_" x="1768.7" y="953" transform="matrix(0.9181 -0.3964 0.3964 0.9181 -234.3607 781.4689)" class="st3" width="9.5" height="9.5"/>
	
		<rect id="XMLID_352_" x="1779.9" y="948.2" transform="matrix(0.9181 -0.3964 0.3964 0.9181 -231.5271 785.5111)" class="st1" width="9.5" height="9.5"/>
	
		<rect id="XMLID_351_" x="1791.1" y="943.3" transform="matrix(0.9181 -0.3964 0.3964 0.9181 -228.6936 789.5533)" class="st1" width="9.5" height="9.5"/>
	
		<rect id="XMLID_350_" x="1802.3" y="938.5" transform="matrix(0.9181 -0.3964 0.3964 0.9181 -225.86 793.5955)" class="st3" width="9.5" height="9.5"/>
	
		<rect id="XMLID_349_" x="1813.5" y="933.7" transform="matrix(0.9181 -0.3964 0.3964 0.9181 -223.0264 797.6376)" class="st3" width="9.5" height="9.5"/>
	
		<rect id="XMLID_348_" x="1774" y="965.2" transform="matrix(0.9181 -0.3964 0.3964 0.9181 -238.7636 784.5554)" class="st3" width="9.5" height="9.5"/>
	
		<rect id="XMLID_347_" x="1785.2" y="960.3" transform="matrix(0.9181 -0.3964 0.3964 0.9181 -235.93 788.5976)" class="st1" width="9.5" height="9.5"/>
	
		<rect id="XMLID_346_" x="1796.4" y="955.5" transform="matrix(0.9181 -0.3964 0.3964 0.9181 -233.0965 792.6398)" class="st1" width="9.5" height="9.5"/>
	
		<rect id="XMLID_345_" x="1807.6" y="950.7" transform="matrix(0.9181 -0.3964 0.3964 0.9181 -230.2629 796.6819)" class="st1" width="9.5" height="9.5"/>
	
		<rect id="XMLID_344_" x="1818.8" y="945.8" transform="matrix(0.9181 -0.3964 0.3964 0.9181 -227.4293 800.7241)" class="st3" width="9.5" height="9.5"/>
	
		<rect id="XMLID_343_" x="1779.2" y="977.4" transform="matrix(0.9181 -0.3964 0.3964 0.9181 -243.1665 787.6419)" class="st3" width="9.5" height="9.5"/>
	
		<rect id="XMLID_342_" x="1790.4" y="972.5" transform="matrix(0.9181 -0.3964 0.3964 0.9181 -240.3329 791.684)" class="st3" width="9.5" height="9.5"/>
	
		<rect id="XMLID_341_" x="1801.6" y="967.7" transform="matrix(0.9181 -0.3964 0.3964 0.9181 -237.4994 795.7262)" class="st3" width="9.5" height="9.5"/>
	
		<rect id="XMLID_340_" x="1812.8" y="962.9" transform="matrix(0.9181 -0.3964 0.3964 0.9181 -234.6658 799.7684)" class="st1" width="9.5" height="9.5"/>
	
		<rect id="XMLID_339_" x="1824" y="958" transform="matrix(0.9181 -0.3964 0.3964 0.9181 -231.8322 803.8105)" class="st3" width="9.5" height="9.5"/>
</g>
<g id="XMLID_385_">
	
		<ellipse id="XMLID_394_" transform="matrix(0.9699 0.2435 -0.2435 0.9699 59.1545 -336.9474)" class="st1" cx="1392.7" cy="70.8" rx="2" ry="3.1"/>
	
		<ellipse id="XMLID_393_" transform="matrix(0.9163 -0.4004 0.4004 0.9163 91.87 567.4401)" class="st2" cx="1403.8" cy="63.9" rx="32.9" ry="7.6"/>
	<path id="XMLID_392_" class="st1" d="M1396.2,46.4c-6.1,2.6-8.9,9.5-6.4,15.3c0.8,1.8,2,3.3,3.5,4.4c6.7-0.8,14.2-4.3,19.3-8.9
		c0.1-1.7-0.2-3.5-0.9-5.2C1409.2,46.3,1402.2,43.7,1396.2,46.4z"/>
	<path id="XMLID_391_" class="st2" d="M1383.7,78.3c5.9,5.4,17,6.2,27.7,1.6c10.9-4.8,17.9-13.7,17.7-21.8
		c-4.8,4-12.8,8.7-22.3,12.8C1398.1,74.7,1389.8,77.3,1383.7,78.3z"/>
	<line id="XMLID_390_" class="st2" x1="1396.1" y1="46.2" x2="1394" y2="41.3"/>
	<circle id="XMLID_389_" class="st2" cx="1393.5" cy="40.3" r="0.9"/>
	
		<ellipse id="XMLID_388_" transform="matrix(0.9163 -0.4004 0.4004 0.9163 90.7339 568.2554)" class="st1" cx="1405.2" cy="67" rx="2" ry="3.1"/>
	
		<ellipse id="XMLID_387_" transform="matrix(0.2435 -0.9699 0.9699 0.2435 1012.9316 1419.0812)" class="st1" cx="1416.1" cy="60.2" rx="2" ry="3.1"/>
	<path id="XMLID_386_" class="st1" d="M1448.4,96.3l-0.1-0.2c-0.1-0.2-0.3-0.3-0.6-0.4l-27.9-20.9c-2.5,1.8-5.3,3.4-8.4,4.8
		c-3.1,1.4-6.2,2.3-9.2,3l-3.6,34.7c-0.1,0.3-0.2,0.4-0.1,0.7l0,0l0,0c0,0,0.1,0.2,0.1,0.3c1.2,2.7,13.4,0.1,27.2-5.9
		C1439.4,106.2,1449.6,99,1448.4,96.3"/>
</g>
<g id="XMLID_395_">
	<path id="XMLID_399_" class="st2" d="M1493.5,994.3c-13.3,7.4-50.9-6.8-57.2-20.7c-1.5-3.2,6.4-16.6,4.8-13.4
		c-5,10.6,47,32.2,57.2,20.7C1500.7,978.2,1496.6,992.5,1493.5,994.3z"/>
	<path id="XMLID_398_" class="st1" d="M1488,1009.4c-13.3,7.4-50.9-6.8-57.2-20.7c-1.5-3.2,6.4-16.6,4.8-13.4
		c-5,10.6,47,32.2,57.2,20.7C1495.2,993.3,1491.1,1007.7,1488,1009.4z"/>
	
		<ellipse id="XMLID_397_" transform="matrix(0.9405 0.3399 -0.3399 0.9405 415.8769 -442.8)" class="st1" cx="1471.8" cy="965.6" rx="30.3" ry="12.5"/>
	<path id="XMLID_396_" class="st2" d="M1482.4,1024.8c-13.3,7.4-50.9-6.8-57.2-20.7c-1.5-3.2,6.4-16.6,4.8-13.4
		c-5,10.6,47,32.2,57.2,20.7C1489.6,1008.7,1485.5,1023.1,1482.4,1024.8z"/>
</g>
<path id="XMLID_574_" class="st0" d="M-318.3,409.8c-1,1.4-1.5,3.4-1.2,5.2l2.5,15.5c0.6,3.6,3.6,6.1,6.6,5.6c1.3-0.2,2.5-1,3.4-2.2
	c1-1.4,1.5-3.4,1.2-5.2l-2.5-15.5c-0.6-3.6-3.6-6.1-6.6-5.6C-316.3,407.8-317.5,408.6-318.3,409.8z"/>
<path id="XMLID_573_" class="st0" d="M-299.7,397l7.4,5.3c2.9,2.1,6.8,1.9,8.6-0.7c1.8-2.5,0.8-6.2-2.1-8.3l-10.9-7.8
	c0.1,3.9-0.4,7.9-2.8,11.3L-299.7,397z"/>
<path id="XMLID_572_" class="st0" d="M-327.8,368.6c-0.4,3.8-1.7,7.5-4,10.8c-1.9,2.7-4.3,4.8-7.2,6.4c-1,0.5-2,1-3,1.4
	c-0.3,1.1-0.5,2.1-0.6,3.2c4.6-0.3,8.9,3.4,9.7,8.5l1.2,7.5l2.1,1.5c2.2,1.6,4.7,2.4,7.2,2.6c0.3-0.9,0.8-1.8,1.3-2.6
	c1.4-1.9,3.4-3.2,5.6-3.6c1.8-0.3,3.9,0.2,5.5,1c0.2-0.2,0.6-0.2,0.8-0.4l7.2-10c4.6-6.3,2.4-15.4-4-20l-7.2-5.2
	C-317.6,366.6-323.2,366.3-327.8,368.6z"/>
<path id="XMLID_571_" class="st0" d="M-303.3-100.9c1.4,2.8,1.9,6.1,1.3,9.1c-0.2,0.9,0.5,1.8,1.4,2c0,0,0,0,0,0
	c0.9,0.1,1.8-0.5,1.9-1.4c0.7-3.8,0.1-7.8-1.6-11.2c-0.4-0.8-1.4-1.2-2.3-0.8C-303.4-102.8-303.7-101.7-303.3-100.9z"/>
<path id="XMLID_570_" class="st0" d="M-327.1-79.3c2.3,1.6,4.9,2.6,7.6,3c0.8,0.1,1.6,0.2,2.4,0.2l-6-7.3c-1.1,0.5-2.3,0.7-3.6,0.5
	c-0.9-0.1-1.8-0.5-2.6-1c-2.9-1.9-3.7-5.9-1.7-8.8c1.4-2,3.8-3.1,6.2-2.7c0.9,0.1,1.8,0.5,2.6,1c0.2,0.1,0.3,0.2,0.5,0.3l19-13.3
	c-1-1.1-2.2-2.2-3.5-3.1c-2.3-1.6-4.9-2.6-7.6-3c-7.1-1.1-14.4,2.1-18.4,8.1c-2.8,4.2-3.8,9.2-2.8,14.1
	C-334.1-86.3-331.3-82.1-327.1-79.3z"/>
<path id="XMLID_569_" class="st0" d="M-292.8-78.1c-1.6-0.7-3.6-0.8-5.4-0.1l-9.1,3.4c-1.1,0.5-2.3,1-3.5,1.3l-0.1,0
	c2.1,3.3,3,7.2,2.7,11.1l14-5.2c3.4-1.3,5.3-4.7,4.2-7.6C-290.4-76.4-291.4-77.5-292.8-78.1z"/>
<g id="XMLID_559_">
	<path id="XMLID_568_" class="st0" d="M154.4,147.5c3,0.8,5.8,2.6,7.8,5c0.6,0.7,1.7,0.8,2.4,0.2c0,0,0,0,0,0
		c0.7-0.6,0.8-1.7,0.2-2.4c-2.4-3-5.8-5.1-9.6-6.1c-0.9-0.2-1.8,0.3-2.1,1.2C152.9,146.3,153.5,147.2,154.4,147.5z"/>
	<path id="XMLID_567_" class="st0" d="M155.2,179.6c2.7-0.7,5.1-2,7.2-3.8c0.6-0.5,1.2-1.1,1.8-1.7l-9.5-0.2c-0.3,1.2-1,2.2-1.9,3
		c-0.7,0.6-1.5,1-2.4,1.3c-3.4,0.9-6.9-1.1-7.8-4.4c-0.6-2.3,0.1-4.9,2-6.5c0.7-0.6,1.5-1,2.4-1.3c0.2,0,0.4-0.1,0.6-0.1l2.3-23
		c-1.5,0-3.1,0.2-4.6,0.6c-2.7,0.7-5.1,2-7.2,3.8c-5.5,4.7-7.8,12.2-5.9,19.2c1.3,4.8,4.5,8.9,8.8,11.3
		C145.3,180.3,150.3,180.9,155.2,179.6z"/>
	<path id="XMLID_566_" class="st0" d="M146.7,169.8c-0.9,0.7-1.2,1.9-0.9,3c0.4,1.6,2,2.5,3.6,2c0.4-0.1,0.8-0.3,1.1-0.6
		c0.9-0.7,1.2-1.9,0.9-3c-0.4-1.6-2-2.5-3.6-2C147.4,169.4,147.1,169.6,146.7,169.8z"/>
	<path id="XMLID_565_" class="st0" d="M141.1,185.1c0.5-0.9,1.1-1.8,1.8-2.7c-3.2-1.1-6.1-2.9-8.5-5.4c-0.2-0.2-0.7-0.4-0.9-0.6
		c-3,2.4-4.3,6.8-2.7,10.4l1.5,3.2c1.1-1.7,2.9-3.2,4.6-4C138.2,185.5,139.8,185.1,141.1,185.1z"/>
	<path id="XMLID_564_" class="st0" d="M140.2,211.7l5.5-14.8c1.3-3.4-0.1-7-3-8.1c-1.3-0.5-2.7-0.4-4,0.2c-1.6,0.7-2.9,2.2-3.6,4
		l-5.5,14.8c-1.3,3.4,0.1,7,3,8.1c1.3,0.5,2.7,0.4,4-0.2C138.2,215,139.5,213.5,140.2,211.7z"/>
	<path id="XMLID_563_" class="st0" d="M156.1,214.9c-1.6,0.7-2.9,2.2-3.6,4l-5.5,14.7c-1.3,3.4,0.1,7.1,3,8.1c1.3,0.5,2.7,0.4,4-0.2
		c1.6-0.7,2.9-2.2,3.6-4l5.5-14.8c1.3-3.4-0.1-7-3-8.1C158.8,214.2,157.4,214.3,156.1,214.9z"/>
	<path id="XMLID_562_" class="st0" d="M178.6,213l3.8,8.3c1.5,3.3,4.9,5,7.8,3.7c2.8-1.3,3.8-5,2.3-8.3l-5.6-12.2
		c-1.8,3.5-4.3,6.7-8,8.4L178.6,213z"/>
	<path id="XMLID_561_" class="st0" d="M168.2,174.4c-2.2,3.2-5.2,5.7-8.8,7.4c-3,1.4-6.1,2-9.4,2c-1.1,0-2.2-0.1-3.3-0.3
		c-0.8,0.8-1.5,1.6-2.1,2.5c4.2,2,6,7.3,4.2,12.2l-2.7,7.1l1.1,2.3c1.1,2.5,2.9,4.4,5,5.8c0.7-0.6,1.6-1.2,2.4-1.6
		c2.1-1,4.5-1.1,6.6-0.3c1.7,0.6,3.3,2.1,4.3,3.6c0.2-0.1,0.6,0.2,0.8,0.1l11.2-5.1c7.1-3.3,9.7-12.2,6.5-19.3l-3.7-8
		C178.1,177.7,173.3,174.6,168.2,174.4z"/>
	<path id="XMLID_560_" class="st0" d="M178.5,154.4c-1.6,0.7-2.9,2.2-3.6,4l-3.4,9.1c-0.3,1.2-0.8,2.4-1.3,3.5l0,0.1
		c3.8,0.6,7.4,2.4,10.1,5.2l5.2-14c1.3-3.4-0.1-7.1-3-8.1C181.3,153.7,179.9,153.8,178.5,154.4z"/>
</g>
<g id="XMLID_549_">
	
		<ellipse id="XMLID_558_" transform="matrix(0.8868 0.4622 -0.4622 0.8868 350.4222 145.2812)" class="st1" cx="-121.3" cy="787.8" rx="2" ry="3.1"/>
	
		<ellipse id="XMLID_557_" transform="matrix(0.9843 -0.1765 0.1765 0.9843 -140.0035 -6.9039)" class="st2" cx="-108.8" cy="783.7" rx="32.9" ry="7.6"/>
	<path id="XMLID_556_" class="st1" d="M-112.2,764.9c-6.5,1.2-10.9,7.2-9.8,13.4c0.3,1.9,1.2,3.7,2.4,5.1c6.7,0.7,14.8-0.9,20.9-4.1
		c0.5-1.6,0.6-3.4,0.3-5.2C-99.5,767.8-105.7,763.7-112.2,764.9z"/>
	<path id="XMLID_555_" class="st2" d="M-131.8,793c4.5,6.6,15.1,10,26.6,8c11.7-2.1,20.6-9.2,22.3-17.1c-5.6,2.7-14.5,5.4-24.6,7.3
		C-116.9,792.8-125.6,793.4-131.8,793z"/>
	<line id="XMLID_554_" class="st2" x1="-112.2" y1="764.7" x2="-113.1" y2="759.4"/>
	<circle id="XMLID_553_" class="st2" cx="-113.4" cy="758.3" r="0.9"/>
	
		<ellipse id="XMLID_552_" transform="matrix(0.9843 -0.1765 0.1765 0.9843 -140.5871 -6.742)" class="st1" cx="-108.2" cy="787" rx="2" ry="3.1"/>
	
		<ellipse id="XMLID_551_" transform="matrix(0.4622 -0.8868 0.8868 0.4622 -745.9402 335.9393)" class="st1" cx="-96" cy="783" rx="2" ry="3.1"/>
	<path id="XMLID_550_" class="st1" d="M-73,825.6l-0.1-0.3c-0.1-0.2-0.3-0.4-0.5-0.5L-95.9,798c-2.9,1.2-6,2.1-9.3,2.7
		c-3.4,0.6-6.6,0.8-9.7,0.7l-11.6,32.9c-0.1,0.2-0.2,0.4-0.3,0.6l0,0l0,0c0,0,0,0.2,0,0.3c0.5,2.9,13,3.2,27.8,0.6
		S-72.5,828.5-73,825.6"/>
</g>
<g id="XMLID_523_">
	
		<rect id="XMLID_548_" x="-168.6" y="105.8" transform="matrix(0.9181 -0.3964 0.3964 0.9181 -57.2524 -55.8953)" class="st3" width="9.5" height="9.5"/>
	
		<rect id="XMLID_547_" x="-157.4" y="101" transform="matrix(0.9181 -0.3964 0.3964 0.9181 -54.4189 -51.8531)" class="st3" width="9.5" height="9.5"/>
	
		<rect id="XMLID_546_" x="-146.2" y="96.2" transform="matrix(0.9181 -0.3964 0.3964 0.9181 -51.5853 -47.8109)" class="st1" width="9.5" height="9.5"/>
	
		<rect id="XMLID_545_" x="-135" y="91.3" transform="matrix(0.9181 -0.3964 0.3964 0.9181 -48.7517 -43.7688)" class="st3" width="9.5" height="9.5"/>
	
		<rect id="XMLID_544_" x="-123.8" y="86.5" transform="matrix(0.9181 -0.3964 0.3964 0.9181 -45.9181 -39.7266)" class="st1" width="9.5" height="9.5"/>
	
		<rect id="XMLID_543_" x="-163.3" y="118" transform="matrix(0.9181 -0.3964 0.3964 0.9181 -61.6553 -52.8088)" class="st1" width="9.5" height="9.5"/>
	
		<rect id="XMLID_542_" x="-152.1" y="113.2" transform="matrix(0.9181 -0.3964 0.3964 0.9181 -58.8218 -48.7666)" class="st3" width="9.5" height="9.5"/>
	
		<rect id="XMLID_541_" x="-140.9" y="108.3" transform="matrix(0.9181 -0.3964 0.3964 0.9181 -55.9882 -44.7245)" class="st3" width="9.5" height="9.5"/>
	
		<rect id="XMLID_540_" x="-129.7" y="103.5" transform="matrix(0.9181 -0.3964 0.3964 0.9181 -53.1546 -40.6823)" class="st1" width="9.5" height="9.5"/>
	
		<rect id="XMLID_539_" x="-118.5" y="98.7" transform="matrix(0.9181 -0.3964 0.3964 0.9181 -50.321 -36.6401)" class="st3" width="9.5" height="9.5"/>
	
		<rect id="XMLID_538_" x="-158.1" y="130.2" transform="matrix(0.9181 -0.3964 0.3964 0.9181 -66.0583 -49.7223)" class="st3" width="9.5" height="9.5"/>
	
		<rect id="XMLID_537_" x="-146.9" y="125.4" transform="matrix(0.9181 -0.3964 0.3964 0.9181 -63.2247 -45.6802)" class="st1" width="9.5" height="9.5"/>
	
		<rect id="XMLID_536_" x="-135.7" y="120.5" transform="matrix(0.9181 -0.3964 0.3964 0.9181 -60.3911 -41.638)" class="st1" width="9.5" height="9.5"/>
	
		<rect id="XMLID_535_" x="-124.5" y="115.7" transform="matrix(0.9181 -0.3964 0.3964 0.9181 -57.5575 -37.5959)" class="st3" width="9.5" height="9.5"/>
	
		<rect id="XMLID_534_" x="-113.3" y="110.9" transform="matrix(0.9181 -0.3964 0.3964 0.9181 -54.724 -33.5537)" class="st3" width="9.5" height="9.5"/>
	
		<rect id="XMLID_533_" x="-152.8" y="142.4" transform="matrix(0.9181 -0.3964 0.3964 0.9181 -70.4612 -46.6359)" class="st3" width="9.5" height="9.5"/>
	
		<rect id="XMLID_532_" x="-141.6" y="137.6" transform="matrix(0.9181 -0.3964 0.3964 0.9181 -67.6276 -42.5937)" class="st1" width="9.5" height="9.5"/>
	
		<rect id="XMLID_531_" x="-130.4" y="132.7" transform="matrix(0.9181 -0.3964 0.3964 0.9181 -64.794 -38.5516)" class="st1" width="9.5" height="9.5"/>
	
		<rect id="XMLID_530_" x="-119.2" y="127.9" transform="matrix(0.9181 -0.3964 0.3964 0.9181 -61.9604 -34.5094)" class="st1" width="9.5" height="9.5"/>
	
		<rect id="XMLID_529_" x="-108" y="123.1" transform="matrix(0.9181 -0.3964 0.3964 0.9181 -59.1269 -30.4672)" class="st3" width="9.5" height="9.5"/>
	
		<rect id="XMLID_528_" x="-147.5" y="154.6" transform="matrix(0.9181 -0.3964 0.3964 0.9181 -74.8641 -43.5494)" class="st3" width="9.5" height="9.5"/>
	
		<rect id="XMLID_527_" x="-136.3" y="149.8" transform="matrix(0.9181 -0.3964 0.3964 0.9181 -72.0305 -39.5073)" class="st3" width="9.5" height="9.5"/>
	
		<rect id="XMLID_526_" x="-125.1" y="144.9" transform="matrix(0.9181 -0.3964 0.3964 0.9181 -69.1969 -35.4651)" class="st3" width="9.5" height="9.5"/>
	
		<rect id="XMLID_525_" x="-113.9" y="140.1" transform="matrix(0.9181 -0.3964 0.3964 0.9181 -66.3633 -31.4229)" class="st1" width="9.5" height="9.5"/>
	
		<rect id="XMLID_524_" x="-102.7" y="135.3" transform="matrix(0.9181 -0.3964 0.3964 0.9181 -63.5298 -27.3808)" class="st3" width="9.5" height="9.5"/>
</g>
<g id="XMLID_497_">
	
		<rect id="XMLID_522_" x="-199.5" y="505.7" transform="matrix(0.7157 0.6984 -0.6984 0.7157 301.0984 281.1314)" class="st2" width="9.5" height="9.5"/>
	
		<rect id="XMLID_521_" x="-190.8" y="514.2" transform="matrix(0.7157 0.6984 -0.6984 0.7157 309.5271 277.4565)" class="st2" width="9.5" height="9.5"/>
	
		<rect id="XMLID_520_" x="-182.1" y="522.7" transform="matrix(0.7157 0.6984 -0.6984 0.7157 317.9559 273.7816)" class="st1" width="9.5" height="9.5"/>
	
		<rect id="XMLID_519_" x="-173.4" y="531.2" transform="matrix(0.7157 0.6984 -0.6984 0.7157 326.3846 270.1067)" class="st2" width="9.5" height="9.5"/>
	
		<rect id="XMLID_518_" x="-164.6" y="539.8" transform="matrix(0.7157 0.6984 -0.6984 0.7157 334.8134 266.4318)" class="st1" width="9.5" height="9.5"/>
	
		<rect id="XMLID_517_" x="-208.8" y="515.2" transform="matrix(0.7157 0.6984 -0.6984 0.7157 305.1013 290.3124)" class="st1" width="9.5" height="9.5"/>
	
		<rect id="XMLID_516_" x="-200.1" y="523.7" transform="matrix(0.7157 0.6984 -0.6984 0.7157 313.53 286.6375)" class="st2" width="9.5" height="9.5"/>
	
		<rect id="XMLID_515_" x="-191.4" y="532.2" transform="matrix(0.7157 0.6984 -0.6984 0.7157 321.9588 282.9626)" class="st2" width="9.5" height="9.5"/>
	
		<rect id="XMLID_514_" x="-182.6" y="540.8" transform="matrix(0.7157 0.6984 -0.6984 0.7157 330.3875 279.2877)" class="st1" width="9.5" height="9.5"/>
	
		<rect id="XMLID_513_" x="-173.9" y="549.3" transform="matrix(0.7157 0.6984 -0.6984 0.7157 338.8163 275.6128)" class="st2" width="9.5" height="9.5"/>
	
		<rect id="XMLID_512_" x="-218.1" y="524.7" transform="matrix(0.7157 0.6984 -0.6984 0.7157 309.1041 299.4934)" class="st2" width="9.5" height="9.5"/>
	
		<rect id="XMLID_511_" x="-209.4" y="533.2" transform="matrix(0.7157 0.6984 -0.6984 0.7157 317.5329 295.8185)" class="st1" width="9.5" height="9.5"/>
	
		<rect id="XMLID_510_" x="-200.6" y="541.7" transform="matrix(0.7157 0.6984 -0.6984 0.7157 325.9616 292.1436)" class="st1" width="9.5" height="9.5"/>
	
		<rect id="XMLID_509_" x="-191.9" y="550.3" transform="matrix(0.7157 0.6984 -0.6984 0.7157 334.3904 288.4687)" class="st2" width="9.5" height="9.5"/>
	
		<rect id="XMLID_508_" x="-183.2" y="558.8" transform="matrix(0.7157 0.6984 -0.6984 0.7157 342.8192 284.7938)" class="st2" width="9.5" height="9.5"/>
	
		<rect id="XMLID_507_" x="-227.4" y="534.2" transform="matrix(0.7157 0.6984 -0.6984 0.7157 313.107 308.6744)" class="st2" width="9.5" height="9.5"/>
	
		<rect id="XMLID_506_" x="-218.6" y="542.7" transform="matrix(0.7157 0.6984 -0.6984 0.7157 321.5358 304.9995)" class="st1" width="9.5" height="9.5"/>
	
		<rect id="XMLID_505_" x="-209.9" y="551.3" transform="matrix(0.7157 0.6984 -0.6984 0.7157 329.9645 301.3246)" class="st1" width="9.5" height="9.5"/>
	
		<rect id="XMLID_504_" x="-201.2" y="559.8" transform="matrix(0.7157 0.6984 -0.6984 0.7157 338.3933 297.6497)" class="st1" width="9.5" height="9.5"/>
	
		<rect id="XMLID_503_" x="-192.5" y="568.3" transform="matrix(0.7157 0.6984 -0.6984 0.7157 346.8221 293.9748)" class="st2" width="9.5" height="9.5"/>
	
		<rect id="XMLID_502_" x="-236.6" y="543.7" transform="matrix(0.7157 0.6984 -0.6984 0.7157 317.1099 317.8554)" class="st2" width="9.5" height="9.5"/>
	
		<rect id="XMLID_501_" x="-227.9" y="552.2" transform="matrix(0.7157 0.6984 -0.6984 0.7157 325.5386 314.1805)" class="st2" width="9.5" height="9.5"/>
	
		<rect id="XMLID_500_" x="-219.2" y="560.8" transform="matrix(0.7157 0.6984 -0.6984 0.7157 333.9674 310.5056)" class="st2" width="9.5" height="9.5"/>
	
		<rect id="XMLID_499_" x="-210.5" y="569.3" transform="matrix(0.7157 0.6984 -0.6984 0.7157 342.3961 306.8306)" class="st1" width="9.5" height="9.5"/>
	
		<rect id="XMLID_498_" x="-201.7" y="577.8" transform="matrix(0.7157 0.6984 -0.6984 0.7157 350.8249 303.1557)" class="st2" width="9.5" height="9.5"/>
</g>
<g id="XMLID_487_">
	<path id="XMLID_496_" class="st0" d="M168.7,556.6c0.9,3,0.7,6.3-0.4,9.2c-0.3,0.9,0.1,1.9,1,2.2c0,0,0,0,0,0
		c0.9,0.3,1.8-0.1,2.2-1c1.3-3.6,1.5-7.6,0.4-11.3c-0.3-0.9-1.2-1.4-2.1-1.2C169,554.8,168.4,555.7,168.7,556.6z"/>
	<path id="XMLID_495_" class="st0" d="M141.3,573.6c2,2,4.3,3.4,7,4.3c0.8,0.3,1.6,0.5,2.4,0.6l-4.6-8.3c-1.2,0.3-2.4,0.3-3.6-0.2
		c-0.9-0.3-1.7-0.8-2.4-1.5c-2.5-2.4-2.5-6.5-0.1-9c1.7-1.7,4.3-2.4,6.6-1.6c0.9,0.3,1.7,0.8,2.4,1.5c0.1,0.1,0.3,0.3,0.4,0.4
		l21-9.6c-0.8-1.3-1.7-2.5-2.9-3.6c-2-2-4.3-3.4-7-4.3c-6.8-2.4-14.5-0.5-19.5,4.6c-3.5,3.6-5.4,8.3-5.3,13.3
		C135.8,565.4,137.8,570.1,141.3,573.6z"/>
	<path id="XMLID_494_" class="st0" d="M145.5,561.3c-1.1-0.4-2.3-0.1-3,0.7c-1.1,1.2-1.1,3,0,4.1c0.3,0.3,0.7,0.5,1.1,0.7
		c1.1,0.4,2.3,0.1,3-0.7c1.1-1.1,1.1-3,0-4.1C146.3,561.7,145.9,561.5,145.5,561.3z"/>
	<path id="XMLID_493_" class="st0" d="M129.5,564.2c1.1,0,2.1,0,3.2,0.2c-0.6-3.3-0.5-6.7,0.4-10.1c0.1-0.3,0-0.8,0.1-1.1
		c-3.6-1.3-8-0.3-10.3,3l-2,2.9c2.1,0.1,4.2,0.9,5.8,2C127.7,561.9,128.8,563.1,129.5,564.2z"/>
	<path id="XMLID_492_" class="st0" d="M106.1,576.8l15.5-2.7c3.6-0.6,6-3.6,5.5-6.7c-0.2-1.3-1-2.5-2.2-3.3c-1.5-1-3.4-1.4-5.2-1.1
		l-15.5,2.7c-3.6,0.6-6,3.6-5.5,6.7c0.2,1.3,1,2.5,2.2,3.3C102.3,576.8,104.2,577.2,106.1,576.8z"/>
	<path id="XMLID_491_" class="st0" d="M111.4,592.2c-1.5-1-3.4-1.4-5.3-1.1l-15.5,2.7c-3.6,0.6-6,3.6-5.5,6.7c0.2,1.3,1,2.5,2.2,3.3
		c1.5,1,3.4,1.4,5.3,1.1l15.5-2.7c3.6-0.6,6-3.6,5.5-6.7C113.4,594.2,112.6,593,111.4,592.2z"/>
	<path id="XMLID_490_" class="st0" d="M124.4,610.6l-5.2,7.5c-2.1,3-1.8,6.8,0.8,8.6c2.6,1.8,6.2,0.8,8.3-2.2l7.7-11
		c-3.9,0.2-7.9-0.3-11.3-2.7L124.4,610.6z"/>
	<path id="XMLID_489_" class="st0" d="M152.5,582.2c-3.8-0.3-7.6-1.6-10.8-3.9c-2.7-1.9-4.9-4.3-6.5-7.1c-0.6-1-1-2-1.4-3
		c-1.1-0.3-2.2-0.5-3.2-0.5c0.4,4.6-3.3,8.9-8.4,9.8l-7.5,1.3l-1.5,2.1c-1.6,2.2-2.3,4.8-2.5,7.3c0.9,0.3,1.8,0.7,2.6,1.3
		c1.9,1.4,3.2,3.3,3.6,5.6c0.3,1.8-0.2,3.9-1,5.5c0.2,0.2,0.2,0.6,0.4,0.8l10.1,7.1c6.4,4.5,15.5,2.2,20-4.2l5.1-7.2
		C154.6,592.3,154.9,586.7,152.5,582.2z"/>
	<path id="XMLID_488_" class="st0" d="M174.9,581c-1.5-1-3.4-1.4-5.3-1.1l-9.6,1.7c-1.2,0.3-2.4,0.5-3.7,0.6l-0.1,0
		c1.4,3.6,1.7,7.6,0.6,11.4l14.7-2.6c3.6-0.6,6-3.6,5.5-6.7C176.9,583,176.1,581.8,174.9,581z"/>
</g>
<g id="XMLID_482_">
	<path id="XMLID_486_" class="st2" d="M140.6,810.8c-1.6,14.4-33.6,35.8-47.9,33c-3.3-0.6-9.4-14.2-7.7-11.2
		c5.5,9.8,51.2-18.7,47.9-33C132.1,796.3,141,807.4,140.6,810.8z"/>
	<path id="XMLID_485_" class="st1" d="M149.3,823.5c-1.6,14.4-33.6,35.8-47.9,33c-3.3-0.6-9.4-14.2-7.7-11.2
		c5.5,9.8,51.2-18.7,47.9-33C140.8,809,149.7,820.1,149.3,823.5z"/>
	
		<ellipse id="XMLID_484_" transform="matrix(0.8233 -0.5676 0.5676 0.8233 -442.0173 203.7709)" class="st1" cx="106.3" cy="811.8" rx="29" ry="12"/>
	<path id="XMLID_483_" class="st2" d="M158.2,836.4c-1.6,14.4-33.6,35.8-47.9,33c-3.3-0.6-9.4-14.2-7.7-11.2
		c5.5,9.8,51.2-18.7,47.9-33C149.7,821.9,158.6,833,158.2,836.4z"/>
</g>
<g id="XMLID_456_">
	
		<rect id="XMLID_481_" x="266.1" y="-241.3" transform="matrix(0.7157 0.6984 -0.6984 0.7157 -88.2519 -256.3643)" class="st2" width="9.5" height="9.5"/>
	
		<rect id="XMLID_480_" x="274.8" y="-232.8" transform="matrix(0.7157 0.6984 -0.6984 0.7157 -79.8231 -260.0392)" class="st2" width="9.5" height="9.5"/>
	
		<rect id="XMLID_479_" x="283.5" y="-224.3" transform="matrix(0.7157 0.6984 -0.6984 0.7157 -71.3944 -263.7141)" class="st1" width="9.5" height="9.5"/>
	
		<rect id="XMLID_478_" x="292.2" y="-215.8" transform="matrix(0.7157 0.6984 -0.6984 0.7157 -62.9656 -267.389)" class="st2" width="9.5" height="9.5"/>
	
		<rect id="XMLID_477_" x="301" y="-207.3" transform="matrix(0.7157 0.6984 -0.6984 0.7157 -54.5369 -271.0639)" class="st1" width="9.5" height="9.5"/>
	
		<rect id="XMLID_476_" x="256.8" y="-231.8" transform="matrix(0.7157 0.6984 -0.6984 0.7157 -84.249 -247.1833)" class="st1" width="9.5" height="9.5"/>
	
		<rect id="XMLID_475_" x="265.5" y="-223.3" transform="matrix(0.7157 0.6984 -0.6984 0.7157 -75.8203 -250.8582)" class="st2" width="9.5" height="9.5"/>
	
		<rect id="XMLID_474_" x="274.2" y="-214.8" transform="matrix(0.7157 0.6984 -0.6984 0.7157 -67.3915 -254.5331)" class="st2" width="9.5" height="9.5"/>
	
		<rect id="XMLID_473_" x="283" y="-206.3" transform="matrix(0.7157 0.6984 -0.6984 0.7157 -58.9627 -258.208)" class="st1" width="9.5" height="9.5"/>
	
		<rect id="XMLID_472_" x="291.7" y="-197.8" transform="matrix(0.7157 0.6984 -0.6984 0.7157 -50.534 -261.8829)" class="st2" width="9.5" height="9.5"/>
	
		<rect id="XMLID_471_" x="247.5" y="-222.3" transform="matrix(0.7157 0.6984 -0.6984 0.7157 -80.2461 -238.0023)" class="st2" width="9.5" height="9.5"/>
	
		<rect id="XMLID_470_" x="256.2" y="-213.8" transform="matrix(0.7157 0.6984 -0.6984 0.7157 -71.8174 -241.6772)" class="st1" width="9.5" height="9.5"/>
	
		<rect id="XMLID_469_" x="265" y="-205.3" transform="matrix(0.7157 0.6984 -0.6984 0.7157 -63.3886 -245.3521)" class="st1" width="9.5" height="9.5"/>
	
		<rect id="XMLID_468_" x="273.7" y="-196.8" transform="matrix(0.7157 0.6984 -0.6984 0.7157 -54.9599 -249.0271)" class="st2" width="9.5" height="9.5"/>
	
		<rect id="XMLID_467_" x="282.4" y="-188.3" transform="matrix(0.7157 0.6984 -0.6984 0.7157 -46.5311 -252.702)" class="st2" width="9.5" height="9.5"/>
	
		<rect id="XMLID_466_" x="238.2" y="-212.8" transform="matrix(0.7157 0.6984 -0.6984 0.7157 -76.2433 -228.8213)" class="st2" width="9.5" height="9.5"/>
	
		<rect id="XMLID_465_" x="247" y="-204.3" transform="matrix(0.7157 0.6984 -0.6984 0.7157 -67.8145 -232.4962)" class="st1" width="9.5" height="9.5"/>
	
		<rect id="XMLID_464_" x="255.7" y="-195.8" transform="matrix(0.7157 0.6984 -0.6984 0.7157 -59.3857 -236.1712)" class="st1" width="9.5" height="9.5"/>
	
		<rect id="XMLID_463_" x="264.4" y="-187.3" transform="matrix(0.7157 0.6984 -0.6984 0.7157 -50.957 -239.8461)" class="st1" width="9.5" height="9.5"/>
	
		<rect id="XMLID_462_" x="273.1" y="-178.7" transform="matrix(0.7157 0.6984 -0.6984 0.7157 -42.5282 -243.521)" class="st2" width="9.5" height="9.5"/>
	
		<rect id="XMLID_461_" x="228.9" y="-203.3" transform="matrix(0.7157 0.6984 -0.6984 0.7157 -72.2404 -219.6404)" class="st2" width="9.5" height="9.5"/>
	
		<rect id="XMLID_460_" x="237.7" y="-194.8" transform="matrix(0.7157 0.6984 -0.6984 0.7157 -63.8116 -223.3153)" class="st2" width="9.5" height="9.5"/>
	
		<rect id="XMLID_459_" x="246.4" y="-186.3" transform="matrix(0.7157 0.6984 -0.6984 0.7157 -55.3829 -226.9902)" class="st2" width="9.5" height="9.5"/>
	
		<rect id="XMLID_458_" x="255.1" y="-177.8" transform="matrix(0.7157 0.6984 -0.6984 0.7157 -46.9541 -230.6651)" class="st1" width="9.5" height="9.5"/>
	
		<rect id="XMLID_457_" x="263.9" y="-169.2" transform="matrix(0.7157 0.6984 -0.6984 0.7157 -38.5254 -234.34)" class="st2" width="9.5" height="9.5"/>
</g>
<g id="XMLID_446_">
	
		<ellipse id="XMLID_455_" transform="matrix(0.8868 0.4622 -0.4622 0.8868 194.0679 -16.4947)" class="st1" cx="130.7" cy="387.8" rx="2" ry="3.1"/>
	
		<ellipse id="XMLID_454_" transform="matrix(0.9843 -0.1765 0.1765 0.9843 -65.4597 31.2893)" class="st2" cx="143.2" cy="383.7" rx="32.9" ry="7.6"/>
	<path id="XMLID_453_" class="st1" d="M139.8,364.9c-6.5,1.2-10.9,7.2-9.8,13.4c0.3,1.9,1.2,3.7,2.4,5.1c6.7,0.7,14.8-0.9,20.9-4.1
		c0.5-1.6,0.6-3.4,0.3-5.2C152.5,367.8,146.3,363.7,139.8,364.9z"/>
	<path id="XMLID_452_" class="st2" d="M120.2,393c4.5,6.6,15.1,10,26.6,8c11.7-2.1,20.6-9.2,22.3-17.1c-5.6,2.7-14.5,5.4-24.6,7.3
		C135.1,392.8,126.4,393.4,120.2,393z"/>
	<line id="XMLID_451_" class="st2" x1="139.8" y1="364.7" x2="138.9" y2="359.4"/>
	<circle id="XMLID_450_" class="st2" cx="138.6" cy="358.3" r="0.9"/>
	
		<ellipse id="XMLID_449_" transform="matrix(0.9843 -0.1765 0.1765 0.9843 -66.0433 31.4512)" class="st1" cx="143.8" cy="387" rx="2" ry="3.1"/>
	
		<ellipse id="XMLID_448_" transform="matrix(0.4622 -0.8868 0.8868 0.4622 -255.716 344.2936)" class="st1" cx="156" cy="383" rx="2" ry="3.1"/>
	<path id="XMLID_447_" class="st1" d="M179,425.6l-0.1-0.3c-0.1-0.2-0.3-0.4-0.5-0.5L156.1,398c-2.9,1.2-6,2.1-9.3,2.7
		c-3.4,0.6-6.6,0.8-9.7,0.7l-11.6,32.9c-0.1,0.2-0.2,0.4-0.3,0.6l0,0l0,0c0,0,0,0.2,0,0.3c0.5,2.9,13,3.2,27.8,0.6
		C167.9,433.1,179.5,428.5,179,425.6"/>
</g>
<g id="XMLID_441_">
	<path id="XMLID_445_" class="st2" d="M719.6,102.8c-7.1,12.7-44.9,19.8-56.9,11.7c-2.8-1.9-3.1-16.8-2.8-13.4
		c1.2,11.2,54.4,2.7,56.9-11.7C717.5,86,721.3,99.8,719.6,102.8z"/>
	<path id="XMLID_444_" class="st1" d="M722.7,117.8c-7.1,12.7-44.9,19.8-56.9,11.7c-2.8-1.9-3.1-16.8-2.8-13.4
		c1.2,11.2,54.4,2.7,56.9-11.7C720.6,101.1,724.4,114.9,722.7,117.8z"/>
	
		<ellipse id="XMLID_443_" transform="matrix(0.9794 -0.2019 0.2019 0.9794 -4.057 140.7047)" class="st1" cx="687.7" cy="90.2" rx="29" ry="12"/>
	<path id="XMLID_442_" class="st2" d="M725.9,133.2c-7.1,12.7-44.9,19.8-56.9,11.7c-2.8-1.9-3.1-16.8-2.8-13.4
		c1.2,11.2,54.4,2.7,56.9-11.7C723.7,116.5,727.6,130.2,725.9,133.2z"/>
</g>
<g id="XMLID_415_">
	
		<rect id="XMLID_440_" x="220.2" y="657.6" transform="matrix(0.9181 -0.3964 0.3964 0.9181 -244.1294 143.4206)" class="st3" width="9.5" height="9.5"/>
	
		<rect id="XMLID_439_" x="231.4" y="652.8" transform="matrix(0.9181 -0.3964 0.3964 0.9181 -241.2958 147.4628)" class="st3" width="9.5" height="9.5"/>
	
		<rect id="XMLID_438_" x="242.6" y="647.9" transform="matrix(0.9181 -0.3964 0.3964 0.9181 -238.4622 151.5049)" class="st1" width="9.5" height="9.5"/>
	
		<rect id="XMLID_437_" x="253.8" y="643.1" transform="matrix(0.9181 -0.3964 0.3964 0.9181 -235.6286 155.5471)" class="st3" width="9.5" height="9.5"/>
	
		<rect id="XMLID_436_" x="265" y="638.3" transform="matrix(0.9181 -0.3964 0.3964 0.9181 -232.7951 159.5893)" class="st1" width="9.5" height="9.5"/>
	
		<rect id="XMLID_435_" x="225.4" y="669.8" transform="matrix(0.9181 -0.3964 0.3964 0.9181 -248.5323 146.5071)" class="st1" width="9.5" height="9.5"/>
	
		<rect id="XMLID_434_" x="236.6" y="665" transform="matrix(0.9181 -0.3964 0.3964 0.9181 -245.6987 150.5492)" class="st3" width="9.5" height="9.5"/>
	
		<rect id="XMLID_433_" x="247.8" y="660.1" transform="matrix(0.9181 -0.3964 0.3964 0.9181 -242.8651 154.5914)" class="st3" width="9.5" height="9.5"/>
	
		<rect id="XMLID_432_" x="259" y="655.3" transform="matrix(0.9181 -0.3964 0.3964 0.9181 -240.0315 158.6336)" class="st1" width="9.5" height="9.5"/>
	
		<rect id="XMLID_431_" x="270.2" y="650.5" transform="matrix(0.9181 -0.3964 0.3964 0.9181 -237.198 162.6757)" class="st3" width="9.5" height="9.5"/>
	
		<rect id="XMLID_430_" x="230.7" y="682" transform="matrix(0.9181 -0.3964 0.3964 0.9181 -252.9352 149.5935)" class="st3" width="9.5" height="9.5"/>
	
		<rect id="XMLID_429_" x="241.9" y="677.2" transform="matrix(0.9181 -0.3964 0.3964 0.9181 -250.1016 153.6357)" class="st1" width="9.5" height="9.5"/>
	
		<rect id="XMLID_428_" x="253.1" y="672.3" transform="matrix(0.9181 -0.3964 0.3964 0.9181 -247.268 157.6779)" class="st1" width="9.5" height="9.5"/>
	
		<rect id="XMLID_427_" x="264.3" y="667.5" transform="matrix(0.9181 -0.3964 0.3964 0.9181 -244.4344 161.72)" class="st3" width="9.5" height="9.5"/>
	
		<rect id="XMLID_426_" x="275.5" y="662.7" transform="matrix(0.9181 -0.3964 0.3964 0.9181 -241.6009 165.7622)" class="st3" width="9.5" height="9.5"/>
	
		<rect id="XMLID_425_" x="236" y="694.2" transform="matrix(0.9181 -0.3964 0.3964 0.9181 -257.3381 152.68)" class="st3" width="9.5" height="9.5"/>
	
		<rect id="XMLID_424_" x="247.2" y="689.3" transform="matrix(0.9181 -0.3964 0.3964 0.9181 -254.5045 156.7222)" class="st1" width="9.5" height="9.5"/>
	
		<rect id="XMLID_423_" x="258.4" y="684.5" transform="matrix(0.9181 -0.3964 0.3964 0.9181 -251.6709 160.7643)" class="st1" width="9.5" height="9.5"/>
	
		<rect id="XMLID_422_" x="269.6" y="679.7" transform="matrix(0.9181 -0.3964 0.3964 0.9181 -248.8374 164.8065)" class="st1" width="9.5" height="9.5"/>
	
		<rect id="XMLID_421_" x="280.8" y="674.8" transform="matrix(0.9181 -0.3964 0.3964 0.9181 -246.0038 168.8486)" class="st3" width="9.5" height="9.5"/>
	
		<rect id="XMLID_420_" x="241.2" y="706.4" transform="matrix(0.9181 -0.3964 0.3964 0.9181 -261.741 155.7664)" class="st3" width="9.5" height="9.5"/>
	
		<rect id="XMLID_419_" x="252.4" y="701.5" transform="matrix(0.9181 -0.3964 0.3964 0.9181 -258.9074 159.8086)" class="st3" width="9.5" height="9.5"/>
	
		<rect id="XMLID_418_" x="263.6" y="696.7" transform="matrix(0.9181 -0.3964 0.3964 0.9181 -256.0739 163.8508)" class="st3" width="9.5" height="9.5"/>
	
		<rect id="XMLID_417_" x="274.8" y="691.9" transform="matrix(0.9181 -0.3964 0.3964 0.9181 -253.2403 167.8929)" class="st1" width="9.5" height="9.5"/>
	
		<rect id="XMLID_416_" x="286" y="687" transform="matrix(0.9181 -0.3964 0.3964 0.9181 -250.4067 171.9351)" class="st3" width="9.5" height="9.5"/>
</g>
<g id="XMLID_405_">
	
		<ellipse id="XMLID_414_" transform="matrix(0.9699 0.2435 -0.2435 0.9699 -53.111 29.3642)" class="st1" cx="-145.3" cy="-200.2" rx="2" ry="3.1"/>
	
		<ellipse id="XMLID_413_" transform="matrix(0.9163 -0.4004 0.4004 0.9163 71.7092 -71.0504)" class="st2" cx="-134.2" cy="-207.1" rx="32.9" ry="7.6"/>
	<path id="XMLID_412_" class="st1" d="M-141.8-224.6c-6.1,2.6-8.9,9.5-6.4,15.3c0.8,1.8,2,3.3,3.5,4.4c6.7-0.8,14.2-4.3,19.3-8.9
		c0.1-1.7-0.2-3.5-0.9-5.2C-128.8-224.7-135.8-227.3-141.8-224.6z"/>
	<path id="XMLID_411_" class="st2" d="M-154.3-192.7c5.9,5.4,17,6.2,27.7,1.6c10.9-4.8,17.9-13.7,17.7-21.8
		c-4.8,4-12.8,8.7-22.3,12.8C-139.9-196.3-148.2-193.7-154.3-192.7z"/>
	<line id="XMLID_410_" class="st2" x1="-141.9" y1="-224.8" x2="-144" y2="-229.7"/>
	<circle id="XMLID_409_" class="st2" cx="-144.5" cy="-230.7" r="0.9"/>
	
		<ellipse id="XMLID_408_" transform="matrix(0.9163 -0.4004 0.4004 0.9163 70.5731 -70.2352)" class="st1" cx="-132.8" cy="-204" rx="2" ry="3.1"/>
	
		<ellipse id="XMLID_407_" transform="matrix(0.2435 -0.9699 0.9699 0.2435 112.2433 -277.6533)" class="st1" cx="-121.9" cy="-210.8" rx="2" ry="3.1"/>
	<path id="XMLID_406_" class="st1" d="M-89.6-174.7l-0.1-0.2c-0.1-0.2-0.3-0.3-0.6-0.4l-27.9-20.9c-2.5,1.8-5.3,3.4-8.4,4.8
		c-3.1,1.4-6.2,2.3-9.2,3l-3.6,34.7c-0.1,0.3-0.2,0.4-0.1,0.7l0,0l0,0c0,0,0.1,0.2,0.1,0.3c1.2,2.7,13.4,0.1,27.2-5.9
		S-88.4-172-89.6-174.7"/>
</g>
<g id="XMLID_400_">
	<path id="XMLID_404_" class="st2" d="M1070.5,97.3c-13.3,7.4-50.9-6.8-57.2-20.7c-1.5-3.2,6.4-16.6,4.8-13.4
		c-5,10.6,47,32.2,57.2,20.7C1077.7,81.2,1073.6,95.5,1070.5,97.3z"/>
	<path id="XMLID_403_" class="st1" d="M1065,112.4c-13.3,7.4-50.9-6.8-57.2-20.7c-1.5-3.2,6.4-16.6,4.8-13.4
		c-5,10.6,47,32.2,57.2,20.7C1072.2,96.3,1068.1,110.7,1065,112.4z"/>
	
		<ellipse id="XMLID_402_" transform="matrix(0.9405 0.3399 -0.3399 0.9405 85.7781 -352.426)" class="st1" cx="1048.8" cy="68.6" rx="30.3" ry="12.5"/>
	<path id="XMLID_401_" class="st2" d="M1059.4,127.8c-13.3,7.4-50.9-6.8-57.2-20.7c-1.5-3.2,6.4-16.6,4.8-13.4
		c-5,10.6,47,32.2,57.2,20.7C1066.6,111.7,1062.5,126.1,1059.4,127.8z"/>
</g>
</svg>
