<?xml version="1.0" encoding="utf-8"?>
<!-- Generator: Adobe Illustrator 19.0.0, SVG Export Plug-In . SVG Version: 6.00 Build 0)  -->
<svg version="1.1" id="Слой_1" xmlns="http://www.w3.org/2000/svg" xmlns:xlink="http://www.w3.org/1999/xlink" x="0px" y="0px"
	 viewBox="0 0 1920 400" style="enable-background:new 0 0 1920 400;" xml:space="preserve">
<style type="text/css">
	.st0{opacity:0.5;}
	.st1{fill:#FA951A;}
	.st2{fill:#FFFFFF;}
	.st3{fill:#196099;}
</style>
<g id="XMLID_41_" class="st0">
	<g id="XMLID_115_">
		<path id="XMLID_116_" class="st1" d="M62.3,108.8c4.9-2.1,8.7-5.1,9.9-7.5c-1,0.7-2.3,1.3-3.7,1.9c-4.3,1.8-8,0.9-8,0.9
			s1.8-3.4,6.1-5.2c1.4-0.6,2.7-1.1,4-1.4c-2.6-0.8-7.3-0.1-12.3,2.1c-6.7,2.9-9.1,9.4-9.1,9.4S55.6,111.7,62.3,108.8z"/>
	</g>
	<g id="XMLID_113_">
		<path id="XMLID_114_" class="st2" d="M81.3,89.9c-0.4,1.5-1.9,1.9-3.4,1.3c-3.6-1.5-8.1-1.8-12.5-0.4c-1.8,0.6-2.4,0.1-0.9-1.5
			c3.6-3.4,8.6-5.8,14.2-6.4c2.4-0.2,4.2,1.2,3.7,2.6C82.1,87,81.7,88.5,81.3,89.9z"/>
	</g>
	<path id="XMLID_110_" class="st3" d="M79.6,92.3c-0.6,0.1-1.3,0-2-0.3c-2.8-1.1-5.9-1.5-9-1.1c-1,0.1-2,0.4-2.9,0.6
		c-0.4,0.1-0.7,0.2-1,0.3c-1.1,0.2-1.5-0.3-1.7-0.7c-0.4-0.9,0.4-1.8,1-2.5c3.9-3.7,9.2-6.1,14.7-6.6c1.7-0.2,3.3,0.4,4.1,1.4
		c0.6,0.7,0.7,1.5,0.5,2.3l-1.2,4.4C81.7,91.4,80.8,92.2,79.6,92.3z M68.3,89.3c3.4-0.5,6.8-0.1,9.9,1.2c0.4,0.2,0.8,0.2,1.2,0.2
		c0.5-0.1,0.9-0.4,1.1-1l1.2-4.4c0.1-0.2,0-0.5-0.2-0.7c-0.4-0.4-1.3-0.9-2.6-0.8c-0.3,0-0.6,0.1-0.9,0.1c-4.8,0.7-9.4,2.8-12.7,6.1
		c0,0,0,0-0.1,0.1c0,0,0,0,0.1,0l0,0C66.2,89.7,67.3,89.4,68.3,89.3z"/>
	<g id="XMLID_108_">
		<path id="XMLID_109_" class="st2" d="M84.9,98.4c-1.4-0.6-2.7,0.2-3.2,1.8c-1.2,3.7-3.7,7.4-7.6,9.9c-1.7,1-1.6,1.8,0.6,1.6
			c5-0.6,10-2.9,14-6.9c1.7-1.7,1.7-4,0.3-4.5C87.7,99.6,86.3,99,84.9,98.4z"/>
	</g>
	<path id="XMLID_105_" class="st3" d="M75.2,112.5L75.2,112.5c-0.1,0-0.3,0-0.4,0.1c-0.6,0.1-2.2,0.2-2.6-0.9c-0.4-1.1,1-2,1.5-2.3
		c3.5-2.3,6.1-5.7,7.3-9.5c0.4-1.4,1.4-2.3,2.7-2.5c0.5-0.1,1.1,0,1.6,0.2l0,0l4.1,1.9c0.8,0.3,1.3,1,1.5,1.8
		c0.3,1.3-0.3,2.9-1.5,4.1C85.4,109.2,80.4,111.8,75.2,112.5z M74.6,110.8C74.6,110.8,74.6,110.8,74.6,110.8c0.2,0,0.3,0,0.4-0.1
		c4.8-0.7,9.5-3,13.1-6.6c1-1,1.2-2,1.1-2.5c-0.1-0.3-0.2-0.5-0.5-0.6l0,0l-4.1-1.9c-0.3-0.1-0.5-0.1-0.7-0.1
		c-0.6,0.1-1,0.6-1.3,1.3C81.3,104.6,78.4,108.3,74.6,110.8L74.6,110.8C74.6,110.8,74.6,110.8,74.6,110.8z"/>
	<path id="XMLID_104_" class="st2" d="M120.9,71.6c0.1-0.3,0.1-0.5,0-0.8c-0.2-1.4-1.5-2.5-2.9-2.3c-3,0.3-6-0.3-8.6-1.7
		c-1.3-0.7-2.9-0.3-3.6,1c-0.7,1.3-0.3,2.9,1,3.6c3.6,2,7.7,2.9,11.8,2.4C119.8,73.6,120.7,72.7,120.9,71.6z"/>
	<path id="XMLID_101_" class="st3" d="M118.8,74.6L118.8,74.6L118.8,74.6c-4.4,0.5-8.7-0.4-12.4-2.5c-1.7-0.9-2.3-3.1-1.3-4.8
		c0.5-1,1.5-1.6,2.6-1.7c0.8-0.1,1.5,0,2.2,0.4c2.5,1.4,5.3,2,8.1,1.6c1.9-0.2,3.6,1.2,3.9,3.1c0,0.4,0,0.7,0,1.1
		C121.5,73.3,120.3,74.4,118.8,74.6z M107.8,67.3c-0.6,0.1-1,0.4-1.3,0.9c-0.5,0.9-0.2,1.9,0.7,2.4c3.5,2,7.4,2.7,11.3,2.3l0,0
		c0.7-0.1,1.4-0.7,1.5-1.4c0-0.2,0-0.4,0-0.6c-0.1-1-1-1.7-2-1.6c-3.2,0.4-6.4-0.3-9.2-1.9C108.6,67.3,108.2,67.2,107.8,67.3z"/>
	<path id="XMLID_100_" class="st2" d="M140.5,72.3c0,0-8.5,15.2-27.8,22.6c-19.2,7.4-36.6,8.7-38.8,2.9C71.7,92,85.5,81.3,104.7,74
		C123.9,66.6,140.5,72.3,140.5,72.3z"/>
	<path id="XMLID_97_" class="st3" d="M90.7,101.7c-10,1.4-16.2,0.1-17.7-3.6c-1.2-3.2,1.4-7.5,7.7-12.3c5.9-4.5,14.3-9,23.7-12.6
		c4.1-1.6,8.4-2.7,12.7-3.3c13.4-1.9,23.2,1.4,23.6,1.5l1,0.3l-0.5,0.9c-0.1,0.2-2.2,4-6.8,8.7c-4.2,4.4-11.3,10.4-21.4,14.3
		C105.2,98.6,97.5,100.7,90.7,101.7z M117.4,71.6c-4.2,0.6-8.4,1.7-12.4,3.2c-9.2,3.5-17.5,7.9-23.2,12.4c-5.3,4.1-8,8-7.1,10.3
		c1.1,2.8,7.1,3.7,15.8,2.5c6.6-0.9,14.2-3,21.9-5.9c16-6.1,24.6-17.9,26.7-21.3C136.3,72,127.9,70.1,117.4,71.6z"/>
	<g id="XMLID_95_">
		<path id="XMLID_96_" class="st3" d="M118,72.8c0.8,2-4.6,5.9-11.9,8.7c-7.3,2.8-13.9,3.5-14.6,1.5c-0.8-2,4.6-5.9,11.9-8.7
			C110.6,71.5,117.2,70.8,118,72.8z"/>
	</g>
	<path id="XMLID_94_" class="st2" d="M93.4,80.9c1.2,3.1,19.4-3.9,18.2-7l-1.2-3.2c-1.2-3.1-5.1-4.5-8.7-3.1l-5.1,2
		c-3.6,1.4-5.6,5.1-4.4,8.2L93.4,80.9z"/>
	<path id="XMLID_90_" class="st3" d="M97,82.4L97,82.4c-0.9,0.1-3.7,0.5-4.4-1.2L91.4,78c-1.4-3.6,0.8-7.7,4.9-9.3l5.1-2
		c0.6-0.2,1.3-0.4,2-0.5c3.5-0.5,6.8,1.2,7.9,4.1l1.2,3.2c0.1,0.4,0.2,1-0.2,1.7C110.5,78.2,101.6,81.7,97,82.4z M103.6,68
		c-0.5,0.1-1.1,0.2-1.6,0.4l-5.1,2c-3.2,1.2-4.9,4.4-3.9,7.1l1.2,3.2c0,0,0.4,0.4,2.6,0.1c2.5-0.4,6.2-1.5,9.3-3
		c4-1.9,4.8-3.2,4.8-3.5l-1.2-3.1C108.8,68.9,106.3,67.6,103.6,68z"/>
	<circle id="XMLID_88_" class="st2" cx="97.1" cy="60.3" r="10.3"/>
	<path id="XMLID_81_" class="st3" d="M98.6,71.3c-2.1,0.3-4.1,0-6.1-0.9c-2.7-1.2-4.8-3.4-5.8-6.2c-1.1-2.8-1-5.8,0.2-8.5
		c1.6-3.5,4.8-5.9,8.6-6.5c2.1-0.3,4.1,0,6.1,0.9c2.7,1.2,4.8,3.4,5.8,6.2c1.1,2.8,1,5.8-0.2,8.5C105.7,68.4,102.5,70.8,98.6,71.3z
		 M95.8,51c-3.2,0.5-6,2.5-7.3,5.5c-1,2.3-1.1,4.8-0.2,7.2c0.9,2.3,2.7,4.2,4.9,5.2c1.6,0.7,3.4,1,5.1,0.7c3.2-0.5,6-2.5,7.3-5.5
		c1-2.3,1.1-4.8,0.2-7.2c-0.9-2.3-2.7-4.2-4.9-5.2C99.3,51,97.6,50.8,95.8,51z"/>
	<g id="XMLID_76_">
		<path id="XMLID_80_" class="st3" d="M103.6,52.4L91.9,63.9l7.5,6.4c3-0.7,5.7-2.8,7.1-5.8C108.4,60.2,107.1,55.2,103.6,52.4z"/>
	</g>
	<circle id="XMLID_75_" class="st2" cx="93.2" cy="63.9" r="2.3"/>
	<path id="XMLID_70_" class="st3" d="M93.6,67.1c-0.6,0.1-1.2,0-1.7-0.2c-1.6-0.7-2.3-2.6-1.6-4.2c0.5-1,1.4-1.7,2.5-1.9
		c0.6-0.1,1.2,0,1.7,0.2c1.6,0.7,2.3,2.6,1.6,4.2C95.6,66.2,94.7,66.9,93.6,67.1z M93,62.5c-0.5,0.1-0.9,0.4-1.1,0.9
		c-0.3,0.7,0,1.6,0.7,1.9c0.3,0.1,0.5,0.2,0.8,0.1c0.5-0.1,0.9-0.4,1.1-0.9c0.3-0.7,0-1.6-0.7-1.9C93.5,62.5,93.2,62.4,93,62.5z"/>
	<g id="XMLID_64_">
		<path id="XMLID_69_" class="st2" d="M105.5,60.6c0-1.8-0.6-3.5-1.6-4.9"/>
		<path id="XMLID_66_" class="st2" d="M105.6,61.5c0,0-0.1,0-0.1,0c-0.5,0-0.9-0.4-0.9-0.9c0-1.6-0.5-3.1-1.4-4.4
			c-0.3-0.4-0.2-0.9,0.2-1.2c0.4-0.3,0.9-0.2,1.2,0.2c1.1,1.6,1.8,3.5,1.8,5.4C106.4,61.1,106,61.4,105.6,61.5z"/>
	</g>
	<path id="XMLID_63_" class="st2" d="M92.1,84.5c-3.6,0.5-5.4-2.1-4.1-5.8l1.7-4.3c2.1-5.8,6.9-2.6,6.2,0c-0.4,1.4-1,3.3-1,3.3
		s3.8-0.4,5-0.6c3.5-0.6,5.1,5.7-1.3,6.6L92.1,84.5z"/>
	<path id="XMLID_62_" class="st3" d="M98.8,84.5l-6.5,0.9c-2,0.3-3.7-0.3-4.6-1.7c-1-1.4-1.1-3.3-0.4-5.3l0,0L89,74
		c1.1-3,2.7-3.6,3.7-3.8c1.2-0.2,2.6,0.4,3.4,1.5c0.7,0.9,0.9,1.9,0.7,2.9c-0.2,0.7-0.4,1.4-0.6,2c0.8-0.1,1.9-0.2,2.7-0.3
		c0.4-0.1,0.7-0.1,1-0.1c0,0,0.1,0,0.1,0c2.1-0.3,3.6,1.4,3.8,3.1c0.2,1.2-0.2,2.4-1,3.3C101.9,83.6,100.5,84.2,98.8,84.5z"/>
	<path id="XMLID_59_" class="st2" d="M88.7,79c-0.5,1.5-0.5,2.8,0.1,3.6c0.6,0.8,1.7,1.2,3.2,1l6.5-0.9c1.4-0.2,2.5-0.7,3.1-1.4
		c0.5-0.5,0.7-1.2,0.6-1.8c-0.1-1-0.9-1.8-2.1-1.6c-0.2,0-0.6,0.1-1,0.2c-1.6,0.2-4,0.5-4,0.5l-1.3,0.1l0.4-1.3c0,0,0.6-1.9,1-3.2
		c0.1-0.4,0-0.8-0.4-1.3c-0.5-0.6-1.3-1-2-0.9c-1,0.1-1.9,1.1-2.4,2.7l0,0L88.7,79z"/>
	<g id="XMLID_47_">
		<path id="XMLID_58_" class="st1" d="M116.5,51.3c3,4.7,2.8,2.9,1.2,8.3c4.7-3,2.9-2.8,8.3-1.2c-3-4.7-2.8-2.9-1.1-8.3
			C120.1,53.1,121.9,52.9,116.5,51.3z"/>
		<path id="XMLID_57_" class="st1" d="M122.6,43.3c1.6,2.5,1.5,1.6,0.6,4.4c2.5-1.6,1.6-1.5,4.4-0.6c-1.6-2.5-1.5-1.6-0.6-4.4
			C124.5,44.3,125.4,44.2,122.6,43.3z"/>
		<path id="XMLID_54_" class="st1" d="M132.9,50.2c-2.5,1.6-1.6,1.5-4.4,0.6c1.6,2.5,1.5,1.6,0.6,4.4c2.5-1.6,1.6-1.5,4.4-0.6
			C131.9,52.1,132,53,132.9,50.2z"/>
	</g>
</g>
</svg>
