<?xml version="1.0" encoding="utf-8"?>
<!-- Generator: Adobe Illustrator 19.0.0, SVG Export Plug-In . SVG Version: 6.00 Build 0)  -->
<svg version="1.1" id="Слой_1" xmlns="http://www.w3.org/2000/svg" xmlns:xlink="http://www.w3.org/1999/xlink" x="0px" y="0px"
	 viewBox="0 0 1920 1080" style="enable-background:new 0 0 1920 1080;" xml:space="preserve">
<style type="text/css">
	.st0{fill:#F9B9B9;stroke:#D62222;stroke-width:10;stroke-miterlimit:10;}
	.st1{opacity:0.3;fill:#F9B9B9;stroke:#D62222;stroke-width:3;stroke-miterlimit:10;}
	.st2{opacity:0.3;fill:none;stroke:#D62222;stroke-width:3;stroke-miterlimit:10;}
	.st3{font-family:'UniSansHeavyCAPS';}
	.st4{font-size:44.8726px;}
	.st5{font-size:38.6547px;}
</style>
<g id="XMLID_18_">
	<path id="XMLID_22_" class="st0" d="M-435.9,154h183.6c0,61.2,0,122.4,0,183.6c-61.2,0-122.4,0-183.6,0V154L-435.9,154z"/>
	<path id="XMLID_21_" class="st0" d="M-233.6,154H-50c0,61.2,0,122.4,0,183.6c-61.2,0-122.4,0-183.6,0
		C-233.6,276.5-233.6,215.2-233.6,154L-233.6,154z"/>
	<path id="XMLID_20_" class="st0" d="M-435.9,356.4c61.2,0,122.4,0,183.6,0c0,61.2,0,122.4,0,183.6h-183.6V356.4L-435.9,356.4z"/>
	<path id="XMLID_19_" class="st0" d="M-233.6,356.4c61.2,0,122.4,0,183.6,0c0,61.2,0,122.4,0,183.6h-183.6
		C-233.6,478.8-233.6,417.6-233.6,356.4L-233.6,356.4z"/>
</g>
<path id="XMLID_45_" class="st1" d="M298.6,339.7c-23.1-3.4-47.4-1.7-71.2,6.1l56.7,171.4L298.6,339.7z"/>
<path id="XMLID_2_" class="st2" d="M302.6,370.7l-14.4,177.5l-56.7-171.4c-0.1,0-0.3,0.1-0.5,0.1c-81.7,27-126,115.1-98.9,196.8
	c21.4,64.6,81,105.8,145.3,106.8c17,0.3,34.4-2.2,51.5-7.9c0.1,0,0.3-0.1,0.4-0.2c81.4-27.2,125.5-115.1,98.5-196.7
	C408.7,418.1,359,379,302.6,370.7z"/>
<text id="XMLID_42_" transform="matrix(0.9494 -0.3142 0.3142 0.9494 252.0416 615.4818)" class="st2 st3 st4">5 min</text>
<text id="XMLID_117_" transform="matrix(0.9494 -0.3142 0.3142 0.9494 265.6815 649.504)" class="st2 st3 st5">to go</text>
<circle id="XMLID_10_" class="st1" cx="1636.6" cy="182.6" r="46"/>
<line id="XMLID_8_" class="st2" x1="1592.7" y1="168.6" x2="1455.7" y2="157.6"/>
<circle id="XMLID_4_" class="st1" cx="1421.7" cy="151.3" r="33.7"/>
<line id="XMLID_13_" class="st2" x1="1423.6" y1="185" x2="1466.1" y2="271.6"/>
<circle id="XMLID_7_" class="st2" cx="1490.7" cy="300.6" r="38"/>
<path id="XMLID_5_" class="st1" d="M1653.9,833.8c-21.7-19.7-18.1-11.2-17.2-40.5c-19.8,21.7-11.2,18.1-40.5,17.2
	c21.7,19.7,18.1,11.2,17.2,40.5C1633.2,829.3,1624.6,832.9,1653.9,833.8z"/>
<path id="XMLID_1_" class="st2" d="M1607.1,904c-11.6-10.6-9.7-6-9.2-21.7c-10.6,11.6-6,9.7-21.7,9.2c11.6,10.6,9.7,6,9.2,21.7
	C1596,901.6,1591.4,903.5,1607.1,904z"/>
<path id="XMLID_3_" class="st2" d="M1561.2,861.6c10.6-11.6,6-9.7,21.7-9.2c-11.6-10.6-9.7-6-9.2-21.7c-10.6,11.6-6,9.7-21.7,9.2
	C1563.6,850.5,1561.6,845.9,1561.2,861.6z"/>
</svg>
