<?xml version="1.0" encoding="utf-8"?>
<!-- Generator: Adobe Illustrator 19.0.0, SVG Export Plug-In . SVG Version: 6.00 Build 0)  -->
<svg version="1.1" id="Слой_1" xmlns="http://www.w3.org/2000/svg" xmlns:xlink="http://www.w3.org/1999/xlink" x="0px" y="0px"
	 viewBox="0 0 1920 300" style="enable-background:new 0 0 1920 300;" xml:space="preserve">
<style type="text/css">
	.st0{opacity:0.5;fill:#999999;}
	.st1{fill:#CCCCCC;}
	.st2{fill:none;stroke:#CCCCCC;stroke-width:2;stroke-miterlimit:10;}
	.st3{fill:none;stroke:#CCCCCC;stroke-miterlimit:10;}
	.st4{opacity:0.5;}
</style>
<path id="XMLID_27_" class="st0" d="M450.2,21.5c3,0.8,5.8,2.5,7.8,4.9c0.6,0.7,1.7,0.8,2.4,0.2c0,0,0,0,0,0
	c0.7-0.6,0.8-1.7,0.2-2.4c-2.5-3-5.9-5.1-9.6-6.1c-0.9-0.2-1.8,0.3-2.1,1.2C448.7,20.3,449.3,21.3,450.2,21.5z"/>
<path id="XMLID_17_" class="st0" d="M585.7-480.6c2.3,2.2,3.8,5,4.4,8.1c0.2,0.9,1.1,1.5,2,1.4c0,0,0,0,0,0c0.9-0.2,1.5-1.1,1.3-2
	c-0.7-3.8-2.6-7.3-5.4-10c-0.7-0.6-1.8-0.6-2.4,0.1C585-482.4,585-481.3,585.7-480.6z"/>
<path id="XMLID_16_" class="st0" d="M570.7-452.1c2.7,0.7,5.5,0.7,8.2,0.2c0.8-0.2,1.6-0.4,2.4-0.7l-8.2-4.8
	c-0.9,0.8-1.9,1.4-3.2,1.7c-0.9,0.2-1.8,0.2-2.8-0.1c-3.4-0.8-5.5-4.3-4.7-7.7c0.6-2.4,2.5-4.2,4.9-4.7c0.9-0.2,1.9-0.2,2.8,0.1
	c0.2,0,0.4,0.1,0.5,0.2l13.2-19c-1.3-0.7-2.8-1.3-4.3-1.7c-2.7-0.7-5.5-0.7-8.2-0.2c-7.1,1.5-12.8,6.9-14.5,13.9
	c-1.2,4.9-0.4,9.9,2.2,14.2C561.8-456.3,565.9-453.3,570.7-452.1z"/>
<path id="XMLID_7_" class="st0" d="M568.1-464.8c-1.1,0.2-2,1.1-2.3,2.2c-0.4,1.6,0.6,3.2,2.1,3.5c0.4,0.1,0.9,0.1,1.3,0
	c1.1-0.2,2-1.1,2.3-2.2c0.4-1.6-0.6-3.1-2.1-3.5C569-464.9,568.5-464.9,568.1-464.8z"/>
<path id="XMLID_6_" class="st0" d="M555.8-454.2c0.9-0.6,1.9-1.1,2.9-1.5c-2.2-2.5-3.9-5.5-4.8-8.9c-0.1-0.3-0.4-0.7-0.5-1
	c-3.8,0.7-7.1,3.8-7.4,7.8l-0.3,3.5c1.8-1,4.1-1.4,6-1.3C553.1-455.2,554.6-454.8,555.8-454.2z"/>
<path id="XMLID_5_" class="st0" d="M542-431.4l12-10.2c2.8-2.4,3.3-6.2,1.3-8.6c-0.9-1-2.2-1.6-3.6-1.8c-1.8-0.1-3.6,0.5-5.1,1.7
	l-12,10.2c-2.8,2.4-3.3,6.2-1.3,8.6c0.9,1,2.2,1.6,3.6,1.8C538.8-429.5,540.6-430.1,542-431.4z"/>
<path id="XMLID_4_" class="st0" d="M554.4-420.9c-1.8-0.1-3.6,0.5-5.1,1.7l-11.9,10.2c-2.8,2.4-3.3,6.2-1.3,8.6
	c0.9,1,2.2,1.6,3.6,1.8c1.8,0.1,3.6-0.5,5.1-1.7l12-10.2c2.8-2.4,3.3-6.2,1.3-8.6C557.2-420.1,555.9-420.8,554.4-420.9z"/>
<path id="XMLID_3_" class="st0" d="M575.1-411.6l-0.7,9.1c-0.3,3.6,1.9,6.7,5,7c3.1,0.2,5.8-2.5,6-6.1l1-13.4
	c-3.3,2.2-7,3.8-11.1,3.4L575.1-411.6z"/>
<path id="XMLID_2_" class="st0" d="M584.7-450.4c-3.5,1.7-7.3,2.5-11.3,2.2c-3.3-0.3-6.4-1.2-9.2-2.8c-1-0.6-1.9-1.2-2.8-1.9
	c-1.1,0.3-2.1,0.7-3.1,1.2c2.7,3.8,1.7,9.3-2.2,12.7l-5.8,4.9l-0.2,2.5c-0.2,2.7,0.4,5.3,1.6,7.5c0.9-0.2,1.9-0.3,2.9-0.2
	c2.4,0.2,4.5,1.2,5.9,2.9c1.2,1.4,1.8,3.5,2,5.2c0.2,0,0.5,0.4,0.7,0.5l12.3,0.9c7.8,0.6,14.4-6,15-13.8l0.7-8.8
	C591.7-442.7,589.1-447.7,584.7-450.4z"/>
<path id="XMLID_1_" class="st0" d="M603.4-462.8c-1.8-0.1-3.6,0.5-5.1,1.7l-7.4,6.3c-0.9,0.9-1.8,1.7-2.8,2.4l-0.1,0
	c3.1,2.4,5.3,5.7,6.3,9.5l11.3-9.7c2.8-2.4,3.3-6.2,1.3-8.6C606.2-462.1,604.9-462.7,603.4-462.8z"/>
<path id="XMLID_26_" class="st0" d="M1195.9-118c3-0.8,6.3-0.7,9.2,0.5c0.9,0.3,1.9-0.1,2.2-1c0,0,0,0,0,0c0.3-0.9-0.1-1.8-1-2.2
	c-3.6-1.4-7.6-1.6-11.3-0.6c-0.9,0.2-1.4,1.2-1.2,2.1C1194-118.2,1195-117.7,1195.9-118z"/>
<path id="XMLID_25_" class="st0" d="M1212.5-90.4c2-2,3.5-4.3,4.4-6.9c0.3-0.8,0.5-1.6,0.7-2.4l-8.3,4.5c0.3,1.2,0.2,2.4-0.2,3.6
	c-0.3,0.9-0.8,1.7-1.5,2.3c-2.5,2.5-6.5,2.5-9,0c-1.7-1.7-2.3-4.3-1.5-6.6c0.3-0.9,0.8-1.7,1.5-2.3c0.1-0.1,0.3-0.3,0.4-0.4
	l-9.4-21.2c-1.3,0.8-2.5,1.7-3.7,2.8c-2,2-3.5,4.3-4.4,6.9c-2.4,6.8-0.7,14.5,4.4,19.6c3.5,3.5,8.2,5.5,13.3,5.5
	C1204.2-84.9,1208.9-86.9,1212.5-90.4z"/>
<path id="XMLID_24_" class="st0" d="M1200.3-94.7c-0.4,1.1-0.1,2.3,0.7,3.1c1.1,1.1,3,1.1,4.1,0c0.3-0.3,0.5-0.7,0.7-1.1
	c0.4-1.1,0.1-2.3-0.7-3.1c-1.1-1.1-3-1.1-4.1,0C1200.7-95.5,1200.5-95.1,1200.3-94.7z"/>
<path id="XMLID_23_" class="st0" d="M1203-78.7c0-1.1,0.1-2.1,0.2-3.2c-3.3,0.6-6.7,0.5-10.1-0.5c-0.3-0.1-0.8,0-1.1-0.1
	c-1.4,3.6-0.4,8,2.8,10.4l2.9,2.1c0.1-2,0.9-4.2,2-5.8C1200.6-76.9,1201.8-78,1203-78.7z"/>
<path id="XMLID_22_" class="st0" d="M1215.3-55.1l-2.5-15.5c-0.6-3.6-3.6-6.1-6.6-5.6c-1.3,0.2-2.5,1-3.4,2.2
	c-1,1.4-1.5,3.4-1.2,5.2l2.5,15.5c0.6,3.6,3.6,6.1,6.6,5.6c1.3-0.2,2.5-1,3.4-2.2C1215.2-51.3,1215.6-53.2,1215.3-55.1z"/>
<path id="XMLID_21_" class="st0" d="M1230.7-60.2c-1,1.4-1.5,3.4-1.2,5.2l2.5,15.5c0.6,3.6,3.6,6.1,6.6,5.6c1.3-0.2,2.5-1,3.4-2.2
	c1-1.4,1.5-3.4,1.2-5.2l-2.5-15.5c-0.6-3.6-3.6-6.1-6.6-5.6C1232.7-62.2,1231.5-61.4,1230.7-60.2z"/>
<path id="XMLID_20_" class="st0" d="M1249.3-73l7.4,5.3c2.9,2.1,6.8,1.9,8.6-0.7c1.8-2.5,0.8-6.2-2.1-8.3l-10.9-7.8
	c0.1,3.9-0.4,7.9-2.8,11.3L1249.3-73z"/>
<path id="XMLID_19_" class="st0" d="M1221.2-101.4c-0.4,3.8-1.7,7.5-4,10.8c-1.9,2.7-4.3,4.8-7.2,6.4c-1,0.5-2,1-3,1.4
	c-0.3,1.1-0.5,2.1-0.6,3.2c4.6-0.3,8.9,3.4,9.7,8.5l1.2,7.5l2.1,1.5c2.2,1.6,4.7,2.4,7.2,2.6c0.3-0.9,0.8-1.8,1.3-2.6
	c1.4-1.9,3.4-3.2,5.6-3.6c1.8-0.3,3.9,0.2,5.5,1c0.2-0.2,0.6-0.2,0.8-0.4l7.2-10c4.6-6.3,2.4-15.4-4-20l-7.2-5.2
	C1231.4-103.4,1225.8-103.7,1221.2-101.4z"/>
<path id="XMLID_18_" class="st0" d="M1220.3-123.9c-1,1.4-1.5,3.4-1.2,5.2l1.6,9.6c0.3,1.2,0.5,2.5,0.6,3.7l0,0.1
	c3.6-1.4,7.6-1.6,11.4-0.5l-2.4-14.7c-0.6-3.6-3.6-6.1-6.6-5.6C1222.4-125.8,1221.2-125.1,1220.3-123.9z"/>
<g id="XMLID_252_">
	<path id="XMLID_45_" class="st0" d="M886.7-280.6c2.3,2.2,3.8,5,4.4,8.1c0.2,0.9,1.1,1.5,2,1.4c0,0,0,0,0,0c0.9-0.2,1.5-1.1,1.3-2
		c-0.7-3.8-2.6-7.3-5.4-10c-0.7-0.6-1.8-0.6-2.4,0.1C886-282.4,886-281.3,886.7-280.6z"/>
	<path id="XMLID_44_" class="st0" d="M871.7-252.1c2.7,0.7,5.5,0.7,8.2,0.2c0.8-0.2,1.6-0.4,2.4-0.7l-8.2-4.8
		c-0.9,0.8-1.9,1.4-3.2,1.7c-0.9,0.2-1.8,0.2-2.8-0.1c-3.4-0.8-5.5-4.3-4.7-7.7c0.6-2.4,2.5-4.2,4.9-4.7c0.9-0.2,1.9-0.2,2.8,0.1
		c0.2,0,0.4,0.1,0.5,0.2l13.2-19c-1.3-0.7-2.8-1.3-4.3-1.7c-2.7-0.7-5.5-0.7-8.2-0.2c-7.1,1.5-12.8,6.9-14.5,13.9
		c-1.2,4.9-0.4,9.9,2.2,14.2C862.8-256.3,866.9-253.3,871.7-252.1z"/>
	<path id="XMLID_43_" class="st0" d="M869.1-264.8c-1.1,0.2-2,1.1-2.3,2.2c-0.4,1.6,0.6,3.2,2.1,3.5c0.4,0.1,0.9,0.1,1.3,0
		c1.1-0.2,2-1.1,2.3-2.2c0.4-1.6-0.6-3.1-2.1-3.5C870-264.9,869.5-264.9,869.1-264.8z"/>
	<path id="XMLID_42_" class="st0" d="M856.8-254.2c0.9-0.6,1.9-1.1,2.9-1.5c-2.2-2.5-3.9-5.5-4.8-8.9c-0.1-0.3-0.4-0.7-0.5-1
		c-3.8,0.7-7.1,3.8-7.4,7.8l-0.3,3.5c1.8-1,4.1-1.4,6-1.3C854.1-255.2,855.6-254.8,856.8-254.2z"/>
	<path id="XMLID_41_" class="st0" d="M843-231.4l12-10.2c2.8-2.4,3.3-6.2,1.3-8.6c-0.9-1-2.2-1.6-3.6-1.8c-1.8-0.1-3.6,0.5-5.1,1.7
		l-12,10.2c-2.8,2.4-3.3,6.2-1.3,8.6c0.9,1,2.2,1.6,3.6,1.8C839.8-229.5,841.6-230.1,843-231.4z"/>
	<path id="XMLID_40_" class="st0" d="M855.4-220.9c-1.8-0.1-3.6,0.5-5.1,1.7l-11.9,10.2c-2.8,2.4-3.3,6.2-1.3,8.6
		c0.9,1,2.2,1.6,3.6,1.8c1.8,0.1,3.6-0.5,5.1-1.7l12-10.2c2.8-2.4,3.3-6.2,1.3-8.6C858.2-220.1,856.9-220.8,855.4-220.9z"/>
	<path id="XMLID_39_" class="st0" d="M876.1-211.6l-0.7,9.1c-0.3,3.6,1.9,6.7,5,7c3.1,0.2,5.8-2.5,6-6.1l1-13.4
		c-3.3,2.2-7,3.8-11.1,3.4L876.1-211.6z"/>
	<path id="XMLID_38_" class="st0" d="M885.7-250.4c-3.5,1.7-7.3,2.5-11.3,2.2c-3.3-0.3-6.4-1.2-9.2-2.8c-1-0.6-1.9-1.2-2.8-1.9
		c-1.1,0.3-2.1,0.7-3.1,1.2c2.7,3.8,1.7,9.3-2.2,12.7l-5.8,4.9l-0.2,2.5c-0.2,2.7,0.4,5.3,1.6,7.5c0.9-0.2,1.9-0.3,2.9-0.2
		c2.4,0.2,4.5,1.2,5.9,2.9c1.2,1.4,1.8,3.5,2,5.2c0.2,0,0.5,0.4,0.7,0.5l12.3,0.9c7.8,0.6,14.4-6,15-13.8l0.7-8.8
		C892.7-242.7,890.1-247.7,885.7-250.4z"/>
	<path id="XMLID_37_" class="st0" d="M904.4-262.8c-1.8-0.1-3.6,0.5-5.1,1.7l-7.4,6.3c-0.9,0.9-1.8,1.7-2.8,2.4l-0.1,0
		c3.1,2.4,5.3,5.7,6.3,9.5l11.3-9.7c2.8-2.4,3.3-6.2,1.3-8.6C907.2-262.1,905.9-262.7,904.4-262.8z"/>
</g>
<g id="XMLID_384_">
	<path id="XMLID_54_" class="st0" d="M1703.4-322.5c3,0.8,5.8,2.6,7.8,5c0.6,0.7,1.7,0.8,2.4,0.2c0,0,0,0,0,0
		c0.7-0.6,0.8-1.7,0.2-2.4c-2.4-3-5.8-5.1-9.6-6.1c-0.9-0.2-1.8,0.3-2.1,1.2C1701.9-323.7,1702.5-322.8,1703.4-322.5z"/>
	<path id="XMLID_53_" class="st0" d="M1704.2-290.4c2.7-0.7,5.1-2,7.2-3.8c0.6-0.5,1.2-1.1,1.8-1.7l-9.5-0.2c-0.3,1.2-1,2.2-1.9,3
		c-0.7,0.6-1.5,1-2.4,1.3c-3.4,0.9-6.9-1.1-7.8-4.4c-0.6-2.3,0.1-4.9,2-6.5c0.7-0.6,1.5-1,2.4-1.3c0.2,0,0.4-0.1,0.6-0.1l2.3-23
		c-1.5,0-3.1,0.2-4.6,0.6c-2.7,0.7-5.1,2-7.2,3.8c-5.5,4.7-7.8,12.2-5.9,19.2c1.3,4.8,4.5,8.9,8.8,11.3
		C1694.3-289.7,1699.3-289.1,1704.2-290.4z"/>
	<path id="XMLID_52_" class="st0" d="M1695.7-300.2c-0.9,0.7-1.2,1.9-0.9,3c0.4,1.6,2,2.5,3.6,2c0.4-0.1,0.8-0.3,1.1-0.6
		c0.9-0.7,1.2-1.9,0.9-3c-0.4-1.6-2-2.5-3.6-2C1696.4-300.6,1696.1-300.4,1695.7-300.2z"/>
	<path id="XMLID_51_" class="st0" d="M1690.1-284.9c0.5-0.9,1.1-1.8,1.8-2.7c-3.2-1.1-6.1-2.9-8.5-5.4c-0.2-0.2-0.7-0.4-0.9-0.6
		c-3,2.4-4.3,6.8-2.7,10.4l1.5,3.2c1.1-1.7,2.9-3.2,4.6-4C1687.2-284.5,1688.8-284.9,1690.1-284.9z"/>
	<path id="XMLID_50_" class="st0" d="M1689.2-258.3l5.5-14.8c1.3-3.4-0.1-7-3-8.1c-1.3-0.5-2.7-0.4-4,0.2c-1.6,0.7-2.9,2.2-3.6,4
		l-5.5,14.8c-1.3,3.4,0.1,7,3,8.1c1.3,0.5,2.7,0.4,4-0.2C1687.2-255,1688.5-256.5,1689.2-258.3z"/>
	<path id="XMLID_49_" class="st0" d="M1705.1-255.1c-1.6,0.7-2.9,2.2-3.6,4l-5.5,14.7c-1.3,3.4,0.1,7.1,3,8.1c1.3,0.5,2.7,0.4,4-0.2
		c1.6-0.7,2.9-2.2,3.6-4l5.5-14.8c1.3-3.4-0.1-7-3-8.1C1707.8-255.8,1706.4-255.7,1705.1-255.1z"/>
	<path id="XMLID_48_" class="st0" d="M1727.6-257l3.8,8.3c1.5,3.3,4.9,5,7.8,3.7c2.8-1.3,3.8-5,2.3-8.3l-5.6-12.2
		c-1.8,3.5-4.3,6.7-8,8.4L1727.6-257z"/>
	<path id="XMLID_47_" class="st0" d="M1717.2-295.6c-2.2,3.2-5.2,5.7-8.8,7.4c-3,1.4-6.1,2-9.4,2c-1.1,0-2.2-0.1-3.3-0.3
		c-0.8,0.8-1.5,1.6-2.1,2.5c4.2,2,6,7.3,4.2,12.2l-2.7,7.1l1.1,2.3c1.1,2.5,2.9,4.4,5,5.8c0.7-0.6,1.6-1.2,2.4-1.6
		c2.1-1,4.5-1.1,6.6-0.3c1.7,0.6,3.3,2.1,4.3,3.6c0.2-0.1,0.6,0.2,0.8,0.1l11.2-5.1c7.1-3.3,9.7-12.2,6.5-19.3l-3.7-8
		C1727.1-292.3,1722.3-295.4,1717.2-295.6z"/>
	<path id="XMLID_46_" class="st0" d="M1727.5-315.6c-1.6,0.7-2.9,2.2-3.6,4l-3.4,9.1c-0.3,1.2-0.8,2.4-1.3,3.5l0,0.1
		c3.8,0.6,7.4,2.4,10.1,5.2l5.2-14c1.3-3.4-0.1-7.1-3-8.1C1730.3-316.3,1728.9-316.2,1727.5-315.6z"/>
</g>
<g id="XMLID_55_">
	
		<ellipse id="XMLID_65_" transform="matrix(0.9874 0.158 -0.158 0.9874 -23.9633 -87.3113)" class="st1" cx="537.1" cy="-194.4" rx="2" ry="3.1"/>
	
		<ellipse id="XMLID_64_" transform="matrix(0.8779 -0.4788 0.4788 0.8779 163.6841 237.5154)" class="st2" cx="547.7" cy="-202.3" rx="32.9" ry="7.6"/>
	<path id="XMLID_63_" class="st1" d="M538.5-219c-5.8,3.2-8.1,10.2-5,15.8c0.9,1.7,2.3,3.1,3.9,4.1c6.6-1.4,13.8-5.6,18.5-10.5
		c0-1.7-0.5-3.5-1.3-5.1C551.5-220.3,544.3-222.2,538.5-219z"/>
	<path id="XMLID_62_" class="st2" d="M528.9-186.2c6.3,4.8,17.5,4.7,27.8-0.9c10.4-5.7,16.6-15.3,15.7-23.2
		c-4.5,4.4-12,9.7-21.1,14.7C542.9-191,534.9-187.7,528.9-186.2z"/>
	<line id="XMLID_61_" class="st2" x1="538.5" y1="-219.2" x2="535.9" y2="-223.9"/>
	<circle id="XMLID_60_" class="st2" cx="535.3" cy="-224.9" r="0.9"/>
	
		<ellipse id="XMLID_59_" transform="matrix(0.8779 -0.4788 0.4788 0.8779 162.4522 238.6708)" class="st1" cx="549.3" cy="-199.3" rx="2" ry="3.1"/>
	
		<ellipse id="XMLID_58_" transform="matrix(0.158 -0.9874 0.9874 0.158 675.5795 378.3097)" class="st1" cx="559.6" cy="-207" rx="2" ry="3.1"/>
	<path id="XMLID_56_" class="st1" d="M594.9-173.8l-0.2-0.2c-0.2-0.2-0.4-0.3-0.6-0.4l-29.6-18.4c-2.3,2-5,3.9-8,5.5
		c-3,1.6-6,2.9-8.9,3.8l-0.6,34.9c-0.1,0.3-0.1,0.4-0.1,0.7l-0.1,0l0,0c0,0,0.1,0.2,0.1,0.3c1.4,2.6,13.3-1,26.6-8.3
		S596.3-171.2,594.9-173.8"/>
</g>
<g id="XMLID_75_">
	
		<ellipse id="XMLID_84_" transform="matrix(0.6379 0.7701 -0.7701 0.6379 -45.6114 -875.6309)" class="st1" cx="908.3" cy="-486.3" rx="2" ry="3.1"/>
	
		<ellipse id="XMLID_83_" transform="matrix(0.9756 0.2193 -0.2193 0.9756 -84.0106 -213.931)" class="st2" cx="921.4" cy="-485.3" rx="32.9" ry="7.6"/>
	<path id="XMLID_82_" class="st1" d="M925.6-504c-6.5-1.5-12.8,2.4-14.2,8.6c-0.4,1.9-0.3,3.9,0.2,5.6c5.9,3.3,14,4.9,20.8,4.3
		c1.1-1.3,1.9-2.9,2.3-4.7C936.2-496.3,932.1-502.5,925.6-504z"/>
	<path id="XMLID_81_" class="st2" d="M896.7-485.6c1.6,7.8,10,15.1,21.5,17.7c11.6,2.6,22.5-0.5,27.2-7.1
		c-6.3,0.3-15.5-0.6-25.5-2.9C910.4-480,902.2-482.8,896.7-485.6z"/>
	<line id="XMLID_80_" class="st2" x1="925.7" y1="-504.1" x2="926.9" y2="-509.3"/>
	<circle id="XMLID_79_" class="st2" cx="927.1" cy="-510.5" r="0.9"/>
	
		<ellipse id="XMLID_78_" transform="matrix(0.9756 0.2193 -0.2193 0.9756 -83.2962 -213.6885)" class="st1" cx="920.7" cy="-482" rx="2" ry="3.1"/>
	
		<ellipse id="XMLID_77_" transform="matrix(0.7701 -0.6379 0.6379 0.7701 521.3997 484.9269)" class="st1" cx="933.5" cy="-481" rx="2" ry="3.1"/>
	<path id="XMLID_76_" class="st1" d="M938.2-432.8l0-0.3c0-0.2-0.1-0.4-0.2-0.7l-10.1-33.3c-3.1,0-6.3-0.4-9.6-1.1
		c-3.3-0.8-6.4-1.8-9.2-3.1l-23.4,25.8c-0.2,0.2-0.4,0.3-0.5,0.5l0,0l0,0c0,0-0.1,0.2-0.1,0.3c-0.7,2.9,10.7,8,25.4,11.3
		S937.5-429.9,938.2-432.8"/>
</g>
<g id="XMLID_85_">
	
		<ellipse id="XMLID_94_" transform="matrix(0.8868 0.4622 -0.4622 0.8868 113.0637 -719.843)" class="st1" cx="1525.7" cy="-129.2" rx="2" ry="3.1"/>
	
		<ellipse id="XMLID_93_" transform="matrix(0.9843 -0.1765 0.1765 0.9843 47.67 269.3539)" class="st2" cx="1538.2" cy="-133.3" rx="32.9" ry="7.6"/>
	<path id="XMLID_92_" class="st1" d="M1534.8-152.1c-6.5,1.2-10.9,7.2-9.8,13.4c0.3,1.9,1.2,3.7,2.4,5.1c6.7,0.7,14.8-0.9,20.9-4.1
		c0.5-1.6,0.6-3.4,0.3-5.2C1547.5-149.2,1541.3-153.3,1534.8-152.1z"/>
	<path id="XMLID_91_" class="st2" d="M1515.2-124c4.5,6.6,15.1,10,26.6,8c11.7-2.1,20.6-9.2,22.3-17.1c-5.6,2.7-14.5,5.4-24.6,7.3
		C1530.1-124.2,1521.4-123.6,1515.2-124z"/>
	<line id="XMLID_90_" class="st2" x1="1534.8" y1="-152.3" x2="1533.9" y2="-157.6"/>
	<circle id="XMLID_89_" class="st2" cx="1533.6" cy="-158.7" r="0.9"/>
	
		<ellipse id="XMLID_88_" transform="matrix(0.9843 -0.1765 0.1765 0.9843 47.0864 269.5158)" class="st1" cx="1538.8" cy="-130" rx="2" ry="3.1"/>
	
		<ellipse id="XMLID_87_" transform="matrix(0.4622 -0.8868 0.8868 0.4622 952.9356 1303.2979)" class="st1" cx="1551" cy="-134" rx="2" ry="3.1"/>
	<path id="XMLID_86_" class="st1" d="M1574-91.4l-0.1-0.3c-0.1-0.2-0.2-0.4-0.5-0.5l-22.3-26.8c-2.9,1.2-6,2.1-9.3,2.7
		c-3.4,0.6-6.6,0.8-9.7,0.7l-11.6,32.9c-0.1,0.2-0.2,0.4-0.3,0.6l0,0l0,0c0,0,0,0.2,0,0.3c0.5,2.9,13,3.2,27.8,0.6
		S1574.5-88.5,1574-91.4"/>
</g>
<g id="XMLID_109_">
	<path id="XMLID_108_" class="st2" d="M397.3-319.8c-3.5,14.8-39.4,32.9-53.8,28.3c-3.4-1.1-8-15.9-6.6-12.6
		c4.4,10.9,55.5-13,53.8-28.3C390.2-336,398.1-323.3,397.3-319.8z"/>
	<path id="XMLID_107_" class="st1" d="M404.7-305.6c-3.5,14.8-39.4,32.9-53.8,28.3c-3.4-1.1-8-15.9-6.6-12.6
		c4.4,10.9,55.5-13,53.8-28.3C397.7-321.8,405.6-309,404.7-305.6z"/>
	
		<ellipse id="XMLID_106_" transform="matrix(0.8854 -0.4648 0.4648 0.8854 191.638 131.0073)" class="st1" cx="361.5" cy="-323.2" rx="30.3" ry="12.5"/>
	<path id="XMLID_105_" class="st2" d="M412.4-291c-3.5,14.8-39.4,32.9-53.8,28.3c-3.4-1.1-8-15.9-6.6-12.6
		c4.4,10.9,55.5-13,53.8-28.3C405.4-307.2,413.2-294.5,412.4-291z"/>
</g>
<g id="XMLID_110_">
	<path id="XMLID_114_" class="st2" d="M1177.6-315.2c-7.1,12.7-44.9,19.8-56.9,11.7c-2.8-1.9-3.1-16.8-2.8-13.4
		c1.2,11.2,54.4,2.7,56.9-11.7C1175.5-332,1179.3-318.2,1177.6-315.2z"/>
	<path id="XMLID_113_" class="st1" d="M1180.7-300.2c-7.1,12.7-44.9,19.8-56.9,11.7c-2.8-1.9-3.1-16.8-2.8-13.4
		c1.2,11.2,54.4,2.7,56.9-11.7C1178.6-316.9,1182.4-303.1,1180.7-300.2z"/>
	
		<ellipse id="XMLID_112_" transform="matrix(0.9794 -0.2019 0.2019 0.9794 89.7761 224.5717)" class="st1" cx="1145.7" cy="-327.8" rx="29" ry="12"/>
	<path id="XMLID_111_" class="st2" d="M1183.9-284.8c-7.1,12.7-44.9,19.8-56.9,11.7c-2.8-1.9-3.1-16.8-2.8-13.4
		c1.2,11.2,54.4,2.7,56.9-11.7C1181.7-301.5,1185.6-287.8,1183.9-284.8z"/>
</g>
<g id="XMLID_159_">
	
		<rect id="XMLID_184_" x="667.6" y="-160.3" transform="matrix(0.9311 0.3647 -0.3647 0.9311 -10.4128 -255.9085)" class="st3" width="9.5" height="9.5"/>
	
		<rect id="XMLID_183_" x="678.9" y="-155.8" transform="matrix(0.9311 0.3647 -0.3647 0.9311 -8.0085 -259.7435)" class="st3" width="9.5" height="9.5"/>
	
		<rect id="XMLID_182_" x="690.3" y="-151.4" transform="matrix(0.9311 0.3647 -0.3647 0.9311 -5.6042 -263.5786)" class="st1" width="9.5" height="9.5"/>
	
		<rect id="XMLID_181_" x="701.6" y="-146.9" transform="matrix(0.9311 0.3647 -0.3647 0.9311 -3.2 -267.4136)" class="st3" width="9.5" height="9.5"/>
	
		<rect id="XMLID_180_" x="713" y="-142.5" transform="matrix(0.9311 0.3647 -0.3647 0.9311 -0.7957 -271.2486)" class="st1" width="9.5" height="9.5"/>
	
		<rect id="XMLID_179_" x="662.7" y="-147.9" transform="matrix(0.9311 0.3647 -0.3647 0.9311 -6.2355 -253.2896)" class="st1" width="9.5" height="9.5"/>
	
		<rect id="XMLID_178_" x="674.1" y="-143.4" transform="matrix(0.9311 0.3647 -0.3647 0.9311 -3.8313 -257.1247)" class="st3" width="9.5" height="9.5"/>
	
		<rect id="XMLID_177_" x="685.4" y="-139" transform="matrix(0.9311 0.3647 -0.3647 0.9311 -1.427 -260.9597)" class="st3" width="9.5" height="9.5"/>
	
		<rect id="XMLID_176_" x="696.8" y="-134.6" transform="matrix(0.9311 0.3647 -0.3647 0.9311 0.9773 -264.7947)" class="st1" width="9.5" height="9.5"/>
	
		<rect id="XMLID_175_" x="708.1" y="-130.1" transform="matrix(0.9311 0.3647 -0.3647 0.9311 3.3816 -268.6297)" class="st3" width="9.5" height="9.5"/>
	
		<rect id="XMLID_174_" x="657.9" y="-135.5" transform="matrix(0.9311 0.3647 -0.3647 0.9311 -2.0583 -250.6708)" class="st3" width="9.5" height="9.5"/>
	
		<rect id="XMLID_173_" x="669.2" y="-131.1" transform="matrix(0.9311 0.3647 -0.3647 0.9311 0.346 -254.5058)" class="st1" width="9.5" height="9.5"/>
	
		<rect id="XMLID_172_" x="680.6" y="-126.6" transform="matrix(0.9311 0.3647 -0.3647 0.9311 2.7503 -258.3408)" class="st1" width="9.5" height="9.5"/>
	
		<rect id="XMLID_171_" x="691.9" y="-122.2" transform="matrix(0.9311 0.3647 -0.3647 0.9311 5.1546 -262.1758)" class="st3" width="9.5" height="9.5"/>
	
		<rect id="XMLID_170_" x="703.3" y="-117.7" transform="matrix(0.9311 0.3647 -0.3647 0.9311 7.5589 -266.0109)" class="st3" width="9.5" height="9.5"/>
	
		<rect id="XMLID_169_" x="653" y="-123.2" transform="matrix(0.9311 0.3647 -0.3647 0.9311 2.119 -248.0519)" class="st3" width="9.5" height="9.5"/>
	
		<rect id="XMLID_168_" x="664.4" y="-118.7" transform="matrix(0.9311 0.3647 -0.3647 0.9311 4.5233 -251.8869)" class="st1" width="9.5" height="9.5"/>
	
		<rect id="XMLID_167_" x="675.7" y="-114.3" transform="matrix(0.9311 0.3647 -0.3647 0.9311 6.9276 -255.722)" class="st1" width="9.5" height="9.5"/>
	
		<rect id="XMLID_166_" x="687.1" y="-109.8" transform="matrix(0.9311 0.3647 -0.3647 0.9311 9.3319 -259.557)" class="st1" width="9.5" height="9.5"/>
	
		<rect id="XMLID_165_" x="698.4" y="-105.4" transform="matrix(0.9311 0.3647 -0.3647 0.9311 11.7362 -263.392)" class="st3" width="9.5" height="9.5"/>
	
		<rect id="XMLID_164_" x="648.2" y="-110.8" transform="matrix(0.9311 0.3647 -0.3647 0.9311 6.2963 -245.4331)" class="st3" width="9.5" height="9.5"/>
	
		<rect id="XMLID_163_" x="659.5" y="-106.3" transform="matrix(0.9311 0.3647 -0.3647 0.9311 8.7006 -249.2681)" class="st3" width="9.5" height="9.5"/>
	
		<rect id="XMLID_162_" x="670.9" y="-101.9" transform="matrix(0.9311 0.3647 -0.3647 0.9311 11.1049 -253.1031)" class="st3" width="9.5" height="9.5"/>
	
		<rect id="XMLID_161_" x="682.2" y="-97.4" transform="matrix(0.9311 0.3647 -0.3647 0.9311 13.5092 -256.9381)" class="st1" width="9.5" height="9.5"/>
	
		<rect id="XMLID_160_" x="693.6" y="-93" transform="matrix(0.9311 0.3647 -0.3647 0.9311 15.9134 -260.7732)" class="st3" width="9.5" height="9.5"/>
</g>
<g id="XMLID_185_">
	
		<rect id="XMLID_210_" x="1380.4" y="-364.2" transform="matrix(0.9181 -0.3964 0.3964 0.9181 255.9607 519.6342)" class="st3" width="9.5" height="9.5"/>
	
		<rect id="XMLID_209_" x="1391.6" y="-369" transform="matrix(0.9181 -0.3964 0.3964 0.9181 258.7943 523.6763)" class="st3" width="9.5" height="9.5"/>
	
		<rect id="XMLID_208_" x="1402.8" y="-373.8" transform="matrix(0.9181 -0.3964 0.3964 0.9181 261.6278 527.7185)" class="st1" width="9.5" height="9.5"/>
	
		<rect id="XMLID_207_" x="1414" y="-378.7" transform="matrix(0.9181 -0.3964 0.3964 0.9181 264.4614 531.7607)" class="st3" width="9.5" height="9.5"/>
	
		<rect id="XMLID_206_" x="1425.2" y="-383.5" transform="matrix(0.9181 -0.3964 0.3964 0.9181 267.295 535.8029)" class="st1" width="9.5" height="9.5"/>
	
		<rect id="XMLID_205_" x="1385.7" y="-352" transform="matrix(0.9181 -0.3964 0.3964 0.9181 251.5578 522.7206)" class="st1" width="9.5" height="9.5"/>
	
		<rect id="XMLID_204_" x="1396.9" y="-356.8" transform="matrix(0.9181 -0.3964 0.3964 0.9181 254.3914 526.7628)" class="st3" width="9.5" height="9.5"/>
	
		<rect id="XMLID_203_" x="1408.1" y="-361.7" transform="matrix(0.9181 -0.3964 0.3964 0.9181 257.2249 530.805)" class="st3" width="9.5" height="9.5"/>
	
		<rect id="XMLID_202_" x="1419.3" y="-366.5" transform="matrix(0.9181 -0.3964 0.3964 0.9181 260.0585 534.8471)" class="st1" width="9.5" height="9.5"/>
	
		<rect id="XMLID_201_" x="1430.5" y="-371.3" transform="matrix(0.9181 -0.3964 0.3964 0.9181 262.8921 538.8893)" class="st3" width="9.5" height="9.5"/>
	
		<rect id="XMLID_200_" x="1390.9" y="-339.8" transform="matrix(0.9181 -0.3964 0.3964 0.9181 247.1549 525.8071)" class="st3" width="9.5" height="9.5"/>
	
		<rect id="XMLID_199_" x="1402.1" y="-344.6" transform="matrix(0.9181 -0.3964 0.3964 0.9181 249.9885 529.8492)" class="st1" width="9.5" height="9.5"/>
	
		<rect id="XMLID_198_" x="1413.3" y="-349.5" transform="matrix(0.9181 -0.3964 0.3964 0.9181 252.822 533.8914)" class="st1" width="9.5" height="9.5"/>
	
		<rect id="XMLID_197_" x="1424.5" y="-354.3" transform="matrix(0.9181 -0.3964 0.3964 0.9181 255.6556 537.9336)" class="st3" width="9.5" height="9.5"/>
	
		<rect id="XMLID_196_" x="1435.7" y="-359.1" transform="matrix(0.9181 -0.3964 0.3964 0.9181 258.4892 541.9758)" class="st3" width="9.5" height="9.5"/>
	
		<rect id="XMLID_195_" x="1396.2" y="-327.6" transform="matrix(0.9181 -0.3964 0.3964 0.9181 242.752 528.8936)" class="st3" width="9.5" height="9.5"/>
	
		<rect id="XMLID_194_" x="1407.4" y="-332.4" transform="matrix(0.9181 -0.3964 0.3964 0.9181 245.5856 532.9357)" class="st1" width="9.5" height="9.5"/>
	
		<rect id="XMLID_193_" x="1418.6" y="-337.3" transform="matrix(0.9181 -0.3964 0.3964 0.9181 248.4191 536.9779)" class="st1" width="9.5" height="9.5"/>
	
		<rect id="XMLID_192_" x="1429.8" y="-342.1" transform="matrix(0.9181 -0.3964 0.3964 0.9181 251.2527 541.0201)" class="st1" width="9.5" height="9.5"/>
	
		<rect id="XMLID_191_" x="1441" y="-346.9" transform="matrix(0.9181 -0.3964 0.3964 0.9181 254.0863 545.0622)" class="st3" width="9.5" height="9.5"/>
	
		<rect id="XMLID_190_" x="1401.5" y="-315.4" transform="matrix(0.9181 -0.3964 0.3964 0.9181 238.3491 531.98)" class="st3" width="9.5" height="9.5"/>
	
		<rect id="XMLID_189_" x="1412.7" y="-320.2" transform="matrix(0.9181 -0.3964 0.3964 0.9181 241.1826 536.0222)" class="st3" width="9.5" height="9.5"/>
	
		<rect id="XMLID_188_" x="1423.9" y="-325.1" transform="matrix(0.9181 -0.3964 0.3964 0.9181 244.0162 540.0643)" class="st3" width="9.5" height="9.5"/>
	
		<rect id="XMLID_187_" x="1435.1" y="-329.9" transform="matrix(0.9181 -0.3964 0.3964 0.9181 246.8498 544.1065)" class="st1" width="9.5" height="9.5"/>
	
		<rect id="XMLID_186_" x="1446.2" y="-334.7" transform="matrix(0.9181 -0.3964 0.3964 0.9181 249.6834 548.1487)" class="st3" width="9.5" height="9.5"/>
</g>
<g id="XMLID_263_">
	
		<rect id="XMLID_290_" x="411" y="-697.8" transform="matrix(0.9661 0.2583 -0.2583 0.9661 -164.8876 -130.898)" class="st3" width="9.5" height="9.5"/>
	
		<rect id="XMLID_289_" x="422.8" y="-694.6" transform="matrix(0.9661 0.2583 -0.2583 0.9661 -163.6743 -133.834)" class="st3" width="9.5" height="9.5"/>
	
		<rect id="XMLID_288_" x="434.6" y="-691.5" transform="matrix(0.9661 0.2583 -0.2583 0.9661 -162.461 -136.7701)" class="st1" width="9.5" height="9.5"/>
	
		<rect id="XMLID_287_" x="446.4" y="-688.3" transform="matrix(0.9661 0.2583 -0.2583 0.9661 -161.2477 -139.7061)" class="st3" width="9.5" height="9.5"/>
	
		<rect id="XMLID_286_" x="458.1" y="-685.2" transform="matrix(0.9661 0.2583 -0.2583 0.9661 -160.0344 -142.6422)" class="st1" width="9.5" height="9.5"/>
	
		<rect id="XMLID_285_" x="407.6" y="-684.9" transform="matrix(0.9661 0.2583 -0.2583 0.9661 -161.6895 -129.5764)" class="st1" width="9.5" height="9.5"/>
	
		<rect id="XMLID_284_" x="419.4" y="-681.8" transform="matrix(0.9661 0.2583 -0.2583 0.9661 -160.4762 -132.5125)" class="st3" width="9.5" height="9.5"/>
	
		<rect id="XMLID_283_" x="431.1" y="-678.6" transform="matrix(0.9661 0.2583 -0.2583 0.9661 -159.2629 -135.4485)" class="st3" width="9.5" height="9.5"/>
	
		<rect id="XMLID_282_" x="442.9" y="-675.5" transform="matrix(0.9661 0.2583 -0.2583 0.9661 -158.0496 -138.3846)" class="st1" width="9.5" height="9.5"/>
	
		<rect id="XMLID_281_" x="454.7" y="-672.3" transform="matrix(0.9661 0.2583 -0.2583 0.9661 -156.8363 -141.3206)" class="st3" width="9.5" height="9.5"/>
	
		<rect id="XMLID_280_" x="404.2" y="-672.1" transform="matrix(0.9661 0.2583 -0.2583 0.9661 -158.4914 -128.2548)" class="st3" width="9.5" height="9.5"/>
	
		<rect id="XMLID_279_" x="415.9" y="-668.9" transform="matrix(0.9661 0.2583 -0.2583 0.9661 -157.2781 -131.1909)" class="st1" width="9.5" height="9.5"/>
	
		<rect id="XMLID_278_" x="427.7" y="-665.8" transform="matrix(0.9661 0.2583 -0.2583 0.9661 -156.0648 -134.1269)" class="st1" width="9.5" height="9.5"/>
	
		<rect id="XMLID_277_" x="439.5" y="-662.6" transform="matrix(0.9661 0.2583 -0.2583 0.9661 -154.8516 -137.063)" class="st3" width="9.5" height="9.5"/>
	
		<rect id="XMLID_276_" x="451.3" y="-659.5" transform="matrix(0.9661 0.2583 -0.2583 0.9661 -153.6383 -139.9991)" class="st3" width="9.5" height="9.5"/>
	
		<rect id="XMLID_275_" x="400.7" y="-659.3" transform="matrix(0.9661 0.2583 -0.2583 0.9661 -155.2933 -126.9333)" class="st3" width="9.5" height="9.5"/>
	
		<rect id="XMLID_274_" x="412.5" y="-656.1" transform="matrix(0.9661 0.2583 -0.2583 0.9661 -154.08 -129.8693)" class="st1" width="9.5" height="9.5"/>
	
		<rect id="XMLID_273_" x="424.3" y="-653" transform="matrix(0.9661 0.2583 -0.2583 0.9661 -152.8668 -132.8054)" class="st1" width="9.5" height="9.5"/>
	
		<rect id="XMLID_272_" x="436.1" y="-649.8" transform="matrix(0.9661 0.2583 -0.2583 0.9661 -151.6535 -135.7414)" class="st1" width="9.5" height="9.5"/>
	
		<rect id="XMLID_269_" x="447.9" y="-646.7" transform="matrix(0.9661 0.2583 -0.2583 0.9661 -150.4402 -138.6775)" class="st3" width="9.5" height="9.5"/>
	
		<rect id="XMLID_268_" x="397.3" y="-646.4" transform="matrix(0.9661 0.2583 -0.2583 0.9661 -152.0953 -125.6117)" class="st3" width="9.5" height="9.5"/>
	
		<rect id="XMLID_267_" x="409.1" y="-643.3" transform="matrix(0.9661 0.2583 -0.2583 0.9661 -150.882 -128.5477)" class="st3" width="9.5" height="9.5"/>
	
		<rect id="XMLID_266_" x="420.9" y="-640.1" transform="matrix(0.9661 0.2583 -0.2583 0.9661 -149.6687 -131.4838)" class="st3" width="9.5" height="9.5"/>
	
		<rect id="XMLID_265_" x="432.6" y="-637" transform="matrix(0.9661 0.2583 -0.2583 0.9661 -148.4554 -134.4199)" class="st1" width="9.5" height="9.5"/>
	
		<rect id="XMLID_264_" x="444.4" y="-633.8" transform="matrix(0.9661 0.2583 -0.2583 0.9661 -147.2421 -137.3559)" class="st3" width="9.5" height="9.5"/>
</g>
<g id="XMLID_364_">
	<path id="XMLID_368_" class="st2" d="M1599.6-559.2c-1.6,14.4-33.6,35.8-47.9,33c-3.3-0.6-9.4-14.2-7.7-11.2
		c5.5,9.8,51.2-18.7,47.9-33C1591.1-573.7,1600-562.6,1599.6-559.2z"/>
	<path id="XMLID_367_" class="st1" d="M1608.3-546.5c-1.6,14.4-33.6,35.8-47.9,33c-3.3-0.6-9.4-14.2-7.7-11.2
		c5.5,9.8,51.2-18.7,47.9-33C1599.8-561,1608.7-549.9,1608.3-546.5z"/>
	
		<ellipse id="XMLID_366_" transform="matrix(0.8233 -0.5676 0.5676 0.8233 593.4822 789.8456)" class="st1" cx="1565.3" cy="-558.2" rx="29" ry="12"/>
	<path id="XMLID_365_" class="st2" d="M1617.2-533.6c-1.6,14.4-33.6,35.8-47.9,33c-3.3-0.6-9.4-14.2-7.7-11.2
		c5.5,9.8,51.2-18.7,47.9-33C1608.7-548.1,1617.6-537,1617.2-533.6z"/>
</g>
<g id="XMLID_369_">
	<path id="XMLID_373_" class="st2" d="M1811.6-94.2c-7.1,12.7-44.9,19.8-56.9,11.7c-2.8-1.9-3.1-16.8-2.8-13.4
		c1.2,11.2,54.4,2.7,56.9-11.7C1809.5-111,1813.3-97.2,1811.6-94.2z"/>
	<path id="XMLID_372_" class="st1" d="M1814.7-79.2c-7.1,12.7-44.9,19.8-56.9,11.7c-2.8-1.9-3.1-16.8-2.8-13.4
		c1.2,11.2,54.4,2.7,56.9-11.7C1812.6-95.9,1816.4-82.1,1814.7-79.2z"/>
	
		<ellipse id="XMLID_371_" transform="matrix(0.9794 -0.2019 0.2019 0.9794 58.2115 357.1367)" class="st1" cx="1779.7" cy="-106.8" rx="29" ry="12"/>
	<path id="XMLID_370_" class="st2" d="M1817.9-63.8c-7.1,12.7-44.9,19.8-56.9,11.7c-2.8-1.9-3.1-16.8-2.8-13.4
		c1.2,11.2,54.4,2.7,56.9-11.7C1815.7-80.5,1819.6-66.8,1817.9-63.8z"/>
</g>
<g id="XMLID_385_">
	
		<ellipse id="XMLID_394_" transform="matrix(0.9699 0.2435 -0.2435 0.9699 -120.9305 -361.9247)" class="st1" cx="1403.7" cy="-670.2" rx="2" ry="3.1"/>
	
		<ellipse id="XMLID_393_" transform="matrix(0.9163 -0.4004 0.4004 0.9163 389.4883 509.8521)" class="st2" cx="1414.8" cy="-677.1" rx="32.9" ry="7.6"/>
	<path id="XMLID_392_" class="st1" d="M1407.2-694.6c-6.1,2.6-8.9,9.5-6.4,15.3c0.8,1.8,2,3.3,3.5,4.4c6.7-0.8,14.2-4.3,19.3-8.9
		c0.1-1.7-0.2-3.5-0.9-5.2C1420.2-694.7,1413.2-697.3,1407.2-694.6z"/>
	<path id="XMLID_391_" class="st2" d="M1394.7-662.7c5.9,5.4,17,6.2,27.7,1.6c10.9-4.8,17.9-13.7,17.7-21.8
		c-4.8,4-12.8,8.7-22.3,12.8C1409.1-666.3,1400.8-663.7,1394.7-662.7z"/>
	<line id="XMLID_390_" class="st2" x1="1407.1" y1="-694.8" x2="1405" y2="-699.7"/>
	<circle id="XMLID_389_" class="st2" cx="1404.5" cy="-700.7" r="0.9"/>
	
		<ellipse id="XMLID_388_" transform="matrix(0.9163 -0.4004 0.4004 0.9163 388.3522 510.6674)" class="st1" cx="1416.2" cy="-674" rx="2" ry="3.1"/>
	
		<ellipse id="XMLID_387_" transform="matrix(0.2435 -0.9699 0.9699 0.2435 1739.9543 869.1663)" class="st1" cx="1427.1" cy="-680.8" rx="2" ry="3.1"/>
	<path id="XMLID_386_" class="st1" d="M1459.4-644.7l-0.1-0.2c-0.1-0.2-0.3-0.3-0.6-0.4l-27.9-20.9c-2.5,1.8-5.3,3.4-8.4,4.8
		c-3.1,1.4-6.2,2.3-9.2,3l-3.6,34.7c-0.1,0.3-0.2,0.4-0.1,0.7l0,0l0,0c0,0,0.1,0.2,0.1,0.3c1.2,2.7,13.4,0.1,27.2-5.9
		C1450.4-634.8,1460.6-642,1459.4-644.7"/>
</g>
<g id="XMLID_487_">
	<path id="XMLID_496_" class="st0" d="M179.7-184.4c0.9,3,0.7,6.3-0.4,9.2c-0.3,0.9,0.1,1.9,1,2.2c0,0,0,0,0,0
		c0.9,0.3,1.8-0.1,2.2-1c1.3-3.6,1.5-7.6,0.4-11.3c-0.3-0.9-1.2-1.4-2.1-1.2C180-186.2,179.4-185.3,179.7-184.4z"/>
	<path id="XMLID_495_" class="st0" d="M152.3-167.4c2,2,4.3,3.4,7,4.3c0.8,0.3,1.6,0.5,2.4,0.6l-4.6-8.3c-1.2,0.3-2.4,0.3-3.6-0.2
		c-0.9-0.3-1.7-0.8-2.4-1.5c-2.5-2.4-2.5-6.5-0.1-9c1.7-1.7,4.3-2.4,6.6-1.6c0.9,0.3,1.7,0.8,2.4,1.5c0.1,0.1,0.3,0.3,0.4,0.4
		l21-9.6c-0.8-1.3-1.7-2.5-2.9-3.6c-2-2-4.3-3.4-7-4.3c-6.8-2.4-14.5-0.5-19.5,4.6c-3.5,3.6-5.4,8.3-5.3,13.3
		C146.8-175.6,148.8-170.9,152.3-167.4z"/>
	<path id="XMLID_494_" class="st0" d="M156.5-179.7c-1.1-0.4-2.3-0.1-3,0.7c-1.1,1.2-1.1,3,0,4.1c0.3,0.3,0.7,0.5,1.1,0.7
		c1.1,0.4,2.3,0.1,3-0.7c1.1-1.1,1.1-3,0-4.1C157.3-179.3,156.9-179.5,156.5-179.7z"/>
	<path id="XMLID_493_" class="st0" d="M140.5-176.8c1.1,0,2.1,0,3.2,0.2c-0.6-3.3-0.5-6.7,0.4-10.1c0.1-0.3,0-0.8,0.1-1.1
		c-3.6-1.3-8-0.3-10.3,3l-2,2.9c2.1,0.1,4.2,0.9,5.8,2C138.7-179.1,139.8-177.9,140.5-176.8z"/>
	<path id="XMLID_492_" class="st0" d="M117.1-164.2l15.5-2.7c3.6-0.6,6-3.6,5.5-6.7c-0.2-1.3-1-2.5-2.2-3.3c-1.5-1-3.4-1.4-5.2-1.1
		l-15.5,2.7c-3.6,0.6-6,3.6-5.5,6.7c0.2,1.3,1,2.5,2.2,3.3C113.3-164.2,115.2-163.8,117.1-164.2z"/>
	<path id="XMLID_491_" class="st0" d="M122.4-148.8c-1.5-1-3.4-1.4-5.3-1.1l-15.5,2.7c-3.6,0.6-6,3.6-5.5,6.7c0.2,1.3,1,2.5,2.2,3.3
		c1.5,1,3.4,1.4,5.3,1.1l15.5-2.7c3.6-0.6,6-3.6,5.5-6.7C124.4-146.8,123.6-148,122.4-148.8z"/>
	<path id="XMLID_490_" class="st0" d="M135.4-130.4l-5.2,7.5c-2.1,3-1.8,6.8,0.8,8.6c2.6,1.8,6.2,0.8,8.3-2.2l7.7-11
		c-3.9,0.2-7.9-0.3-11.3-2.7L135.4-130.4z"/>
	<path id="XMLID_489_" class="st0" d="M163.5-158.8c-3.8-0.3-7.6-1.6-10.8-3.9c-2.7-1.9-4.9-4.3-6.5-7.1c-0.6-1-1-2-1.4-3
		c-1.1-0.3-2.2-0.5-3.2-0.5c0.4,4.6-3.3,8.9-8.4,9.8l-7.5,1.3l-1.5,2.1c-1.6,2.2-2.3,4.8-2.5,7.3c0.9,0.3,1.8,0.7,2.6,1.3
		c1.9,1.4,3.2,3.3,3.6,5.6c0.3,1.8-0.2,3.9-1,5.5c0.2,0.2,0.2,0.6,0.4,0.8l10.1,7.1c6.4,4.5,15.5,2.2,20-4.2l5.1-7.2
		C165.6-148.7,165.9-154.3,163.5-158.8z"/>
	<path id="XMLID_488_" class="st0" d="M185.9-160c-1.5-1-3.4-1.4-5.3-1.1l-9.6,1.7c-1.2,0.3-2.4,0.5-3.7,0.6l-0.1,0
		c1.4,3.6,1.7,7.6,0.6,11.4l14.7-2.6c3.6-0.6,6-3.6,5.5-6.7C187.9-158,187.1-159.2,185.9-160z"/>
</g>
<g id="XMLID_28_" class="st4">
	<path id="XMLID_15_" class="st0" d="M451.1,53.6c2.7-0.8,5.1-2.1,7.2-3.9c0.6-0.5,1.2-1.1,1.7-1.7l-9.5-0.2c-0.3,1.2-1,2.2-1.9,3
		c-0.7,0.6-1.5,1.1-2.4,1.3c-3.4,0.9-6.9-1-7.8-4.4c-0.7-2.3,0.1-4.9,2-6.5c0.7-0.6,1.5-1.1,2.4-1.3c0.2-0.1,0.4-0.1,0.6-0.1l2.2-23
		c-1.5,0-3.1,0.2-4.6,0.7c-2.7,0.8-5.1,2.1-7.2,3.9c-5.5,4.7-7.7,12.3-5.8,19.2c1.4,4.8,4.5,8.8,8.9,11.3
		C441.2,54.4,446.3,55,451.1,53.6z"/>
	<path id="XMLID_14_" class="st0" d="M442.6,43.9c-0.9,0.7-1.2,1.9-0.9,3c0.4,1.6,2.1,2.5,3.6,2c0.4-0.1,0.8-0.3,1.1-0.6
		c0.9-0.7,1.2-1.9,0.9-3c-0.4-1.6-2-2.5-3.6-2C443.3,43.4,443,43.6,442.6,43.9z"/>
	<path id="XMLID_13_" class="st0" d="M437.1,59.2c0.5-0.9,1.1-1.8,1.8-2.7c-3.2-1.1-6.1-2.9-8.5-5.4c-0.2-0.2-0.7-0.4-0.9-0.6
		c-3,2.4-4.3,6.8-2.6,10.4l1.5,3.2c1.1-1.7,2.8-3.2,4.6-4C434.2,59.6,435.8,59.2,437.1,59.2z"/>
	<path id="XMLID_12_" class="st0" d="M436.3,85.8l5.4-14.8c1.2-3.4-0.1-7-3.1-8.1c-1.3-0.5-2.7-0.4-4,0.2c-1.6,0.8-2.9,2.2-3.6,4
		l-5.4,14.8c-1.2,3.4,0.1,7,3.1,8.1c1.3,0.5,2.7,0.4,4-0.2C434.3,89.1,435.6,87.6,436.3,85.8z"/>
	<path id="XMLID_11_" class="st0" d="M452.2,88.9c-1.6,0.8-2.9,2.2-3.6,4l-5.4,14.8c-1.2,3.4,0.1,7.1,3.1,8.1c1.3,0.5,2.7,0.4,4-0.2
		c1.6-0.8,2.9-2.2,3.6-4l5.4-14.8c1.2-3.4-0.1-7-3.1-8.1C455,88.2,453.5,88.3,452.2,88.9z"/>
	<path id="XMLID_10_" class="st0" d="M474.7,86.9l3.9,8.3c1.5,3.3,5,4.9,7.8,3.6c2.8-1.3,3.8-5,2.3-8.3L483,78.3
		c-1.8,3.5-4.2,6.7-8,8.5L474.7,86.9z"/>
	<path id="XMLID_9_" class="st0" d="M464.1,48.3c-2.2,3.2-5.2,5.8-8.8,7.4c-3,1.4-6.1,2.1-9.4,2c-1.1,0-2.2-0.1-3.3-0.3
		c-0.8,0.8-1.5,1.6-2.1,2.5c4.2,2,6.1,7.3,4.3,12.2l-2.6,7.1l1.1,2.3c1.1,2.5,3,4.4,5.1,5.8c0.7-0.6,1.6-1.2,2.4-1.6
		c2.1-1,4.5-1.1,6.6-0.4c1.7,0.6,3.3,2.1,4.3,3.6c0.2-0.1,0.6,0.2,0.8,0.1l11.2-5.2c7.1-3.3,9.6-12.3,6.4-19.4l-3.7-8
		C474,51.6,469.3,48.5,464.1,48.3z"/>
	<path id="XMLID_8_" class="st0" d="M474.4,28.3c-1.6,0.8-2.9,2.2-3.6,4l-3.3,9.1c-0.3,1.2-0.8,2.4-1.3,3.5l0,0.1
		c3.8,0.5,7.4,2.3,10.2,5.2l5.1-14c1.2-3.4-0.1-7.1-3.1-8.1C477.1,27.6,475.7,27.7,474.4,28.3z"/>
	<g id="XMLID_95_">
		
			<ellipse id="XMLID_104_" transform="matrix(0.3832 0.9237 -0.9237 0.3832 634.8599 -849.2487)" class="st1" cx="953.3" cy="50.7" rx="2" ry="3.1"/>
		
			<ellipse id="XMLID_103_" transform="matrix(0.868 0.4965 -0.4965 0.868 155.0319 -472.1139)" class="st2" cx="965.6" cy="55.6" rx="32.9" ry="7.6"/>
		<path id="XMLID_102_" class="st1" d="M975.1,39c-5.7-3.3-12.9-1.5-16.1,4c-1,1.7-1.5,3.6-1.5,5.5c4.6,4.9,12,8.8,18.6,10.2
			c1.4-0.9,2.7-2.2,3.6-3.8C982.9,49.4,980.8,42.3,975.1,39z"/>
		<path id="XMLID_101_" class="st2" d="M942,48c-0.8,7.9,5.2,17.4,15.3,23.2c10.3,5.9,21.7,6.1,28,1.2c-6.1-1.5-14.6-5.1-23.5-10.2
			C953.5,57.4,946.5,52.3,942,48z"/>
		<line id="XMLID_100_" class="st2" x1="975.2" y1="38.8" x2="977.8" y2="34.2"/>
		<circle id="XMLID_99_" class="st2" cx="978.3" cy="33.2" r="0.9"/>
		
			<ellipse id="XMLID_98_" transform="matrix(0.868 0.4965 -0.4965 0.868 156.2867 -470.885)" class="st1" cx="963.9" cy="58.5" rx="2" ry="3.1"/>
		
			<ellipse id="XMLID_97_" transform="matrix(0.9237 -0.3832 0.3832 0.9237 50.2568 378.7969)" class="st1" cx="975.8" cy="63.3" rx="2" ry="3.1"/>
		<path id="XMLID_96_" class="st1" d="M966.1,110.7l0.1-0.3c0.1-0.2,0-0.4,0-0.7l0.1-34.8c-2.9-0.9-5.9-2.2-8.9-3.9
			c-3-1.7-5.6-3.6-7.9-5.6l-30,17.8c-0.3,0.1-0.4,0.1-0.6,0.3l0,0l0,0c0,0-0.1,0.2-0.2,0.3c-1.5,2.6,7.9,10.8,21,18.3
			S964.6,113.3,966.1,110.7"/>
	</g>
	<g id="XMLID_115_">
		<path id="XMLID_119_" class="st2" d="M1166.6,131.8c-1.6,14.4-33.6,35.8-47.9,33c-3.3-0.6-9.4-14.2-7.7-11.2
			c5.5,9.8,51.2-18.7,47.9-33C1158.1,117.3,1167,128.4,1166.6,131.8z"/>
		<path id="XMLID_118_" class="st1" d="M1175.3,144.5c-1.6,14.4-33.6,35.8-47.9,33c-3.3-0.6-9.4-14.2-7.7-11.2
			c5.5,9.8,51.2-18.7,47.9-33C1166.8,130,1175.7,141.1,1175.3,144.5z"/>
		
			<ellipse id="XMLID_117_" transform="matrix(0.8233 -0.5676 0.5676 0.8233 124.7245 666.173)" class="st1" cx="1132.3" cy="132.8" rx="29" ry="12"/>
		<path id="XMLID_116_" class="st2" d="M1184.2,157.4c-1.6,14.4-33.6,35.8-47.9,33c-3.3-0.6-9.4-14.2-7.7-11.2
			c5.5,9.8,51.2-18.7,47.9-33C1175.7,142.9,1184.6,154,1184.2,157.4z"/>
	</g>
	<g id="XMLID_121_">
		
			<rect id="XMLID_158_" x="1349.5" y="35.7" transform="matrix(0.7157 0.6984 -0.6984 0.7157 413.1743 -934.2209)" class="st2" width="9.5" height="9.5"/>
		
			<rect id="XMLID_157_" x="1358.2" y="44.2" transform="matrix(0.7157 0.6984 -0.6984 0.7157 421.603 -937.8958)" class="st2" width="9.5" height="9.5"/>
		
			<rect id="XMLID_156_" x="1366.9" y="52.7" transform="matrix(0.7157 0.6984 -0.6984 0.7157 430.0318 -941.5707)" class="st1" width="9.5" height="9.5"/>
		
			<rect id="XMLID_155_" x="1375.6" y="61.2" transform="matrix(0.7157 0.6984 -0.6984 0.7157 438.4605 -945.2456)" class="st2" width="9.5" height="9.5"/>
		
			<rect id="XMLID_154_" x="1384.4" y="69.8" transform="matrix(0.7157 0.6984 -0.6984 0.7157 446.8893 -948.9205)" class="st1" width="9.5" height="9.5"/>
		
			<rect id="XMLID_153_" x="1340.2" y="45.2" transform="matrix(0.7157 0.6984 -0.6984 0.7157 417.1771 -925.0399)" class="st1" width="9.5" height="9.5"/>
		
			<rect id="XMLID_152_" x="1348.9" y="53.7" transform="matrix(0.7157 0.6984 -0.6984 0.7157 425.6059 -928.7148)" class="st2" width="9.5" height="9.5"/>
		
			<rect id="XMLID_151_" x="1357.6" y="62.2" transform="matrix(0.7157 0.6984 -0.6984 0.7157 434.0346 -932.3897)" class="st2" width="9.5" height="9.5"/>
		
			<rect id="XMLID_150_" x="1366.4" y="70.8" transform="matrix(0.7157 0.6984 -0.6984 0.7157 442.4634 -936.0646)" class="st1" width="9.5" height="9.5"/>
		
			<rect id="XMLID_149_" x="1375.1" y="79.3" transform="matrix(0.7157 0.6984 -0.6984 0.7157 450.8922 -939.7396)" class="st2" width="9.5" height="9.5"/>
		
			<rect id="XMLID_148_" x="1330.9" y="54.7" transform="matrix(0.7157 0.6984 -0.6984 0.7157 421.18 -915.8589)" class="st2" width="9.5" height="9.5"/>
		
			<rect id="XMLID_147_" x="1339.6" y="63.2" transform="matrix(0.7157 0.6984 -0.6984 0.7157 429.6088 -919.5338)" class="st1" width="9.5" height="9.5"/>
		
			<rect id="XMLID_146_" x="1348.4" y="71.7" transform="matrix(0.7157 0.6984 -0.6984 0.7157 438.0375 -923.2087)" class="st1" width="9.5" height="9.5"/>
		
			<rect id="XMLID_133_" x="1357.1" y="80.3" transform="matrix(0.7157 0.6984 -0.6984 0.7157 446.4663 -926.8837)" class="st2" width="9.5" height="9.5"/>
		
			<rect id="XMLID_132_" x="1365.8" y="88.8" transform="matrix(0.7157 0.6984 -0.6984 0.7157 454.8951 -930.5585)" class="st2" width="9.5" height="9.5"/>
		
			<rect id="XMLID_131_" x="1321.6" y="64.2" transform="matrix(0.7157 0.6984 -0.6984 0.7157 425.1829 -906.6779)" class="st2" width="9.5" height="9.5"/>
		
			<rect id="XMLID_130_" x="1330.4" y="72.7" transform="matrix(0.7157 0.6984 -0.6984 0.7157 433.6116 -910.3528)" class="st1" width="9.5" height="9.5"/>
		
			<rect id="XMLID_129_" x="1339.1" y="81.3" transform="matrix(0.7157 0.6984 -0.6984 0.7157 442.0404 -914.0278)" class="st1" width="9.5" height="9.5"/>
		
			<rect id="XMLID_128_" x="1347.8" y="89.8" transform="matrix(0.7157 0.6984 -0.6984 0.7157 450.4692 -917.7026)" class="st1" width="9.5" height="9.5"/>
		
			<rect id="XMLID_127_" x="1356.5" y="98.3" transform="matrix(0.7157 0.6984 -0.6984 0.7157 458.8979 -921.3776)" class="st2" width="9.5" height="9.5"/>
		
			<rect id="XMLID_126_" x="1312.4" y="73.7" transform="matrix(0.7157 0.6984 -0.6984 0.7157 429.1858 -897.4969)" class="st2" width="9.5" height="9.5"/>
		
			<rect id="XMLID_125_" x="1321.1" y="82.2" transform="matrix(0.7157 0.6984 -0.6984 0.7157 437.6145 -901.1719)" class="st2" width="9.5" height="9.5"/>
		
			<rect id="XMLID_124_" x="1329.8" y="90.8" transform="matrix(0.7157 0.6984 -0.6984 0.7157 446.0433 -904.8467)" class="st2" width="9.5" height="9.5"/>
		
			<rect id="XMLID_123_" x="1338.5" y="99.3" transform="matrix(0.7157 0.6984 -0.6984 0.7157 454.472 -908.5217)" class="st1" width="9.5" height="9.5"/>
		
			<rect id="XMLID_122_" x="1347.3" y="107.8" transform="matrix(0.7157 0.6984 -0.6984 0.7157 462.9008 -912.1966)" class="st2" width="9.5" height="9.5"/>
	</g>
	<g id="XMLID_211_">
		
			<ellipse id="XMLID_220_" transform="matrix(0.9996 -2.868820e-02 2.868820e-02 0.9996 -6.5404 7.6076)" class="st1" cx="261.9" cy="231.7" rx="2" ry="3.1"/>
		
			<ellipse id="XMLID_219_" transform="matrix(0.7734 -0.6339 0.6339 0.7734 -79.393 221.9226)" class="st2" cx="270.7" cy="222" rx="32.9" ry="7.6"/>
		<path id="XMLID_218_" class="st1" d="M258.6,207.2c-5.1,4.2-6,11.6-2,16.5c1.3,1.5,2.8,2.6,4.6,3.3c6.2-2.6,12.5-8,16.2-13.8
			c-0.4-1.7-1.1-3.3-2.3-4.7C271.1,203.6,263.7,203,258.6,207.2z"/>
		<path id="XMLID_217_" class="st2" d="M255.2,241.4c7.1,3.6,18.1,1.4,27.1-6c9.2-7.5,13.5-18.1,11.1-25.8c-3.6,5.1-10,11.8-18,18.3
			C268.1,234,260.9,238.7,255.2,241.4z"/>
		<line id="XMLID_216_" class="st2" x1="258.5" y1="207.1" x2="255.2" y2="202.9"/>
		<circle id="XMLID_215_" class="st2" cx="254.4" cy="202.1" r="0.9"/>
		
			<ellipse id="XMLID_214_" transform="matrix(0.7734 -0.6339 0.6339 0.7734 -80.5691 223.9006)" class="st1" cx="272.9" cy="224.6" rx="2" ry="3.1"/>
		
			<ellipse id="XMLID_213_" transform="matrix(-2.868820e-02 -0.9996 0.9996 -2.868820e-02 74.5868 502.8027)" class="st1" cx="281.6" cy="215.2" rx="2" ry="3.1"/>
		<path id="XMLID_212_" class="st1" d="M322.4,241.2l-0.2-0.2c-0.2-0.1-0.4-0.2-0.7-0.2L289,228.2c-1.9,2.4-4.2,4.7-6.8,6.9
			c-2.6,2.2-5.4,3.9-8.1,5.4l5.9,34.4c0,0.3-0.1,0.4,0,0.6l-0.1,0l0,0c0,0,0.2,0.2,0.2,0.3c1.9,2.3,12.9-3.5,24.6-13
			C316.4,253.1,324.3,243.5,322.4,241.2"/>
	</g>
	<g id="XMLID_221_">
		<path id="XMLID_225_" class="st2" d="M674.1,190.2c-11.5,9.9-51.2,3.4-60.1-8.9c-2.1-2.9,2.9-17.6,2.1-14.1
			c-2.8,11.4,52.5,22.1,60.1,8.9C677.9,173,676.8,187.8,674.1,190.2z"/>
		<path id="XMLID_224_" class="st1" d="M671.7,206.1c-11.5,9.9-51.2,3.4-60.1-8.9c-2.1-2.9,2.9-17.6,2.1-14.1
			c-2.8,11.4,52.5,22.1,60.1,8.9C675.6,188.9,674.5,203.8,671.7,206.1z"/>
		
			<ellipse id="XMLID_223_" transform="matrix(0.9893 0.1456 -0.1456 0.9893 31.1262 -92.4476)" class="st1" cx="647.2" cy="166.4" rx="30.3" ry="12.5"/>
		<path id="XMLID_222_" class="st2" d="M669.4,222.3c-11.5,9.9-51.2,3.4-60.1-8.9c-2.1-2.9,2.9-17.6,2.1-14.1
			c-2.8,11.4,52.5,22.1,60.1,8.9C673.2,205.1,672.1,220,669.4,222.3z"/>
	</g>
	<g id="XMLID_226_">
		
			<rect id="XMLID_251_" x="848.2" y="219.2" transform="matrix(0.9181 -0.3964 0.3964 0.9181 -18.897 356.4407)" class="st3" width="9.5" height="9.5"/>
		
			<rect id="XMLID_250_" x="859.4" y="214.4" transform="matrix(0.9181 -0.3964 0.3964 0.9181 -16.0634 360.4829)" class="st3" width="9.5" height="9.5"/>
		
			<rect id="XMLID_249_" x="870.5" y="209.5" transform="matrix(0.9181 -0.3964 0.3964 0.9181 -13.2298 364.5251)" class="st1" width="9.5" height="9.5"/>
		
			<rect id="XMLID_248_" x="881.7" y="204.7" transform="matrix(0.9181 -0.3964 0.3964 0.9181 -10.3963 368.5672)" class="st3" width="9.5" height="9.5"/>
		
			<rect id="XMLID_247_" x="892.9" y="199.9" transform="matrix(0.9181 -0.3964 0.3964 0.9181 -7.5627 372.6094)" class="st1" width="9.5" height="9.5"/>
		
			<rect id="XMLID_246_" x="853.4" y="231.4" transform="matrix(0.9181 -0.3964 0.3964 0.9181 -23.2999 359.5272)" class="st1" width="9.5" height="9.5"/>
		
			<rect id="XMLID_245_" x="864.6" y="226.6" transform="matrix(0.9181 -0.3964 0.3964 0.9181 -20.4663 363.5693)" class="st3" width="9.5" height="9.5"/>
		
			<rect id="XMLID_244_" x="875.8" y="221.7" transform="matrix(0.9181 -0.3964 0.3964 0.9181 -17.6327 367.6115)" class="st3" width="9.5" height="9.5"/>
		
			<rect id="XMLID_243_" x="887" y="216.9" transform="matrix(0.9181 -0.3964 0.3964 0.9181 -14.7992 371.6537)" class="st1" width="9.5" height="9.5"/>
		
			<rect id="XMLID_242_" x="898.2" y="212.1" transform="matrix(0.9181 -0.3964 0.3964 0.9181 -11.9656 375.6958)" class="st3" width="9.5" height="9.5"/>
		
			<rect id="XMLID_241_" x="858.7" y="243.6" transform="matrix(0.9181 -0.3964 0.3964 0.9181 -27.7028 362.6136)" class="st3" width="9.5" height="9.5"/>
		
			<rect id="XMLID_240_" x="869.9" y="238.8" transform="matrix(0.9181 -0.3964 0.3964 0.9181 -24.8692 366.6558)" class="st1" width="9.5" height="9.5"/>
		
			<rect id="XMLID_239_" x="881.1" y="233.9" transform="matrix(0.9181 -0.3964 0.3964 0.9181 -22.0356 370.698)" class="st1" width="9.5" height="9.5"/>
		
			<rect id="XMLID_238_" x="892.3" y="229.1" transform="matrix(0.9181 -0.3964 0.3964 0.9181 -19.2021 374.7401)" class="st3" width="9.5" height="9.5"/>
		
			<rect id="XMLID_237_" x="903.5" y="224.2" transform="matrix(0.9181 -0.3964 0.3964 0.9181 -16.3685 378.7823)" class="st3" width="9.5" height="9.5"/>
		
			<rect id="XMLID_236_" x="864" y="255.8" transform="matrix(0.9181 -0.3964 0.3964 0.9181 -32.1057 365.7001)" class="st3" width="9.5" height="9.5"/>
		
			<rect id="XMLID_235_" x="875.1" y="250.9" transform="matrix(0.9181 -0.3964 0.3964 0.9181 -29.2721 369.7422)" class="st1" width="9.5" height="9.5"/>
		
			<rect id="XMLID_234_" x="886.3" y="246.1" transform="matrix(0.9181 -0.3964 0.3964 0.9181 -26.4386 373.7844)" class="st1" width="9.5" height="9.5"/>
		
			<rect id="XMLID_233_" x="897.5" y="241.3" transform="matrix(0.9181 -0.3964 0.3964 0.9181 -23.605 377.8266)" class="st1" width="9.5" height="9.5"/>
		
			<rect id="XMLID_232_" x="908.7" y="236.4" transform="matrix(0.9181 -0.3964 0.3964 0.9181 -20.7714 381.8687)" class="st3" width="9.5" height="9.5"/>
		
			<rect id="XMLID_231_" x="869.2" y="268" transform="matrix(0.9181 -0.3964 0.3964 0.9181 -36.5086 368.7866)" class="st3" width="9.5" height="9.5"/>
		
			<rect id="XMLID_230_" x="880.4" y="263.1" transform="matrix(0.9181 -0.3964 0.3964 0.9181 -33.675 372.8287)" class="st3" width="9.5" height="9.5"/>
		
			<rect id="XMLID_229_" x="891.6" y="258.3" transform="matrix(0.9181 -0.3964 0.3964 0.9181 -30.8415 376.8709)" class="st3" width="9.5" height="9.5"/>
		
			<rect id="XMLID_228_" x="902.8" y="253.5" transform="matrix(0.9181 -0.3964 0.3964 0.9181 -28.0079 380.9131)" class="st1" width="9.5" height="9.5"/>
		
			<rect id="XMLID_227_" x="914" y="248.6" transform="matrix(0.9181 -0.3964 0.3964 0.9181 -25.1743 384.9552)" class="st3" width="9.5" height="9.5"/>
	</g>
	<g id="XMLID_253_">
		<path id="XMLID_262_" class="st0" d="M1647.7,65.6c0.9,3,0.7,6.3-0.4,9.2c-0.3,0.9,0.1,1.9,1,2.2c0,0,0,0,0,0
			c0.9,0.3,1.8-0.1,2.2-1c1.3-3.6,1.5-7.6,0.4-11.3c-0.3-0.9-1.2-1.4-2.1-1.2C1648,63.8,1647.4,64.7,1647.7,65.6z"/>
		<path id="XMLID_261_" class="st0" d="M1620.3,82.6c2,2,4.3,3.4,7,4.3c0.8,0.3,1.6,0.5,2.4,0.6l-4.6-8.3c-1.2,0.3-2.4,0.3-3.6-0.2
			c-0.9-0.3-1.7-0.8-2.4-1.5c-2.5-2.4-2.5-6.5-0.1-9c1.7-1.7,4.3-2.4,6.6-1.6c0.9,0.3,1.7,0.8,2.4,1.5c0.1,0.1,0.3,0.3,0.4,0.4
			l21-9.6c-0.8-1.3-1.7-2.5-2.9-3.6c-2-2-4.3-3.4-7-4.3c-6.8-2.4-14.5-0.5-19.5,4.6c-3.5,3.6-5.4,8.3-5.3,13.3
			C1614.8,74.4,1616.8,79.1,1620.3,82.6z"/>
		<path id="XMLID_260_" class="st0" d="M1624.5,70.3c-1.1-0.4-2.3-0.1-3,0.7c-1.1,1.2-1.1,3,0,4.1c0.3,0.3,0.7,0.5,1.1,0.7
			c1.1,0.4,2.3,0.1,3-0.7c1.1-1.1,1.1-3,0-4.1C1625.3,70.7,1624.9,70.5,1624.5,70.3z"/>
		<path id="XMLID_259_" class="st0" d="M1608.5,73.2c1.1,0,2.1,0,3.2,0.2c-0.6-3.3-0.5-6.7,0.4-10.1c0.1-0.3,0-0.8,0.1-1.1
			c-3.6-1.3-8-0.3-10.3,3l-2,2.9c2.1,0.1,4.2,0.9,5.8,2C1606.7,70.9,1607.8,72.1,1608.5,73.2z"/>
		<path id="XMLID_258_" class="st0" d="M1585.1,85.8l15.5-2.7c3.6-0.6,6-3.6,5.5-6.7c-0.2-1.3-1-2.5-2.2-3.3c-1.5-1-3.4-1.4-5.2-1.1
			l-15.5,2.7c-3.6,0.6-6,3.6-5.5,6.7c0.2,1.3,1,2.5,2.2,3.3C1581.3,85.8,1583.2,86.2,1585.1,85.8z"/>
		<path id="XMLID_257_" class="st0" d="M1590.4,101.2c-1.5-1-3.4-1.4-5.3-1.1l-15.5,2.7c-3.6,0.6-6,3.6-5.5,6.7
			c0.2,1.3,1,2.5,2.2,3.3c1.5,1,3.4,1.4,5.3,1.1l15.5-2.7c3.6-0.6,6-3.6,5.5-6.7C1592.4,103.2,1591.6,102,1590.4,101.2z"/>
		<path id="XMLID_256_" class="st0" d="M1603.4,119.6l-5.2,7.5c-2.1,3-1.8,6.8,0.8,8.6c2.6,1.8,6.2,0.8,8.3-2.2l7.7-11
			c-3.9,0.2-7.9-0.3-11.3-2.7L1603.4,119.6z"/>
		<path id="XMLID_255_" class="st0" d="M1631.5,91.2c-3.8-0.3-7.6-1.6-10.8-3.9c-2.7-1.9-4.9-4.3-6.5-7.1c-0.6-1-1-2-1.4-3
			c-1.1-0.3-2.2-0.5-3.2-0.5c0.4,4.6-3.3,8.9-8.4,9.8l-7.5,1.3l-1.5,2.1c-1.6,2.2-2.3,4.8-2.5,7.3c0.9,0.3,1.8,0.7,2.6,1.3
			c1.9,1.4,3.2,3.3,3.6,5.6c0.3,1.8-0.2,3.9-1,5.5c0.2,0.2,0.2,0.6,0.4,0.8l10.1,7.1c6.4,4.5,15.5,2.2,20-4.2l5.1-7.2
			C1633.6,101.3,1633.9,95.7,1631.5,91.2z"/>
		<path id="XMLID_254_" class="st0" d="M1653.9,90c-1.5-1-3.4-1.4-5.3-1.1l-9.6,1.7c-1.2,0.3-2.4,0.5-3.7,0.6l-0.1,0
			c1.4,3.6,1.7,7.6,0.6,11.4l14.7-2.6c3.6-0.6,6-3.6,5.5-6.7C1655.9,92,1655.1,90.8,1653.9,90z"/>
	</g>
	<g id="XMLID_338_">
		
			<rect id="XMLID_363_" x="1769.2" y="187.6" transform="matrix(0.9181 -0.3964 0.3964 0.9181 69.0838 718.9501)" class="st3" width="9.5" height="9.5"/>
		
			<rect id="XMLID_362_" x="1780.4" y="182.8" transform="matrix(0.9181 -0.3964 0.3964 0.9181 71.9174 722.9922)" class="st3" width="9.5" height="9.5"/>
		
			<rect id="XMLID_361_" x="1791.6" y="177.9" transform="matrix(0.9181 -0.3964 0.3964 0.9181 74.7509 727.0344)" class="st1" width="9.5" height="9.5"/>
		
			<rect id="XMLID_360_" x="1802.8" y="173.1" transform="matrix(0.9181 -0.3964 0.3964 0.9181 77.5845 731.0765)" class="st3" width="9.5" height="9.5"/>
		
			<rect id="XMLID_359_" x="1814" y="168.3" transform="matrix(0.9181 -0.3964 0.3964 0.9181 80.4181 735.1187)" class="st1" width="9.5" height="9.5"/>
		
			<rect id="XMLID_358_" x="1774.4" y="199.8" transform="matrix(0.9181 -0.3964 0.3964 0.9181 64.6809 722.0365)" class="st1" width="9.5" height="9.5"/>
		
			<rect id="XMLID_357_" x="1785.6" y="195" transform="matrix(0.9181 -0.3964 0.3964 0.9181 67.5144 726.0787)" class="st3" width="9.5" height="9.5"/>
		
			<rect id="XMLID_356_" x="1796.8" y="190.1" transform="matrix(0.9181 -0.3964 0.3964 0.9181 70.348 730.1208)" class="st3" width="9.5" height="9.5"/>
		
			<rect id="XMLID_355_" x="1808" y="185.3" transform="matrix(0.9181 -0.3964 0.3964 0.9181 73.1816 734.163)" class="st1" width="9.5" height="9.5"/>
		
			<rect id="XMLID_354_" x="1819.2" y="180.5" transform="matrix(0.9181 -0.3964 0.3964 0.9181 76.0152 738.2052)" class="st3" width="9.5" height="9.5"/>
		
			<rect id="XMLID_353_" x="1779.7" y="212" transform="matrix(0.9181 -0.3964 0.3964 0.9181 60.278 725.123)" class="st3" width="9.5" height="9.5"/>
		
			<rect id="XMLID_352_" x="1790.9" y="207.2" transform="matrix(0.9181 -0.3964 0.3964 0.9181 63.1115 729.1652)" class="st1" width="9.5" height="9.5"/>
		
			<rect id="XMLID_351_" x="1802.1" y="202.3" transform="matrix(0.9181 -0.3964 0.3964 0.9181 65.9451 733.2073)" class="st1" width="9.5" height="9.5"/>
		
			<rect id="XMLID_350_" x="1813.3" y="197.5" transform="matrix(0.9181 -0.3964 0.3964 0.9181 68.7787 737.2495)" class="st3" width="9.5" height="9.5"/>
		
			<rect id="XMLID_349_" x="1824.5" y="192.7" transform="matrix(0.9181 -0.3964 0.3964 0.9181 71.6123 741.2916)" class="st3" width="9.5" height="9.5"/>
		
			<rect id="XMLID_348_" x="1785" y="224.2" transform="matrix(0.9181 -0.3964 0.3964 0.9181 55.875 728.2094)" class="st3" width="9.5" height="9.5"/>
		
			<rect id="XMLID_347_" x="1796.2" y="219.3" transform="matrix(0.9181 -0.3964 0.3964 0.9181 58.7086 732.2516)" class="st1" width="9.5" height="9.5"/>
		
			<rect id="XMLID_346_" x="1807.4" y="214.5" transform="matrix(0.9181 -0.3964 0.3964 0.9181 61.5422 736.2938)" class="st1" width="9.5" height="9.5"/>
		
			<rect id="XMLID_345_" x="1818.6" y="209.7" transform="matrix(0.9181 -0.3964 0.3964 0.9181 64.3758 740.3359)" class="st1" width="9.5" height="9.5"/>
		
			<rect id="XMLID_344_" x="1829.8" y="204.8" transform="matrix(0.9181 -0.3964 0.3964 0.9181 67.2093 744.3781)" class="st3" width="9.5" height="9.5"/>
		
			<rect id="XMLID_343_" x="1790.2" y="236.4" transform="matrix(0.9181 -0.3964 0.3964 0.9181 51.4721 731.2959)" class="st3" width="9.5" height="9.5"/>
		
			<rect id="XMLID_342_" x="1801.4" y="231.5" transform="matrix(0.9181 -0.3964 0.3964 0.9181 54.3057 735.3381)" class="st3" width="9.5" height="9.5"/>
		
			<rect id="XMLID_341_" x="1812.6" y="226.7" transform="matrix(0.9181 -0.3964 0.3964 0.9181 57.1393 739.3802)" class="st3" width="9.5" height="9.5"/>
		
			<rect id="XMLID_340_" x="1823.8" y="221.9" transform="matrix(0.9181 -0.3964 0.3964 0.9181 59.9729 743.4224)" class="st1" width="9.5" height="9.5"/>
		
			<rect id="XMLID_339_" x="1835" y="217" transform="matrix(0.9181 -0.3964 0.3964 0.9181 62.8064 747.4645)" class="st3" width="9.5" height="9.5"/>
	</g>
	<g id="XMLID_395_">
		<path id="XMLID_399_" class="st2" d="M1504.5,253.3c-13.3,7.4-50.9-6.8-57.2-20.7c-1.5-3.2,6.4-16.6,4.8-13.4
			c-5,10.6,47,32.2,57.2,20.7C1511.7,237.2,1507.6,251.5,1504.5,253.3z"/>
		<path id="XMLID_398_" class="st1" d="M1499,268.4c-13.3,7.4-50.9-6.8-57.2-20.7c-1.5-3.2,6.4-16.6,4.8-13.4
			c-5,10.6,47,32.2,57.2,20.7C1506.2,252.3,1502.1,266.7,1499,268.4z"/>
		
			<ellipse id="XMLID_397_" transform="matrix(0.9405 0.3399 -0.3399 0.9405 164.6492 -490.6631)" class="st1" cx="1482.8" cy="224.6" rx="30.3" ry="12.5"/>
		<path id="XMLID_396_" class="st2" d="M1493.4,283.8c-13.3,7.4-50.9-6.8-57.2-20.7c-1.5-3.2,6.4-16.6,4.8-13.4
			c-5,10.6,47,32.2,57.2,20.7C1500.6,267.7,1496.5,282.1,1493.4,283.8z"/>
	</g>
	<g id="XMLID_482_">
		<path id="XMLID_486_" class="st2" d="M151.6,69.8c-1.6,14.4-33.6,35.8-47.9,33c-3.3-0.6-9.4-14.2-7.7-11.2
			c5.5,9.8,51.2-18.7,47.9-33C143.1,55.3,152,66.4,151.6,69.8z"/>
		<path id="XMLID_485_" class="st1" d="M160.3,82.5c-1.6,14.4-33.6,35.8-47.9,33c-3.3-0.6-9.4-14.2-7.7-11.2
			c5.5,9.8,51.2-18.7,47.9-33C151.8,68,160.7,79.1,160.3,82.5z"/>
		
			<ellipse id="XMLID_484_" transform="matrix(0.8233 -0.5676 0.5676 0.8233 -19.4541 79.0644)" class="st1" cx="117.3" cy="70.8" rx="29" ry="12"/>
		<path id="XMLID_483_" class="st2" d="M169.2,95.4c-1.6,14.4-33.6,35.8-47.9,33c-3.3-0.6-9.4-14.2-7.7-11.2
			c5.5,9.8,51.2-18.7,47.9-33C160.7,80.9,169.6,92,169.2,95.4z"/>
	</g>
</g>
<g id="XMLID_446_">
	
		<ellipse id="XMLID_455_" transform="matrix(0.8868 0.4622 -0.4622 0.8868 -147.1956 -105.4882)" class="st1" cx="141.7" cy="-353.2" rx="2" ry="3.1"/>
	
		<ellipse id="XMLID_454_" transform="matrix(0.9843 -0.1765 0.1765 0.9843 65.4788 21.601)" class="st2" cx="154.2" cy="-357.3" rx="32.9" ry="7.6"/>
	<path id="XMLID_453_" class="st1" d="M150.8-376.1c-6.5,1.2-10.9,7.2-9.8,13.4c0.3,1.9,1.2,3.7,2.4,5.1c6.7,0.7,14.8-0.9,20.9-4.1
		c0.5-1.6,0.6-3.4,0.3-5.2C163.5-373.2,157.3-377.3,150.8-376.1z"/>
	<path id="XMLID_452_" class="st2" d="M131.2-348c4.5,6.6,15.1,10,26.6,8c11.7-2.1,20.6-9.2,22.3-17.1c-5.6,2.7-14.5,5.4-24.6,7.3
		C146.1-348.2,137.4-347.6,131.2-348z"/>
	<line id="XMLID_451_" class="st2" x1="150.8" y1="-376.3" x2="149.9" y2="-381.6"/>
	<circle id="XMLID_450_" class="st2" cx="149.6" cy="-382.7" r="0.9"/>
	
		<ellipse id="XMLID_449_" transform="matrix(0.9843 -0.1765 0.1765 0.9843 64.8952 21.7629)" class="st1" cx="154.8" cy="-354" rx="2" ry="3.1"/>
	
		<ellipse id="XMLID_448_" transform="matrix(0.4622 -0.8868 0.8868 0.4622 407.2905 -44.4429)" class="st1" cx="167" cy="-358" rx="2" ry="3.1"/>
	<path id="XMLID_447_" class="st1" d="M190-315.4l-0.1-0.3c-0.1-0.2-0.3-0.4-0.5-0.5L167.1-343c-2.9,1.2-6,2.1-9.3,2.7
		c-3.4,0.6-6.6,0.8-9.7,0.7l-11.6,32.9c-0.1,0.2-0.2,0.4-0.3,0.6l0,0l0,0c0,0,0,0.2,0,0.3c0.5,2.9,13,3.2,27.8,0.6
		C178.9-307.9,190.5-312.5,190-315.4"/>
</g>
<g id="XMLID_415_">
	
		<rect id="XMLID_440_" x="231.2" y="-83.4" transform="matrix(0.9181 -0.3964 0.3964 0.9181 50.5093 87.0746)" class="st3" width="9.5" height="9.5"/>
	
		<rect id="XMLID_439_" x="242.4" y="-88.2" transform="matrix(0.9181 -0.3964 0.3964 0.9181 53.3429 91.1168)" class="st3" width="9.5" height="9.5"/>
	
		<rect id="XMLID_438_" x="253.6" y="-93.1" transform="matrix(0.9181 -0.3964 0.3964 0.9181 56.1764 95.159)" class="st1" width="9.5" height="9.5"/>
	
		<rect id="XMLID_437_" x="264.8" y="-97.9" transform="matrix(0.9181 -0.3964 0.3964 0.9181 59.01 99.2011)" class="st3" width="9.5" height="9.5"/>
	
		<rect id="XMLID_436_" x="276" y="-102.7" transform="matrix(0.9181 -0.3964 0.3964 0.9181 61.8436 103.2433)" class="st1" width="9.5" height="9.5"/>
	
		<rect id="XMLID_435_" x="236.4" y="-71.2" transform="matrix(0.9181 -0.3964 0.3964 0.9181 46.1064 90.1611)" class="st1" width="9.5" height="9.5"/>
	
		<rect id="XMLID_434_" x="247.6" y="-76" transform="matrix(0.9181 -0.3964 0.3964 0.9181 48.94 94.2032)" class="st3" width="9.5" height="9.5"/>
	
		<rect id="XMLID_433_" x="258.8" y="-80.9" transform="matrix(0.9181 -0.3964 0.3964 0.9181 51.7735 98.2454)" class="st3" width="9.5" height="9.5"/>
	
		<rect id="XMLID_432_" x="270" y="-85.7" transform="matrix(0.9181 -0.3964 0.3964 0.9181 54.6071 102.2876)" class="st1" width="9.5" height="9.5"/>
	
		<rect id="XMLID_431_" x="281.2" y="-90.5" transform="matrix(0.9181 -0.3964 0.3964 0.9181 57.4407 106.3297)" class="st3" width="9.5" height="9.5"/>
	
		<rect id="XMLID_430_" x="241.7" y="-59" transform="matrix(0.9181 -0.3964 0.3964 0.9181 41.7035 93.2475)" class="st3" width="9.5" height="9.5"/>
	
		<rect id="XMLID_429_" x="252.9" y="-63.8" transform="matrix(0.9181 -0.3964 0.3964 0.9181 44.5371 97.2897)" class="st1" width="9.5" height="9.5"/>
	
		<rect id="XMLID_428_" x="264.1" y="-68.7" transform="matrix(0.9181 -0.3964 0.3964 0.9181 47.3706 101.3319)" class="st1" width="9.5" height="9.5"/>
	
		<rect id="XMLID_427_" x="275.3" y="-73.5" transform="matrix(0.9181 -0.3964 0.3964 0.9181 50.2042 105.374)" class="st3" width="9.5" height="9.5"/>
	
		<rect id="XMLID_426_" x="286.5" y="-78.3" transform="matrix(0.9181 -0.3964 0.3964 0.9181 53.0378 109.4162)" class="st3" width="9.5" height="9.5"/>
	
		<rect id="XMLID_425_" x="247" y="-46.8" transform="matrix(0.9181 -0.3964 0.3964 0.9181 37.3006 96.334)" class="st3" width="9.5" height="9.5"/>
	
		<rect id="XMLID_424_" x="258.2" y="-51.7" transform="matrix(0.9181 -0.3964 0.3964 0.9181 40.1341 100.3762)" class="st1" width="9.5" height="9.5"/>
	
		<rect id="XMLID_423_" x="269.4" y="-56.5" transform="matrix(0.9181 -0.3964 0.3964 0.9181 42.9677 104.4183)" class="st1" width="9.5" height="9.5"/>
	
		<rect id="XMLID_422_" x="280.6" y="-61.3" transform="matrix(0.9181 -0.3964 0.3964 0.9181 45.8013 108.4605)" class="st1" width="9.5" height="9.5"/>
	
		<rect id="XMLID_421_" x="291.8" y="-66.2" transform="matrix(0.9181 -0.3964 0.3964 0.9181 48.6349 112.5026)" class="st3" width="9.5" height="9.5"/>
	
		<rect id="XMLID_420_" x="252.2" y="-34.6" transform="matrix(0.9181 -0.3964 0.3964 0.9181 32.8977 99.4204)" class="st3" width="9.5" height="9.5"/>
	
		<rect id="XMLID_419_" x="263.4" y="-39.5" transform="matrix(0.9181 -0.3964 0.3964 0.9181 35.7312 103.4626)" class="st3" width="9.5" height="9.5"/>
	
		<rect id="XMLID_418_" x="274.6" y="-44.3" transform="matrix(0.9181 -0.3964 0.3964 0.9181 38.5648 107.5048)" class="st3" width="9.5" height="9.5"/>
	
		<rect id="XMLID_417_" x="285.8" y="-49.1" transform="matrix(0.9181 -0.3964 0.3964 0.9181 41.3984 111.5469)" class="st1" width="9.5" height="9.5"/>
	
		<rect id="XMLID_416_" x="297" y="-54" transform="matrix(0.9181 -0.3964 0.3964 0.9181 44.232 115.5891)" class="st3" width="9.5" height="9.5"/>
</g>
</svg>
