<?xml version="1.0" encoding="utf-8"?>
<!-- Generator: Adobe Illustrator 19.0.0, SVG Export Plug-In . SVG Version: 6.00 Build 0)  -->
<svg version="1.1" id="Слой_1" xmlns="http://www.w3.org/2000/svg" xmlns:xlink="http://www.w3.org/1999/xlink" x="0px" y="0px"
	 viewBox="0 0 1920 1080" style="enable-background:new 0 0 1920 1080;" xml:space="preserve">
<style type="text/css">
	.st0{fill:#1D1D1B;}
	.st1{fill:#FFFFFF;}
	.st2{fill:#FA951A;}
	.st3{fill:#196099;}
	.st4{opacity:0.5;}
</style>
<g id="XMLID_91_">
	<path id="XMLID_32_" class="st0" d="M-249.7,220.8c8.5-2.4,15.4-6.3,17.9-10c-1.9,0.9-4.1,1.7-6.5,2.3c-7.4,2-13.2-0.4-13.2-0.4
		s3.8-5.1,11.2-7.1c2.4-0.7,4.7-1.1,6.8-1.3c-4.1-1.9-12-1.8-20.5,0.6c-11.6,3.2-17,13.3-17,13.3S-261.3,224-249.7,220.8z"/>
</g>
<g id="XMLID_84_">
	<g id="XMLID_89_">
		<path id="XMLID_31_" class="st1" d="M-214.4,194.3c-1.1,2.3-3.5,2.7-5.8,1.4c-5.6-3.2-12.8-4.8-20.3-3.6c-3.2,0.6-3.9-0.5-1.1-2.6
			c6.7-4.8,15.3-7.6,24.7-7.2c4,0.2,6.5,2.8,5.5,5.1C-212.4,189.7-213.4,192-214.4,194.3z"/>
	</g>
	<g id="XMLID_85_">
		<path id="XMLID_86_" class="st0" d="M-217.6,197.8c-1.1,0-2.2-0.3-3.2-0.9c-4.3-2.5-9.3-3.8-14.5-3.8c-1.6,0-3.3,0.1-4.9,0.4
			c-0.7,0.1-1.2,0.2-1.8,0.2c-1.9,0-2.4-0.9-2.6-1.5c-0.5-1.5,1-2.9,2.2-3.8c7.2-5.2,16.4-7.9,25.6-7.5c2.8,0.1,5.3,1.4,6.4,3.2
			c0.8,1.2,0.9,2.6,0.3,3.9l-2.9,6.9C-213.9,196.7-215.6,197.8-217.6,197.8z M-235.4,190.3c5.7,0,11.2,1.4,15.9,4.2
			c0.6,0.4,1.3,0.6,1.8,0.6c0.9,0,1.6-0.5,2-1.3l2.9-6.9c0.2-0.4,0.1-0.8-0.1-1.2c-0.5-0.8-1.9-1.8-4.1-1.9c-0.5,0-1.1,0-1.6,0
			c-8,0-15.9,2.5-22.2,7c0,0-0.1,0-0.1,0.1c0,0,0.1,0,0.1,0l0,0C-239,190.4-237.1,190.3-235.4,190.3z"/>
	</g>
</g>
<g id="XMLID_77_">
	<g id="XMLID_82_">
		<path id="XMLID_28_" class="st1" d="M-210.3,208.9c-2.2-1.3-4.4-0.3-5.6,2.1c-2.8,5.8-7.8,11.2-14.7,14.5
			c-2.9,1.3-2.9,2.6,0.6,2.7c8.2,0.1,16.9-2.5,24.4-8.1c3.2-2.4,3.8-6.1,1.6-7.3C-206.1,211.6-208.2,210.2-210.3,208.9z"/>
	</g>
	<g id="XMLID_78_">
		<path id="XMLID_79_" class="st0" d="M-229.4,229.7L-229.4,229.7c-0.2,0-0.4,0-0.7,0c-1,0-3.7-0.2-4.1-2.1c-0.4-1.9,2.1-3,2.9-3.4
			c6.2-3,11.2-7.9,14-13.8c1-2.2,2.9-3.5,4.9-3.5c0.9,0,1.8,0.3,2.6,0.8l0,0l6.3,4c1.2,0.7,1.9,1.9,2,3.3c0.1,2.2-1.2,4.6-3.4,6.3
			C-212,226.7-220.7,229.7-229.4,229.7z M-230.1,226.9c0,0,0.1,0,0.2,0c0.2,0,0.4,0,0.6,0c8.1,0,16.2-2.8,22.9-7.8
			c1.8-1.4,2.4-2.9,2.3-3.9c0-0.5-0.2-0.9-0.6-1.1l0,0l-6.2-4c-0.4-0.2-0.8-0.4-1.2-0.4c-0.9,0-1.8,0.7-2.4,1.9
			c-3.1,6.5-8.6,11.9-15.4,15.2L-230.1,226.9C-230.1,226.9-230.1,226.9-230.1,226.9z"/>
	</g>
</g>
<g id="XMLID_72_">
	<path id="XMLID_25_" class="st1" d="M-145.5,173.4c0.1-0.4,0.2-0.9,0.2-1.3c0.1-2.4-1.8-4.4-4.2-4.5c-5-0.1-9.8-1.8-13.7-4.8
		c-1.9-1.5-4.6-1.1-6.1,0.8c-1.5,1.9-1.1,4.6,0.8,6.1c5.5,4.2,12,6.4,18.8,6.6C-147.7,176.4-146.1,175.1-145.5,173.4z"/>
	<path id="XMLID_73_" class="st0" d="M-149.6,177.7L-149.6,177.7l-0.1,0c-7.2-0.2-13.9-2.6-19.6-6.9c-2.5-1.9-3-5.5-1.1-8.1
		c1.1-1.4,2.8-2.3,4.6-2.3c1.3,0,2.5,0.4,3.5,1.2c3.7,2.9,8.2,4.4,12.9,4.5c3.2,0.1,5.7,2.7,5.6,5.9c0,0.6-0.1,1.2-0.3,1.8
		C-145,176.2-147.1,177.7-149.6,177.7z M-165.8,163.3c-0.9,0-1.8,0.4-2.3,1.2c-1,1.3-0.7,3.1,0.6,4.1c5.2,4,11.4,6.2,18,6.3l0.1,0
		c1.2,0,2.4-0.8,2.8-2c0.1-0.3,0.2-0.6,0.2-0.9c0-1.6-1.3-3-2.9-3c-5.3-0.1-10.3-1.9-14.5-5.1C-164.6,163.5-165.2,163.3-165.8,163.3
		z"/>
</g>
<g id="XMLID_67_">
	<path id="XMLID_22_" class="st1" d="M-113.7,178.9c0,0-17.4,22.9-50.5,30.6c-33.1,7.7-61.8,5.8-64.1-4.1
		c-2.3-9.9,22.7-24.1,55.8-31.8C-139.4,165.9-113.7,178.9-113.7,178.9z"/>
	<path id="XMLID_68_" class="st0" d="M-201.6,215.6c-16.6,0-26.5-3.5-28-9.9c-1.3-5.5,4-11.9,15.3-18.3
		c10.6-6.1,25.4-11.5,41.5-15.2c7-1.6,14.3-2.5,21.5-2.5c22.3,0,37.5,7.6,38.2,7.9l1.5,0.8l-1,1.3c-0.2,0.2-4.6,6-13.1,12.7
		c-7.8,6.2-20.8,14.4-38.2,18.4C-177.3,213.9-190.4,215.6-201.6,215.6z M-151.2,172.5c-7.1,0-14.1,0.8-20.9,2.4
		c-15.9,3.7-30.3,9-40.8,14.9c-9.7,5.5-14.9,11.2-13.9,15.2c1.1,4.8,10.8,7.7,25.3,7.7c11,0,23.8-1.6,37.1-4.7
		c27.6-6.4,44.2-23.7,48.5-28.7C-120.4,177.5-133.7,172.5-151.2,172.5z"/>
</g>
<g id="XMLID_65_">
	<path id="XMLID_19_" class="st0" d="M-150.6,174.6c0.8,3.4-8.8,8.5-21.4,11.4c-12.6,2.9-23.5,2.5-24.3-0.9
		c-0.8-3.4,8.8-8.5,21.4-11.4C-162.2,170.8-151.4,171.2-150.6,174.6z"/>
</g>
<g id="XMLID_60_">
	<path id="XMLID_18_" class="st1" d="M-192.5,182.2c1.2,5.4,32.6-1.9,31.4-7.3l-1.3-5.4c-1.2-5.4-7.3-8.6-13.6-7.1l-8.8,2
		c-6.2,1.4-10.3,7-9.1,12.4L-192.5,182.2z"/>
	<path id="XMLID_61_" class="st0" d="M-187,185.5L-187,185.5c-1.5,0-6.2,0-6.9-3l-1.3-5.4c-1.4-6.1,3.1-12.4,10.1-14l8.8-2
		c1.1-0.3,2.2-0.4,3.3-0.4c5.9,0,10.8,3.5,11.9,8.6l1.3,5.4c0.1,0.6,0.1,1.6-0.8,2.8C-164,181.8-179.3,185.5-187,185.5z M-173,163.5
		c-0.9,0-1.8,0.1-2.7,0.3l-8.8,2c-5.5,1.3-9.1,6-8,10.7l1.3,5.4c0,0,0.6,0.8,4.1,0.8c4.2,0,10.5-1.1,15.9-2.8
		c7.1-2.2,8.6-4.2,8.6-4.6l-1.3-5.4C-164.6,166.1-168.4,163.5-173,163.5z"/>
</g>
<g id="XMLID_44_">
	<g id="XMLID_55_">
		<path id="XMLID_15_" class="st1" d="M-167.4,158.5c-4.9,7.9-15.4,10.3-23.3,5.4c-7.9-4.9-10.3-15.4-5.4-23.3
			c4.9-7.9,15.4-10.3,23.3-5.4C-164.9,140.1-162.5,150.6-167.4,158.5z"/>
		<path id="XMLID_56_" class="st0" d="M-181.8,167.9c-3.4,0-6.8-1-9.7-2.8c-4.2-2.6-7-6.6-8.1-11.4c-1.1-4.8-0.3-9.7,2.3-13.8
			c3.4-5.4,9.2-8.6,15.6-8.6c3.4,0,6.8,1,9.7,2.8c4.1,2.6,7,6.6,8.1,11.4c1.1,4.8,0.3,9.7-2.3,13.8
			C-169.6,164.6-175.4,167.9-181.8,167.9z M-181.7,134c-5.4,0-10.3,2.7-13.2,7.3c-2.2,3.5-2.9,7.7-2,11.7c0.9,4,3.4,7.5,6.9,9.7
			c2.5,1.5,5.3,2.4,8.2,2.4c5.4,0,10.3-2.7,13.2-7.3c2.2-3.5,2.9-7.7,2-11.7c-0.9-4-3.4-7.5-6.9-9.7C-176,134.9-178.9,134-181.7,134
			z"/>
	</g>
	<g id="XMLID_53_">
		<path id="XMLID_12_" class="st0" d="M-169.4,138l-21.7,16.3l10.7,12.2c5.1-0.4,10-3.2,12.9-7.9
			C-163.3,151.8-164.3,143.4-169.4,138z"/>
	</g>
	<g id="XMLID_48_">
		<path id="XMLID_11_" class="st1" d="M-185.8,156.5c-1.1,1.8-3.5,2.3-5.3,1.2c-1.8-1.1-2.3-3.5-1.2-5.3c1.1-1.8,3.5-2.3,5.3-1.2
			C-185.2,152.4-184.7,154.7-185.8,156.5z"/>
		<path id="XMLID_49_" class="st0" d="M-189,159.7c-1,0-1.9-0.3-2.8-0.8c-2.4-1.5-3.2-4.8-1.7-7.2c1-1.5,2.6-2.5,4.4-2.5
			c1,0,1.9,0.3,2.8,0.8c2.5,1.5,3.2,4.8,1.7,7.2C-185.6,158.8-187.2,159.7-189,159.7z M-189,152.1c-0.8,0-1.6,0.4-2.1,1.1
			c-0.7,1.1-0.4,2.6,0.8,3.3c0.4,0.2,0.8,0.4,1.3,0.4c0.8,0,1.6-0.4,2.1-1.1c0.7-1.1,0.4-2.6-0.8-3.3
			C-188.1,152.2-188.6,152.1-189,152.1z"/>
	</g>
	<g id="XMLID_45_">
		<path id="XMLID_8_" class="st1" d="M-168.1,151.9c0.4-2.9-0.1-5.8-1.5-8.4"/>
		<path id="XMLID_7_" class="st1" d="M-168.1,153.3c-0.1,0-0.1,0-0.2,0c-0.8-0.1-1.3-0.8-1.2-1.6c0.4-2.6-0.1-5.2-1.3-7.5
			c-0.4-0.7-0.1-1.5,0.6-1.9c0.7-0.4,1.5-0.1,1.9,0.6c1.5,2.8,2.1,6.1,1.6,9.2C-166.8,152.8-167.4,153.3-168.1,153.3z"/>
	</g>
</g>
<g id="XMLID_39_">
	<path id="XMLID_6_" class="st1" d="M-195.4,187.9c-6,0-8.4-4.7-5.4-10.4l3.8-6.7c4.7-9.1,11.9-2.7,10.2,1.4
		c-0.9,2.3-2.4,5.2-2.4,5.2s6.2,0.2,8.3,0.1c5.9-0.2,7.1,10.5-3.7,10.4H-195.4z"/>
	<path id="XMLID_40_" class="st0" d="M-184.5,189.3h-10.9c-3.4,0-5.9-1.3-7.2-3.8c-1.3-2.4-1-5.6,0.6-8.8l0,0l3.7-6.7
		c2.4-4.6,5.3-5.3,6.8-5.3c2.1,0,4.1,1.2,5.2,3.2c0.9,1.6,1.1,3.4,0.5,4.9c-0.4,1-1,2.2-1.4,3.2c1.4,0,3.1,0.1,4.5,0.1
		c0.7,0,1.2,0,1.6,0c0.1,0,0.2,0,0.2,0c3.5,0,5.5,3.1,5.5,6c0,2-0.8,3.8-2.4,5.1C-179.2,188.5-181.6,189.3-184.5,189.3z
		 M-199.7,178.2c-1.2,2.3-1.4,4.4-0.6,5.9c0.8,1.5,2.5,2.3,4.9,2.3h10.9c2.3,0,4.2-0.5,5.3-1.6c0.9-0.8,1.4-1.8,1.4-2.9
		c0-1.6-1.1-3.2-3.1-3.1c-0.4,0-1,0-1.7,0c-2.6,0-6.7-0.1-6.7-0.1l-2.1-0.1l1-2.1c0,0,1.4-2.9,2.3-5.1c0.3-0.6,0.1-1.4-0.3-2.1
		c-0.6-1.1-1.8-1.8-3-1.8c-1.7,0-3.3,1.4-4.6,3.9l0,0L-199.7,178.2z"/>
</g>
<g id="XMLID_35_">
	<path id="XMLID_3_" class="st0" d="M-148,139.1c3.8,8.3,3.8,5.4,0,13.7c8.3-3.8,5.4-3.8,13.7,0c-3.8-8.3-3.8-5.4,0-13.7
		C-142.6,143-139.6,143-148,139.1z"/>
	<path id="XMLID_2_" class="st0" d="M-136.3,127.6c2,4.5,2,2.9,0,7.4c4.5-2,2.9-2,7.4,0c-2-4.5-2-2.9,0-7.4
		C-133.4,129.6-131.9,129.6-136.3,127.6z"/>
	<path id="XMLID_1_" class="st0" d="M-121,141.1c-4.5,2-2.9,2-7.4,0c2,4.5,2,2.9,0,7.4c4.5-2,2.9-2,7.4,0
		C-123.1,144-123.1,145.6-121,141.1z"/>
</g>
<g id="XMLID_38_">
	<g id="XMLID_167_">
		<path id="XMLID_168_" class="st2" d="M2059.6,585.3c42.8-11.8,77-31.7,89.7-50.2c-9.4,4.3-20.5,8.4-32.6,11.7
			c-37,10.2-66.4-2-66.4-2s18.8-25.6,55.9-35.8c12.1-3.4,23.7-5.6,34-6.7c-20.4-9.3-59.9-8.8-102.8,3
			c-58.3,16.1-85.1,66.6-85.1,66.6S2001.3,601.4,2059.6,585.3z"/>
	</g>
	<g id="XMLID_165_">
		<path id="XMLID_166_" class="st1" d="M2236.5,452.2c-5.3,11.5-17.5,13.8-29.1,7.1c-28.1-16.2-64-23.9-102-17.9
			c-15.8,3-19.5-2.3-5.5-13c33.6-24.1,76.8-38,123.6-36.2c20.1,0.8,32.7,14.3,27.5,25.7C2246.2,429.3,2241.4,440.7,2236.5,452.2z"/>
	</g>
	<path id="XMLID_162_" class="st3" d="M2220.2,470c-5.4,0-11-1.6-16.3-4.7c-21.6-12.4-46.7-19-72.7-19c-8.1,0-16.4,0.7-24.6,2
		c-3.3,0.6-6.3,0.9-8.8,0.9c-9.3,0-12.2-4.6-13.2-7.3c-2.6-7.7,5.1-14.6,11-19.2c36.3-26,82.1-39.4,128.2-37.6
		c14.1,0.6,26.4,6.8,32.2,16.2c3.8,6.1,4.3,13.2,1.5,19.4l-14.6,34.4C2238.6,464.6,2230.3,470,2220.2,470z M2131.2,432.2
		c28.5,0,56.1,7.2,79.8,20.9c3.2,1.8,6.4,2.8,9.2,2.8c4.4,0,7.8-2.3,9.9-6.6l14.6-34.4c0.9-1.9,0.7-4-0.7-6.2
		c-2.5-4.1-9.4-9-20.7-9.4c-2.6-0.1-5.3-0.1-7.9-0.1c-40.3,0-79.8,12.4-111.3,35c-0.2,0.1-0.3,0.2-0.5,0.4c0.2,0,0.3-0.1,0.5-0.1
		l0.2-0.1C2113.3,433,2122.3,432.2,2131.2,432.2z"/>
	<g id="XMLID_158_">
		<path id="XMLID_159_" class="st1" d="M2256.8,525.6c-10.9-6.4-22.2-1.4-27.9,10.7c-13.9,29.3-39,56.1-73.7,72.7
			c-14.7,6.5-14.8,13,2.9,13.8c41.3,0.7,84.8-12.4,122.3-40.5c16.1-12.1,18.8-30.4,8-36.7C2277.7,538.9,2267.3,532.3,2256.8,525.6z"
			/>
	</g>
	<path id="XMLID_155_" class="st3" d="M2161.2,630L2161.2,630c-1.1,0-2.2,0-3.3,0c-5.2-0.2-18.6-0.8-20.4-10.4
		c-1.8-9.5,10.5-15,14.7-16.9c31.2-15,56.2-39.7,70.3-69.3c5.2-11,14.4-17.6,24.7-17.6c4.5,0,9,1.3,13.2,3.8l0.2,0.1l31.3,19.9
		c5.9,3.5,9.4,9.6,9.8,16.8c0.6,11-6,23.1-17.2,31.6C2248.5,615,2204.7,630,2161.2,630z M2157.6,615.8c0.2,0,0.5,0,0.8,0.1
		c0.8,0,1.8,0,2.8,0c40.4,0,81.2-13.9,114.8-39.2c9-6.8,11.9-14.7,11.6-19.5c-0.2-2.6-1.2-4.4-3-5.5l-0.2-0.1l-31.3-19.9
		c-2-1.2-4-1.8-6-1.8c-4.6,0-9.1,3.5-11.9,9.5c-15.5,32.7-42.9,59.7-77.1,76.1l-0.2,0.1C2157.8,615.6,2157.7,615.7,2157.6,615.8z"/>
	<path id="XMLID_152_" class="st1" d="M2581.9,347.6c0.7-2.1,1.2-4.4,1.2-6.7c0.3-12-9.2-22-21.3-22.3c-25.1-0.6-48.9-9-68.8-24.2
		c-9.6-7.3-23.3-5.5-30.6,4.1c-7.3,9.6-5.5,23.3,4.1,30.6c27.3,20.9,59.9,32.3,94.3,33.1C2570.5,362.4,2578.9,356.2,2581.9,347.6z"
		/>
	<path id="XMLID_149_" class="st3" d="M2561.3,369.2L2561.3,369.2l-0.7,0c-35.9-0.8-69.9-12.8-98.4-34.6
		c-12.6-9.6-15.1-27.8-5.4-40.5c5.5-7.2,13.9-11.4,23-11.4c6.4,0,12.4,2.1,17.5,5.9c18.7,14.3,41.1,22.2,64.7,22.7
		c15.9,0.4,28.6,13.6,28.2,29.6c-0.1,3-0.6,6-1.6,8.9C2584.5,361.5,2573.6,369.2,2561.3,369.2z M2479.8,296.9
		c-4.7,0-8.9,2.1-11.7,5.8c-4.9,6.5-3.7,15.7,2.8,20.7c26.1,19.9,57.3,30.9,90.2,31.7l0.3,0c6.3,0,11.9-4,13.9-9.9
		c0.5-1.5,0.8-3,0.8-4.6c0.2-8.1-6.3-14.9-14.4-15.1c-26.6-0.6-51.8-9.5-72.9-25.6C2486.1,298,2483,296.9,2479.8,296.9z"/>
	<path id="XMLID_147_" class="st1" d="M2741.2,375c0,0-87.1,114.9-253,153.2c-165.9,38.4-309.7,29.1-321.1-20.6
		c-11.5-49.7,113.7-121.1,279.5-159.4C2612.5,310,2741.2,375,2741.2,375z"/>
	<path id="XMLID_144_" class="st3" d="M2300.6,559c-83.1,0-133-17.7-140.4-49.7c-6.4-27.7,20.1-59.4,76.7-91.7
		c53.4-30.4,127.3-57.5,208.2-76.2c35.3-8.1,71.6-12.3,108-12.3c111.8,0,188.2,37.9,191.4,39.6l7.6,3.8l-5.1,6.8
		c-0.9,1.2-22.8,29.8-65.6,63.5c-39.4,31-104.5,72.2-191.5,92.3C2422.3,550.8,2356.8,559,2300.6,559z M2553,343.3
		c-35.3,0-70.6,4-104.8,11.9c-79.6,18.4-152.2,44.9-204.4,74.7c-48.4,27.6-74.5,56.1-69.9,76.2c5.5,23.9,54.1,38.8,126.6,38.8
		c55.2,0,119.5-8.1,186-23.5c138.2-31.9,221.5-118.6,243.3-143.7C2707.5,368.1,2640.9,343.3,2553,343.3z"/>
	<g id="XMLID_141_">
		<path id="XMLID_142_" class="st3" d="M2556.3,353.8c3.9,17.1-44.1,42.8-107.3,57.4c-63.2,14.6-117.7,12.6-121.6-4.5
			c-3.9-17.1,44.1-42.7,107.3-57.4C2497.9,334.7,2552.4,336.7,2556.3,353.8z"/>
	</g>
	<path id="XMLID_140_" class="st1" d="M2346,391.7c6.2,26.9,163.5-9.5,157.3-36.4l-6.3-27.2c-6.2-26.9-36.8-42.9-68-35.7l-44,10.2
		c-31.2,7.2-51.6,35.1-45.4,61.9L2346,391.7z"/>
	<path id="XMLID_137_" class="st3" d="M2373.6,408.2L2373.6,408.2c-7.7,0-31.1,0-34.5-14.9l-6.3-27.2c-7.1-30.7,15.6-62.3,50.7-70.4
		l44-10.2c5.5-1.3,11-1.9,16.5-1.9c29.4,0,54.1,17.7,59.9,42.9l6.3,27.2c0.7,3.2,0.7,8.3-3.8,13.9
		C2488.9,389.7,2412.4,408.2,2373.6,408.2z M2444,297.8c-4.4,0-8.9,0.5-13.4,1.5l-44,10.2c-27.5,6.3-45.4,30.3-40.1,53.5l6.3,27.2
		c0,0,2.8,3.9,20.8,3.9c21.2,0,52.5-5.6,79.7-14.3c35.4-11.3,43.1-21,43.1-22.9l-6.3-27.1C2485.8,311,2466.8,297.8,2444,297.8z"/>
	<path id="XMLID_135_" class="st1" d="M2471.9,272.9c-24.8,39.7-77.1,51.8-116.8,27c-39.7-24.8-51.8-77.1-27-116.8
		c24.8-39.7,77.1-51.8,116.8-27C2484.6,180.9,2496.7,233.2,2471.9,272.9z"/>
	<path id="XMLID_132_" class="st3" d="M2399.9,319.8c-17.2,0-33.9-4.8-48.6-14c-20.8-13-35.3-33.3-40.8-57.2
		c-5.5-23.9-1.4-48.5,11.6-69.3c16.9-27.1,46-43.2,78-43.2c17.2,0,34,4.8,48.6,13.9c20.8,13,35.3,33.3,40.8,57.2
		c5.5,23.9,1.4,48.5-11.6,69.3C2461,303.7,2431.8,319.8,2399.9,319.8z M2400,150.3c-27,0-51.7,13.7-66,36.6
		c-11,17.6-14.5,38.4-9.8,58.7c4.7,20.2,16.9,37.4,34.6,48.4c12.4,7.7,26.6,11.8,41.1,11.8c27,0,51.7-13.7,66-36.6
		c11-17.6,14.5-38.4,9.8-58.7c-4.7-20.2-16.9-37.4-34.6-48.4C2428.8,154.3,2414.5,150.3,2400,150.3z"/>
	<g id="XMLID_129_">
		<path id="XMLID_130_" class="st3" d="M2461.8,169.9l-108.6,81.6l53.9,61c25.7-2.2,50.1-16,64.9-39.6
			C2492.7,239.5,2487.5,197.3,2461.8,169.9z"/>
	</g>
	<path id="XMLID_128_" class="st1" d="M2379.7,262.9c-5.6,9-17.4,11.7-26.4,6.1c-9-5.6-11.7-17.4-6.1-26.4c5.6-9,17.4-11.7,26.4-6.1
		C2382.6,242.1,2385.3,254,2379.7,262.9z"/>
	<path id="XMLID_125_" class="st3" d="M2363.4,279c-4.9,0-9.7-1.4-13.9-4c-12.3-7.7-16-23.9-8.4-36.2c4.8-7.7,13.2-12.3,22.3-12.3
		c4.9,0,9.7,1.4,13.9,4c12.3,7.7,16,23.9,8.4,36.2C2380.9,274.4,2372.6,279,2363.4,279z M2363.5,240.7c-4.2,0-8.1,2.1-10.3,5.7
		c-3.6,5.7-1.8,13.2,3.8,16.7c1.9,1.2,4.1,1.8,6.4,1.8c4.2,0,8.1-2.1,10.3-5.7c3.6-5.7,1.8-13.1-3.9-16.7
		C2367.9,241.3,2365.7,240.7,2363.5,240.7z"/>
	<g id="XMLID_50_">
		<path id="XMLID_52_" class="st1" d="M2468.3,239.9c2-14.5-0.7-29.2-7.5-42"/>
		<path id="XMLID_51_" class="st1" d="M2468.3,247c-0.3,0-0.7,0-1-0.1c-3.9-0.5-6.5-4.1-6-8c1.8-12.9-0.6-26.2-6.7-37.7
			c-1.8-3.4-0.6-7.7,2.9-9.6c3.4-1.9,7.7-0.6,9.6,2.9c7.6,14.1,10.5,30.5,8.3,46.3C2474.8,244.4,2471.8,247,2468.3,247z"/>
	</g>
	<path id="XMLID_46_" class="st1" d="M2331.5,420c-29.9,0-42.1-23.5-27.2-52.3l18.8-33.6c23.5-45.4,59.7-13.6,51.2,7.1
		c-4.7,11.3-11.8,26-11.8,26s31.3,0.9,41.7,0.4c29.4-1.2,35.5,52.6-18.4,52.4H2331.5z"/>
	<path id="XMLID_43_" class="st3" d="M2386.2,427.3h-54.6c-16.9,0-29.7-6.7-36.1-19c-6.4-12.2-5.2-27.9,3.2-44.2l0.1-0.2l18.8-33.5
		c12-23.2,26.7-26.7,34.3-26.7c10.4,0,20.4,6.1,26.1,15.9c4.6,8,5.5,17,2.3,24.6c-2.1,5.2-4.8,11.1-7,15.9
		c6.8,0.1,15.7,0.3,22.6,0.3c3.5,0,6.2,0,8-0.1c0.4,0,0.8,0,1.2,0c17.4,0,27.8,15.3,27.8,30.1c0,10-4.2,19.1-11.9,25.8
		C2412.7,423.5,2400.7,427.3,2386.2,427.3z"/>
	<path id="XMLID_42_" class="st1" d="M2310,371.5c-6,11.5-7.1,22-3.2,29.6c3.9,7.6,12.7,11.7,24.8,11.7h54.6
		c11.6,0,20.8-2.7,26.8-7.9c4.4-3.8,6.8-8.9,6.8-14.3c0-8-5.4-16-15.4-15.6c-2,0.1-4.8,0.1-8.5,0.1c-13.2,0-33.4-0.6-33.6-0.6
		l-10.7-0.3l5.1-10.4c0.1-0.1,7.1-14.5,11.7-25.5c1.3-3.1,0.7-7-1.4-10.7c-3.2-5.6-9.2-9.2-15.1-9.2c-8.3,0-16.5,6.9-23,19.5
		l-0.1,0.2L2310,371.5z"/>
	<g id="XMLID_33_">
		<path id="XMLID_37_" class="st2" d="M2569.3,175.9c19.2,41.8,19.2,27.2,0,68.9c41.8-19.2,27.2-19.2,68.9,0
			c-19.2-41.8-19.2-27.2,0-68.9C2596.5,195.1,2611.1,195.1,2569.3,175.9z"/>
		<path id="XMLID_36_" class="st2" d="M2627.6,117.8c10.3,22.3,10.3,14.5,0,36.9c22.3-10.3,14.5-10.3,36.9,0
			c-10.3-22.3-10.3-14.5,0-36.9C2642.2,128.1,2650,128.1,2627.6,117.8z"/>
		<path id="XMLID_34_" class="st2" d="M2704.4,185.7c-22.3,10.3-14.5,10.3-36.9,0c10.3,22.3,10.3,14.5,0,36.9
			c22.3-10.3,14.5-10.3,36.9,0C2694.1,200.2,2694.1,208.1,2704.4,185.7z"/>
	</g>
</g>
<g id="XMLID_41_" class="st4">
	<g id="XMLID_115_">
		<path id="XMLID_116_" class="st2" d="M78.6,113c4.9-2.1,8.7-5.1,9.9-7.5c-1,0.7-2.3,1.3-3.7,1.9c-4.3,1.8-8,0.9-8,0.9
			s1.8-3.4,6.1-5.2c1.4-0.6,2.7-1.1,4-1.4c-2.6-0.8-7.3-0.1-12.3,2.1c-6.7,2.9-9.1,9.4-9.1,9.4S71.9,115.9,78.6,113z"/>
	</g>
	<g id="XMLID_113_">
		<path id="XMLID_114_" class="st1" d="M97.6,94.1c-0.4,1.5-1.9,1.9-3.4,1.3c-3.6-1.5-8.1-1.8-12.5-0.4c-1.8,0.6-2.4,0.1-0.9-1.5
			c3.6-3.4,8.6-5.8,14.2-6.4c2.4-0.2,4.2,1.2,3.7,2.6C98.3,91.2,98,92.7,97.6,94.1z"/>
	</g>
	<path id="XMLID_110_" class="st3" d="M95.9,96.5c-0.6,0.1-1.3,0-2-0.3c-2.8-1.1-5.9-1.5-9-1.1c-1,0.1-2,0.4-2.9,0.6
		c-0.4,0.1-0.7,0.2-1,0.3c-1.1,0.2-1.5-0.3-1.7-0.7c-0.4-0.9,0.4-1.8,1-2.5c3.9-3.7,9.2-6.1,14.7-6.6c1.7-0.2,3.3,0.4,4.1,1.4
		c0.6,0.7,0.7,1.5,0.5,2.3l-1.2,4.4C98,95.6,97.1,96.3,95.9,96.5z M84.6,93.5c3.4-0.5,6.8-0.1,9.9,1.2c0.4,0.2,0.8,0.2,1.2,0.2
		c0.5-0.1,0.9-0.4,1.1-1l1.2-4.4c0.1-0.2,0-0.5-0.2-0.7c-0.4-0.4-1.3-0.9-2.6-0.8c-0.3,0-0.6,0.1-0.9,0.1c-4.8,0.7-9.4,2.8-12.7,6.1
		c0,0,0,0-0.1,0.1c0,0,0,0,0.1,0l0,0C82.5,93.9,83.5,93.6,84.6,93.5z"/>
	<g id="XMLID_108_">
		<path id="XMLID_109_" class="st1" d="M101.2,102.6c-1.4-0.6-2.7,0.2-3.2,1.8c-1.2,3.7-3.7,7.4-7.6,9.9c-1.7,1-1.6,1.8,0.6,1.6
			c5-0.6,10-2.9,14-6.9c1.7-1.7,1.7-4,0.3-4.5C103.9,103.8,102.6,103.2,101.2,102.6z"/>
	</g>
	<path id="XMLID_105_" class="st3" d="M91.5,116.7L91.5,116.7c-0.1,0-0.3,0-0.4,0.1c-0.6,0.1-2.2,0.2-2.6-0.9c-0.4-1.1,1-2,1.5-2.3
		c3.5-2.3,6.1-5.7,7.3-9.5c0.4-1.4,1.4-2.3,2.7-2.5c0.5-0.1,1.1,0,1.6,0.2l0,0l4.1,1.9c0.8,0.3,1.3,1,1.5,1.8
		c0.3,1.3-0.3,2.9-1.5,4.1C101.7,113.4,96.7,115.9,91.5,116.7z M90.8,115C90.9,115,90.9,115,90.8,115c0.2,0,0.3,0,0.4-0.1
		c4.8-0.7,9.5-3,13.1-6.6c1-1,1.2-2,1.1-2.5c-0.1-0.3-0.2-0.5-0.5-0.6l0,0l-4.1-1.9c-0.3-0.1-0.5-0.1-0.7-0.1
		c-0.6,0.1-1,0.6-1.3,1.3C97.6,108.7,94.7,112.4,90.8,115L90.8,115C90.9,115,90.8,115,90.8,115z"/>
	<path id="XMLID_104_" class="st1" d="M137.2,75.8c0.1-0.3,0.1-0.5,0-0.8c-0.2-1.4-1.5-2.5-2.9-2.3c-3,0.3-6-0.3-8.6-1.7
		c-1.3-0.7-2.9-0.3-3.6,1c-0.7,1.3-0.3,2.9,1,3.6c3.6,2,7.7,2.9,11.8,2.4C136.1,77.8,137,76.9,137.2,75.8z"/>
	<path id="XMLID_101_" class="st3" d="M135.1,78.7L135.1,78.7L135.1,78.7c-4.4,0.5-8.7-0.4-12.4-2.5c-1.7-0.9-2.3-3.1-1.3-4.8
		c0.5-1,1.5-1.6,2.6-1.7c0.8-0.1,1.5,0,2.2,0.4c2.5,1.4,5.3,2,8.1,1.6c1.9-0.2,3.6,1.2,3.9,3.1c0,0.4,0,0.7,0,1.1
		C137.7,77.4,136.6,78.5,135.1,78.7z M124.1,71.4c-0.6,0.1-1,0.4-1.3,0.9c-0.5,0.9-0.2,1.9,0.7,2.4c3.5,2,7.4,2.7,11.3,2.3l0,0
		c0.7-0.1,1.4-0.7,1.5-1.4c0-0.2,0-0.4,0-0.6c-0.1-1-1-1.7-2-1.6c-3.2,0.4-6.4-0.3-9.2-1.9C124.9,71.5,124.5,71.4,124.1,71.4z"/>
	<path id="XMLID_100_" class="st1" d="M156.7,76.4c0,0-8.5,15.2-27.8,22.6c-19.2,7.4-36.6,8.7-38.8,2.9C88,96.2,101.8,85.5,121,78.2
		C140.2,70.8,156.7,76.4,156.7,76.4z"/>
	<path id="XMLID_97_" class="st3" d="M107,105.8c-10,1.4-16.2,0.1-17.7-3.6C88.1,99,90.8,94.8,97,90c5.9-4.5,14.3-9,23.7-12.6
		c4.1-1.6,8.4-2.7,12.7-3.3c13.4-1.9,23.2,1.4,23.6,1.5l1,0.3l-0.5,0.9c-0.1,0.2-2.2,4-6.8,8.7c-4.2,4.4-11.3,10.4-21.4,14.3
		C121.5,102.8,113.8,104.9,107,105.8z M133.7,75.8c-4.2,0.6-8.4,1.7-12.4,3.2c-9.2,3.5-17.5,7.9-23.2,12.4c-5.3,4.1-8,8-7.1,10.3
		c1.1,2.8,7.1,3.7,15.8,2.5c6.6-0.9,14.2-3,21.9-5.9c16-6.1,24.6-17.9,26.7-21.3C152.6,76.2,144.2,74.3,133.7,75.8z"/>
	<g id="XMLID_95_">
		<path id="XMLID_96_" class="st3" d="M134.2,77c0.8,2-4.6,5.9-11.9,8.7c-7.3,2.8-13.9,3.5-14.6,1.5c-0.8-2,4.6-5.9,11.9-8.7
			C126.9,75.7,133.5,75,134.2,77z"/>
	</g>
	<path id="XMLID_94_" class="st1" d="M109.7,85c1.2,3.1,19.4-3.9,18.2-7l-1.2-3.2c-1.2-3.1-5.1-4.5-8.7-3.1l-5.1,2
		c-3.6,1.4-5.6,5.1-4.4,8.2L109.7,85z"/>
	<path id="XMLID_90_" class="st3" d="M113.3,86.6L113.3,86.6c-0.9,0.1-3.7,0.5-4.4-1.2l-1.2-3.1c-1.4-3.6,0.8-7.7,4.9-9.3l5.1-2
		c0.6-0.2,1.3-0.4,2-0.5c3.5-0.5,6.8,1.2,7.9,4.1l1.2,3.2c0.1,0.4,0.2,1-0.2,1.7C126.8,82.4,117.9,85.9,113.3,86.6z M119.8,72.1
		c-0.5,0.1-1.1,0.2-1.6,0.4l-5.1,2c-3.2,1.2-4.9,4.4-3.9,7.1l1.2,3.2c0,0,0.4,0.4,2.6,0.1c2.5-0.4,6.2-1.5,9.3-3
		c4-1.9,4.8-3.2,4.8-3.5l-1.2-3.1C125.1,73,122.6,71.8,119.8,72.1z"/>
	<circle id="XMLID_88_" class="st1" cx="113.4" cy="64.5" r="10.3"/>
	<path id="XMLID_81_" class="st3" d="M114.9,75.5c-2.1,0.3-4.1,0-6.1-0.9c-2.7-1.2-4.8-3.4-5.8-6.2c-1.1-2.8-1-5.8,0.2-8.5
		c1.6-3.5,4.8-5.9,8.6-6.5c2.1-0.3,4.1,0,6.1,0.9c2.7,1.2,4.8,3.4,5.8,6.2c1.1,2.8,1,5.8-0.2,8.5C122,72.6,118.7,75,114.9,75.5z
		 M112.1,55.2c-3.2,0.5-6,2.5-7.3,5.5c-1,2.3-1.1,4.8-0.2,7.2c0.9,2.3,2.7,4.2,4.9,5.2c1.6,0.7,3.4,1,5.1,0.7c3.2-0.5,6-2.5,7.3-5.5
		c1-2.3,1.1-4.8,0.2-7.2c-0.9-2.3-2.7-4.2-4.9-5.2C115.6,55.2,113.8,55,112.1,55.2z"/>
	<g id="XMLID_76_">
		<path id="XMLID_80_" class="st3" d="M119.8,56.5l-11.6,11.6l7.5,6.4c3-0.7,5.7-2.8,7.1-5.8C124.7,64.4,123.4,59.4,119.8,56.5z"/>
	</g>
	<circle id="XMLID_75_" class="st1" cx="109.4" cy="68.1" r="2.3"/>
	<path id="XMLID_70_" class="st3" d="M109.9,71.2c-0.6,0.1-1.2,0-1.7-0.2c-1.6-0.7-2.3-2.6-1.6-4.2c0.5-1,1.4-1.7,2.5-1.9
		c0.6-0.1,1.2,0,1.7,0.2c1.6,0.7,2.3,2.6,1.6,4.2C111.9,70.4,111,71.1,109.9,71.2z M109.2,66.6c-0.5,0.1-0.9,0.4-1.1,0.9
		c-0.3,0.7,0,1.6,0.7,1.9c0.3,0.1,0.5,0.2,0.8,0.1c0.5-0.1,0.9-0.4,1.1-0.9c0.3-0.7,0-1.6-0.7-1.9C109.8,66.6,109.5,66.6,109.2,66.6
		z"/>
	<g id="XMLID_64_">
		<path id="XMLID_69_" class="st1" d="M121.8,64.8c0-1.8-0.6-3.5-1.6-4.9"/>
		<path id="XMLID_66_" class="st1" d="M121.9,65.7c0,0-0.1,0-0.1,0c-0.5,0-0.9-0.4-0.9-0.9c0-1.6-0.5-3.1-1.4-4.4
			c-0.3-0.4-0.2-0.9,0.2-1.2c0.4-0.3,0.9-0.2,1.2,0.2c1.1,1.6,1.8,3.5,1.8,5.4C122.6,65.2,122.3,65.6,121.9,65.7z"/>
	</g>
	<path id="XMLID_63_" class="st1" d="M108.4,88.7c-3.6,0.5-5.4-2.1-4.1-5.8l1.7-4.3c2.1-5.8,6.9-2.6,6.2,0c-0.4,1.4-1,3.3-1,3.3
		s3.8-0.4,5-0.6c3.5-0.6,5.1,5.7-1.3,6.6L108.4,88.7z"/>
	<path id="XMLID_62_" class="st3" d="M115.1,88.6l-6.5,0.9c-2,0.3-3.7-0.3-4.6-1.7c-1-1.4-1.1-3.3-0.4-5.3l0,0l1.7-4.3
		c1.1-3,2.7-3.6,3.7-3.8c1.2-0.2,2.6,0.4,3.4,1.5c0.7,0.9,0.9,1.9,0.7,2.9c-0.2,0.7-0.4,1.4-0.6,2c0.8-0.1,1.9-0.2,2.7-0.3
		c0.4-0.1,0.7-0.1,1-0.1c0,0,0.1,0,0.1,0c2.1-0.3,3.6,1.4,3.8,3.1c0.2,1.2-0.2,2.4-1,3.3C118.2,87.7,116.8,88.4,115.1,88.6z"/>
	<path id="XMLID_59_" class="st1" d="M105,83.2c-0.5,1.5-0.5,2.8,0.1,3.6c0.6,0.8,1.7,1.2,3.2,1l6.5-0.9c1.4-0.2,2.5-0.7,3.1-1.4
		c0.5-0.5,0.7-1.2,0.6-1.8c-0.1-1-0.9-1.8-2.1-1.6c-0.2,0-0.6,0.1-1,0.2c-1.6,0.2-4,0.5-4,0.5l-1.3,0.1l0.4-1.3c0,0,0.6-1.9,1-3.2
		c0.1-0.4,0-0.8-0.4-1.3c-0.5-0.6-1.3-1-2-0.9c-1,0.1-1.9,1.1-2.4,2.7l0,0L105,83.2z"/>
	<g id="XMLID_47_">
		<path id="XMLID_58_" class="st2" d="M132.8,55.4c3,4.7,2.8,2.9,1.2,8.3c4.7-3,2.9-2.8,8.3-1.2c-3-4.7-2.8-2.9-1.1-8.3
			C136.4,57.3,138.1,57.1,132.8,55.4z"/>
		<path id="XMLID_57_" class="st2" d="M138.8,47.5c1.6,2.5,1.5,1.6,0.6,4.4c2.5-1.6,1.6-1.5,4.4-0.6c-1.6-2.5-1.5-1.6-0.6-4.4
			C140.7,48.5,141.7,48.4,138.8,47.5z"/>
		<path id="XMLID_54_" class="st2" d="M149.2,54.4c-2.5,1.6-1.6,1.5-4.4,0.6c1.6,2.5,1.5,1.6,0.6,4.4c2.5-1.6,1.6-1.5,4.4-0.6
			C148.2,56.3,148.3,57.2,149.2,54.4z"/>
	</g>
</g>
</svg>
