<?xml version="1.0" encoding="utf-8"?>
<!-- Generator: Adobe Illustrator 19.0.0, SVG Export Plug-In . SVG Version: 6.00 Build 0)  -->
<svg version="1.1" id="Слой_1" xmlns="http://www.w3.org/2000/svg" xmlns:xlink="http://www.w3.org/1999/xlink" x="0px" y="0px"
	 viewBox="-709 291 500 500" style="enable-background:new -709 291 500 500;" xml:space="preserve">
<style type="text/css">
	.st0{fill:#FFFFFF;stroke:#000000;stroke-width:2;stroke-miterlimit:10;}
	.st1{fill:none;stroke:#F7941D;stroke-width:2;stroke-miterlimit:10;}
	.st2{fill:none;stroke:#A53FD0;stroke-width:2;stroke-miterlimit:10;}
	.st3{fill:#EFD0AB;stroke:#EA9436;stroke-width:2;stroke-miterlimit:10;}
	.st4{fill:none;stroke:#EA9436;stroke-width:2;stroke-miterlimit:10;}
	.st5{fill:none;stroke:#1351AA;stroke-width:2;stroke-miterlimit:10;}
	.st6{fill:#A53FD0;}
	.st7{fill:#F7941D;}
	.st8{fill:#C69EE5;stroke:#A53FD0;stroke-width:2;stroke-miterlimit:10;}
	.st9{fill:#1351AA;}
</style>
<path id="XMLID_4_" class="st0" d="M-15.2,530h-134.9c-5.6,0-12.9,1.1-12.9,6.7v248.4c0,5.6,7.4,12.9,12.9,12.9H24
	c5.6,0,7-7.3,7-12.9V575.9L-15.2,530z"/>
<path id="XMLID_124_" class="st1" d="M-393.6,363c-0.9-25-21.5-45-46.7-45c-20,0-37.1,12.6-43.8,30.3c-4.7-5.7-11.8-9.3-19.8-9.3
	c-14.2,0-25.7,11.5-25.7,25.7c0,2.7,0.4,5.4,1.2,7.9c-9.1,4.7-15.4,14.1-15.4,25.1c0,15.7,12.7,28.2,28.4,28.2h108.2
	c18.3,0,33.1-14.7,33.1-33C-374.2,379.6-382.2,368.2-393.6,363z"/>
<path id="XMLID_2_" class="st2" d="M7.5,287.2c0.7-17.8,15.3-32,33.2-32c14.2,0,26.4,9,31.1,21.5c3.4-4,8.4-6.6,14.1-6.6
	c10.1,0,18.3,8.2,18.3,18.3c0,2-0.3,3.8-0.9,5.6c6.5,3.3,11,10,11,17.9c0,11.1-9,20.1-20.2,20.1H17.2c-13,0-23.5-10.4-23.5-23.4
	C-6.3,299-0.6,290.9,7.5,287.2z"/>
<g id="XMLID_264_">
	
		<ellipse id="XMLID_324_" transform="matrix(0.6115 -0.7913 0.7913 0.6115 -690.592 -562.2148)" class="st3" cx="-917.8" cy="422.1" rx="11.7" ry="7.7"/>
	<g id="XMLID_271_">
		<ellipse id="XMLID_323_" class="st4" cx="-868.3" cy="414.9" rx="125.1" ry="28.9"/>
		<path id="XMLID_322_" class="st3" d="M-868.3,342.3c-25.1,0-45.5,19.5-45.5,43.6c0,7.5,2,14.6,5.5,20.7
			c24.5,7.3,56.1,6.5,80.8-1.4c3-5.8,4.7-12.4,4.7-19.3C-822.8,361.8-843.2,342.3-868.3,342.3z"/>
		<path id="XMLID_321_" class="st4" d="M-960.4,434.5c12.3,27.6,49.9,47.6,94.3,47.6c45.1,0,83.1-20.7,94.8-48.9
			c-22.9,6.5-57.9,10.6-97,10.6C-904.8,443.8-937.6,440.2-960.4,434.5z"/>
		<line id="XMLID_320_" class="st4" x1="-869" y1="343" x2="-869" y2="321"/>
		<circle id="XMLID_319_" class="st4" cx="-868.4" cy="317" r="3.4"/>
		<ellipse id="XMLID_318_" class="st3" cx="-868.3" cy="427.9" rx="7.7" ry="11.7"/>
		
			<ellipse id="XMLID_317_" transform="matrix(-0.7913 -0.6115 0.6115 -0.7913 -1726.0885 252.6129)" class="st3" cx="-819.9" cy="420.9" rx="11.7" ry="7.7"/>
	</g>
	<path id="XMLID_270_" class="st3" d="M-762.6,595.7l-0.1-1c-0.2-0.8-0.7-1.5-1.4-2.3l-65.4-115.1c-11.5,2.4-23.7,3.8-36.6,3.8
		c-12.9,0-25.2-1.3-36.7-3.7l-65.4,115.2c-0.7,0.8-1.2,1.1-1.4,1.9l-0.1-0.3h0.1c-0.1,1-0.1,1.1-0.1,1.4
		c0,11.4,46.4,20.9,103.6,20.9C-808.9,616.5-762.6,607-762.6,595.7"/>
</g>
<rect id="XMLID_76_" x="65.4" y="387.4" class="st2" width="17.4" height="17.4"/>
<rect id="XMLID_75_" x="87.7" y="387.4" class="st2" width="17.4" height="17.4"/>
<rect id="XMLID_74_" x="110.1" y="387.4" class="st2" width="17.4" height="17.4"/>
<rect id="XMLID_73_" x="132.5" y="387.4" class="st2" width="17.4" height="17.4"/>
<rect id="XMLID_72_" x="43" y="411.7" class="st2" width="17.4" height="17.4"/>
<rect id="XMLID_71_" x="65.4" y="411.7" class="st2" width="17.4" height="17.4"/>
<rect id="XMLID_70_" x="87.7" y="411.7" class="st2" width="17.4" height="17.4"/>
<rect id="XMLID_69_" x="110.1" y="411.7" class="st2" width="17.4" height="17.4"/>
<rect id="XMLID_68_" x="132.5" y="411.7" class="st2" width="17.4" height="17.4"/>
<rect id="XMLID_67_" x="43" y="436.1" class="st2" width="17.4" height="17.4"/>
<rect id="XMLID_66_" x="65.4" y="436.1" class="st2" width="17.4" height="17.4"/>
<rect id="XMLID_65_" x="87.7" y="436.1" class="st2" width="17.4" height="17.4"/>
<rect id="XMLID_64_" x="110.1" y="436.1" class="st2" width="17.4" height="17.4"/>
<rect id="XMLID_63_" x="132.5" y="436.1" class="st2" width="17.4" height="17.4"/>
<rect id="XMLID_62_" x="43" y="460.4" class="st2" width="17.4" height="17.4"/>
<rect id="XMLID_61_" x="65.4" y="460.4" class="st2" width="17.4" height="17.4"/>
<rect id="XMLID_60_" x="87.7" y="460.4" class="st2" width="17.4" height="17.4"/>
<rect id="XMLID_59_" x="110.1" y="460.4" class="st2" width="17.4" height="17.4"/>
<rect id="XMLID_58_" x="132.5" y="460.4" class="st2" width="17.4" height="17.4"/>
<rect id="XMLID_57_" x="43" y="484.8" class="st2" width="17.4" height="17.4"/>
<rect id="XMLID_56_" x="65.4" y="484.8" class="st2" width="17.4" height="17.4"/>
<rect id="XMLID_55_" x="87.7" y="484.8" class="st2" width="17.4" height="17.4"/>
<rect id="XMLID_54_" x="110.1" y="484.8" class="st2" width="17.4" height="17.4"/>
<rect id="XMLID_53_" x="132.5" y="484.8" class="st2" width="17.4" height="17.4"/>
<path id="XMLID_51_" class="st2" d="M-82.1,335c4.5,3.6,7.7,8.7,9.2,14.3c0.4,1.7,2.2,2.7,3.8,2.2c0,0,0,0,0.1,0
	c1.6-0.5,2.6-2.2,2.2-3.8c-1.8-6.8-5.8-13.1-11.3-17.5c-1.3-1.1-3.3-0.9-4.4,0.5C-83.7,331.9-83.5,333.9-82.1,335z"/>
<path id="XMLID_50_" class="st2" d="M-105.4,389.3c5.1,0.8,10.1,0.5,15-0.9c1.5-0.4,2.9-0.9,4.2-1.5l-15.7-7.6
	c-1.5,1.7-3.4,2.9-5.6,3.6c-1.7,0.5-3.4,0.6-5.1,0.3c-6.3-1-10.6-7-9.6-13.4c0.7-4.4,4-8.1,8.3-9.3c1.7-0.5,3.4-0.6,5.1-0.3
	c0.3,0.1,0.7,0.1,1,0.2l21.5-36.7c-2.6-1.1-5.3-2-8.2-2.4c-5.1-0.8-10.1-0.5-15,0.9c-12.8,3.7-22.4,14.5-24.5,27.6
	c-1.5,9.1,0.7,18.2,6,25.7C-122.5,382.9-114.5,387.8-105.4,389.3z"/>
<path id="XMLID_49_" class="st2" d="M-112,366.5c-2,0.6-3.5,2.3-3.8,4.3c-0.5,2.9,1.5,5.7,4.4,6.2c0.8,0.1,1.6,0.1,2.3-0.1
	c2-0.6,3.5-2.3,3.8-4.3c0.5-2.9-1.5-5.7-4.4-6.2C-110.5,366.3-111.3,366.3-112,366.5z"/>
<path id="XMLID_48_" class="st2" d="M-133.2,387.8c1.6-1.2,3.3-2.2,5-3.1c-4.5-4.3-7.9-9.6-10.1-15.6c-0.2-0.6-0.5-1.2-0.7-1.7
	c-6.8,1.8-12.1,8-12.1,15.4v6.5c3-2,6.9-3.2,10.5-3.2C-138,386.1-135.3,386.7-133.2,387.8z"/>
<path id="XMLID_47_" class="st2" d="M-155.1,431.5l20.5-20.5c4.7-4.7,5.2-11.8,1.2-15.9c-1.7-1.7-4.2-2.7-6.9-2.7
	c-3.3,0-6.6,1.4-9,3.9l-20.5,20.5c-4.7,4.7-5.2,11.9-1.2,15.9c1.7,1.7,4.2,2.7,6.9,2.7C-160.9,435.4-157.6,433.9-155.1,431.5z"/>
<path id="XMLID_46_" class="st2" d="M-130.9,448.9c-3.3,0-6.6,1.4-9.1,3.9l-20.5,20.5c-4.7,4.7-5.3,11.9-1.2,15.9
	c1.7,1.7,4.2,2.7,6.9,2.7c3.3,0,6.6-1.4,9.1-3.9l20.5-20.5c4.7-4.7,5.2-11.8,1.2-15.9C-125.8,449.9-128.2,448.9-130.9,448.9z"/>
<path id="XMLID_45_" class="st2" d="M-91,463v16.8c0,6.7,4.3,12.1,10,12.1s10-5.4,10-12.1v-24.7c-5,4.4-12.7,7.9-20.3,7.9H-91z"/>
<path id="XMLID_44_" class="st2" d="M-79.3,390.5c-6.1,3.6-13.2,5.6-20.6,5.6c-6,0-11.9-1.3-17.4-3.9c-1.9-0.9-3.7-1.9-5.4-3.1
	c-1.9,0.7-3.8,1.6-5.5,2.6c5.4,6.6,5.1,16.9-1.7,23.7l-9.3,9.8v4.7c0,5,0.9,9.6,3.4,13.6c1.7-0.5,3.2-0.8,5-0.8
	c4.3,0,8.2,1.6,11.2,4.5c2.4,2.4,3.8,6,4.3,9.2c0.4,0,0.8,0.6,1.3,0.6h22.6c14.4,0,26.3-12.7,26.3-27.1v-16.2
	C-65,403.6-70.9,394.9-79.3,390.5z"/>
<path id="XMLID_43_" class="st2" d="M-47.1,365.1c-3.3,0-6.6,1.4-9,3.9l-12.7,12.7c-1.5,1.8-3.1,3.4-4.9,4.9l-0.1,0.1
	c6,3.9,10.6,9.7,13,16.5l19.4-19.4c4.7-4.7,5.3-11.9,1.2-15.9C-42,366-44.4,365.1-47.1,365.1z"/>
<path id="XMLID_11_" class="st5" d="M-435.5,601c4.5,3.6,7.7,8.7,9.2,14.3c0.4,1.7,2.2,2.7,3.8,2.2c0,0,0,0,0.1,0
	c1.6-0.5,2.6-2.2,2.2-3.8c-1.8-6.8-5.8-13.1-11.3-17.5c-1.3-1.1-3.3-0.9-4.4,0.5C-437,597.9-436.8,599.9-435.5,601z"/>
<path id="XMLID_10_" class="st5" d="M-458.8,655.3c5.1,0.8,10.1,0.5,15-0.9c1.5-0.4,2.9-0.9,4.2-1.5l-15.7-7.6
	c-1.5,1.7-3.4,2.9-5.6,3.6c-1.7,0.5-3.4,0.6-5.1,0.3c-6.3-1-10.6-7-9.6-13.4c0.7-4.4,4-8.1,8.3-9.3c1.7-0.5,3.4-0.6,5.1-0.3
	c0.3,0.1,0.7,0.1,1,0.2l21.5-36.7c-2.6-1.1-5.3-2-8.2-2.4c-5.1-0.8-10.1-0.5-15,0.9c-12.8,3.7-22.4,14.5-24.5,27.6
	c-1.5,9.1,0.7,18.2,6,25.7C-475.9,648.9-467.9,653.8-458.8,655.3z"/>
<path id="XMLID_9_" class="st5" d="M-465.4,632.5c-2,0.6-3.5,2.3-3.8,4.3c-0.5,2.9,1.5,5.7,4.4,6.2c0.8,0.1,1.6,0.1,2.3-0.1
	c2-0.6,3.5-2.3,3.8-4.3c0.5-2.9-1.5-5.7-4.4-6.2C-463.9,632.3-464.7,632.3-465.4,632.5z"/>
<path id="XMLID_8_" class="st5" d="M-486.5,653.8c1.6-1.2,3.3-2.2,5-3.1c-4.5-4.3-7.9-9.6-10.1-15.6c-0.2-0.6-0.4-1.2-0.5-1.7
	c-6.8,1.8-11.9,8-11.9,15.4v6.5c3-2,6.7-3.2,10.3-3.2C-491.1,652.1-488.7,652.7-486.5,653.8z"/>
<path id="XMLID_7_" class="st5" d="M-508.5,697.5L-488,677c4.7-4.7,5.2-11.8,1.2-15.9c-1.7-1.7-4.2-2.7-6.9-2.7
	c-3.3,0-6.6,1.4-9,3.9l-20.5,20.5c-4.7,4.7-5.2,11.9-1.2,15.9c1.7,1.7,4.2,2.7,6.9,2.7C-514.3,701.4-511,699.9-508.5,697.5z"/>
<path id="XMLID_6_" class="st5" d="M-484.3,714.9c-3.3,0-6.6,1.4-9.1,3.9l-20.5,20.5c-4.7,4.7-5.3,11.9-1.2,15.9
	c1.7,1.7,4.2,2.7,6.9,2.7c3.3,0,6.6-1.4,9.1-3.9l20.5-20.5c4.7-4.7,5.2-11.8,1.2-15.9C-479.2,715.9-481.6,714.9-484.3,714.9z"/>
<path id="XMLID_5_" class="st5" d="M-444,729v16.8c0,6.7,4.3,12.1,10,12.1s10-5.4,10-12.1v-24.7c-5,4.4-13.1,7.9-20.7,7.9H-444
	L-444,729z"/>
<path id="XMLID_3_" class="st5" d="M-432.5,656.5c-6.1,3.6-13.3,5.6-20.7,5.6c-6,0-11.9-1.3-17.4-3.9c-1.9-0.9-3.7-1.9-5.4-3.1
	c-1.9,0.7-3.8,1.6-5.5,2.6c5.4,6.6,5.3,16.9-1.5,23.7l-9.1,9.8v4.7c0,5,0.7,9.6,3.2,13.6c1.7-0.5,3.1-0.8,4.9-0.8
	c4.3,0,8.2,1.6,11.1,4.5c2.4,2.4,3.8,6,4.3,9.2c0.4,0,0.8,0.6,1.3,0.6h22.6c14.4,0,26.7-12.7,26.7-27.1v-16.2
	C-418,669.6-424.1,660.9-432.5,656.5z"/>
<path id="XMLID_1_" class="st5" d="M-400.5,631.1c-3.3,0-6.6,1.4-9,3.9l-12.7,12.7c-1.5,1.8-3.1,3.4-4.9,4.9l-0.1,0.1
	c6,3.9,10.6,9.7,13,16.5l19.4-19.4c4.7-4.7,5.3-11.9,1.2-15.9C-395.3,632-397.8,631.1-400.5,631.1z"/>
<g id="XMLID_125_">
	<g id="XMLID_33_">
		<line id="XMLID_36_" class="st2" x1="-809" y1="460" x2="-809" y2="710"/>
		<g id="XMLID_34_">
			<path id="XMLID_35_" class="st6" d="M-818.8,473.8c0.5,0.3,1.1,0.2,1.4-0.3l8.2-12.9l8.2,12.9c0.3,0.5,0.9,0.6,1.4,0.3
				c0.5-0.3,0.6-0.9,0.3-1.4l-9.1-14.2c-0.2-0.3-0.5-0.5-0.8-0.5s-0.7,0.2-0.8,0.5l-9.1,14.2c-0.1,0.2-0.2,0.4-0.2,0.5
				C-819.3,473.3-819.1,473.7-818.8,473.8z"/>
		</g>
	</g>
</g>
<line id="XMLID_97_" class="st1" x1="-459" y1="552" x2="-459" y2="456"/>
<g id="XMLID_95_">
	<path id="XMLID_96_" class="st7" d="M-449.4,538.8c-0.5-0.3-1.1-0.2-1.4,0.3L-459,552l-8.2-12.9c-0.3-0.5-0.9-0.6-1.4-0.3
		s-0.6,0.9-0.3,1.4l9.1,14.2c0.2,0.3,0.5,0.5,0.8,0.5c0.3,0,0.7-0.2,0.8-0.5l9.1-14.2c0.1-0.2,0.2-0.4,0.2-0.5
		C-448.9,539.3-449.1,539-449.4,538.8z"/>
</g>
<g id="XMLID_107_">
	<rect id="XMLID_84_" x="-475.2" y="125.9" class="st2" width="18.7" height="18.7"/>
	<rect id="XMLID_83_" x="-451.1" y="125.9" class="st2" width="18.7" height="18.7"/>
	<rect id="XMLID_82_" x="-427" y="125.9" class="st8" width="18.7" height="18.7"/>
	<rect id="XMLID_81_" x="-402.9" y="125.9" class="st2" width="18.7" height="18.7"/>
	<rect id="XMLID_80_" x="-378.8" y="125.9" class="st8" width="18.7" height="18.7"/>
	<rect id="XMLID_79_" x="-475.2" y="152.2" class="st8" width="18.7" height="18.7"/>
	<rect id="XMLID_78_" x="-451.1" y="152.2" class="st2" width="18.7" height="18.7"/>
	<rect id="XMLID_77_" x="-427" y="152.2" class="st2" width="18.7" height="18.7"/>
	<rect id="XMLID_52_" x="-402.9" y="152.2" class="st8" width="18.7" height="18.7"/>
	<rect id="XMLID_42_" x="-378.8" y="152.2" class="st2" width="18.7" height="18.7"/>
	<rect id="XMLID_41_" x="-475.2" y="178.4" class="st2" width="18.7" height="18.7"/>
	<rect id="XMLID_40_" x="-451.1" y="178.4" class="st8" width="18.7" height="18.7"/>
	<rect id="XMLID_39_" x="-427" y="178.4" class="st8" width="18.7" height="18.7"/>
	<rect id="XMLID_38_" x="-402.9" y="178.4" class="st2" width="18.7" height="18.7"/>
	<rect id="XMLID_37_" x="-378.8" y="178.4" class="st2" width="18.7" height="18.7"/>
	<rect id="XMLID_25_" x="-475.2" y="204.7" class="st2" width="18.7" height="18.7"/>
	<rect id="XMLID_24_" x="-451.1" y="204.7" class="st8" width="18.7" height="18.7"/>
	<rect id="XMLID_23_" x="-427" y="204.7" class="st8" width="18.7" height="18.7"/>
	<rect id="XMLID_22_" x="-402.9" y="204.7" class="st8" width="18.7" height="18.7"/>
	<rect id="XMLID_21_" x="-378.8" y="204.7" class="st2" width="18.7" height="18.7"/>
	<rect id="XMLID_20_" x="-475.2" y="230.9" class="st2" width="18.7" height="18.7"/>
	<rect id="XMLID_19_" x="-451.1" y="230.9" class="st2" width="18.7" height="18.7"/>
	<rect id="XMLID_18_" x="-427" y="230.9" class="st2" width="18.7" height="18.7"/>
	<rect id="XMLID_17_" x="-402.9" y="230.9" class="st8" width="18.7" height="18.7"/>
	<rect id="XMLID_26_" x="-378.8" y="230.9" class="st2" width="18.7" height="18.7"/>
</g>
<path id="XMLID_16_" class="st2" d="M-404.1,3.9c-1.3-35-30.1-62.9-65.4-62.9c-28,0-51.9,17.6-61.3,42.4c-6.6-7.9-16.6-13-27.7-13
	c-19.9,0-36,16.1-36,36c0,3.8,0.6,7.5,1.7,11c-12.8,6.6-21.6,19.7-21.6,35.1c0,21.9,17.8,39.5,39.7,39.5h151.4
	c25.6,0,46.3-20.5,46.3-46.1C-376.9,27.1-388.1,11.2-404.1,3.9z"/>
<g id="XMLID_146_">
	<g id="XMLID_15_">
		<g id="XMLID_104_">
			<line id="XMLID_108_" class="st2" x1="-533" y1="112" x2="-533" y2="182"/>
			<g id="XMLID_105_">
				<path id="XMLID_106_" class="st6" d="M-543.1,125.4c0.5,0.3,1.1,0.2,1.4-0.3l8.2-12.9l8.2,12.9c0.3,0.5,0.9,0.6,1.4,0.3
					s0.6-0.9,0.3-1.4l-9.1-14.2c-0.2-0.3-0.5-0.5-0.8-0.5c-0.3,0-0.7,0.2-0.8,0.5l-9.1,14.2c-0.1,0.2-0.2,0.4-0.2,0.5
					C-543.5,124.9-543.4,125.2-543.1,125.4z"/>
			</g>
		</g>
	</g>
	<g id="XMLID_14_">
		<g id="XMLID_99_">
			<line id="XMLID_102_" class="st2" x1="-558" y1="180" x2="-558" y2="109"/>
			<g id="XMLID_100_">
				<path id="XMLID_101_" class="st6" d="M-548.9,166c-0.5-0.3-1.1-0.2-1.4,0.3l-8.2,12.9l-8.2-12.9c-0.3-0.5-0.9-0.6-1.4-0.3
					c-0.5,0.3-0.6,0.9-0.3,1.4l9.1,14.2c0.2,0.3,0.5,0.5,0.8,0.5c0.3,0,0.7-0.2,0.8-0.5l9.1-14.2c0.1-0.2,0.2-0.4,0.2-0.5
					C-548.4,166.6-548.6,166.2-548.9,166z"/>
			</g>
		</g>
	</g>
</g>
<path id="XMLID_329_" class="st2" d="M-594,198v52h104v-52H-594z M-546,245h-42v-43h42V245z"/>
<rect id="XMLID_181_" x="-514.9" y="201.9" class="st8" width="18.7" height="18.7"/>
<rect id="XMLID_179_" x="-539.9" y="201.9" class="st8" width="18.7" height="18.7"/>
<rect id="XMLID_175_" x="-539.9" y="226.3" class="st2" width="18.7" height="18.7"/>
<rect id="XMLID_171_" x="-514.9" y="226.4" class="st8" width="18.7" height="18.7"/>
<path id="XMLID_29_" class="st1" d="M-365,473.6c-7.3-16-7.3-10.4,0-26.4c-16,7.3-10.4,7.3-26.4,0c7.3,16,7.3,10.4,0,26.4
	C-375.4,466.3-380.9,466.3-365,473.6z"/>
<path id="XMLID_28_" class="st1" d="M-387.3,495.9c-3.9-8.5-3.9-5.6,0-14.1c-8.5,3.9-5.6,3.9-14.1,0c3.9,8.5,3.9,5.6,0,14.1
	C-392.8,491.9-395.8,491.9-387.3,495.9z"/>
<path id="XMLID_27_" class="st1" d="M-416.6,469.9c8.5-3.9,5.6-3.9,14.1,0c-3.9-8.5-3.9-5.6,0-14.1c-8.5,3.9-5.6,3.9-14.1,0
	C-412.7,464.3-412.7,461.3-416.6,469.9z"/>
<path id="XMLID_85_" class="st9" d="M-771,213.2c3.1,2.5,5.3,6,6.3,9.8c0.3,1.1,1.5,1.8,2.6,1.5l0,0c1.1-0.3,1.8-1.5,1.5-2.6
	c-1.2-4.7-4-9-7.8-12c-0.9-0.7-2.3-0.6-3,0.3C-772,211.1-771.9,212.4-771,213.2z"/>
<path id="XMLID_32_" class="st9" d="M-787,250.4c3.5,0.6,7,0.4,10.3-0.6c1-0.3,2-0.6,2.9-1.1l-10.7-5.2c-1,1.1-2.3,2-3.8,2.4
	c-1.1,0.3-2.3,0.4-3.5,0.2c-4.3-0.7-7.3-4.8-6.6-9.2c0.5-3,2.7-5.5,5.7-6.4c1.1-0.3,2.3-0.4,3.5-0.2c0.2,0,0.5,0.1,0.7,0.2
	l14.8-25.2c-1.8-0.8-3.6-1.4-5.6-1.7c-3.5-0.6-7-0.4-10.3,0.6c-8.8,2.5-15.4,9.9-16.8,18.9c-1,6.2,0.5,12.5,4.1,17.6
	C-798.7,246-793.2,249.4-787,250.4z"/>
<path id="XMLID_31_" class="st9" d="M-791.5,234.8c-1.4,0.4-2.4,1.5-2.6,2.9c-0.3,2,1,3.9,3,4.2c0.5,0.1,1.1,0.1,1.6-0.1
	c1.4-0.4,2.4-1.5,2.6-3c0.3-2-1-3.9-3-4.2C-790.4,234.6-791,234.7-791.5,234.8z"/>
<path id="XMLID_30_" class="st9" d="M-769,251.3c-4.2,2.5-9.1,3.8-14.1,3.8c-4.1,0-8.2-0.9-11.9-2.7c-1.3-0.6-2.5-1.3-3.7-2.1
	c-1.3,0.5-2.6,1.1-3.7,1.8c3.7,4.5,3.4,11.6-1.3,16.2l-6.5,6.7v3.2c0,3.4,0.7,6.6,2.4,9.3c1.2-0.4,2.3-0.5,3.5-0.5
	c3,0,5.7,1.1,7.7,3.1c1.7,1.6,2.6,4.1,2.9,6.3c0.3,0,0.6,0.4,0.9,0.4h15.5c9.9,0,18.1-8.8,18.1-18.6v-11.1
	C-759.2,260.2-763.2,254.2-769,251.3z"/>
<path id="XMLID_13_" class="st9" d="M-746.9,233.8c-2.2,0-4.5,1-6.2,2.7l-8.7,8.7c-1,1.2-2.1,2.3-3.3,3.3l-0.1,0.1
	c4.1,2.7,7.3,6.6,8.9,11.3l13.3-13.3c3.2-3.2,3.6-8.1,0.8-10.9C-743.4,234.5-745.1,233.8-746.9,233.8z"/>
<path id="XMLID_12_" class="st7" d="M-751.8,202.4c5.4,11.8,5.4,7.7,0,19.4c11.8-5.4,7.7-5.4,19.4,0c-5.4-11.8-5.4-7.7,0-19.4
	C-744.2,207.8-740.1,207.8-751.8,202.4z"/>
</svg>
