<?xml version="1.0" encoding="utf-8"?>
<!-- Generator: Adobe Illustrator 19.0.0, SVG Export Plug-In . SVG Version: 6.00 Build 0)  -->
<svg version="1.1" id="Слой_1" xmlns="http://www.w3.org/2000/svg" xmlns:xlink="http://www.w3.org/1999/xlink" x="0px" y="0px"
	 viewBox="0 0 500 500" style="enable-background:new 0 0 500 500;" xml:space="preserve">
<style type="text/css">
	.st0{fill:#FFFFFF;stroke:#000000;stroke-width:2;stroke-miterlimit:10;}
	.st1{fill:none;stroke:#D62222;stroke-width:2;stroke-miterlimit:10;}
	.st2{fill:none;stroke:#A53FD0;stroke-width:2;stroke-miterlimit:10;}
	.st3{fill:#EFD0AB;stroke:#EA9436;stroke-width:2;stroke-miterlimit:10;}
	.st4{fill:none;stroke:#EA9436;stroke-width:2;stroke-miterlimit:10;}
	.st5{fill:#A53FD0;}
	.st6{fill:#D62222;}
	.st7{fill:#C69EE5;stroke:#A53FD0;stroke-width:2;stroke-miterlimit:10;}
</style>
<path id="XMLID_4_" class="st0" d="M693.8,239H558.9c-5.6,0-12.9,1.1-12.9,6.7v248.4c0,5.6,7.4,12.9,12.9,12.9H733
	c5.6,0,7-7.3,7-12.9V284.9L693.8,239z"/>
<path id="XMLID_124_" class="st1" d="M315.4,72c-0.9-25-21.5-45-46.7-45c-20,0-37.1,12.6-43.8,30.3c-4.7-5.7-11.8-9.3-19.8-9.3
	c-14.2,0-25.7,11.5-25.7,25.7c0,2.7,0.4,5.4,1.2,7.9c-9.1,4.7-15.4,14.1-15.4,25.1c0,15.7,12.7,28.2,28.4,28.2h108.2
	c18.3,0,33.1-14.7,33.1-33C334.8,88.6,326.8,77.2,315.4,72z"/>
<path id="XMLID_2_" class="st2" d="M716.5-3.8c0.7-17.8,15.3-32,33.2-32c14.2,0,26.4,9,31.1,21.5c3.4-4,8.4-6.6,14.1-6.6
	c10.1,0,18.3,8.2,18.3,18.3c0,2-0.3,3.8-0.9,5.6c6.5,3.3,11,10,11,17.9c0,11.1-9,20.1-20.2,20.1h-76.9c-13,0-23.5-10.4-23.5-23.4
	C702.7,8,708.4-0.1,716.5-3.8z"/>
<g id="XMLID_264_">
	
		<ellipse id="XMLID_324_" transform="matrix(0.7913 0.6115 -0.6115 0.7913 36.598 155.0565)" class="st3" cx="-208.8" cy="131.1" rx="7.7" ry="11.7"/>
	<g id="XMLID_271_">
		<ellipse id="XMLID_323_" class="st4" cx="-159.3" cy="123.9" rx="125.1" ry="28.9"/>
		<path id="XMLID_322_" class="st3" d="M-159.3,51.3c-25.1,0-45.5,19.5-45.5,43.6c0,7.5,2,14.6,5.5,20.7c24.5,7.3,56.1,6.5,80.8-1.4
			c3-5.8,4.7-12.4,4.7-19.3C-113.8,70.8-134.2,51.3-159.3,51.3z"/>
		<path id="XMLID_321_" class="st4" d="M-251.4,143.5c12.3,27.6,49.9,47.6,94.3,47.6c45.1,0,83.1-20.7,94.8-48.9
			c-22.9,6.5-57.9,10.6-97,10.6C-195.8,152.8-228.6,149.2-251.4,143.5z"/>
		<line id="XMLID_320_" class="st4" x1="-160" y1="52" x2="-160" y2="30"/>
		<circle id="XMLID_319_" class="st4" cx="-159.4" cy="26" r="3.4"/>
		<ellipse id="XMLID_318_" class="st3" cx="-159.3" cy="136.9" rx="7.7" ry="11.7"/>
		
			<ellipse id="XMLID_317_" transform="matrix(0.6115 -0.7913 0.7913 0.6115 -145.9023 -37.2705)" class="st3" cx="-110.9" cy="129.9" rx="7.7" ry="11.7"/>
	</g>
	<path id="XMLID_270_" class="st3" d="M-53.6,304.7l-0.1-1c-0.2-0.8-0.7-1.5-1.4-2.3l-65.4-115.1c-11.5,2.4-23.7,3.8-36.6,3.8
		c-12.9,0-25.2-1.3-36.7-3.7l-65.4,115.2c-0.7,0.8-1.2,1.1-1.4,1.9l-0.1-0.3h0.1c-0.1,1-0.1,1.1-0.1,1.4
		c0,11.4,46.4,20.9,103.6,20.9S-53.6,316-53.6,304.7"/>
</g>
<rect id="XMLID_76_" x="774.4" y="96.4" class="st2" width="17.4" height="17.4"/>
<rect id="XMLID_75_" x="796.7" y="96.4" class="st2" width="17.4" height="17.4"/>
<rect id="XMLID_74_" x="819.1" y="96.4" class="st2" width="17.4" height="17.4"/>
<rect id="XMLID_73_" x="841.5" y="96.4" class="st2" width="17.4" height="17.4"/>
<rect id="XMLID_72_" x="752" y="120.7" class="st2" width="17.4" height="17.4"/>
<rect id="XMLID_71_" x="774.4" y="120.7" class="st2" width="17.4" height="17.4"/>
<rect id="XMLID_70_" x="796.7" y="120.7" class="st2" width="17.4" height="17.4"/>
<rect id="XMLID_69_" x="819.1" y="120.7" class="st2" width="17.4" height="17.4"/>
<rect id="XMLID_68_" x="841.5" y="120.7" class="st2" width="17.4" height="17.4"/>
<rect id="XMLID_67_" x="752" y="145.1" class="st2" width="17.4" height="17.4"/>
<rect id="XMLID_66_" x="774.4" y="145.1" class="st2" width="17.4" height="17.4"/>
<rect id="XMLID_65_" x="796.7" y="145.1" class="st2" width="17.4" height="17.4"/>
<rect id="XMLID_64_" x="819.1" y="145.1" class="st2" width="17.4" height="17.4"/>
<rect id="XMLID_63_" x="841.5" y="145.1" class="st2" width="17.4" height="17.4"/>
<rect id="XMLID_62_" x="752" y="169.4" class="st2" width="17.4" height="17.4"/>
<rect id="XMLID_61_" x="774.4" y="169.4" class="st2" width="17.4" height="17.4"/>
<rect id="XMLID_60_" x="796.7" y="169.4" class="st2" width="17.4" height="17.4"/>
<rect id="XMLID_59_" x="819.1" y="169.4" class="st2" width="17.4" height="17.4"/>
<rect id="XMLID_58_" x="841.5" y="169.4" class="st2" width="17.4" height="17.4"/>
<rect id="XMLID_57_" x="752" y="193.8" class="st2" width="17.4" height="17.4"/>
<rect id="XMLID_56_" x="774.4" y="193.8" class="st2" width="17.4" height="17.4"/>
<rect id="XMLID_55_" x="796.7" y="193.8" class="st2" width="17.4" height="17.4"/>
<rect id="XMLID_54_" x="819.1" y="193.8" class="st2" width="17.4" height="17.4"/>
<rect id="XMLID_53_" x="841.5" y="193.8" class="st2" width="17.4" height="17.4"/>
<path id="XMLID_51_" class="st2" d="M626.9,44c4.5,3.6,7.7,8.7,9.2,14.3c0.4,1.7,2.2,2.7,3.8,2.2c0,0,0,0,0.1,0
	c1.6-0.5,2.6-2.2,2.2-3.8c-1.8-6.8-5.8-13.1-11.3-17.5c-1.3-1.1-3.3-0.9-4.4,0.5C625.3,40.9,625.5,42.9,626.9,44z"/>
<path id="XMLID_50_" class="st2" d="M603.6,98.3c5.1,0.8,10.1,0.5,15-0.9c1.5-0.4,2.9-0.9,4.2-1.5l-15.7-7.6
	c-1.5,1.7-3.4,2.9-5.6,3.6c-1.7,0.5-3.4,0.6-5.1,0.3c-6.3-1-10.6-7-9.6-13.4c0.7-4.4,4-8.1,8.3-9.3c1.7-0.5,3.4-0.6,5.1-0.3
	c0.3,0.1,0.7,0.1,1,0.2l21.5-36.7c-2.6-1.1-5.3-2-8.2-2.4c-5.1-0.8-10.1-0.5-15,0.9c-12.8,3.7-22.4,14.5-24.5,27.6
	c-1.5,9.1,0.7,18.2,6,25.7C586.5,91.9,594.5,96.8,603.6,98.3z"/>
<path id="XMLID_49_" class="st2" d="M597,75.5c-2,0.6-3.5,2.3-3.8,4.3c-0.5,2.9,1.5,5.7,4.4,6.2c0.8,0.1,1.6,0.1,2.3-0.1
	c2-0.6,3.5-2.3,3.8-4.3c0.5-2.9-1.5-5.7-4.4-6.2C598.5,75.3,597.7,75.3,597,75.5z"/>
<path id="XMLID_48_" class="st2" d="M575.8,96.8c1.6-1.2,3.3-2.2,5-3.1c-4.5-4.3-7.9-9.6-10.1-15.6c-0.2-0.6-0.5-1.2-0.7-1.7
	c-6.8,1.8-12.1,8-12.1,15.4v6.5c3-2,6.9-3.2,10.5-3.2C571,95.1,573.7,95.7,575.8,96.8z"/>
<path id="XMLID_47_" class="st2" d="M553.9,140.5l20.5-20.5c4.7-4.7,5.2-11.8,1.2-15.9c-1.7-1.7-4.2-2.7-6.9-2.7
	c-3.3,0-6.6,1.4-9,3.9l-20.5,20.5c-4.7,4.7-5.2,11.9-1.2,15.9c1.7,1.7,4.2,2.7,6.9,2.7C548.1,144.4,551.4,142.9,553.9,140.5z"/>
<path id="XMLID_46_" class="st2" d="M578.1,157.9c-3.3,0-6.6,1.4-9.1,3.9l-20.5,20.5c-4.7,4.7-5.3,11.9-1.2,15.9
	c1.7,1.7,4.2,2.7,6.9,2.7c3.3,0,6.6-1.4,9.1-3.9l20.5-20.5c4.7-4.7,5.2-11.8,1.2-15.9C583.2,158.9,580.8,157.9,578.1,157.9z"/>
<path id="XMLID_45_" class="st2" d="M618,172v16.8c0,6.7,4.3,12.1,10,12.1c5.7,0,10-5.4,10-12.1v-24.7c-5,4.4-12.7,7.9-20.3,7.9H618
	z"/>
<path id="XMLID_44_" class="st2" d="M629.7,99.5c-6.1,3.6-13.2,5.6-20.6,5.6c-6,0-11.9-1.3-17.4-3.9c-1.9-0.9-3.7-1.9-5.4-3.1
	c-1.9,0.7-3.8,1.6-5.5,2.6c5.4,6.6,5.1,16.9-1.7,23.7l-9.3,9.8v4.7c0,5,0.9,9.6,3.4,13.6c1.7-0.5,3.2-0.8,5-0.8
	c4.3,0,8.2,1.6,11.2,4.5c2.4,2.4,3.8,6,4.3,9.2c0.4,0,0.8,0.6,1.3,0.6h22.6c14.4,0,26.3-12.7,26.3-27.1v-16.2
	C644,112.6,638.1,103.9,629.7,99.5z"/>
<path id="XMLID_43_" class="st2" d="M661.9,74.1c-3.3,0-6.6,1.4-9,3.9l-12.7,12.7c-1.5,1.8-3.1,3.4-4.9,4.9l-0.1,0.1
	c6,3.9,10.6,9.7,13,16.5l19.4-19.4c4.7-4.7,5.3-11.9,1.2-15.9C667,75,664.6,74.1,661.9,74.1z"/>
<path id="XMLID_11_" class="st1" d="M273.5,310c4.5,3.6,7.7,8.7,9.2,14.3c0.4,1.7,2.2,2.7,3.8,2.2c0,0,0,0,0.1,0
	c1.6-0.5,2.6-2.2,2.2-3.8c-1.8-6.8-5.8-13.1-11.3-17.5c-1.3-1.1-3.3-0.9-4.4,0.5C272,306.9,272.2,308.9,273.5,310z"/>
<path id="XMLID_10_" class="st1" d="M250.2,364.3c5.1,0.8,10.1,0.5,15-0.9c1.5-0.4,2.9-0.9,4.2-1.5l-15.7-7.6
	c-1.5,1.7-3.4,2.9-5.6,3.6c-1.7,0.5-3.4,0.6-5.1,0.3c-6.3-1-10.6-7-9.6-13.4c0.7-4.4,4-8.1,8.3-9.3c1.7-0.5,3.4-0.6,5.1-0.3
	c0.3,0.1,0.7,0.1,1,0.2l21.5-36.7c-2.6-1.1-5.3-2-8.2-2.4c-5.1-0.8-10.1-0.5-15,0.9c-12.8,3.7-22.4,14.5-24.5,27.6
	c-1.5,9.1,0.7,18.2,6,25.7C233.1,357.9,241.1,362.8,250.2,364.3z"/>
<path id="XMLID_9_" class="st1" d="M243.6,341.5c-2,0.6-3.5,2.3-3.8,4.3c-0.5,2.9,1.5,5.7,4.4,6.2c0.8,0.1,1.6,0.1,2.3-0.1
	c2-0.6,3.5-2.3,3.8-4.3c0.5-2.9-1.5-5.7-4.4-6.2C245.1,341.3,244.3,341.3,243.6,341.5z"/>
<path id="XMLID_8_" class="st1" d="M222.5,362.8c1.6-1.2,3.3-2.2,5-3.1c-4.5-4.3-7.9-9.6-10.1-15.6c-0.2-0.6-0.4-1.2-0.5-1.7
	c-6.8,1.8-11.9,8-11.9,15.4v6.5c3-2,6.7-3.2,10.3-3.2C217.9,361.1,220.3,361.7,222.5,362.8z"/>
<path id="XMLID_7_" class="st1" d="M200.5,406.5L221,386c4.7-4.7,5.2-11.8,1.2-15.9c-1.7-1.7-4.2-2.7-6.9-2.7c-3.3,0-6.6,1.4-9,3.9
	l-20.5,20.5c-4.7,4.7-5.2,11.9-1.2,15.9c1.7,1.7,4.2,2.7,6.9,2.7C194.7,410.4,198,408.9,200.5,406.5z"/>
<path id="XMLID_6_" class="st1" d="M224.7,423.9c-3.3,0-6.6,1.4-9.1,3.9l-20.5,20.5c-4.7,4.7-5.3,11.9-1.2,15.9
	c1.7,1.7,4.2,2.7,6.9,2.7c3.3,0,6.6-1.4,9.1-3.9l20.5-20.5c4.7-4.7,5.2-11.8,1.2-15.9C229.8,424.9,227.4,423.9,224.7,423.9z"/>
<path id="XMLID_5_" class="st1" d="M265,438v16.8c0,6.7,4.3,12.1,10,12.1c5.7,0,10-5.4,10-12.1v-24.7c-5,4.4-13.1,7.9-20.7,7.9H265z
	"/>
<path id="XMLID_3_" class="st1" d="M276.5,365.5c-6.1,3.6-13.3,5.6-20.7,5.6c-6,0-11.9-1.3-17.4-3.9c-1.9-0.9-3.7-1.9-5.4-3.1
	c-1.9,0.7-3.8,1.6-5.5,2.6c5.4,6.6,5.3,16.9-1.5,23.7l-9.1,9.8v4.7c0,5,0.7,9.6,3.2,13.6c1.7-0.5,3.1-0.8,4.9-0.8
	c4.3,0,8.2,1.6,11.1,4.5c2.4,2.4,3.8,6,4.3,9.2c0.4,0,0.8,0.6,1.3,0.6h22.6c14.4,0,26.7-12.7,26.7-27.1v-16.2
	C291,378.6,284.9,369.9,276.5,365.5z"/>
<path id="XMLID_1_" class="st1" d="M308.5,340.1c-3.3,0-6.6,1.4-9,3.9l-12.7,12.7c-1.5,1.8-3.1,3.4-4.9,4.9l-0.1,0.1
	c6,3.9,10.6,9.7,13,16.5l19.4-19.4c4.7-4.7,5.3-11.9,1.2-15.9C313.7,341,311.2,340.1,308.5,340.1z"/>
<g id="XMLID_125_">
	<g id="XMLID_33_">
		<line id="XMLID_36_" class="st2" x1="-100" y1="169" x2="-100" y2="419"/>
		<g id="XMLID_34_">
			<path id="XMLID_35_" class="st5" d="M-109.8,182.8c0.5,0.3,1.1,0.2,1.4-0.3l8.2-12.9l8.2,12.9c0.3,0.5,0.9,0.6,1.4,0.3
				c0.5-0.3,0.6-0.9,0.3-1.4l-9.1-14.2c-0.2-0.3-0.5-0.5-0.8-0.5s-0.7,0.2-0.8,0.5l-9.1,14.2c-0.1,0.2-0.2,0.4-0.2,0.5
				C-110.3,182.3-110.1,182.7-109.8,182.8z"/>
		</g>
	</g>
</g>
<g id="XMLID_147_">
	<g id="XMLID_94_">
		<line id="XMLID_97_" class="st1" x1="250" y1="261" x2="250" y2="165"/>
		<g id="XMLID_95_">
			<path id="XMLID_96_" class="st6" d="M259.6,247.8c-0.5-0.3-1.1-0.2-1.4,0.3L250,261l-8.2-12.9c-0.3-0.5-0.9-0.6-1.4-0.3
				c-0.5,0.3-0.6,0.9-0.3,1.4l9.1,14.2c0.2,0.3,0.5,0.5,0.8,0.5s0.7-0.2,0.8-0.5l9.1-14.2c0.1-0.2,0.2-0.4,0.2-0.5
				C260.1,248.3,259.9,248,259.6,247.8z"/>
		</g>
	</g>
</g>
<g id="XMLID_107_">
	<rect id="XMLID_84_" x="233.8" y="-165.1" class="st2" width="18.7" height="18.7"/>
	<rect id="XMLID_83_" x="257.9" y="-165.1" class="st2" width="18.7" height="18.7"/>
	<rect id="XMLID_82_" x="282" y="-165.1" class="st7" width="18.7" height="18.7"/>
	<rect id="XMLID_81_" x="306.1" y="-165.1" class="st2" width="18.7" height="18.7"/>
	<rect id="XMLID_80_" x="330.2" y="-165.1" class="st7" width="18.7" height="18.7"/>
	<rect id="XMLID_79_" x="233.8" y="-138.8" class="st7" width="18.7" height="18.7"/>
	<rect id="XMLID_78_" x="257.9" y="-138.8" class="st2" width="18.7" height="18.7"/>
	<rect id="XMLID_77_" x="282" y="-138.8" class="st2" width="18.7" height="18.7"/>
	<rect id="XMLID_52_" x="306.1" y="-138.8" class="st7" width="18.7" height="18.7"/>
	<rect id="XMLID_42_" x="330.2" y="-138.8" class="st2" width="18.7" height="18.7"/>
	<rect id="XMLID_41_" x="233.8" y="-112.6" class="st2" width="18.7" height="18.7"/>
	<rect id="XMLID_40_" x="257.9" y="-112.6" class="st7" width="18.7" height="18.7"/>
	<rect id="XMLID_39_" x="282" y="-112.6" class="st7" width="18.7" height="18.7"/>
	<rect id="XMLID_38_" x="306.1" y="-112.6" class="st2" width="18.7" height="18.7"/>
	<rect id="XMLID_37_" x="330.2" y="-112.6" class="st2" width="18.7" height="18.7"/>
	<rect id="XMLID_25_" x="233.8" y="-86.3" class="st2" width="18.7" height="18.7"/>
	<rect id="XMLID_24_" x="257.9" y="-86.3" class="st7" width="18.7" height="18.7"/>
	<rect id="XMLID_23_" x="282" y="-86.3" class="st7" width="18.7" height="18.7"/>
	<rect id="XMLID_22_" x="306.1" y="-86.3" class="st7" width="18.7" height="18.7"/>
	<rect id="XMLID_21_" x="330.2" y="-86.3" class="st2" width="18.7" height="18.7"/>
	<rect id="XMLID_20_" x="233.8" y="-60.1" class="st2" width="18.7" height="18.7"/>
	<rect id="XMLID_19_" x="257.9" y="-60.1" class="st2" width="18.7" height="18.7"/>
	<rect id="XMLID_18_" x="282" y="-60.1" class="st2" width="18.7" height="18.7"/>
	<rect id="XMLID_17_" x="306.1" y="-60.1" class="st7" width="18.7" height="18.7"/>
	<rect id="XMLID_26_" x="330.2" y="-60.1" class="st2" width="18.7" height="18.7"/>
</g>
<path id="XMLID_16_" class="st2" d="M304.9-287.1c-1.3-35-30.1-62.9-65.4-62.9c-28,0-51.9,17.6-61.3,42.4c-6.6-7.9-16.6-13-27.7-13
	c-19.9,0-36,16.1-36,36c0,3.8,0.6,7.5,1.7,11c-12.8,6.6-21.6,19.7-21.6,35.1c0,21.9,17.8,39.5,39.7,39.5h151.4
	c25.6,0,46.3-20.5,46.3-46.1C332.1-263.9,320.9-279.8,304.9-287.1z"/>
<g id="XMLID_146_">
	<g id="XMLID_15_">
		<g id="XMLID_104_">
			<line id="XMLID_108_" class="st2" x1="176" y1="-179" x2="176" y2="-109"/>
			<g id="XMLID_105_">
				<path id="XMLID_106_" class="st5" d="M165.9-165.6c0.5,0.3,1.1,0.2,1.4-0.3l8.2-12.9l8.2,12.9c0.3,0.5,0.9,0.6,1.4,0.3
					c0.5-0.3,0.6-0.9,0.3-1.4l-9.1-14.2c-0.2-0.3-0.5-0.5-0.8-0.5c-0.3,0-0.7,0.2-0.8,0.5l-9.1,14.2c-0.1,0.2-0.2,0.4-0.2,0.5
					C165.5-166.1,165.6-165.8,165.9-165.6z"/>
			</g>
		</g>
	</g>
	<g id="XMLID_14_">
		<g id="XMLID_99_">
			<line id="XMLID_102_" class="st2" x1="151" y1="-111" x2="151" y2="-182"/>
			<g id="XMLID_100_">
				<path id="XMLID_101_" class="st5" d="M160.1-125c-0.5-0.3-1.1-0.2-1.4,0.3l-8.2,12.9l-8.2-12.9c-0.3-0.5-0.9-0.6-1.4-0.3
					c-0.5,0.3-0.6,0.9-0.3,1.4l9.1,14.2c0.2,0.3,0.5,0.5,0.8,0.5s0.7-0.2,0.8-0.5l9.1-14.2c0.1-0.2,0.2-0.4,0.2-0.5
					C160.6-124.4,160.4-124.8,160.1-125z"/>
			</g>
		</g>
	</g>
</g>
<path id="XMLID_329_" class="st2" d="M115-93v52h104v-52H115z M163-46h-42v-43h42V-46z"/>
<rect id="XMLID_181_" x="194.1" y="-89.1" class="st7" width="18.7" height="18.7"/>
<rect id="XMLID_179_" x="169.1" y="-89.1" class="st7" width="18.7" height="18.7"/>
<rect id="XMLID_175_" x="169.1" y="-64.7" class="st2" width="18.7" height="18.7"/>
<rect id="XMLID_171_" x="194.1" y="-64.6" class="st7" width="18.7" height="18.7"/>
<path id="XMLID_29_" class="st1" d="M249.4,82.5c7.3,16,7.3,10.4,0,26.4c16-7.3,10.4-7.3,26.4,0c-7.3-16-7.3-10.4,0-26.4
	C259.8,89.8,265.3,89.8,249.4,82.5z"/>
<path id="XMLID_28_" class="st1" d="M271.7,60.3c3.9,8.5,3.9,5.6,0,14.1c8.5-3.9,5.6-3.9,14.1,0c-3.9-8.5-3.9-5.6,0-14.1
	C277.2,64.2,280.2,64.2,271.7,60.3z"/>
<path id="XMLID_27_" class="st1" d="M301,86.3c-8.5,3.9-5.6,3.9-14.1,0c3.9,8.5,3.9,5.6,0,14.1c8.5-3.9,5.6-3.9,14.1,0
	C297.1,91.8,297.1,94.8,301,86.3z"/>
</svg>
