<?xml version="1.0" encoding="utf-8"?>
<!-- Generator: Adobe Illustrator 19.0.0, SVG Export Plug-In . SVG Version: 6.00 Build 0)  -->
<svg version="1.1" id="Слой_1" xmlns="http://www.w3.org/2000/svg" xmlns:xlink="http://www.w3.org/1999/xlink" x="0px" y="0px"
	 viewBox="0 0 420 310" style="enable-background:new 0 0 420 310;" xml:space="preserve">
<style type="text/css">
	.st0{fill:none;stroke:#357DF6;stroke-width:2;stroke-miterlimit:10;}
	.st1{fill:#9CBFF2;stroke:#357DF6;stroke-width:2;stroke-miterlimit:10;}
	.st2{fill:#FFFFFF;stroke:#357DF6;stroke-width:2;stroke-miterlimit:10;}
</style>
<g id="XMLID_66_">
	<path id="XMLID_81_" class="st0" d="M388.6,269.8H191.2c-13.6,0-24.7-11.1-24.7-24.7V141.5c0-13.6,11.1-24.7,24.7-24.7h197.4
		c13.6,0,24.7,11.1,24.7,24.7v103.6C413.3,258.7,402.2,269.8,388.6,269.8z"/>
	<rect id="XMLID_80_" x="166.5" y="140.7" class="st1" width="246.8" height="36.1"/>
	<circle id="XMLID_79_" class="st0" cx="361.3" cy="240.7" r="16"/>
	<circle id="XMLID_77_" class="st1" cx="382.5" cy="240.7" r="16"/>
	<polygon id="XMLID_76_" class="st0" points="193.9,199 177.2,215.7 194,232.4 193.9,199 	"/>
	<rect id="XMLID_74_" x="235" y="188" class="st1" width="55" height="11"/>
	<rect id="XMLID_73_" x="299" y="188" class="st1" width="51" height="11"/>
	<rect id="XMLID_72_" x="361" y="188" class="st1" width="37" height="11"/>
	<circle id="XMLID_71_" class="st1" cx="158.7" cy="71.2" r="28.2"/>
	<line id="XMLID_70_" class="st2" x1="130.6" y1="71" x2="48.6" y2="89.7"/>
	<circle id="XMLID_69_" class="st1" cx="27.5" cy="92.2" r="20.6"/>
	<line id="XMLID_68_" class="st2" x1="34.8" y1="111.5" x2="75.5" y2="154.4"/>
	<circle id="XMLID_67_" class="st0" cx="95.2" cy="166.8" r="23.3"/>
</g>
</svg>
