<?xml version="1.0" encoding="utf-8"?>
<!-- Generator: Adobe Illustrator 19.0.0, SVG Export Plug-In . SVG Version: 6.00 Build 0)  -->
<svg version="1.1" id="Слой_1" xmlns="http://www.w3.org/2000/svg" xmlns:xlink="http://www.w3.org/1999/xlink" x="0px" y="0px"
	 viewBox="0 0 420 310" style="enable-background:new 0 0 420 310;" xml:space="preserve">
<style type="text/css">
	.st0{fill:none;stroke:#A53FD0;stroke-width:2;stroke-miterlimit:10;}
	.st1{fill:#A53FD0;stroke:#A53FD0;stroke-width:2;stroke-miterlimit:10;}
	.st2{fill:#A53FD0;}
</style>
<rect id="XMLID_34_" x="221.3" y="185.4" class="st0" width="18.7" height="18.7"/>
<rect id="XMLID_33_" x="245.3" y="185.4" class="st0" width="18.7" height="18.7"/>
<rect id="XMLID_32_" x="269.3" y="185.4" class="st1" width="18.7" height="18.7"/>
<rect id="XMLID_31_" x="293.3" y="185.4" class="st0" width="18.7" height="18.7"/>
<rect id="XMLID_25_" x="317.3" y="185.4" class="st1" width="18.7" height="18.7"/>
<rect id="XMLID_17_" x="221.3" y="211.5" class="st1" width="18.7" height="18.7"/>
<rect id="XMLID_13_" x="245.3" y="211.5" class="st0" width="18.7" height="18.7"/>
<rect id="XMLID_12_" x="269.3" y="211.5" class="st0" width="18.7" height="18.7"/>
<rect id="XMLID_11_" x="293.3" y="211.5" class="st1" width="18.7" height="18.7"/>
<rect id="XMLID_10_" x="317.3" y="211.5" class="st0" width="18.7" height="18.7"/>
<rect id="XMLID_18_" x="221.3" y="237.7" class="st0" width="18.7" height="18.7"/>
<rect id="XMLID_9_" x="245.3" y="237.7" class="st1" width="18.7" height="18.7"/>
<rect id="XMLID_8_" x="269.3" y="237.7" class="st1" width="18.7" height="18.7"/>
<rect id="XMLID_7_" x="293.3" y="237.7" class="st0" width="18.7" height="18.7"/>
<rect id="XMLID_14_" x="317.3" y="237.7" class="st0" width="18.7" height="18.7"/>
<rect id="XMLID_24_" x="221.3" y="263.8" class="st0" width="18.7" height="18.7"/>
<rect id="XMLID_23_" x="245.3" y="263.8" class="st1" width="18.7" height="18.7"/>
<rect id="XMLID_22_" x="269.3" y="263.8" class="st1" width="18.7" height="18.7"/>
<rect id="XMLID_6_" x="293.3" y="263.8" class="st1" width="18.7" height="18.7"/>
<rect id="XMLID_15_" x="317.3" y="263.8" class="st0" width="18.7" height="18.7"/>
<rect id="XMLID_30_" x="221.3" y="290" class="st0" width="18.7" height="18.7"/>
<rect id="XMLID_29_" x="245.3" y="290" class="st0" width="18.7" height="18.7"/>
<rect id="XMLID_28_" x="269.3" y="290" class="st0" width="18.7" height="18.7"/>
<rect id="XMLID_27_" x="293.3" y="290" class="st1" width="18.7" height="18.7"/>
<rect id="XMLID_26_" x="317.3" y="290" class="st0" width="18.7" height="18.7"/>
<path id="XMLID_124_" class="st1" d="M292.1,63.8c-1.3-34.8-30-62.7-65.1-62.7c-27.9,0-51.8,17.6-61,42.2
	c-6.6-7.9-16.5-12.9-27.6-12.9c-19.8,0-35.9,16.1-35.9,35.9c0,3.8,0.6,7.5,1.7,11c-12.8,6.6-21.5,19.4-21.5,34.7
	c0,21.8,17.7,39.1,39.6,39.1h150.9c25.5,0,46.1-20.2,46.1-45.7C319.3,86.6,308.1,71,292.1,63.8z"/>
<g id="XMLID_146_">
	<g id="XMLID_125_">
		<g id="XMLID_46_">
			<line id="XMLID_49_" class="st0" x1="163" y1="171" x2="163" y2="241"/>
			<g id="XMLID_47_">
				<path id="XMLID_48_" class="st2" d="M153.6,184.9c0.5,0.3,1.1,0.2,1.4-0.3l8.2-12.9l8.2,12.9c0.3,0.5,0.9,0.6,1.4,0.3
					c0.5-0.3,0.6-0.9,0.3-1.4l-9.1-14.2c-0.2-0.3-0.5-0.5-0.8-0.5s-0.7,0.2-0.8,0.5l-9.1,14.2c-0.1,0.2-0.2,0.4-0.2,0.5
					C153.2,184.4,153.3,184.7,153.6,184.9z"/>
			</g>
		</g>
	</g>
	<g id="XMLID_147_">
		<g id="XMLID_41_">
			<line id="XMLID_44_" class="st0" x1="138" y1="239" x2="138" y2="169"/>
			<g id="XMLID_42_">
				<path id="XMLID_43_" class="st2" d="M147.9,225.3c-0.5-0.3-1.1-0.2-1.4,0.3l-8.2,12.9l-8.2-12.9c-0.3-0.5-0.9-0.6-1.4-0.3
					c-0.5,0.3-0.6,0.9-0.3,1.4l9.1,14.2c0.2,0.3,0.5,0.5,0.8,0.5s0.7-0.2,0.8-0.5l9.1-14.2c0.1-0.2,0.2-0.4,0.2-0.5
					C148.4,225.8,148.2,225.5,147.9,225.3z"/>
			</g>
		</g>
	</g>
</g>
<rect id="XMLID_326_" x="103" y="257" class="st0" width="104" height="52"/>
<rect id="XMLID_327_" x="109" y="261" class="st0" width="41" height="43"/>
<rect id="XMLID_181_" x="181.8" y="261" class="st1" width="18.7" height="18.7"/>
<rect id="XMLID_179_" x="156.9" y="261" class="st1" width="18.7" height="18.7"/>
<rect id="XMLID_175_" x="156.9" y="285.4" class="st0" width="18.7" height="18.7"/>
<rect id="XMLID_171_" x="181.8" y="285.5" class="st1" width="18.7" height="18.7"/>
</svg>
