<?xml version="1.0" encoding="utf-8"?>
<!-- Generator: Adobe Illustrator 19.0.0, SVG Export Plug-In . SVG Version: 6.00 Build 0)  -->
<svg version="1.1" id="Слой_1" xmlns="http://www.w3.org/2000/svg" xmlns:xlink="http://www.w3.org/1999/xlink" x="0px" y="0px"
	 viewBox="0 0 420 310" style="enable-background:new 0 0 420 310;" xml:space="preserve">
<style type="text/css">
	.st0{fill:none;stroke:#5AE093;stroke-width:2;stroke-miterlimit:10;}
	.st1{fill:#C3F4D7;stroke:#5AE093;stroke-width:2;stroke-miterlimit:10;}
</style>
<path id="XMLID_43_" class="st0" d="M241.5,224.7H68.8c-18,0-32.7-14.6-32.7-32.7V69.5c0-18,14.6-32.7,32.7-32.7h172.7
	c18,0,32.7,14.6,32.7,32.7V192C274.2,210.1,259.5,224.7,241.5,224.7z"/>
<rect id="XMLID_44_" x="54.5" y="224.7" class="st0" width="201.4" height="47.5"/>
<path id="XMLID_46_" class="st1" d="M224.6,182.3H85.7c-15.2,0-27.5-12.3-27.5-27.5V76.7c0-15.2,12.3-27.5,27.5-27.5h138.9
	c15.2,0,27.5,12.3,27.5,27.5v78.1C252.1,170,239.8,182.3,224.6,182.3z"/>
<g id="XMLID_50_">
	<rect id="XMLID_47_" x="85" y="197.2" class="st1" width="70.5" height="9.6"/>
	<rect id="XMLID_40_" x="162.7" y="197.2" class="st1" width="48.1" height="9.6"/>
	<rect id="XMLID_39_" x="215.7" y="197.2" class="st1" width="9.6" height="9.6"/>
</g>
<g id="XMLID_165_">
	<rect id="XMLID_51_" x="111.4" y="237.9" class="st1" width="87.4" height="3"/>
	<rect id="XMLID_38_" x="111.4" y="244.2" class="st1" width="87.4" height="3"/>
	<rect id="XMLID_164_" x="111.4" y="251.3" class="st1" width="87.4" height="3"/>
</g>
<path id="XMLID_167_" class="st0" d="M357.4,272.2H311c-14,0-25.3-11.3-25.3-25.3V90.4c0-14,11.3-25.3,25.3-25.3h46.4
	c14,0,25.3,11.3,25.3,25.3v156.5C382.7,260.9,371.3,272.2,357.4,272.2z"/>
<rect id="XMLID_168_" x="293.2" y="83.2" class="st0" width="79" height="6.4"/>
<rect id="XMLID_186_" x="362.6" y="95.9" class="st1" width="9.6" height="9.6"/>
<g id="XMLID_169_">
	<rect id="XMLID_292_" x="338" y="203" class="st1" width="33" height="3"/>
	<rect id="XMLID_294_" x="338" y="210" class="st1" width="33" height="3"/>
	<rect id="XMLID_296_" x="338" y="216" class="st1" width="33" height="3"/>
</g>
<g id="XMLID_1_">
	<path id="XMLID_2_" class="st0" d="M89.1,122.9c-6.4-0.2-11.9-4.2-15.7-10.9l10-6.9c2.1,2.9,3.7,3.5,5.7,3.8v-7.6
		c-7.7-1.8-14.9-6.2-14.8-17.3c0.5-8.7,7-14.1,14.8-15.8v-4.6h10.1v4.5c5.5,0.7,9.4,3,13.5,9.3l-9.4,5.9c-0.9-1.5-2.4-2.5-4.1-2.8
		v8.8c8.4,2,15.4,5.9,14.8,17.9c-0.7,8.4-7.3,13.6-14.8,15.5v5.1H89.1V122.9z M86.7,84.3c-0.1,2.2,0.9,3.9,3,4.6V80
		C87.8,81.1,86.7,82.7,86.7,84.3L86.7,84.3z M101.7,105.8c0.1-2.2-0.9-3.9-3-4.6v8.9C100.6,109.1,101.7,107.5,101.7,105.8
		L101.7,105.8z"/>
</g>
</svg>
