<?xml version="1.0" encoding="utf-8"?>
<!-- Generator: Adobe Illustrator 19.0.0, SVG Export Plug-In . SVG Version: 6.00 Build 0)  -->
<svg version="1.1" id="Слой_1" xmlns="http://www.w3.org/2000/svg" xmlns:xlink="http://www.w3.org/1999/xlink" x="0px" y="0px"
	 viewBox="0 0 420 310" style="enable-background:new 0 0 420 310;" xml:space="preserve">
<style type="text/css">
	.st0{fill:#EFD0AB;stroke:#EA9436;stroke-width:2;stroke-miterlimit:10;}
	.st1{fill:none;stroke:#EA9436;stroke-width:2;stroke-miterlimit:10;}
	.st2{fill-rule:evenodd;clip-rule:evenodd;fill:#394D54;}
	.st3{fill:#00AADA;}
	.st4{fill:#24B8EB;}
	.st5{fill:#008BB8;}
	.st6{fill:#039BC6;}
	.st7{display:none;}
	.st8{display:inline;fill:#394D54;}
	.st9{fill-rule:evenodd;clip-rule:evenodd;fill:#00ACD3;}
	.st10{fill-rule:evenodd;clip-rule:evenodd;fill:#20C2EF;}
	.st11{fill-rule:evenodd;clip-rule:evenodd;fill:#D4EDF1;}
	.st12{fill:#BFDBE0;}
	.st13{fill:#D4EDF1;}
	.st14{fill:#394D54;}
	.st15{fill:#2CABDF;}
</style>
<g id="XMLID_136_">
	<g id="XMLID_264_">
		
			<ellipse id="XMLID_324_" transform="matrix(0.7913 0.6115 -0.6115 0.7913 85.024 -24.4543)" class="st0" cx="78.3" cy="112.3" rx="7.6" ry="11.6"/>
		<g id="XMLID_271_">
			<ellipse id="XMLID_323_" class="st1" cx="127.3" cy="105.2" rx="123.7" ry="28.6"/>
			<path id="XMLID_322_" class="st0" d="M127.3,33.4c-24.8,0-45,19.3-45,43.1c0,7.4,2,14.4,5.4,20.5c24.2,7.2,55.5,6.5,79.9-1.4
				c3-5.8,4.6-12.2,4.6-19.1C172.3,52.7,152.1,33.4,127.3,33.4z"/>
			<path id="XMLID_321_" class="st1" d="M36.2,124.5c12.2,27.3,49.3,47.1,93.2,47.1c44.6,0,82.2-20.5,93.8-48.4
				c-22.7,6.4-57.2,10.5-95.9,10.5C91.2,133.7,58.8,130.2,36.2,124.5z"/>
			<line id="XMLID_320_" class="st1" x1="127" y1="34" x2="127" y2="12"/>
			<circle id="XMLID_319_" class="st1" cx="127.2" cy="8.4" r="3.4"/>
			<ellipse id="XMLID_318_" class="st0" cx="127.3" cy="118" rx="7.6" ry="11.6"/>
			
				<ellipse id="XMLID_317_" transform="matrix(0.6115 -0.7913 0.7913 0.6115 -19.875 181.7687)" class="st0" cx="175.2" cy="111.1" rx="7.6" ry="11.6"/>
		</g>
		<path id="XMLID_270_" class="st0" d="M231.8,283.9l-0.1-1c-0.2-0.8-0.7-1.5-1.4-2.3l-64.7-113.9c-11.4,2.4-23.4,3.7-36.2,3.8
			c-12.8,0-24.9-1.3-36.3-3.7L28.4,280.7c-0.7,0.8-1.2,0.9-1.4,1.7l0,0l0,0c-0.1,1-0.1,0.8-0.1,1.1c0,11.2,45.9,20.7,102.5,20.7
			S231.8,295.1,231.8,283.9"/>
	</g>
	<g id="XMLID_316_">
		<g id="XMLID_115_">
			<path id="docker" class="st2" d="M380.3,123.9c1.7-1.5,3.4-2.9,5.1-4.4c0.6-0.5,1.2-1,1.8-1.6c-0.5-0.6-1.2-1-1.9-1.3
				c-1.3-0.5-2.6-0.3-3.9,0.4c-1.6,0.9-2.3,2.4-2.2,4.2c0,0.7,0.2,1.4,0.6,2C380,123.5,380.2,123.7,380.3,123.9 M382.3,125.3
				c0.8,0.3,1.8,0.3,2.7,0.1c0.4-0.2,1.6-0.7,2-0.6l0.1,0l0.1,0c0.3,0.1,0.5,0.3,0.6,0.6c0.3,0.6,0.2,1.2-0.4,1.6L387,127
				c-2.2,1.3-4.5,1.1-6.7-0.1c-1-0.6-1.8-1.4-2.4-2.4l-0.1-0.2c-1.4-2.4-1.2-5,0.4-7.3c0.5-0.8,1.3-1.4,2.1-1.9l0.3-0.2
				c2.1-1.2,4.3-1.1,6.4-0.1c1.1,0.6,2.1,1.4,2.7,2.5l0.1,0.2c0.5,0.8-0.1,1.5-0.8,2c-0.7,0.6-1.4,1.2-2.1,1.8
				C385.4,122.6,383.8,124,382.3,125.3z M398.7,114.2h0.2c0.7,0,1.2,0.5,1.2,1.2c0,1-0.9,1.2-1.7,1.2c-1,0-2,0.6-2.7,1.3
				c-0.9,0.9-1.3,2-1.3,3.2v5.6c0,0.6-0.4,1.2-1.1,1.2h-0.2c-0.7,0-1.1-0.5-1.1-1.2v-5.9c0-2.3,1.1-4.1,2.9-5.4
				C396.1,114.6,397.3,114.2,398.7,114.2z M369.9,118.2c0.9-0.9,1.8-1.8,2.7-2.7c0.3-0.2,1.2-1.3,1.6-1.3h0.4l0,0
				c0.5,0.1,0.9,0.4,0.9,1v0.2c0,0.4-0.5,0.8-0.7,1.1c-0.5,0.6-1.1,1.1-1.6,1.7l-2.8,2.8c1.2,1.2,2.4,2.4,3.6,3.6
				c0.3,0.3,0.7,0.7,1,1c0.1,0.1,0.3,0.3,0.4,0.4c0.1,0.2,0.2,0.3,0.2,0.5v0.2l0,0.1c-0.1,0.5-0.5,1-1,1h-0.2
				c-0.4,0-0.8-0.4-1.1-0.7c-0.5-0.5-1.1-1-1.6-1.6l-1.8-1.7v2.8c0,0.6-0.4,1.2-1.1,1.2h-0.2c-0.7,0-1.1-0.5-1.1-1.2V111
				c0-0.6,0.4-1.2,1.1-1.2h0.2c0.7,0,1.1,0.5,1.1,1.2V118.2z M362.5,116.6c-0.3-0.2-1-0.2-1.4-0.2c-1.9-0.1-3.3,1-4.1,2.7
				c-0.3,0.6-0.4,1.2-0.4,1.9c0,2,1,3.4,2.8,4.2c0.6,0.3,1.5,0.4,2.2,0.4c0.6,0,1.5-0.4,2-0.6l0.1,0h0.4l0,0c0.5,0.1,0.9,0.4,0.9,1
				v0.2c0,1.4-2.6,1.7-3.5,1.8c-3.5,0.2-6-1.7-7-5c-0.2-0.6-0.2-1.1-0.2-1.7v-0.5c0-2.5,1.2-4.5,3.4-5.8c1-0.6,2.1-0.9,3.3-0.9h0.5
				c1.2,0,2.4,0.3,3.4,1l0.1,0.1l0.1,0.1c0.1,0.2,0.2,0.4,0.2,0.6v0.2c0,0.6-0.4,0.9-1,1l0,0h-0.1
				C363.6,117.1,362.8,116.8,362.5,116.6z M341.4,121c0,1.8,0.9,3,2.3,3.9c0.7,0.4,1.5,0.6,2.3,0.6c1.7,0,3-0.9,3.9-2.3
				c0.4-0.7,0.6-1.5,0.6-2.3c0-1.6-0.8-2.9-2.1-3.8c-0.7-0.5-1.6-0.7-2.4-0.7c-1.9,0-3.3,1-4.2,2.7
				C341.6,119.7,341.4,120.4,341.4,121z M345.8,114.1h0.3c2.7,0,4.7,1.3,6,3.6c0.5,0.9,0.8,2,0.8,3v0.5c0,2.5-1.2,4.5-3.4,5.8
				c-1,0.6-2.1,0.9-3.3,0.9h-0.5c-2.5,0-4.5-1.2-5.8-3.4c-0.6-1-0.9-2.1-0.9-3.3v-0.5c0-2.5,1.2-4.5,3.4-5.8
				C343.5,114.4,344.6,114.1,345.8,114.1z M326.3,121c0,1.8,0.9,3.2,2.5,4c0.6,0.4,1.3,0.5,2.1,0.5c1.8,0,3.1-0.8,4-2.3
				c0.4-0.7,0.6-1.5,0.6-2.3c0-1.6-0.7-2.8-2-3.7c-0.8-0.6-1.6-0.8-2.6-0.8c-1.9,0-3.3,1-4.2,2.7C326.5,119.7,326.3,120.4,326.3,121
				z M335.5,115.9V111c0-0.6,0.4-1.2,1.1-1.2h0.2c0.7,0,1.1,0.5,1.1,1.2v10.3c0,2.5-1.2,4.5-3.4,5.8c-1,0.6-2.1,0.9-3.3,0.9h-0.5
				c-2.5,0-4.5-1.2-5.8-3.4c-0.6-1-0.9-2.1-0.9-3.3v-0.5c0-2.5,1.2-4.5,3.4-5.8c1-0.6,2.1-0.9,3.3-0.9h0.5
				C332.8,114.1,334.3,114.8,335.5,115.9z"/>
			<path id="outline" class="st2" d="M367.9,77.7h6.8v7h3.4c1.6,0,3.2-0.3,4.7-0.8c0.7-0.3,1.6-0.6,2.3-1c-1-1.3-1.5-2.8-1.6-4.4
				c-0.2-2.1,0.2-4.9,1.7-6.5l0.7-0.8l0.9,0.7c2.1,1.7,4,4.1,4.3,6.9c2.6-0.8,5.6-0.6,7.9,0.7l0.9,0.5l-0.5,1
				c-1.9,3.8-6,4.9-9.9,4.7c-5.9,14.7-18.7,21.6-34.3,21.6c-8,0-15.4-3-19.6-10.1l-0.1-0.1l-0.6-1.2c-1.4-3.1-1.9-6.6-1.6-10l0.1-1
				h5.8v-7h6.8v-6.8h13.6v-6.8h8.2V77.7z"/>
			<g id="body_colors">
				<path id="XMLID_249_" class="st3" d="M389.9,80.3c0.5-3.5-2.2-6.3-3.8-7.7c-1.9,2.2-2.2,7.9,0.8,10.4c-1.7,1.5-5.2,2.8-8.7,2.8
					h-43.6c-0.3,3.7,0.3,7.2,1.8,10.1l0.5,0.9c0.3,0.5,0.7,1,1,1.5h0c1.8,0.1,3.4,0.2,5,0.1c0,0,0,0,0,0c3-0.1,5.4-0.4,7.2-1.1
					c0.3-0.1,0.6,0,0.7,0.3c0.1,0.3-0.1,0.6-0.3,0.7c-0.2,0.1-0.5,0.2-0.8,0.2l0,0c-1.4,0.4-3,0.7-5,0.8c0.1,0-0.1,0-0.1,0
					c-0.1,0-0.2,0-0.2,0c-0.8,0-1.6,0.1-2.5,0.1c-1,0-1.9,0-2.9-0.1l0,0c3.6,4.1,9.3,6.5,16.4,6.5c15.1,0,27.9-6.7,33.5-21.7
					c4,0.4,7.9-0.6,9.6-4C395.6,78.7,392,79.2,389.9,80.3z"/>
				<path id="XMLID_248_" class="st4" d="M389.9,80.3c0.5-3.5-2.2-6.3-3.8-7.7c-1.9,2.2-2.2,7.9,0.8,10.4c-1.7,1.5-5.2,2.8-8.7,2.8
					h-41c-0.2,5.7,1.9,10.1,5.7,12.7c0,0,0,0,0,0c3-0.1,5.4-0.4,7.2-1.1c0.3-0.1,0.6,0,0.7,0.3c0.1,0.3-0.1,0.6-0.3,0.7
					c-0.2,0.1-0.5,0.2-0.8,0.2l0,0c-1.4,0.4-3.1,0.7-5.1,0.9c0,0,0,0,0,0c5.1,2.6,12.6,2.6,21.1-0.7c9.6-3.7,18.5-10.7,24.7-18.7
					C390.1,80.2,390,80.2,389.9,80.3z"/>
				<path id="XMLID_247_" class="st5" d="M334.6,90.3c0.3,2,0.9,3.9,1.7,5.6l0.5,0.9c0.3,0.5,0.7,1,1,1.5c1.8,0.1,3.4,0.2,5,0.1
					c3-0.1,5.4-0.4,7.2-1.1c0.3-0.1,0.6,0,0.7,0.3c0.1,0.3-0.1,0.6-0.3,0.7c-0.2,0.1-0.5,0.2-0.8,0.2l0,0c-1.4,0.4-3.1,0.7-5.1,0.8
					c-0.1,0-0.2,0-0.3,0c-0.8,0-1.6,0.1-2.5,0.1c-1,0-1.9,0-3-0.1c3.6,4.1,9.4,6.5,16.5,6.5c12.9,0,24.1-4.9,30.6-15.7H334.6z"/>
				<path id="XMLID_246_" class="st6" d="M337.5,90.3c0.8,3.5,2.6,6.3,5.3,8.2c3-0.1,5.4-0.4,7.2-1.1c0.3-0.1,0.6,0,0.7,0.3
					c0.1,0.3-0.1,0.6-0.3,0.7c-0.2,0.1-0.5,0.2-0.8,0.2l0,0c-1.4,0.4-3.2,0.7-5.2,0.8c5.1,2.6,12.5,2.6,21.1-0.7
					c5.2-2,10.1-4.9,14.6-8.5H337.5z"/>
			</g>
			<g id="XMLID_244_" class="st7">
				<path id="XMLID_245_" class="st8" d="M341.7,99.5c0.9,0,1.7,0,2.5-0.1c0.1,0,0.1,0,0.2,0c0,0,0,0,0,0c2-0.1,3.7-0.4,5.2-0.8l0,0
					c0.3-0.1,0.5-0.2,0.8-0.2c0.3-0.1,0.4-0.4,0.3-0.7c-0.1-0.3-0.4-0.4-0.7-0.3c-1.8,0.6-4.3,1-7.2,1.1c0,0,0,0,0,0
					c-1.5,0-3.2,0-5-0.1h0c-0.1,0-0.2,0-0.3,0c-0.3,0-0.5,0.2-0.6,0.5c0,0.3,0.2,0.5,0.5,0.6c0.4,0,0.7,0,1.1,0.1c0.1,0,0.1,0,0.2,0
					l0,0C339.8,99.5,340.8,99.5,341.7,99.5z"/>
			</g>
			<g id="Containers">
				<path id="XMLID_236_" class="st9" d="M345.4,79.3h0.5v4.9h-0.5V79.3z M344.5,79.3h0.5v4.9h-0.5V79.3z M343.6,79.3h0.5v4.9h-0.5
					V79.3z M342.7,79.3h0.5v4.9h-0.5V79.3z M341.8,79.3h0.5v4.9h-0.5V79.3z M340.9,79.3h0.5v4.9h-0.5V79.3z M340.4,78.8h5.9v5.9
					h-5.9V78.8z"/>
				<path id="XMLID_227_" class="st9" d="M352.2,72.5h0.5v4.9h-0.5V72.5z M351.3,72.5h0.5v4.9h-0.5V72.5z M350.4,72.5h0.5v4.9h-0.5
					V72.5z M349.5,72.5h0.5v4.9h-0.5V72.5z M348.6,72.5h0.5v4.9h-0.5V72.5z M347.7,72.5h0.5v4.9h-0.5V72.5z M347.2,72h5.9v5.9h-5.9
					V72z"/>
				<path id="XMLID_219_" class="st10" d="M352.2,79.3h0.5v4.9h-0.5V79.3z M351.3,79.3h0.5v4.9h-0.5V79.3z M350.4,79.3h0.5v4.9h-0.5
					V79.3z M349.5,79.3h0.5v4.9h-0.5V79.3z M348.6,79.3h0.5v4.9h-0.5V79.3z M347.7,79.3h0.5v4.9h-0.5V79.3z M347.2,78.8h5.9v5.9
					h-5.9V78.8z"/>
				<path id="XMLID_211_" class="st9" d="M359,79.3h0.5v4.9H359V79.3z M358.1,79.3h0.5v4.9h-0.5V79.3z M357.2,79.3h0.5v4.9h-0.5
					V79.3z M356.3,79.3h0.5v4.9h-0.5V79.3z M355.4,79.3h0.5v4.9h-0.5V79.3z M354.5,79.3h0.5v4.9h-0.5V79.3z M354,78.8h5.9v5.9H354
					V78.8z"/>
				<path id="XMLID_203_" class="st10" d="M359,72.5h0.5v4.9H359V72.5z M358.1,72.5h0.5v4.9h-0.5V72.5z M357.2,72.5h0.5v4.9h-0.5
					V72.5z M356.3,72.5h0.5v4.9h-0.5V72.5z M355.4,72.5h0.5v4.9h-0.5V72.5z M354.5,72.5h0.5v4.9h-0.5V72.5z M354,72h5.9v5.9H354V72z
					"/>
				<path id="XMLID_195_" class="st10" d="M365.8,79.3h0.5v4.9h-0.5V79.3z M364.9,79.3h0.5v4.9h-0.5V79.3z M364,79.3h0.5v4.9H364
					V79.3z M363.1,79.3h0.5v4.9h-0.5V79.3z M362.2,79.3h0.5v4.9h-0.5V79.3z M361.3,79.3h0.5v4.9h-0.5V79.3z M360.8,78.8h5.9v5.9
					h-5.9V78.8z"/>
				<path id="XMLID_185_" class="st9" d="M365.8,72.5h0.5v4.9h-0.5V72.5z M364.9,72.5h0.5v4.9h-0.5V72.5z M364,72.5h0.5v4.9H364
					V72.5z M363.1,72.5h0.5v4.9h-0.5V72.5z M362.2,72.5h0.5v4.9h-0.5V72.5z M361.3,72.5h0.5v4.9h-0.5V72.5z M360.8,72h5.9v5.9h-5.9
					V72z"/>
				<path id="XMLID_174_" class="st10" d="M365.8,65.7h0.5v4.9h-0.5V65.7z M364.9,65.7h0.5v4.9h-0.5V65.7z M364,65.7h0.5v4.9H364
					V65.7z M363.1,65.7h0.5v4.9h-0.5V65.7z M362.2,65.7h0.5v4.9h-0.5V65.7z M361.3,65.7h0.5v4.9h-0.5V65.7z M360.8,65.2h5.9v5.9
					h-5.9V65.2z"/>
				<path id="XMLID_160_" class="st9" d="M372.6,79.3h0.5v4.9h-0.5V79.3z M371.7,79.3h0.5v4.9h-0.5V79.3z M370.8,79.3h0.5v4.9h-0.5
					V79.3z M369.9,79.3h0.5v4.9h-0.5V79.3z M369,79.3h0.5v4.9H369V79.3z M368.1,79.3h0.5v4.9h-0.5V79.3z M367.6,78.8h5.9v5.9h-5.9
					V78.8z"/>
			</g>
			<path id="XMLID_158_" class="st11" d="M352.8,94.3c0.9,0,1.6,0.7,1.6,1.6s-0.7,1.6-1.6,1.6c-0.9,0-1.6-0.7-1.6-1.6
				S351.9,94.3,352.8,94.3"/>
			<path id="XMLID_156_" class="st2" d="M352.8,94.7c0.1,0,0.3,0,0.4,0.1c-0.1,0.1-0.2,0.2-0.2,0.4c0,0.3,0.2,0.5,0.5,0.5
				c0.2,0,0.3-0.1,0.4-0.2c0.1,0.1,0.1,0.3,0.1,0.4c0,0.6-0.5,1.2-1.2,1.2c-0.6,0-1.2-0.5-1.2-1.2C351.6,95.3,352.1,94.7,352.8,94.7
				"/>
			<path id="XMLID_140_" class="st2" d="M324,90.9h35.6h4.4h35.6c-1.6-0.4-5.2-1-4.6-3.1c-3,3.5-10.2,2.4-12,0.7
				c-2,2.9-13.9,1.8-14.7-0.5c-2.5,3-10.4,3-13,0c-0.8,2.3-12.6,3.4-14.7,0.5c-1.8,1.7-9.1,2.7-12-0.7
				C329.2,89.9,325.6,90.5,324,90.9"/>
			<path id="XMLID_119_" class="st12" d="M357.1,106c-4-1.9-6.2-4.5-7.5-7.3c-1.5,0.4-3.3,0.7-5.4,0.8c-0.8,0-1.6,0.1-2.5,0.1
				c-1,0-2.1,0-3.2-0.1c3.7,3.7,8.2,6.5,16.7,6.6C355.8,106,356.5,106,357.1,106z"/>
			<path id="XMLID_118_" class="st13" d="M351.1,101.3c-0.6-0.8-1.1-1.7-1.5-2.6c-1.5,0.4-3.3,0.7-5.4,0.8
				C345.7,100.3,347.7,101,351.1,101.3z"/>
		</g>
		<line id="XMLID_114_" class="st1" x1="307" y1="152" x2="417" y2="152"/>
		<g id="XMLID_98_">
			<polygon id="XMLID_315_" class="st14" points="360.8,172.9 347.8,180.4 347.8,180.4 360.8,187.9 			"/>
			<polygon id="XMLID_314_" class="st14" points="362.6,187.9 375.7,180.4 375.7,180.4 362.6,172.9 			"/>
			<polygon id="XMLID_313_" class="st15" points="360.8,191.5 347.8,199 347.8,199 360.8,206.5 			"/>
			<polygon id="XMLID_312_" class="st15" points="362.6,206.5 375.7,199 375.7,199 362.6,191.5 			"/>
			<polygon id="XMLID_311_" class="st14" points="360.8,209.8 347.7,217.3 347.7,217.3 360.8,224.8 			"/>
			<polygon id="XMLID_310_" class="st14" points="362.6,224.8 375.7,217.3 375.7,217.3 362.6,209.8 			"/>
			<polygon id="XMLID_309_" class="st15" points="345.1,182.3 332,189.8 332,189.8 345.1,197.3 			"/>
			<polygon id="XMLID_308_" class="st15" points="346.9,197.3 359.9,189.8 359.9,189.8 346.9,182.3 			"/>
			<polygon id="XMLID_307_" class="st15" points="376.8,182.3 363.8,189.8 363.8,189.8 376.8,197.4 			"/>
			<polygon id="XMLID_306_" class="st15" points="378.7,197.4 391.7,189.8 391.7,189.8 378.7,182.3 			"/>
			<polygon id="XMLID_305_" class="st14" points="376.8,200.7 363.8,208.2 363.8,208.2 376.8,215.7 			"/>
			<polygon id="XMLID_304_" class="st15" points="378.7,215.7 391.7,208.2 391.7,208.2 378.7,200.7 			"/>
			<polygon id="XMLID_303_" class="st15" points="345.1,200.6 332,208.1 332,208.1 345.1,215.6 			"/>
			<polygon id="XMLID_302_" class="st14" points="346.9,215.6 359.9,208.1 359.9,208.1 346.9,200.6 			"/>
			<polygon id="XMLID_301_" class="st14" points="360.8,228.4 347.7,235.9 347.7,235.9 360.8,243.5 			"/>
			<polygon id="XMLID_300_" class="st14" points="362.6,243.5 375.7,235.9 375.7,235.9 362.6,228.4 			"/>
			<polygon id="XMLID_299_" class="st14" points="376.8,219.3 363.8,226.8 363.8,226.8 376.8,234.3 			"/>
			<polygon id="XMLID_298_" class="st15" points="378.7,234.3 391.7,226.8 391.7,226.8 378.7,219.3 			"/>
			<polygon id="XMLID_297_" class="st15" points="345.1,219.3 332,226.8 332,226.8 345.1,234.3 			"/>
			<polygon id="XMLID_113_" class="st14" points="346.9,234.3 359.9,226.8 359.9,226.8 346.9,219.3 			"/>
			<polygon id="XMLID_295_" class="st15" points="330.8,224.8 343.9,217.3 343.9,217.3 330.8,209.8 			"/>
			<polygon id="XMLID_100_" class="st15" points="330.8,206.5 343.9,199 343.9,199 330.8,191.5 			"/>
			<polygon id="XMLID_293_" class="st15" points="393.1,191.5 380,199 380,199 393.1,206.5 			"/>
			<polygon id="XMLID_99_" class="st15" points="393.1,209.9 380,217.4 380,217.4 393.1,224.9 			"/>
		</g>
	</g>
</g>
</svg>
