<?xml version="1.0" encoding="utf-8"?>
<!-- Generator: Adobe Illustrator 19.0.0, SVG Export Plug-In . SVG Version: 6.00 Build 0)  -->
<svg version="1.1" id="Слой_1" xmlns="http://www.w3.org/2000/svg" xmlns:xlink="http://www.w3.org/1999/xlink" x="0px" y="0px"
	 viewBox="0 0 420 310" style="enable-background:new 0 0 420 310;" xml:space="preserve">
<style type="text/css">
	.st0{fill:none;stroke:#EC398C;stroke-width:2;stroke-miterlimit:10;}
	.st1{fill:#EC398C;}
	.st2{fill:#EC398C;stroke:#EC398C;stroke-width:2;stroke-miterlimit:10;}
</style>
<path id="XMLID_269_" class="st0" d="M153.1,202.4c-18.5,21.3-93.1,20.1-112.8,0c-4.6-4.7,0.6-33.1,0-26.5
	c-2.1,21.7,102.4,26.5,112.8,0C155.6,169.7,157.5,197.4,153.1,202.4z"/>
<path id="XMLID_268_" class="st1" d="M153.1,232.2c-18.5,21.3-93.1,20.1-112.8,0c-4.6-4.7,0.6-33.1,0-26.5
	c-2.1,21.7,102.4,26.5,112.8,0C155.6,199.6,157.5,227.2,153.1,232.2z"/>
<ellipse id="XMLID_267_" class="st1" cx="97.3" cy="166.1" rx="56.2" ry="23.2"/>
<path id="XMLID_266_" class="st0" d="M153.1,262.7c-18.5,21.3-93.1,20.1-112.8,0c-4.6-4.7,0.6-33.1,0-26.5
	c-2.1,21.7,102.4,26.5,112.8,0C155.6,230.1,157.5,257.7,153.1,262.7z"/>
<rect id="XMLID_289_" x="122.9" y="101" class="st0" width="16.2" height="16.2"/>
<rect id="XMLID_288_" x="102.1" y="101" class="st2" width="16.2" height="16.2"/>
<rect id="XMLID_287_" x="143.8" y="78.3" class="st0" width="16.2" height="16.2"/>
<rect id="XMLID_286_" x="122.9" y="78.3" class="st2" width="16.2" height="16.2"/>
<rect id="XMLID_285_" x="102.1" y="78.3" class="st0" width="16.2" height="16.2"/>
<rect id="XMLID_284_" x="164.7" y="55.5" class="st2" width="16.2" height="16.2"/>
<rect id="XMLID_283_" x="143.8" y="55.5" class="st2" width="16.2" height="16.2"/>
<rect id="XMLID_282_" x="122.9" y="55.5" class="st0" width="16.2" height="16.2"/>
<rect id="XMLID_281_" x="102.1" y="55.5" class="st0" width="16.2" height="16.2"/>
<rect id="XMLID_280_" x="185.5" y="32.8" class="st0" width="16.2" height="16.2"/>
<rect id="XMLID_279_" x="164.7" y="32.8" class="st2" width="16.2" height="16.2"/>
<rect id="XMLID_278_" x="143.8" y="32.8" class="st2" width="16.2" height="16.2"/>
<rect id="XMLID_277_" x="122.9" y="32.8" class="st2" width="16.2" height="16.2"/>
<rect id="XMLID_276_" x="102.1" y="32.8" class="st0" width="16.2" height="16.2"/>
<rect id="XMLID_275_" x="185.5" y="10.1" class="st0" width="16.2" height="16.2"/>
<rect id="XMLID_274_" x="164.7" y="10.1" class="st0" width="16.2" height="16.2"/>
<rect id="XMLID_273_" x="143.8" y="10.1" class="st0" width="16.2" height="16.2"/>
<rect id="XMLID_272_" x="122.9" y="10.1" class="st2" width="16.2" height="16.2"/>
<rect id="XMLID_121_" x="102.1" y="10.1" class="st0" width="16.2" height="16.2"/>
<rect id="XMLID_290_" x="143.9" y="101" class="st0" width="16.2" height="16.2"/>
<rect id="XMLID_291_" x="185.5" y="55.5" class="st2" width="16.2" height="16.2"/>
<path id="XMLID_6_" class="st2" d="M370.1,93H188c-6.3,0-12,4.7-12,11v131.8c0,6.3,5.7,11.1,12,11.1h69v44h-6v8h56v-8h-5v-44h68.1
	c6.3,0,11.9-4.8,11.9-11.1V104C382,97.7,376.4,93,370.1,93z M370,236H187V100h183V236z"/>
<path id="XMLID_260_" class="st2" d="M309.1,150c-13.8-12.6-11.5-7.1-11-25.8c-12.6,13.8-7.1,11.5-25.8,11
	c13.8,12.6,11.5,7.1,10.9,25.8C295.8,147.2,290.4,149.5,309.1,150z"/>
<path id="XMLID_259_" class="st2" d="M279.2,194.7c-7.4-6.7-6.1-3.8-5.9-13.8c-6.7,7.4-3.8,6.1-13.8,5.9c7.4,6.7,6.1,3.8,5.9,13.8
	C272.2,193.1,269.2,194.4,279.2,194.7z"/>
<path id="XMLID_234_" class="st2" d="M250,167.7c6.7-7.4,3.8-6.1,13.8-5.9c-7.4-6.7-6.1-3.8-5.9-13.8c-6.7,7.4-3.8,6.1-13.8,5.9
	C251.6,160.6,250.3,157.7,250,167.7z"/>
</svg>
