<?xml version="1.0" encoding="utf-8"?>
<!-- Generator: Adobe Illustrator 19.0.0, SVG Export Plug-In . SVG Version: 6.00 Build 0)  -->
<svg version="1.1" id="Слой_1" xmlns="http://www.w3.org/2000/svg" xmlns:xlink="http://www.w3.org/1999/xlink" x="0px" y="0px"
	 viewBox="0 0 1000 1000" style="enable-background:new 0 0 1000 1000;" xml:space="preserve">
<style type="text/css">
	.st0{fill:#FFFFFF;}
	.st1{fill:#F69420;}
</style>
<g id="XMLID_21_">
	<g id="XMLID_1_">
		<path id="XMLID_14_" class="st0" d="M606,322c17.8,38.8,17.8,25.2,0,64c38.8-17.8,25.2-17.8,64,0c-17.8-38.8-17.8-25.2,0-64
			C631.3,339.8,644.8,339.8,606,322z"/>
		<path id="XMLID_13_" class="st0" d="M660.2,268.1c9.5,20.7,9.5,13.5,0,34.2c20.7-9.5,13.5-9.5,34.2,0c-9.5-20.7-9.5-13.5,0-34.2
			C673.7,277.6,680.9,277.6,660.2,268.1z"/>
		<path id="XMLID_12_" class="st0" d="M731.4,331.2c-20.7,9.5-13.5,9.5-34.2,0c9.5,20.7,9.5,13.5,0,34.2c20.7-9.5,13.5-9.5,34.2,0
			C721.9,344.6,721.9,351.9,731.4,331.2z"/>
		<path id="XMLID_11_" class="st0" d="M473.2,412.5c0,4,3.3,7.2,7.3,7.2h0.2c3.9-0.1,7.1-3.3,7.1-7.3c-0.1-16.4-5.5-32.7-15.2-45.9
			c-2.4-3.2-6.9-3.9-10.2-1.5c-3.2,2.4-3.9,6.9-1.5,10.2C468.7,385.8,473.1,399.1,473.2,412.5z"/>
		<path id="XMLID_10_" class="st0" d="M377,483.5c10.9,4.8,22.4,7.1,34.2,6.8c3.5-0.1,7-0.5,10.4-1l-30.7-26
			c-4.2,2.9-9.2,4.6-14.5,4.8c-4,0.1-7.9-0.7-11.6-2.3c-13.6-6-19.8-21.9-13.8-35.6c4.2-9.5,13.6-15.8,24-16.1
			c4-0.1,7.9,0.6,11.6,2.2c0.8,0.3,1.4,0.8,2.1,1.2l69.6-70c-5.1-4-10.7-7.5-16.9-10.2c-10.9-4.8-22.4-7.1-34.2-6.8
			c-30.7,0.8-58.6,19.6-71,47.7c-8.6,19.5-9.1,41.2-1.4,61.1C342.5,459.2,357.5,474.9,377,483.5z"/>
		<path id="XMLID_9_" class="st0" d="M380.7,429.6c-1.7-0.8-3.5-1.1-5.3-1c-4.8,0.1-9.1,3-11.1,7.4c-2.8,6.3,0.1,13.7,6.4,16.4
			c1.7,0.8,3.5,1.1,5.3,1.1c4.8-0.1,9.1-3.1,11-7.4C389.9,439.7,387,432.4,380.7,429.6z"/>
		<path id="XMLID_7_" class="st0" d="M303.4,462c0.4,0.1,0.8,0.3,1.2,0.3c6.3-4.2,13-7.5,20.1-10.2c-1.2-2.5-2.4-5-3.4-7.6
			c-2.9-7.3-4.6-14.8-5.6-22.4c-14.4-0.5-28,7.5-34.4,20.8L268,470.4l2.1-1.4C280.1,462.4,292.2,459.8,303.4,462z"/>
		<path id="XMLID_6_" class="st0" d="M227,563.2c7.5,1.5,15.6-0.3,22.3-4.8l55.7-37.3c12.8-8.6,17.3-24.6,9.9-35.6
			c-3.2-4.7-8.3-8-14.4-9.2c-7.4-1.5-15.6,0.3-22.3,4.8l-55.7,37.3c-12.8,8.6-17.3,24.6-9.9,35.6C215.9,558.7,221,562,227,563.2z"/>
		<path id="XMLID_5_" class="st0" d="M291.8,597.3c-4.6-3.7-10.6-6.4-16.8-7.7c-4.9-1-8.5-0.7-10.5-0.3
			c-9.6,23.7-29.2,53.8-44.1,72.2c-11.4,14-10.2,34.1,2.7,44.9c3.7,3.1,8,5.2,12.7,6.1c9.6,1.9,19.7-1.1,27.3-8
			c18.5-22.7,33.7-48,45.1-75.2C310,625.1,304.7,607.7,291.8,597.3z"/>
		<path id="XMLID_4_" class="st0" d="M336.5,662.2L336.5,662.2c-2.3-0.5-4.6-1.2-6.9-1.8c-4.4,8.9-9.3,17.6-15.1,25.8
			c-9.2,13.1-6,31.3,7.1,40.4c2.5,1.8,5.3,3.1,8.2,4c1.5,0.5,3.1,0.8,4.7,1c10.8,1.4,21.3-3.3,27.5-12.1c14-20,24.7-41.6,32.5-64.1
			C376.9,663.5,356.7,666.2,336.5,662.2z"/>
		<path id="XMLID_3_" class="st0" d="M411.7,504.7c-14,0.4-27.6-2.3-40.4-7.9c-15.9-7-29.2-18.1-39-31.9c-4.2,1.4-8.2,3.1-12.1,5.2
			c2.6,2.2,5,4.6,6.9,7.4c11.9,17.7,5.6,42.7-13.9,55.8L266,564.7c0,3.3,0.2,6.6,0.6,9.8c3.5-0.2,7.2,0,11.2,0.8
			c8.5,1.7,16.7,5.4,23.2,10.6c15.8,12.8,25.8,36.5,20.6,48.9c-0.9,2-1.9,4-2.8,6l1.3,0.6c6.1,3,12.6,5.1,19.3,6.5
			c36.2,7.2,72.7-11,88.7-44.2l11.2-23.2c12.7-26.4,9.6-56.3-5.3-79.2C426.8,503.3,419.3,504.5,411.7,504.7z"/>
		<path id="XMLID_2_" class="st0" d="M524.8,456.2c-7.4-1.5-15.6,0.3-22.3,4.8L468,484.1c-4.1,3.2-8.4,6.1-13,8.7l-6.4,4.3
			c8.2,13.9,12.8,29.7,13.3,45.9c4.1-0.7,8.1-2.2,11.8-4.6l55.7-37.3c12.8-8.6,17.3-24.6,9.9-35.6
			C536,460.7,530.9,457.4,524.8,456.2z"/>
	</g>
	<g id="XMLID_8_">
		<path id="XMLID_15_" class="st0" d="M535.9,620.3c-6.8-16.9-34.5-13-34.5,3.6v43.3c0,19.8,36.3,19.6,36.3,0v-4.6h-19.8v-26.7h49.9
			v31.4c0,29.1-23.8,43.7-48.7,43.7c-24.5,0-49-14.6-49-43.7v-43.3c0-28.5,24.5-42.8,49-42.8c16.1,0,34.5,6.8,43.1,26.9L535.9,620.3
			z"/>
		<path id="XMLID_17_" class="st1" d="M614,632.4h50.3V660H614v18.9h54.6v30.1h-86.3V582.9h86.3v29.9H614V632.4z"/>
		<path id="XMLID_19_" class="st1" d="M754.5,582.9h36.4l-34.7,63.3l34.7,62.9h-36.4l-21.7-43l-21.2,43H675l34.9-62.9L675,582.9
			h36.6l21.2,43.1L754.5,582.9z"/>
	</g>
</g>
</svg>
