<?xml version="1.0" encoding="utf-8"?>
<!-- Generator: Adobe Illustrator 19.0.0, SVG Export Plug-In . SVG Version: 6.00 Build 0)  -->
<svg version="1.1" id="Слой_1" xmlns="http://www.w3.org/2000/svg" xmlns:xlink="http://www.w3.org/1999/xlink" x="0px" y="0px"
	 viewBox="0 0 1000 1000" style="enable-background:new 0 0 1000 1000;" xml:space="preserve">
<style type="text/css">
	.st0{fill:#FFFFFF;}
	.st1{fill:#F69420;}
</style>
<g id="XMLID_1_">
	<path id="XMLID_14_" class="st0" d="M595.7,259.8c12.6,27.3,12.6,17.8,0,45.1c27.3-12.6,17.8-12.6,45.1,0
		c-12.6-27.3-12.6-17.8,0-45.1C613.5,272.4,623.1,272.4,595.7,259.8z"/>
	<path id="XMLID_13_" class="st0" d="M633.9,221.8c6.7,14.6,6.7,9.5,0,24.1c14.6-6.7,9.5-6.7,24.1,0c-6.7-14.6-6.7-9.5,0-24.1
		C643.4,228.5,648.5,228.5,633.9,221.8z"/>
	<path id="XMLID_12_" class="st0" d="M684.1,266.3c-14.6,6.7-9.5,6.7-24.1,0c6.7,14.6,6.7,9.5,0,24.1c14.6-6.7,9.5-6.7,24.1,0
		C677.4,275.8,677.4,280.9,684.1,266.3z"/>
	<path id="XMLID_11_" class="st0" d="M502.1,323.6c0,2.8,2.3,5.1,5.1,5.1h0.1c2.8-0.1,5-2.4,5-5.1c0-11.6-3.9-23.1-10.7-32.4
		c-1.7-2.3-4.9-2.7-7.2-1.1c-2.3,1.7-2.8,4.9-1.1,7.2C498.9,304.8,502,314.2,502.1,323.6z"/>
	<path id="XMLID_10_" class="st0" d="M434.3,373.7c7.7,3.4,15.8,5,24.1,4.8c2.5-0.1,4.9-0.3,7.3-0.7l-21.6-18.3
		c-3,2-6.5,3.3-10.3,3.4c-2.8,0.1-5.6-0.5-8.2-1.6c-9.6-4.2-14-15.5-9.7-25.1c2.9-6.7,9.6-11.2,16.9-11.3c2.8-0.1,5.6,0.5,8.1,1.6
		c0.5,0.2,1,0.6,1.5,0.8l49.1-49.3c-3.6-2.8-7.5-5.3-11.9-7.2c-7.7-3.4-15.8-5-24.1-4.8c-21.7,0.6-41.3,13.8-50,33.6
		c-6.1,13.8-6.4,29.1-1,43.1C409.9,356.6,420.5,367.6,434.3,373.7z"/>
	<path id="XMLID_9_" class="st0" d="M436.9,335.7c-1.2-0.5-2.5-0.8-3.8-0.7c-3.4,0.1-6.4,2.1-7.8,5.2c-1.9,4.4,0.1,9.6,4.5,11.6
		c1.2,0.5,2.5,0.8,3.8,0.7c3.4-0.1,6.4-2.2,7.8-5.2C443.3,342.8,441.3,337.6,436.9,335.7z"/>
	<path id="XMLID_7_" class="st0" d="M382.4,358.6c0.3,0.1,0.6,0.2,0.8,0.2c4.4-3,9.2-5.3,14.2-7.2c-0.9-1.7-1.7-3.5-2.4-5.4
		c-2-5.1-3.3-10.4-4-15.8c-10.1-0.3-19.7,5.3-24.2,14.7l-9.3,19.3l1.5-1C365.9,358.8,374.5,357,382.4,358.6z"/>
	<path id="XMLID_6_" class="st0" d="M328.5,429.9c5.3,1,11-0.2,15.7-3.4l39.3-26.3c9-6,12.2-17.3,7-25.1c-2.2-3.3-5.8-5.7-10.1-6.5
		c-5.2-1-11,0.2-15.7,3.4l-39.3,26.3c-9,6.1-12.2,17.3-7,25.1C320.6,426.7,324.2,429,328.5,429.9z"/>
	<path id="XMLID_5_" class="st0" d="M374.2,453.9c-3.2-2.6-7.4-4.5-11.9-5.4c-3.4-0.7-6-0.5-7.4-0.2c-6.8,16.7-20.6,38-31.1,50.9
		c-8,9.9-7.2,24.1,1.9,31.7c2.6,2.2,5.6,3.6,8.9,4.3c6.7,1.3,13.9-0.8,19.3-5.7c13.1-16,23.7-33.8,31.8-53
		C387,473.5,383.3,461.3,374.2,453.9z"/>
	<path id="XMLID_4_" class="st0" d="M405.7,499.7L405.7,499.7c-1.6-0.3-3.2-0.8-4.8-1.3c-3.1,6.3-6.6,12.4-10.6,18.2
		c-6.5,9.3-4.2,22.1,5,28.5c1.8,1.3,3.7,2.2,5.8,2.8c1.1,0.3,2.2,0.6,3.3,0.7c7.6,1,15-2.3,19.4-8.6c9.9-14.1,17.4-29.3,22.9-45.2
		C434.2,500.6,419.9,502.5,405.7,499.7z"/>
	<path id="XMLID_3_" class="st0" d="M458.7,388.7c-9.9,0.3-19.4-1.6-28.5-5.6c-11.2-4.9-20.6-12.8-27.5-22.5c-2.9,1-5.8,2.2-8.6,3.7
		c1.8,1.5,3.5,3.2,4.9,5.2c8.4,12.5,4,30.1-9.8,39.3L356,431c0,2.3,0.1,4.6,0.4,6.9c2.5-0.1,5.1,0,7.9,0.6c6,1.2,11.8,3.8,16.3,7.5
		c11.1,9,18.2,25.7,14.5,34.5c-0.6,1.4-1.3,2.8-2,4.3l0.9,0.4c4.3,2.1,8.9,3.6,13.6,4.6c25.5,5.1,51.3-7.8,62.6-31.2l7.9-16.4
		c9-18.6,6.8-39.7-3.8-55.9C469.4,387.7,464.1,388.5,458.7,388.7z"/>
	<path id="XMLID_2_" class="st0" d="M538.5,354.5c-5.2-1-11,0.2-15.7,3.4l-24.4,16.3c-2.9,2.3-6,4.3-9.2,6.1l-4.5,3
		c5.8,9.8,9,20.9,9.4,32.3c2.9-0.5,5.7-1.5,8.3-3.2l39.3-26.3c9.1-6.1,12.2-17.3,7-25.1C546.4,357.6,542.8,355.3,538.5,354.5z"/>
</g>
<g id="XMLID_8_">
	<path id="XMLID_15_" class="st0" d="M408.8,743c-6.8-16.9-34.5-13-34.5,3.6v43.3c0,19.8,36.3,19.6,36.3,0v-4.6h-19.8v-26.7h49.9
		v31.4c0,29.1-23.8,43.7-48.7,43.7c-24.5,0-49-14.6-49-43.7v-43.3c0-28.5,24.5-42.8,49-42.8c16.1,0,34.5,6.8,43.1,26.9L408.8,743z"
		/>
	<path id="XMLID_17_" class="st1" d="M487,755.1h50.3v27.6H487v18.9h54.6v30.1h-86.4V705.5h86.4v30H487V755.1z"/>
	<path id="XMLID_19_" class="st1" d="M627.4,705.5h36.4l-34.7,63.3l34.7,62.9h-36.4l-21.7-43l-21.2,43h-36.6l34.9-62.9l-34.9-63.3
		h36.6l21.2,43.1L627.4,705.5z"/>
</g>
</svg>
