<?xml version="1.0" encoding="utf-8"?>
<!-- Generator: Adobe Illustrator 18.0.0, SVG Export Plug-In . SVG Version: 6.00 Build 0)  -->
<!DOCTYPE svg PUBLIC "-//W3C//DTD SVG 1.1//EN" "http://www.w3.org/Graphics/SVG/1.1/DTD/svg11.dtd">
<svg version="1.1" id="Слой_1" xmlns="http://www.w3.org/2000/svg" xmlns:xlink="http://www.w3.org/1999/xlink" x="0px" y="0px"
	 viewBox="0 0 512 512" enable-background="new 0 0 512 512" xml:space="preserve">
<g>
	<circle id="XMLID_40_" fill="none" stroke="#FFFFFF" stroke-width="4" stroke-miterlimit="10" cx="-167" cy="94.2" r="4.3"/>
	<g>
		
			<ellipse id="XMLID_10_" transform="matrix(0.7913 0.6115 -0.6115 0.7913 91.2474 186.4553)" fill="#FFFFFF" stroke="#FFFFFF" stroke-width="4" stroke-miterlimit="10" cx="-227.5" cy="226.9" rx="9.7" ry="14.8"/>
		
			<ellipse id="XMLID_9_" fill="none" stroke="#FFFFFF" stroke-width="4" stroke-miterlimit="10" cx="-165" cy="217.8" rx="158" ry="36.5"/>
		<path id="XMLID_8_" fill="#FFFFFF" stroke="#FFFFFF" stroke-width="4" stroke-miterlimit="10" d="M-165,126.1
			c-31.7,0-57.4,24.6-57.4,55.1c0,9.5,2.5,18.4,6.9,26.2c30.9,9.2,70.8,8.3,102-1.8c3.8-7.4,5.9-15.6,5.9-24.4
			C-107.6,150.7-133.3,126.1-165,126.1z"/>
		<path id="XMLID_45_" fill="none" stroke="#FFFFFF" stroke-width="4" stroke-miterlimit="10" d="M-281.3,242.4
			c15.5,34.8,62.9,60.1,119,60.1c56.9,0,104.9-26.1,119.7-61.8c-29,8.2-73,13.4-122.4,13.4C-211,254.2-252.4,249.7-281.3,242.4z"/>
		
			<line id="XMLID_7_" fill="none" stroke="#FFFFFF" stroke-width="4" stroke-miterlimit="10" x1="-167" y1="126" x2="-167" y2="98"/>
		
			<ellipse id="XMLID_6_" fill="#FFFFFF" stroke="#FFFFFF" stroke-width="4" stroke-miterlimit="10" cx="-164.9" cy="234.2" rx="9.7" ry="14.8"/>
		
			<ellipse id="XMLID_5_" transform="matrix(0.6115 -0.7913 0.7913 0.6115 -218.6836 5.3708)" fill="#FFFFFF" stroke="#FFFFFF" stroke-width="4" stroke-miterlimit="10" cx="-103.9" cy="225.4" rx="9.7" ry="14.8"/>
		<path id="XMLID_13_" fill="#FFFFFF" stroke="#FFFFFF" stroke-width="4" stroke-miterlimit="10" d="M-31.5,445.9l-0.2-1.3
			c-0.3-1.1-0.9-1.9-1.8-2.9L-116,296.4c-14.5,3.1-29.9,4.8-46.3,4.8c-16.3,0-31.8-1.7-46.3-4.7l-82.6,145.5c-0.9,1-1.5,2.4-1.8,3.5
			l-0.2,0.7h0.1c-0.1,1-0.1,0.4-0.1,0.7c0,14.3,58.6,25.8,130.8,25.8S-31.5,460.3-31.5,445.9"/>
	</g>
</g>
<g id="XMLID_28_">
	<path id="XMLID_27_" fill="#FFFFFF" d="M361.8,167c6.8,5.5,11.8,13.2,14,21.7c0.7,2.5,3.3,4.1,5.8,3.4c0,0,0.1,0,0.1,0
		c2.5-0.7,3.9-3.3,3.3-5.8c-2.7-10.4-8.8-19.8-17.2-26.6c-2-1.7-5-1.4-6.7,0.7C359.4,162.3,359.7,165.3,361.8,167z"/>
	<path id="XMLID_18_" fill="#FFFFFF" d="M326.4,249.4c7.7,1.3,15.4,0.8,22.8-1.3c2.2-0.6,4.4-1.4,6.4-2.3l-23.8-11.5
		c-2.2,2.5-5.1,4.4-8.4,5.4c-2.5,0.7-5.1,0.9-7.7,0.5c-9.6-1.6-16.2-10.7-14.6-20.3c1.1-6.7,6-12.3,12.6-14.1
		c2.5-0.7,5.1-0.9,7.7-0.5c0.5,0.1,1,0.2,1.5,0.3l32.7-55.7c-3.9-1.7-8-3-12.4-3.7c-7.7-1.3-15.4-0.8-22.8,1.3
		c-19.4,5.6-34,22-37.3,41.9c-2.3,13.8,1,27.6,9.2,39C300.5,239.7,312.6,247.2,326.4,249.4z"/>
	<path id="XMLID_17_" fill="#FFFFFF" d="M316.3,214.9c-3,0.9-5.3,3.4-5.8,6.5c-0.7,4.4,2.3,8.6,6.7,9.4c1.2,0.2,2.4,0.1,3.6-0.2
		c3-0.9,5.3-3.4,5.8-6.5c0.7-4.4-2.3-8.6-6.7-9.4C318.7,214.4,317.5,214.5,316.3,214.9z"/>
	<path id="XMLID_16_" fill="#FFFFFF" d="M284.3,247.1c2.4-1.8,4.9-3.3,7.6-4.7c-6.8-6.5-12-14.5-15.3-23.6c-0.3-0.9-0.9-1.8-1.2-2.7
		c-10.3,2.7-18.4,12.1-18.4,23.3v9.9c5-3.1,10.6-4.8,16-4.8C276.9,244.6,281,245.5,284.3,247.1z"/>
	<path id="XMLID_15_" fill="#FFFFFF" d="M251,313.4l31.1-31.1c7.1-7.2,8-18,1.8-24.1c-2.6-2.7-6.3-4.1-10.4-4.1
		c-5,0-10,2.2-13.7,5.9l-31.1,31.1c-7.1,7.2-8,18-1.8,24.1c2.6,2.7,6.3,4.1,10.4,4.1C242.2,319.3,247.2,317.2,251,313.4z"/>
	<path id="XMLID_14_" fill="#FFFFFF" d="M287.7,339.9c-5,0-10,2.2-13.7,5.9l-31,31.1c-7.2,7.2-8,18-1.8,24.1
		c2.6,2.7,6.3,4.1,10.4,4.1c5,0,10-2.2,13.7-5.9l31.1-31.1c7.1-7.2,8-18,1.8-24.1C295.4,341.4,291.8,339.9,287.7,339.9z"/>
	<path id="XMLID_12_" fill="#FFFFFF" d="M348,360v26.8c0,10.1,6.8,18.4,15.5,18.4c8.7,0,15.5-8.2,15.5-18.4v-37.5
		c-9,6.7-19.6,10.7-31.2,10.7H348z"/>
	<path id="XMLID_11_" fill="#FFFFFF" d="M365.7,251.3c-9.3,5.4-19.9,8.5-31,8.5c-9.2,0-18-2-26.3-5.9c-2.8-1.3-5.5-3-8.1-4.7
		c-2.9,1-5.7,2.4-8.2,4c8.2,10,7.5,25.6-2.8,35.9L275,303.9v7.1c0,7.5,1.6,14.6,5.3,20.6c2.6-0.8,5-1.2,7.7-1.2
		c6.6,0,12.6,2.5,17,6.9c3.7,3.6,5.8,8.5,6.5,13.4c0.7,0,1.3,0.3,2,0.3h34.4c21.8,0,39.2-18.2,39.2-40v-24.6
		C387,271.1,378.5,257.9,365.7,251.3z"/>
	<path id="XMLID_4_" fill="#FFFFFF" d="M415,212.7c-5,0-10,2.2-13.7,5.9L382,237.8c-2.3,2.7-4.7,5.1-7.4,7.4l-0.1,0.1
		c9,5.9,16,14.7,19.7,25l29.4-29.4c7.2-7.2,8-18,1.8-24.2C422.7,214.1,419,212.7,415,212.7z"/>
	<path id="XMLID_3_" fill="#FFFFFF" d="M404.1,143c12,26,12,16.9,0,43c26-12,16.9-12,43,0c-12-26-12-16.9,0-43
		C421,155,430.1,155,404.1,143z"/>
	<path id="XMLID_2_" fill="#FFFFFF" d="M440.4,106.8c6.4,13.9,6.4,9.1,0,23c13.9-6.4,9.1-6.4,23,0c-6.4-13.9-6.4-9.1,0-23
		C449.5,113.2,454.4,113.2,440.4,106.8z"/>
	<path id="XMLID_1_" fill="#FFFFFF" d="M488.3,149.2c-13.9,6.4-9.1,6.4-23,0c6.4,13.9,6.4,9.1,0,23c13.9-6.4,9.1-6.4,23,0
		C481.9,158.2,481.9,163.1,488.3,149.2z"/>
</g>
</svg>
