<?xml version="1.0" encoding="utf-8"?>
<!-- Generator: Adobe Illustrator 19.0.0, SVG Export Plug-In . SVG Version: 6.00 Build 0)  -->
<svg version="1.1" id="Слой_1" xmlns="http://www.w3.org/2000/svg" xmlns:xlink="http://www.w3.org/1999/xlink" x="0px" y="0px"
	 viewBox="0 0 2000 2000" style="enable-background:new 0 0 2000 2000;" xml:space="preserve">
<style type="text/css">
	.st0{fill:#41B7F5;}
	.st1{fill:#F7941D;}
	.st2{fill:#3DFAD0;}
	.st3{fill:#FF7281;}
	.st4{fill:#3DC4F7;}
	.st5{fill:#FF3C53;}
	.st6{fill:#17E3B3;}
</style>
<g id="XMLID_73_">
	<g id="XMLID_61_">
		<path id="XMLID_72_" class="st0" d="M1003,1031.2c67-184.2,81.3-255.2,121.8-296.5L1003,612.9V1031.2z"/>
		<polygon id="XMLID_71_" class="st1" points="1003.3,611.8 1003.1,612 1003.2,612 1003.3,612 		"/>
		<polygon id="XMLID_70_" class="st1" points="1003.2,612 1003.3,612.2 1003.3,612 		"/>
		<polygon id="XMLID_69_" class="st1" points="1003.1,612 1003.2,612 1003.1,612 		"/>
		<path id="XMLID_68_" class="st2" d="M1003,612.2L1125,734c41.1-42,111.1-54,296.9-122H1003V612.2z"/>
		<path id="XMLID_67_" class="st3" d="M584,612c184.1,68,255.2,81.3,296.5,121.8L1002.3,612H584z"/>
		<path id="XMLID_66_" class="st4" d="M1003.1,612.2l0-0.2h0l-122,121.8c42,41.1,52.9,111,121.9,296.8c0,0,0,0,0,0L1003.1,612.2z"/>
		<path id="XMLID_65_" class="st5" d="M1003.1,612L881.4,490.2C840.2,532,770.4,544,584.8,612L1003.1,612L1003.1,612z"/>
		<path id="XMLID_64_" class="st6" d="M1003,611.8V193.5c-69,184.4-81.1,255.3-121.8,296.7L1002.9,612L1003,611.8z"/>
		<path id="XMLID_63_" class="st6" d="M1124.8,489.7c-41.2-40.6-54.8-111-121.8-296.5v418.3L1124.8,489.7z"/>
		<path id="XMLID_62_" class="st2" d="M1003.5,612.1l418.6,0l0.2,0.2c-184.7-68.6-255.7-81.5-296.9-122.1l-121.8,121.8L1003.5,612.1
			z"/>
	</g>
	<g id="XMLID_37_">
		<path id="XMLID_48_" class="st0" d="M1570,1598.3c68-184.2,81.3-255.2,121.8-296.5L1570,1180V1598.3z"/>
		<polygon id="XMLID_47_" class="st1" points="1570.5,1178.9 1570.3,1179.1 1570.3,1179.1 1570.5,1179.1 		"/>
		<polygon id="XMLID_46_" class="st1" points="1570.3,1179.1 1570.5,1179.3 1570.5,1179.1 		"/>
		<polygon id="XMLID_45_" class="st1" points="1570.3,1179.1 1570.3,1179.1 1570.3,1179.1 		"/>
		<path id="XMLID_44_" class="st2" d="M1572,1179.3l121,121.7c41.1-42,110.2-53,295.9-122h-417V1179.3z"/>
		<path id="XMLID_43_" class="st3" d="M1151.1,1179c184.1,69,255.2,81.3,296.5,121.8l121.8-121.8H1151.1z"/>
		<path id="XMLID_42_" class="st4" d="M1571.2,1179.2l-0.9-0.2h0l-121,121.8c42,41.1,53.8,111.1,122.8,296.9c0,0,0,0,0,0
			L1571.2,1179.2z"/>
		<path id="XMLID_41_" class="st5" d="M1570.3,1179l-121.8-121.8c-41.2,41.8-111,54.8-296.5,121.8L1570.3,1179L1570.3,1179z"/>
		<path id="XMLID_40_" class="st6" d="M1572,1178.9V760.6c-69,184.4-82.1,255.3-122.7,296.7l122.2,121.8L1572,1178.9z"/>
		<path id="XMLID_39_" class="st6" d="M1691.8,1056.9c-41.2-40.6-53.8-111-121.8-296.5v418.3L1691.8,1056.9z"/>
		<path id="XMLID_38_" class="st2" d="M1570.6,1179.2l418.6,0l0.2,0.2c-184.7-68.6-255.7-81.5-296.9-122.1L1570.6,1179
			L1570.6,1179.2z"/>
	</g>
	<g id="XMLID_25_">
		<path id="XMLID_36_" class="st0" d="M434,1598.3c67-184.2,81.3-255.2,121.8-296.5L434,1180V1598.3z"/>
		<polygon id="XMLID_35_" class="st1" points="433.6,1178.9 433.4,1179.1 433.4,1179.1 433.6,1179.1 		"/>
		<polygon id="XMLID_34_" class="st1" points="433.4,1179.1 433.6,1179.3 433.6,1179.1 		"/>
		<polygon id="XMLID_33_" class="st1" points="433.3,1179.1 433.4,1179.1 433.4,1179.1 		"/>
		<path id="XMLID_32_" class="st2" d="M434,1179.3L555.6,1301c41.1-42,110.7-53,296.5-122H434V1179.3z"/>
		<path id="XMLID_31_" class="st3" d="M14.2,1179c184.1,69,255.2,81.3,296.5,121.8L432.5,1179H14.2z"/>
		<path id="XMLID_30_" class="st4" d="M433.8,1179.2l-0.4-0.2h0l-121.6,121.8c42,41.1,53.2,111.1,122.2,296.9c0,0,0,0,0,0
			L433.8,1179.2z"/>
		<path id="XMLID_29_" class="st5" d="M433.4,1179l-121.8-121.8c-41.2,41.8-111,54.8-296.5,121.8L433.4,1179L433.4,1179z"/>
		<path id="XMLID_28_" class="st6" d="M434,1178.9V760.6c-69,184.4-81.5,255.3-122.2,296.7l121.9,121.8L434,1178.9z"/>
		<path id="XMLID_27_" class="st6" d="M555.8,1056.9c-41.2-40.6-54.8-111-121.8-296.5v418.3L555.8,1056.9z"/>
		<path id="XMLID_26_" class="st2" d="M433.7,1179.2l418.6,0l0.2,0.2c-184.7-68.6-255.7-81.5-296.9-122.1L433.7,1179L433.7,1179.2z"
			/>
	</g>
</g>
</svg>
