<?xml version="1.0" encoding="utf-8"?>
<!-- Generator: Adobe Illustrator 19.0.0, SVG Export Plug-In . SVG Version: 6.00 Build 0)  -->
<svg version="1.1" id="Слой_1" xmlns="http://www.w3.org/2000/svg" xmlns:xlink="http://www.w3.org/1999/xlink" x="0px" y="0px"
	 viewBox="0 0 4000 4000" style="enable-background:new 0 0 4000 4000;" xml:space="preserve">
<style type="text/css">
	.st0{fill:#41B7F5;}
	.st1{fill:#F7941D;}
	.st2{fill:#3DFAD0;}
	.st3{fill:#FF7281;}
	.st4{fill:#3DC4F7;}
	.st5{fill:#FF3C53;}
	.st6{fill:#17E3B3;}
</style>
<g id="XMLID_73_">
	<g id="XMLID_61_">
		<path id="XMLID_72_" class="st0" d="M2001,1931.2c86-235.7,104.1-326.6,155.9-379.5L2001,1395.8V1931.2z"/>
		<polygon id="XMLID_71_" class="st1" points="2002,1394.4 2001.7,1394.6 2001.8,1394.7 2002,1394.7 		"/>
		<polygon id="XMLID_70_" class="st1" points="2001.8,1394.7 2002,1394.9 2002,1394.7 		"/>
		<polygon id="XMLID_69_" class="st1" points="2001.7,1394.7 2001.8,1394.7 2001.7,1394.6 		"/>
		<path id="XMLID_68_" class="st2" d="M2001,1394.9l156.4,156.1c52.7-53.7,142.5-68.9,380.3-155.9H2001V1394.9z"/>
		<path id="XMLID_67_" class="st3" d="M1465.3,1395c235.7,87,326.6,104.1,379.5,155.9l155.9-155.9H1465.3z"/>
		<path id="XMLID_66_" class="st4" d="M2001.5,1395.1l0.3-0.1h-0.1l-156.4,155.7c53.8,52.6,67.7,141.9,155.7,379.7c0,0,0,0,0,0
			L2001.5,1395.1z"/>
		<path id="XMLID_65_" class="st5" d="M2001.7,1394.8L1845.9,1239c-52.7,53.6-142.1,69-379.5,156h535.3L2001.7,1394.8z"/>
		<path id="XMLID_64_" class="st6" d="M2001,1394.4V859c-88,236.1-103.5,326.8-155.6,379.7l155.6,155.9L2001,1394.4z"/>
		<path id="XMLID_63_" class="st6" d="M2156.9,1238.2c-52.8-51.9-69.9-142.1-155.9-379.5v535.3L2156.9,1238.2z"/>
		<path id="XMLID_62_" class="st2" d="M2002.2,1394.8l535.7,0l0.2,0.2c-236.4-87.8-327.3-104.4-380-156.3l-155.9,155.9
			L2002.2,1394.8z"/>
	</g>
	<g id="XMLID_37_">
		<path id="XMLID_48_" class="st0" d="M2727,2657.1c87-235.7,104.1-326.6,155.9-379.5L2727,2121.7V2657.1z"/>
		<polygon id="XMLID_47_" class="st1" points="2727.9,2120.2 2727.6,2120.5 2727.7,2120.5 2727.9,2120.5 		"/>
		<polygon id="XMLID_46_" class="st1" points="2727.7,2120.5 2727.9,2120.8 2727.9,2120.5 		"/>
		<polygon id="XMLID_45_" class="st1" points="2727.6,2120.5 2727.7,2120.5 2727.6,2120.5 		"/>
		<path id="XMLID_44_" class="st2" d="M2729,2120.8l155.3,155.6c52.7-53.7,141.4-67.4,379.2-156.4H2729V2120.8z"/>
		<path id="XMLID_43_" class="st3" d="M2191.2,2120c235.7,89,326.6,104.1,379.5,155.9l155.9-155.9H2191.2z"/>
		<path id="XMLID_42_" class="st4" d="M2728.4,2120.5l-0.8-0.5h-0.1l-155.3,156.1c53.8,52.6,68.7,142.4,156.7,380.2c0,0,0,0,0,0
			L2728.4,2120.5z"/>
		<path id="XMLID_41_" class="st5" d="M2727.6,2120.2l-155.9-156c-52.7,53.6-142.1,70.7-379.5,155.7h535.3L2727.6,2120.2z"/>
		<path id="XMLID_40_" class="st6" d="M2729,2120.2v-535.3c-88,236.1-104.6,326.8-156.7,379.7l156.1,155.9L2729,2120.2z"/>
		<path id="XMLID_39_" class="st6" d="M2882.9,1964.1c-52.8-51.9-68.9-142.1-155.9-379.5V2120L2882.9,1964.1z"/>
		<path id="XMLID_38_" class="st2" d="M2728,2120.6l535.7,0l0.2,0.2c-236.4-87.8-327.3-104.4-380-156.3l-155.9,155.9L2728,2120.6z"
			/>
	</g>
	<g id="XMLID_25_">
		<path id="XMLID_36_" class="st0" d="M1273,2657.1c86-235.7,104.1-326.6,155.9-379.5L1273,2121.7V2657.1z"/>
		<polygon id="XMLID_35_" class="st1" points="1272.8,2120.2 1272.5,2120.5 1272.5,2120.5 1272.8,2120.5 		"/>
		<polygon id="XMLID_34_" class="st1" points="1272.5,2120.5 1272.8,2120.8 1272.8,2120.5 		"/>
		<polygon id="XMLID_33_" class="st1" points="1272.5,2120.5 1272.5,2120.5 1272.5,2120.5 		"/>
		<path id="XMLID_32_" class="st2" d="M1273,2120.8l155.8,155.6c52.7-53.7,141.8-67.4,379.6-156.4H1273V2120.8z"/>
		<path id="XMLID_31_" class="st3" d="M736,2120c235.7,89,326.6,104.1,379.5,155.9l155.9-155.9H736z"/>
		<path id="XMLID_30_" class="st4" d="M1272.8,2120.5l-0.3-0.5h-0.1l-155.8,156.1c53.8,52.6,68.3,142.4,156.3,380.2c0,0,0,0,0,0
			L1272.8,2120.5z"/>
		<path id="XMLID_29_" class="st5" d="M1272.5,2120.2l-155.9-156c-52.7,53.6-142.1,70.7-379.5,155.7h535.3L1272.5,2120.2z"/>
		<path id="XMLID_28_" class="st6" d="M1273,2120.2v-535.3c-88,236.1-104.2,326.8-156.2,379.7l155.9,155.9L1273,2120.2z"/>
		<path id="XMLID_27_" class="st6" d="M1428.9,1964.1c-52.8-51.9-69.9-142.1-155.9-379.5V2120L1428.9,1964.1z"/>
		<path id="XMLID_26_" class="st2" d="M1272.9,2120.6l535.7,0l0.2,0.2c-236.4-87.8-327.3-104.4-380-156.3L1273,2120.4L1272.9,2120.6
			z"/>
	</g>
</g>
</svg>
