<?xml version="1.0" encoding="utf-8"?>
<!-- Generator: Adobe Illustrator 19.0.0, SVG Export Plug-In . SVG Version: 6.00 Build 0)  -->
<svg version="1.1" id="Слой_1" xmlns="http://www.w3.org/2000/svg" xmlns:xlink="http://www.w3.org/1999/xlink" x="0px" y="0px"
	 viewBox="-299 -200 1000 1000" style="enable-background:new -299 -200 1000 1000;" xml:space="preserve">
<style type="text/css">
	.st0{fill:url(#XMLID_2_);}
	.st1{fill:#FFFFFF;}
	.st2{enable-background:new    ;}
	.st3{fill:#0C66AF;}
	.st4{fill:#F69420;}
</style>
<linearGradient id="XMLID_2_" gradientUnits="userSpaceOnUse" x1="16.8844" y1="211.0657" x2="385.1344" y2="579.3157" gradientTransform="matrix(1 0 0 -1 0 600)">
	<stop  offset="0.2807" style="stop-color:#28367B"/>
	<stop  offset="1" style="stop-color:#00B3DC"/>
</linearGradient>
<path id="XMLID_116_" class="st0" d="M-59.4,204.8c0,143.8,116.6,260.4,260.4,260.4s260.4-116.6,260.4-260.4S344.8-55.6,201-55.6
	C57.2-55.5-59.4,61-59.4,204.8z"/>
<g id="XMLID_122_">
	<path id="XMLID_115_" class="st1" d="M296.7,79.3c12.6,27.3,12.6,17.8,0,45.1c27.3-12.6,17.8-12.6,45.1,0
		c-12.6-27.3-12.6-17.8,0-45.1C314.5,91.9,324.1,91.9,296.7,79.3z"/>
	<path id="XMLID_112_" class="st1" d="M334.9,41.3c6.7,14.6,6.7,9.5,0,24.1c14.6-6.7,9.5-6.7,24.1,0c-6.7-14.6-6.7-9.5,0-24.1
		C344.4,48,349.5,48,334.9,41.3z"/>
	<path id="XMLID_111_" class="st1" d="M385.1,85.8c-14.6,6.7-9.5,6.7-24.1,0c6.7,14.6,6.7,9.5,0,24.1c14.6-6.7,9.5-6.7,24.1,0
		C378.4,95.3,378.4,100.4,385.1,85.8z"/>
	<path id="XMLID_109_" class="st1" d="M203.1,143.1c0,2.8,2.3,5.1,5.1,5.1h0.1c2.8-0.1,5-2.4,5-5.1c0-11.6-3.9-23.1-10.7-32.4
		c-1.7-2.3-4.9-2.7-7.2-1.1c-2.3,1.7-2.8,4.9-1.1,7.2C199.9,124.3,203,133.7,203.1,143.1z"/>
	<path id="XMLID_107_" class="st1" d="M135.3,193.2c7.7,3.4,15.8,5,24.1,4.8c2.5-0.1,4.9-0.3,7.3-0.7L145.1,179
		c-3,2-6.5,3.3-10.3,3.4c-2.8,0.1-5.6-0.5-8.2-1.6c-9.6-4.2-14-15.5-9.7-25.1c2.9-6.7,9.6-11.2,16.9-11.3c2.8-0.1,5.6,0.5,8.1,1.6
		c0.5,0.2,1,0.6,1.5,0.8l49.1-49.3c-3.6-2.8-7.5-5.3-11.9-7.2c-7.7-3.4-15.8-5-24.1-4.8c-21.7,0.6-41.3,13.8-50,33.6
		c-6.1,13.8-6.4,29.1-1,43.1C110.9,176.1,121.5,187.1,135.3,193.2z"/>
	<path id="XMLID_106_" class="st1" d="M137.9,155.2c-1.2-0.5-2.5-0.8-3.8-0.7c-3.4,0.1-6.4,2.1-7.8,5.2c-1.9,4.4,0.1,9.6,4.5,11.6
		c1.2,0.5,2.5,0.8,3.8,0.7c3.4-0.1,6.4-2.2,7.8-5.2C144.3,162.3,142.3,157.1,137.9,155.2z"/>
	<path id="XMLID_102_" class="st1" d="M83.4,178.1c0.3,0.1,0.6,0.2,0.8,0.2c4.4-3,9.2-5.3,14.2-7.2c-0.9-1.7-1.7-3.5-2.4-5.4
		c-2-5.1-3.3-10.4-4-15.8c-10.1-0.3-19.7,5.3-24.2,14.7l-9.3,19.3l1.5-1C66.9,178.3,75.5,176.5,83.4,178.1z"/>
	<path id="XMLID_101_" class="st1" d="M29.5,249.4c5.3,1,11-0.2,15.7-3.4l39.3-26.3c9-6,12.2-17.3,7-25.1c-2.2-3.3-5.8-5.7-10.1-6.5
		c-5.2-1-11,0.2-15.7,3.4l-39.3,26.3c-9,6.1-12.2,17.3-7,25.1C21.6,246.2,25.2,248.5,29.5,249.4z"/>
	<path id="XMLID_20_" class="st1" d="M75.2,273.4c-3.2-2.6-7.4-4.5-11.9-5.4c-3.4-0.7-6-0.5-7.4-0.2c-6.8,16.7-20.6,38-31.1,50.9
		c-8,9.9-7.2,24.1,1.9,31.7c2.6,2.2,5.6,3.6,8.9,4.3c6.7,1.3,13.9-0.8,19.3-5.7c13.1-16,23.7-33.8,31.8-53
		C88,293,84.3,280.8,75.2,273.4z"/>
	<path id="XMLID_18_" class="st1" d="M106.7,319.2L106.7,319.2c-1.6-0.3-3.2-0.8-4.8-1.3c-3.1,6.3-6.6,12.4-10.6,18.2
		c-6.5,9.3-4.2,22.1,5,28.5c1.8,1.3,3.7,2.2,5.8,2.8c1.1,0.3,2.2,0.6,3.3,0.7c7.6,1,15-2.3,19.4-8.6c9.9-14.1,17.4-29.3,22.9-45.2
		C135.2,320.1,120.9,322,106.7,319.2z"/>
	<path id="XMLID_17_" class="st1" d="M159.7,208.2c-9.9,0.3-19.4-1.6-28.5-5.6c-11.2-4.9-20.6-12.8-27.5-22.5
		c-2.9,1-5.8,2.2-8.6,3.7c1.8,1.5,3.5,3.2,4.9,5.2c8.4,12.5,4,30.1-9.8,39.3L57,250.5c0,2.3,0.1,4.6,0.4,6.9c2.5-0.1,5.1,0,7.9,0.6
		c6,1.2,11.8,3.8,16.3,7.5c11.1,9,18.2,25.7,14.5,34.5c-0.6,1.4-1.3,2.8-2,4.3l0.9,0.4c4.3,2.1,8.9,3.6,13.6,4.6
		c25.5,5.1,51.3-7.8,62.6-31.2l7.9-16.4c9-18.6,6.8-39.7-3.8-55.9C170.4,207.2,165.1,208,159.7,208.2z"/>
	<path id="XMLID_8_" class="st1" d="M239.5,174c-5.2-1-11,0.2-15.7,3.4l-24.4,16.3c-2.9,2.3-6,4.3-9.2,6.1l-4.5,3
		c5.8,9.8,9,20.9,9.4,32.3c2.9-0.5,5.7-1.5,8.3-3.2l39.3-26.3c9.1-6.1,12.2-17.3,7-25.1C247.4,177.1,243.8,174.8,239.5,174z"/>
</g>
<g class="st2">
	<path class="st3" d="M109.8,562.4c-6.8-16.9-34.5-13-34.5,3.6v43.3c0,19.8,36.3,19.6,36.3,0v-4.6H91.8V578h49.9v31.4
		c0,29.1-23.8,43.7-48.7,43.7c-24.5,0-49-14.6-49-43.7V566c0-28.5,24.5-42.8,49-42.8c16.1,0,34.5,6.8,43.1,26.9L109.8,562.4z"/>
</g>
<g class="st2">
	<path class="st4" d="M188,574.6h50.3v27.6H188v18.9h54.6v30.1h-86.4V525h86.4v30H188V574.6z"/>
	<path class="st4" d="M328.5,525h36.4l-34.7,63.3l34.7,62.9h-36.4l-21.7-43l-21.2,43H249l34.9-62.9L249,525h36.6l21.2,43.1
		L328.5,525z"/>
</g>
</svg>
