<?xml version="1.0" encoding="utf-8"?>
<!-- Generator: Adobe Illustrator 19.0.0, SVG Export Plug-In . SVG Version: 6.00 Build 0)  -->
<svg version="1.1" id="Слой_1" xmlns="http://www.w3.org/2000/svg" xmlns:xlink="http://www.w3.org/1999/xlink" x="0px" y="0px"
	 viewBox="0 0 400 400" style="enable-background:new 0 0 400 400;" xml:space="preserve">
<style type="text/css">
	.st0{fill-rule:evenodd;clip-rule:evenodd;fill:#434343;}
</style>
<g id="XMLID_3_">
	<path id="XMLID_2_" class="st0" d="M363.9,289.3c-9,19.9-13.3,28.8-24.8,46.3c-16.1,24.5-38.8,55.1-66.9,55.4
		c-25,0.2-31.4-16.3-65.3-16.1c-33.9,0.2-41,16.4-66,16.2c-28.1-0.3-49.6-27.8-65.7-52.4c-45-68.6-49.7-149.1-22-191.9
		c19.7-30.4,50.9-48.2,80.1-48.2c29.8,0,48.5,16.4,73.2,16.4c23.9,0,38.5-16.4,72.9-16.4c26,0,53.6,14.2,73.3,38.7
		C288.4,172.5,298.8,264.6,363.9,289.3L363.9,289.3z"/>
	<path id="XMLID_1_" class="st0" d="M253.4,71c12.5-16.1,22-38.8,18.6-62c-20.4,1.4-44.4,14.4-58.3,31.4
		c-12.7,15.4-23.1,38.3-19.1,60.5C216.9,101.6,240,88.3,253.4,71L253.4,71z"/>
</g>
</svg>
