<?xml version="1.0" encoding="utf-8"?>
<!-- Generator: Adobe Illustrator 19.0.0, SVG Export Plug-In . SVG Version: 6.00 Build 0)  -->
<svg version="1.1" id="Слой_1" xmlns="http://www.w3.org/2000/svg" xmlns:xlink="http://www.w3.org/1999/xlink" x="0px" y="0px"
	 viewBox="0 0 1600 400" style="enable-background:new 0 0 1600 400;" xml:space="preserve">
<style type="text/css">
	.st0{fill:#434343;}
</style>
<g id="XMLID_3_">
	<path id="XMLID_2_" class="st0" d="M375.4,289.2c-9,19.9-13.3,28.8-24.8,46.3c-16.1,24.5-38.8,55.1-66.9,55.4
		c-25,0.2-31.4-16.3-65.3-16.1c-33.9,0.2-41,16.4-66,16.2c-28.1-0.3-49.6-27.8-65.7-52.4c-45-68.6-49.7-149.1-22-191.9
		c19.7-30.4,50.9-48.2,80.1-48.2c29.8,0,48.5,16.4,73.2,16.4c23.9,0,38.5-16.4,72.9-16.4c26,0,53.6,14.2,73.3,38.7
		C299.9,172.4,310.3,264.5,375.4,289.2L375.4,289.2z"/>
	<path id="XMLID_1_" class="st0" d="M264.9,70.9c12.5-16.1,22-38.8,18.6-62c-20.4,1.4-44.4,14.4-58.3,31.4
		c-12.7,15.4-23.1,38.3-19.1,60.5C228.4,101.5,251.5,88.2,264.9,70.9L264.9,70.9z"/>
</g>
<path id="XMLID_14_" class="st0" d="M1206.3,158.2c22.4,0,40.7,18.3,40.7,40.7s-18.3,40.7-40.7,40.7c-22.4,0-40.6-18.3-40.6-40.7
	C1165.7,176.4,1183.9,158.2,1206.3,158.2L1206.3,158.2z M1387.4,37.8c10,0,19.8,1,29.3,2.8c-0.2,1.7-0.2,3.5-0.2,5.2
	c0,31.2,25.5,56.7,56.7,56.7c12.3,0,23.6-3.9,32.9-10.6c21.6,24.7,35.6,56.2,38.4,90.7l-64.2,2c-5.4-46.5-45-82.7-92.9-82.7
	c-13.5,0-26.4,2.9-38,8.1l-32.1-55.6C1338.4,43.8,1362.3,37.8,1387.4,37.8L1387.4,37.8z"/>
<path id="XMLID_11_" class="st0" d="M1475.4,313.5c22.4,0,40.6,18.3,40.6,40.7c0,22.4-18.3,40.6-40.6,40.6
	c-22.4,0-40.7-18.3-40.7-40.6C1434.7,331.8,1453,313.5,1475.4,313.5L1475.4,313.5z M1297.5,324.6c-27.4-19.1-48.5-46.7-59.4-78.9
	c15-10.2,24.8-27.4,24.8-46.8c0-20.2-10.7-38-26.7-48c10.1-34.1,31.4-63.4,59.7-83.7l33.8,54.6c-21.9,17.1-35.9,43.8-35.9,73.6
	c0,29.6,13.8,56,35.4,73.1L1297.5,324.6L1297.5,324.6z"/>
<path id="XMLID_8_" class="st0" d="M1544.6,206.5c-2.6,37.6-18.5,71.6-43.1,97.4c-7.8-4.1-16.7-6.4-26.2-6.4
	c-29.8,0-54.3,23.1-56.5,52.4c-10.2,2.1-20.7,3.2-31.4,3.2c-24.7,0-48.1-5.7-68.9-15.9l32-55.8c11.3,4.9,23.8,7.6,36.9,7.6
	c48.1,0,87.9-36.6,93-83.4L1544.6,206.5L1544.6,206.5z M1473.2,5.2c22.4,0,40.7,18.3,40.7,40.6c0,22.4-18.3,40.7-40.7,40.7
	c-22.4,0-40.6-18.3-40.6-40.7C1432.5,23.4,1450.8,5.2,1473.2,5.2L1473.2,5.2z"/>
<g id="XMLID_4_">
	<polygon id="XMLID_17_" class="st0" points="971.1,197.6 971.1,24 771.7,53.1 771.7,197.6 	"/>
	<polygon id="XMLID_13_" class="st0" points="757.7,55.2 612.9,76.3 612.9,197.6 757.7,197.6 	"/>
	<polygon id="XMLID_9_" class="st0" points="612.9,211.7 612.9,334.5 757.7,355.9 757.7,211.7 	"/>
	<polygon id="XMLID_5_" class="st0" points="771.7,357.9 971.1,387.4 971.1,211.7 771.7,211.7 	"/>
</g>
</svg>
