<?xml version="1.0" encoding="utf-8"?>
<!-- Generator: Adobe Illustrator 19.0.0, SVG Export Plug-In . SVG Version: 6.00 Build 0)  -->
<svg version="1.1" id="Слой_1" xmlns="http://www.w3.org/2000/svg" xmlns:xlink="http://www.w3.org/1999/xlink" x="0px" y="0px"
	 viewBox="0 0 1920 1080" style="enable-background:new 0 0 1920 1080;" xml:space="preserve">
<style type="text/css">
	.st0{fill:#999999;stroke:#434343;stroke-width:2;stroke-miterlimit:10;}
	.st1{fill:none;stroke:#434343;stroke-width:2;stroke-miterlimit:10;}
</style>
<ellipse id="XMLID_10_" transform="matrix(0.9191 0.3941 -0.3941 0.9191 131.9097 -88.2955)" class="st0" cx="281" cy="277.1" rx="10.1" ry="15.4"/>
<ellipse id="XMLID_9_" transform="matrix(0.9682 -0.2502 0.2502 0.9682 -52.0676 93.4737)" class="st1" cx="341.7" cy="251.6" rx="164.7" ry="38"/>
<path id="XMLID_8_" class="st0" d="M317.7,159c-32,8.3-51.6,39.9-43.6,70.6c2.5,9.6,7.3,17.9,13.8,24.6
	c33.6,1.2,73.7-10.1,102.5-28.4c1.9-8.4,1.9-17.3-0.4-26.2C382.2,168.9,349.8,150.7,317.7,159z"/>
<path id="XMLID_45_" class="st1" d="M230.7,306.8c24.8,31.1,79.2,44.3,135.8,29.7c57.5-14.9,99.1-53.7,104.7-93.6
	c-27.1,15.8-70.2,32.6-120.1,45.5C304.7,300.4,261.7,306.6,230.7,306.8z"/>
<line id="XMLID_7_" class="st1" x1="317.6" y1="159.2" x2="310.4" y2="131.1"/>
<circle id="XMLID_40_" class="st1" cx="309.3" cy="126.8" r="4.5"/>
<ellipse id="XMLID_6_" transform="matrix(0.9682 -0.2502 0.2502 0.9682 -56.0667 95.0885)" class="st0" cx="346" cy="268.1" rx="10.1" ry="15.4"/>
<ellipse id="XMLID_11_" transform="matrix(0.3941 -0.9191 0.9191 0.3941 22.031 519.9648)" class="st0" cx="405.4" cy="243.3" rx="10.1" ry="15.4"/>
</svg>
