<?xml version="1.0" encoding="utf-8"?>
<!-- Generator: Adobe Illustrator 19.0.0, SVG Export Plug-In . SVG Version: 6.00 Build 0)  -->
<svg version="1.1" id="Слой_1" xmlns="http://www.w3.org/2000/svg" xmlns:xlink="http://www.w3.org/1999/xlink" x="0px" y="0px"
	 viewBox="0 0 500 500" style="enable-background:new 0 0 500 500;" xml:space="preserve">
<style type="text/css">
	.st0{fill:#F9B9B9;stroke:#D62222;stroke-width:10;stroke-miterlimit:10;}
	.st1{fill-rule:evenodd;clip-rule:evenodd;fill:#F9B9B9;stroke:#D62222;stroke-width:2;stroke-miterlimit:10;}
</style>
<g>
	<path class="st0" d="M57,57h183.6c0,61.2,0,122.4,0,183.6c-61.2,0-122.4,0-183.6,0V57L57,57z"/>
	<path class="st0" d="M259.4,57H443c0,61.2,0,122.4,0,183.6c-61.2,0-122.4,0-183.6,0C259.4,179.4,259.4,118.2,259.4,57L259.4,57z"/>
	<path class="st0" d="M57,259.4c61.2,0,122.4,0,183.6,0c0,61.2,0,122.4,0,183.6H57V259.4L57,259.4z"/>
	<path class="st0" d="M259.4,259.4c61.2,0,122.4,0,183.6,0c0,61.2,0,122.4,0,183.6H259.4C259.4,381.8,259.4,320.6,259.4,259.4
		L259.4,259.4z"/>
</g>
<path id="XMLID_1_" class="st1" d="M632.3,162.2c14.3-18.3,25.1-44.2,21.2-70.7c-23.3,1.6-50.6,16.5-66.5,35.8
	c-14.5,17.6-26.4,43.6-21.7,69C590.7,197.1,617.1,181.8,632.3,162.2L632.3,162.2z"/>
</svg>
